# MagicaVoxel @ Ephtracy

# group
o 

# material
mtllib UI.mtl
usemtl palette

# normals
vn 1 0 0
vn -1 0 0
vn 0 0 -1
vn 0 0 1
vn 0 -1 0
vn 0 1 0

# texcoords
vt 0.689453 0.5
vt 0.720703 0.5
vt 0.724609 0.5

# verts
v 1.8 0 -0.2
v 1.8 0 -0.1
v 1.8 0 0.1
v 1.8 0 0.2
v 1.8 0.1 -0.2
v 1.8 0.1 -0.1
v 1.8 0.1 0.1
v 1.8 0.1 0.2
v 1.7 0 -0.3
v 1.7 0 -0.2
v 1.7 0 0.2
v 1.7 0 0.3
v 1.7 0.1 -0.3
v 1.7 0.1 -0.2
v 1.7 0.1 0.2
v 1.7 0.1 0.3
v -1.6 0 -0.3
v -1.6 0 -0.2
v -1.6 0 0.2
v -1.6 0 0.3
v -1.6 0.1 -0.3
v -1.6 0.1 -0.2
v -1.6 0.1 0.2
v -1.6 0.1 0.3
v -1.7 0 -0.2
v -1.7 0 -0.1
v -1.7 0 0.1
v -1.7 0 0.2
v -1.7 0.1 -0.2
v -1.7 0.1 -0.1
v -1.7 0.1 0.1
v -1.7 0.1 0.2
v 1.7 0 -0.3
v 1.7 0.1 -0.3
v 1.4 0 -0.3
v 1.4 0.1 -0.3
v 1.1 0 -0.3
v 1.1 0.1 -0.3
v 1 0 -0.3
v 1 0.1 -0.3
v 0.9 0 -0.3
v 0.9 0.1 -0.3
v 0.8 0 -0.3
v 0.8 0.1 -0.3
v 0.4 0 -0.3
v 0.4 0.1 -0.3
v 0.3 0 -0.3
v 0.3 0.1 -0.3
v -0.2 0 -0.3
v -0.2 0.1 -0.3
v -0.3 0 -0.3
v -0.3 0.1 -0.3
v -0.5 0 -0.3
v -0.5 0.1 -0.3
v -0.6 0 -0.3
v -0.6 0.1 -0.3
v -0.9 0 -0.3
v -0.9 0.1 -0.3
v -1 0 -0.3
v -1 0.1 -0.3
v -1.3 0 -0.3
v -1.3 0.1 -0.3
v -1.6 0 -0.3
v -1.6 0.1 -0.3
v 1.8 0 -0.2
v 1.8 0.1 -0.2
v 1.7 0 -0.2
v 1.7 0.1 -0.2
v -1.6 0 -0.2
v -1.6 0.1 -0.2
v -1.7 0 -0.2
v -1.7 0.1 -0.2
v 1.8 0 0.2
v 1.8 0.1 0.2
v 1.7 0 0.2
v 1.7 0.1 0.2
v -1.6 0 0.2
v -1.6 0.1 0.2
v -1.7 0 0.2
v -1.7 0.1 0.2
v 1.7 0 0.3
v 1.7 0.1 0.3
v 1.4 0 0.3
v 1.4 0.1 0.3
v 1.2 0 0.3
v 1.2 0.1 0.3
v 1.1 0 0.3
v 1.1 0.1 0.3
v 0.9 0 0.3
v 0.9 0.1 0.3
v 0.8 0 0.3
v 0.8 0.1 0.3
v 0.7 0 0.3
v 0.7 0.1 0.3
v 0.6 0 0.3
v 0.6 0.1 0.3
v 0.2 0 0.3
v 0.2 0.1 0.3
v 0.1 0 0.3
v 0.1 0.1 0.3
v -0.0999999 0 0.3
v -0.0999999 0.1 0.3
v -0.2 0 0.3
v -0.2 0.1 0.3
v -0.5 0 0.3
v -0.5 0.1 0.3
v -0.6 0 0.3
v -0.6 0.1 0.3
v -0.7 0 0.3
v -0.7 0.1 0.3
v -0.8 0 0.3
v -0.8 0.1 0.3
v -1 0 0.3
v -1 0.1 0.3
v -1.2 0 0.3
v -1.2 0.1 0.3
v -1.3 0 0.3
v -1.3 0.1 0.3
v -1.6 0 0.3
v -1.6 0.1 0.3
v 1.7 0 -0.3
v 1.4 0 -0.3
v 1.1 0 -0.3
v 1 0 -0.3
v 0.9 0 -0.3
v 0.8 0 -0.3
v 0.4 0 -0.3
v 0.3 0 -0.3
v -0.2 0 -0.3
v -0.3 0 -0.3
v -0.5 0 -0.3
v -0.6 0 -0.3
v -0.9 0 -0.3
v -1 0 -0.3
v -1.3 0 -0.3
v -1.6 0 -0.3
v 1.8 0 -0.2
v 1.7 0 -0.2
v 1.6 0 -0.2
v 1.5 0 -0.2
v 1.4 0 -0.2
v 1.3 0 -0.2
v 1.2 0 -0.2
v 1.1 0 -0.2
v 1 0 -0.2
v 0.9 0 -0.2
v 0.8 0 -0.2
v 0.7 0 -0.2
v 0.5 0 -0.2
v 0.4 0 -0.2
v 0.3 0 -0.2
v -0.2 0 -0.2
v -0.3 0 -0.2
v -0.5 0 -0.2
v -0.6 0 -0.2
v -0.7 0 -0.2
v -0.8 0 -0.2
v -0.9 0 -0.2
v -1 0 -0.2
v -1.2 0 -0.2
v -1.3 0 -0.2
v -1.4 0 -0.2
v -1.5 0 -0.2
v -1.6 0 -0.2
v -1.7 0 -0.2
v 1.8 0 -0.1
v 1.7 0 -0.1
v 1.6 0 -0.1
v 1.5 0 -0.1
v 1.4 0 -0.1
v 1.3 0 -0.1
v 1.2 0 -0.1
v 0.8 0 -0.1
v 0.7 0 -0.1
v 0.5 0 -0.1
v 0.4 0 -0.1
v -0.2 0 -0.1
v -0.3 0 -0.1
v -0.7 0 -0.1
v -0.8 0 -0.1
v -1.2 0 -0.1
v -1.4 0 -0.1
v -1.5 0 -0.1
v -1.6 0 -0.1
v -1.7 0 -0.1
v 1.8 0 0.1
v 1.7 0 0.1
v 1.6 0 0.1
v 1.2 0 0.1
v 1.1 0 0.1
v 0.1 0 0.1
v 1.19209e-07 0 0.1
v -0.5 0 0.1
v -0.6 0 0.1
v -0.9 0 0.1
v -1.1 0 0.1
v -1.5 0 0.1
v -1.6 0 0.1
v -1.7 0 0.1
v 1.8 0 0.2
v 1.7 0 0.2
v 1.6 0 0.2
v 1.4 0 0.2
v 1.2 0 0.2
v 1.1 0 0.2
v 0.9 0 0.2
v 0.8 0 0.2
v 0.7 0 0.2
v 0.6 0 0.2
v 0.2 0 0.2
v 0.1 0 0.2
v 1.19209e-07 0 0.2
v -0.0999999 0 0.2
v -0.2 0 0.2
v -0.5 0 0.2
v -0.6 0 0.2
v -0.7 0 0.2
v -0.8 0 0.2
v -0.9 0 0.2
v -1 0 0.2
v -1.1 0 0.2
v -1.2 0 0.2
v -1.3 0 0.2
v -1.5 0 0.2
v -1.6 0 0.2
v -1.7 0 0.2
v 1.7 0 0.3
v 1.4 0 0.3
v 1.2 0 0.3
v 1.1 0 0.3
v 0.9 0 0.3
v 0.8 0 0.3
v 0.7 0 0.3
v 0.6 0 0.3
v 0.2 0 0.3
v 0.1 0 0.3
v -0.0999999 0 0.3
v -0.2 0 0.3
v -0.5 0 0.3
v -0.6 0 0.3
v -0.7 0 0.3
v -0.8 0 0.3
v -1 0 0.3
v -1.2 0 0.3
v -1.3 0 0.3
v -1.6 0 0.3
v 1.7 0.1 -0.3
v 1.4 0.1 -0.3
v 1.1 0.1 -0.3
v 1 0.1 -0.3
v 0.9 0.1 -0.3
v 0.8 0.1 -0.3
v 0.4 0.1 -0.3
v 0.3 0.1 -0.3
v -0.2 0.1 -0.3
v -0.3 0.1 -0.3
v -0.5 0.1 -0.3
v -0.6 0.1 -0.3
v -0.9 0.1 -0.3
v -1 0.1 -0.3
v -1.3 0.1 -0.3
v -1.6 0.1 -0.3
v 1.8 0.1 -0.2
v 1.7 0.1 -0.2
v 1.6 0.1 -0.2
v 1.5 0.1 -0.2
v 1.4 0.1 -0.2
v 1.3 0.1 -0.2
v 1.2 0.1 -0.2
v 1.1 0.1 -0.2
v 1 0.1 -0.2
v 0.9 0.1 -0.2
v 0.8 0.1 -0.2
v 0.7 0.1 -0.2
v 0.5 0.1 -0.2
v 0.4 0.1 -0.2
v 0.3 0.1 -0.2
v -0.2 0.1 -0.2
v -0.3 0.1 -0.2
v -0.5 0.1 -0.2
v -0.6 0.1 -0.2
v -0.7 0.1 -0.2
v -0.8 0.1 -0.2
v -0.9 0.1 -0.2
v -1 0.1 -0.2
v -1.2 0.1 -0.2
v -1.3 0.1 -0.2
v -1.4 0.1 -0.2
v -1.5 0.1 -0.2
v -1.6 0.1 -0.2
v -1.7 0.1 -0.2
v 1.8 0.1 -0.1
v 1.7 0.1 -0.1
v 1.6 0.1 -0.1
v 1.5 0.1 -0.1
v 1.4 0.1 -0.1
v 1.3 0.1 -0.1
v 1.2 0.1 -0.1
v 0.8 0.1 -0.1
v 0.7 0.1 -0.1
v 0.5 0.1 -0.1
v 0.4 0.1 -0.1
v -0.2 0.1 -0.1
v -0.3 0.1 -0.1
v -0.7 0.1 -0.1
v -0.8 0.1 -0.1
v -1.2 0.1 -0.1
v -1.4 0.1 -0.1
v -1.5 0.1 -0.1
v -1.6 0.1 -0.1
v -1.7 0.1 -0.1
v 1.8 0.1 0.1
v 1.7 0.1 0.1
v 1.6 0.1 0.1
v 1.2 0.1 0.1
v 1.1 0.1 0.1
v 0.1 0.1 0.1
v 1.19209e-07 0.1 0.1
v -0.5 0.1 0.1
v -0.6 0.1 0.1
v -0.9 0.1 0.1
v -1.1 0.1 0.1
v -1.5 0.1 0.1
v -1.6 0.1 0.1
v -1.7 0.1 0.1
v 1.8 0.1 0.2
v 1.7 0.1 0.2
v 1.6 0.1 0.2
v 1.4 0.1 0.2
v 1.2 0.1 0.2
v 1.1 0.1 0.2
v 0.9 0.1 0.2
v 0.8 0.1 0.2
v 0.7 0.1 0.2
v 0.6 0.1 0.2
v 0.2 0.1 0.2
v 0.1 0.1 0.2
v 1.19209e-07 0.1 0.2
v -0.0999999 0.1 0.2
v -0.2 0.1 0.2
v -0.5 0.1 0.2
v -0.6 0.1 0.2
v -0.7 0.1 0.2
v -0.8 0.1 0.2
v -0.9 0.1 0.2
v -1 0.1 0.2
v -1.1 0.1 0.2
v -1.2 0.1 0.2
v -1.3 0.1 0.2
v -1.5 0.1 0.2
v -1.6 0.1 0.2
v -1.7 0.1 0.2
v 1.7 0.1 0.3
v 1.4 0.1 0.3
v 1.2 0.1 0.3
v 1.1 0.1 0.3
v 0.9 0.1 0.3
v 0.8 0.1 0.3
v 0.7 0.1 0.3
v 0.6 0.1 0.3
v 0.2 0.1 0.3
v 0.1 0.1 0.3
v -0.0999999 0.1 0.3
v -0.2 0.1 0.3
v -0.5 0.1 0.3
v -0.6 0.1 0.3
v -0.7 0.1 0.3
v -0.8 0.1 0.3
v -1 0.1 0.3
v -1.2 0.1 0.3
v -1.3 0.1 0.3
v -1.6 0.1 0.3

# faces
f 5/1/1 2/1/1 1/1/1
f 6/2/1 3/2/1 2/2/1
f 6/1/1 2/1/1 5/1/1
f 7/1/1 4/1/1 3/1/1
f 7/2/1 3/2/1 6/2/1
f 8/1/1 4/1/1 7/1/1
f 13/1/1 10/1/1 9/1/1
f 14/1/1 10/1/1 13/1/1
f 15/1/1 12/1/1 11/1/1
f 16/1/1 12/1/1 15/1/1
f 17/1/2 18/1/2 21/1/2
f 21/1/2 18/1/2 22/1/2
f 19/1/2 20/1/2 23/1/2
f 23/1/2 20/1/2 24/1/2
f 25/1/2 26/1/2 29/1/2
f 26/2/2 27/2/2 30/2/2
f 29/1/2 26/1/2 30/1/2
f 27/1/2 28/1/2 31/1/2
f 30/2/2 27/2/2 31/2/2
f 31/1/2 28/1/2 32/1/2
f 35/1/3 34/1/3 33/1/3
f 36/1/3 34/1/3 35/1/3
f 37/2/3 36/2/3 35/2/3
f 38/2/3 36/2/3 37/2/3
f 39/1/3 38/1/3 37/1/3
f 40/1/3 38/1/3 39/1/3
f 41/2/3 40/2/3 39/2/3
f 42/2/3 40/2/3 41/2/3
f 43/1/3 42/1/3 41/1/3
f 44/1/3 42/1/3 43/1/3
f 45/2/3 44/2/3 43/2/3
f 46/2/3 44/2/3 45/2/3
f 47/1/3 46/1/3 45/1/3
f 48/1/3 46/1/3 47/1/3
f 49/2/3 48/2/3 47/2/3
f 50/2/3 48/2/3 49/2/3
f 51/1/3 50/1/3 49/1/3
f 52/1/3 50/1/3 51/1/3
f 53/2/3 52/2/3 51/2/3
f 54/2/3 52/2/3 53/2/3
f 55/1/3 54/1/3 53/1/3
f 56/1/3 54/1/3 55/1/3
f 57/2/3 56/2/3 55/2/3
f 58/2/3 56/2/3 57/2/3
f 59/1/3 58/1/3 57/1/3
f 60/1/3 58/1/3 59/1/3
f 61/2/3 60/2/3 59/2/3
f 62/2/3 60/2/3 61/2/3
f 63/1/3 62/1/3 61/1/3
f 64/1/3 62/1/3 63/1/3
f 67/1/3 66/1/3 65/1/3
f 68/1/3 66/1/3 67/1/3
f 71/1/3 70/1/3 69/1/3
f 72/1/3 70/1/3 71/1/3
f 73/1/4 74/1/4 75/1/4
f 75/1/4 74/1/4 76/1/4
f 77/1/4 78/1/4 79/1/4
f 79/1/4 78/1/4 80/1/4
f 81/1/4 82/1/4 83/1/4
f 83/1/4 82/1/4 84/1/4
f 83/2/4 84/2/4 85/2/4
f 85/2/4 84/2/4 86/2/4
f 85/1/4 86/1/4 87/1/4
f 87/1/4 86/1/4 88/1/4
f 87/2/4 88/2/4 89/2/4
f 89/2/4 88/2/4 90/2/4
f 89/1/4 90/1/4 91/1/4
f 91/1/4 90/1/4 92/1/4
f 91/2/4 92/2/4 93/2/4
f 93/2/4 92/2/4 94/2/4
f 93/1/4 94/1/4 95/1/4
f 95/1/4 94/1/4 96/1/4
f 95/2/4 96/2/4 97/2/4
f 97/2/4 96/2/4 98/2/4
f 97/1/4 98/1/4 99/1/4
f 99/1/4 98/1/4 100/1/4
f 99/2/4 100/2/4 101/2/4
f 101/2/4 100/2/4 102/2/4
f 101/1/4 102/1/4 103/1/4
f 103/1/4 102/1/4 104/1/4
f 103/2/4 104/2/4 105/2/4
f 105/2/4 104/2/4 106/2/4
f 105/1/4 106/1/4 107/1/4
f 107/1/4 106/1/4 108/1/4
f 107/2/4 108/2/4 109/2/4
f 109/2/4 108/2/4 110/2/4
f 109/1/4 110/1/4 111/1/4
f 111/1/4 110/1/4 112/1/4
f 111/2/4 112/2/4 113/2/4
f 113/2/4 112/2/4 114/2/4
f 113/1/4 114/1/4 115/1/4
f 115/1/4 114/1/4 116/1/4
f 115/2/4 116/2/4 117/2/4
f 117/2/4 116/2/4 118/2/4
f 117/1/4 118/1/4 119/1/4
f 119/1/4 118/1/4 120/1/4
f 138/1/5 122/1/5 121/1/5
f 139/1/5 122/1/5 138/1/5
f 140/1/5 122/1/5 139/1/5
f 141/2/5 123/2/5 122/2/5
f 141/1/5 122/1/5 140/1/5
f 142/2/5 123/2/5 141/2/5
f 143/2/5 123/2/5 142/2/5
f 144/1/5 124/1/5 123/1/5
f 144/2/5 123/2/5 143/2/5
f 145/2/5 125/2/5 124/2/5
f 145/1/5 124/1/5 144/1/5
f 146/1/5 126/1/5 125/1/5
f 146/2/5 125/2/5 145/2/5
f 147/2/5 127/2/5 126/2/5
f 147/1/5 126/1/5 146/1/5
f 148/2/5 127/2/5 147/2/5
f 149/2/5 127/2/5 148/2/5
f 150/1/5 128/1/5 127/1/5
f 150/2/5 127/2/5 149/2/5
f 151/2/5 129/2/5 128/2/5
f 151/1/5 128/1/5 150/1/5
f 152/1/5 130/1/5 129/1/5
f 152/2/5 129/2/5 151/2/5
f 153/2/5 131/2/5 130/2/5
f 153/1/5 130/1/5 152/1/5
f 154/1/5 132/1/5 131/1/5
f 154/2/5 131/2/5 153/2/5
f 155/2/5 133/2/5 132/2/5
f 155/1/5 132/1/5 154/1/5
f 156/2/5 133/2/5 155/2/5
f 157/2/5 133/2/5 156/2/5
f 158/1/5 134/1/5 133/1/5
f 158/2/5 133/2/5 157/2/5
f 159/2/5 135/2/5 134/2/5
f 159/1/5 134/1/5 158/1/5
f 160/2/5 135/2/5 159/2/5
f 161/1/5 136/1/5 135/1/5
f 161/2/5 135/2/5 160/2/5
f 162/1/5 136/1/5 161/1/5
f 163/1/5 136/1/5 162/1/5
f 164/1/5 136/1/5 163/1/5
f 166/1/5 138/1/5 137/1/5
f 167/2/5 139/2/5 138/2/5
f 167/1/5 138/1/5 166/1/5
f 168/3/5 140/3/5 139/3/5
f 168/2/5 139/2/5 167/2/5
f 169/2/5 141/2/5 140/2/5
f 169/3/5 140/3/5 168/3/5
f 170/3/5 142/3/5 141/3/5
f 170/2/5 141/2/5 169/2/5
f 171/2/5 143/2/5 142/2/5
f 171/3/5 142/3/5 170/3/5
f 172/3/5 144/3/5 143/3/5
f 172/2/5 143/2/5 171/2/5
f 172/3/5 145/3/5 144/3/5
f 172/3/5 146/3/5 145/3/5
f 172/3/5 147/3/5 146/3/5
f 173/2/5 148/2/5 147/2/5
f 173/3/5 147/3/5 172/3/5
f 174/3/5 149/3/5 148/3/5
f 174/2/5 148/2/5 173/2/5
f 175/2/5 150/2/5 149/2/5
f 175/3/5 149/3/5 174/3/5
f 176/3/5 151/3/5 150/3/5
f 176/2/5 150/2/5 175/2/5
f 176/3/5 152/3/5 151/3/5
f 177/2/5 153/2/5 152/2/5
f 177/3/5 152/3/5 176/3/5
f 178/3/5 154/3/5 153/3/5
f 178/2/5 153/2/5 177/2/5
f 178/3/5 155/3/5 154/3/5
f 178/3/5 156/3/5 155/3/5
f 179/2/5 157/2/5 156/2/5
f 179/3/5 156/3/5 178/3/5
f 180/3/5 160/3/5 159/3/5
f 180/2/5 157/2/5 179/2/5
f 180/3/5 158/3/5 157/3/5
f 180/3/5 159/3/5 158/3/5
f 181/2/5 161/2/5 160/2/5
f 181/3/5 160/3/5 180/3/5
f 181/2/5 162/2/5 161/2/5
f 182/3/5 163/3/5 162/3/5
f 182/2/5 162/2/5 181/2/5
f 183/2/5 164/2/5 163/2/5
f 183/3/5 163/3/5 182/3/5
f 184/1/5 165/1/5 164/1/5
f 184/2/5 164/2/5 183/2/5
f 185/1/5 165/1/5 184/1/5
f 186/2/5 167/2/5 166/2/5
f 187/3/5 179/3/5 178/3/5
f 187/2/5 167/2/5 186/2/5
f 187/3/5 170/3/5 169/3/5
f 187/3/5 171/3/5 170/3/5
f 187/3/5 184/3/5 183/3/5
f 187/3/5 169/3/5 168/3/5
f 187/3/5 168/3/5 167/3/5
f 187/3/5 182/3/5 181/3/5
f 187/3/5 183/3/5 182/3/5
f 187/3/5 181/3/5 180/3/5
f 187/3/5 172/3/5 171/3/5
f 187/3/5 178/3/5 177/3/5
f 187/3/5 177/3/5 176/3/5
f 187/3/5 176/3/5 175/3/5
f 187/3/5 180/3/5 179/3/5
f 187/3/5 175/3/5 174/3/5
f 187/3/5 174/3/5 173/3/5
f 187/3/5 173/3/5 172/3/5
f 188/3/5 184/3/5 187/3/5
f 189/3/5 184/3/5 188/3/5
f 190/3/5 184/3/5 189/3/5
f 191/3/5 184/3/5 190/3/5
f 192/3/5 184/3/5 191/3/5
f 193/3/5 184/3/5 192/3/5
f 194/3/5 184/3/5 193/3/5
f 195/3/5 184/3/5 194/3/5
f 196/3/5 184/3/5 195/3/5
f 197/3/5 184/3/5 196/3/5
f 198/2/5 185/2/5 184/2/5
f 198/3/5 184/3/5 197/3/5
f 199/2/5 185/2/5 198/2/5
f 200/1/5 187/1/5 186/1/5
f 201/2/5 188/2/5 187/2/5
f 201/1/5 187/1/5 200/1/5
f 202/3/5 189/3/5 188/3/5
f 202/2/5 188/2/5 201/2/5
f 203/3/5 189/3/5 202/3/5
f 204/2/5 190/2/5 189/2/5
f 204/3/5 189/3/5 203/3/5
f 205/3/5 191/3/5 190/3/5
f 205/2/5 190/2/5 204/2/5
f 206/3/5 191/3/5 205/3/5
f 207/3/5 191/3/5 206/3/5
f 208/3/5 191/3/5 207/3/5
f 209/3/5 191/3/5 208/3/5
f 210/3/5 191/3/5 209/3/5
f 211/2/5 192/2/5 191/2/5
f 211/3/5 191/3/5 210/3/5
f 212/3/5 193/3/5 192/3/5
f 212/2/5 192/2/5 211/2/5
f 213/3/5 193/3/5 212/3/5
f 214/3/5 193/3/5 213/3/5
f 215/2/5 194/2/5 193/2/5
f 215/3/5 193/3/5 214/3/5
f 216/3/5 195/3/5 194/3/5
f 216/2/5 194/2/5 215/2/5
f 217/3/5 195/3/5 216/3/5
f 218/3/5 195/3/5 217/3/5
f 219/2/5 196/2/5 195/2/5
f 219/3/5 195/3/5 218/3/5
f 220/2/5 196/2/5 219/2/5
f 221/3/5 197/3/5 196/3/5
f 221/2/5 196/2/5 220/2/5
f 222/3/5 197/3/5 221/3/5
f 223/3/5 197/3/5 222/3/5
f 224/2/5 198/2/5 197/2/5
f 224/3/5 197/3/5 223/3/5
f 225/1/5 199/1/5 198/1/5
f 225/2/5 198/2/5 224/2/5
f 226/1/5 199/1/5 225/1/5
f 227/1/5 203/1/5 202/1/5
f 227/1/5 202/1/5 201/1/5
f 228/2/5 204/2/5 203/2/5
f 228/1/5 203/1/5 227/1/5
f 229/1/5 205/1/5 204/1/5
f 229/2/5 204/2/5 228/2/5
f 230/2/5 206/2/5 205/2/5
f 230/1/5 205/1/5 229/1/5
f 231/1/5 207/1/5 206/1/5
f 231/2/5 206/2/5 230/2/5
f 232/2/5 208/2/5 207/2/5
f 232/1/5 207/1/5 231/1/5
f 233/1/5 209/1/5 208/1/5
f 233/2/5 208/2/5 232/2/5
f 234/2/5 210/2/5 209/2/5
f 234/1/5 209/1/5 233/1/5
f 235/1/5 211/1/5 210/1/5
f 235/2/5 210/2/5 234/2/5
f 236/2/5 212/2/5 211/2/5
f 236/1/5 211/1/5 235/1/5
f 236/2/5 213/2/5 212/2/5
f 237/1/5 214/1/5 213/1/5
f 237/2/5 213/2/5 236/2/5
f 238/2/5 215/2/5 214/2/5
f 238/1/5 214/1/5 237/1/5
f 239/1/5 216/1/5 215/1/5
f 239/2/5 215/2/5 238/2/5
f 240/2/5 217/2/5 216/2/5
f 240/1/5 216/1/5 239/1/5
f 241/1/5 218/1/5 217/1/5
f 241/2/5 217/2/5 240/2/5
f 242/2/5 220/2/5 219/2/5
f 242/1/5 218/1/5 241/1/5
f 242/2/5 219/2/5 218/2/5
f 243/1/5 222/1/5 221/1/5
f 243/2/5 220/2/5 242/2/5
f 243/1/5 221/1/5 220/1/5
f 244/2/5 223/2/5 222/2/5
f 244/1/5 222/1/5 243/1/5
f 245/1/5 225/1/5 224/1/5
f 245/2/5 223/2/5 244/2/5
f 245/1/5 224/1/5 223/1/5
f 246/1/5 225/1/5 245/1/5
f 247/1/6 248/1/6 264/1/6
f 264/1/6 248/1/6 265/1/6
f 265/1/6 248/1/6 266/1/6
f 248/2/6 249/2/6 267/2/6
f 266/1/6 248/1/6 267/1/6
f 267/2/6 249/2/6 268/2/6
f 268/2/6 249/2/6 269/2/6
f 249/1/6 250/1/6 270/1/6
f 269/2/6 249/2/6 270/2/6
f 250/2/6 251/2/6 271/2/6
f 270/1/6 250/1/6 271/1/6
f 251/1/6 252/1/6 272/1/6
f 271/2/6 251/2/6 272/2/6
f 252/2/6 253/2/6 273/2/6
f 272/1/6 252/1/6 273/1/6
f 273/2/6 253/2/6 274/2/6
f 274/2/6 253/2/6 275/2/6
f 253/1/6 254/1/6 276/1/6
f 275/2/6 253/2/6 276/2/6
f 254/2/6 255/2/6 277/2/6
f 276/1/6 254/1/6 277/1/6
f 255/1/6 256/1/6 278/1/6
f 277/2/6 255/2/6 278/2/6
f 256/2/6 257/2/6 279/2/6
f 278/1/6 256/1/6 279/1/6
f 257/1/6 258/1/6 280/1/6
f 279/2/6 257/2/6 280/2/6
f 258/2/6 259/2/6 281/2/6
f 280/1/6 258/1/6 281/1/6
f 281/2/6 259/2/6 282/2/6
f 282/2/6 259/2/6 283/2/6
f 259/1/6 260/1/6 284/1/6
f 283/2/6 259/2/6 284/2/6
f 260/2/6 261/2/6 285/2/6
f 284/1/6 260/1/6 285/1/6
f 285/2/6 261/2/6 286/2/6
f 261/1/6 262/1/6 287/1/6
f 286/2/6 261/2/6 287/2/6
f 287/1/6 262/1/6 288/1/6
f 288/1/6 262/1/6 289/1/6
f 289/1/6 262/1/6 290/1/6
f 263/1/6 264/1/6 292/1/6
f 264/2/6 265/2/6 293/2/6
f 292/1/6 264/1/6 293/1/6
f 265/3/6 266/3/6 294/3/6
f 293/2/6 265/2/6 294/2/6
f 266/2/6 267/2/6 295/2/6
f 294/3/6 266/3/6 295/3/6
f 267/3/6 268/3/6 296/3/6
f 295/2/6 267/2/6 296/2/6
f 268/2/6 269/2/6 297/2/6
f 296/3/6 268/3/6 297/3/6
f 269/3/6 270/3/6 298/3/6
f 297/2/6 269/2/6 298/2/6
f 270/3/6 271/3/6 298/3/6
f 271/3/6 272/3/6 298/3/6
f 272/3/6 273/3/6 298/3/6
f 273/2/6 274/2/6 299/2/6
f 298/3/6 273/3/6 299/3/6
f 274/3/6 275/3/6 300/3/6
f 299/2/6 274/2/6 300/2/6
f 275/2/6 276/2/6 301/2/6
f 300/3/6 275/3/6 301/3/6
f 276/3/6 277/3/6 302/3/6
f 301/2/6 276/2/6 302/2/6
f 277/3/6 278/3/6 302/3/6
f 278/2/6 279/2/6 303/2/6
f 302/3/6 278/3/6 303/3/6
f 279/3/6 280/3/6 304/3/6
f 303/2/6 279/2/6 304/2/6
f 280/3/6 281/3/6 304/3/6
f 281/3/6 282/3/6 304/3/6
f 282/2/6 283/2/6 305/2/6
f 304/3/6 282/3/6 305/3/6
f 285/3/6 286/3/6 306/3/6
f 305/2/6 283/2/6 306/2/6
f 283/3/6 284/3/6 306/3/6
f 284/3/6 285/3/6 306/3/6
f 286/2/6 287/2/6 307/2/6
f 306/3/6 286/3/6 307/3/6
f 287/2/6 288/2/6 307/2/6
f 288/3/6 289/3/6 308/3/6
f 307/2/6 288/2/6 308/2/6
f 289/2/6 290/2/6 309/2/6
f 308/3/6 289/3/6 309/3/6
f 290/1/6 291/1/6 310/1/6
f 309/2/6 290/2/6 310/2/6
f 310/1/6 291/1/6 311/1/6
f 292/2/6 293/2/6 312/2/6
f 304/3/6 305/3/6 313/3/6
f 312/2/6 293/2/6 313/2/6
f 295/3/6 296/3/6 313/3/6
f 296/3/6 297/3/6 313/3/6
f 309/3/6 310/3/6 313/3/6
f 294/3/6 295/3/6 313/3/6
f 293/3/6 294/3/6 313/3/6
f 307/3/6 308/3/6 313/3/6
f 308/3/6 309/3/6 313/3/6
f 306/3/6 307/3/6 313/3/6
f 297/3/6 298/3/6 313/3/6
f 303/3/6 304/3/6 313/3/6
f 302/3/6 303/3/6 313/3/6
f 301/3/6 302/3/6 313/3/6
f 305/3/6 306/3/6 313/3/6
f 300/3/6 301/3/6 313/3/6
f 299/3/6 300/3/6 313/3/6
f 298/3/6 299/3/6 313/3/6
f 313/3/6 310/3/6 314/3/6
f 314/3/6 310/3/6 315/3/6
f 315/3/6 310/3/6 316/3/6
f 316/3/6 310/3/6 317/3/6
f 317/3/6 310/3/6 318/3/6
f 318/3/6 310/3/6 319/3/6
f 319/3/6 310/3/6 320/3/6
f 320/3/6 310/3/6 321/3/6
f 321/3/6 310/3/6 322/3/6
f 322/3/6 310/3/6 323/3/6
f 310/2/6 311/2/6 324/2/6
f 323/3/6 310/3/6 324/3/6
f 324/2/6 311/2/6 325/2/6
f 312/1/6 313/1/6 326/1/6
f 313/2/6 314/2/6 327/2/6
f 326/1/6 313/1/6 327/1/6
f 314/3/6 315/3/6 328/3/6
f 327/2/6 314/2/6 328/2/6
f 328/3/6 315/3/6 329/3/6
f 315/2/6 316/2/6 330/2/6
f 329/3/6 315/3/6 330/3/6
f 316/3/6 317/3/6 331/3/6
f 330/2/6 316/2/6 331/2/6
f 331/3/6 317/3/6 332/3/6
f 332/3/6 317/3/6 333/3/6
f 333/3/6 317/3/6 334/3/6
f 334/3/6 317/3/6 335/3/6
f 335/3/6 317/3/6 336/3/6
f 317/2/6 318/2/6 337/2/6
f 336/3/6 317/3/6 337/3/6
f 318/3/6 319/3/6 338/3/6
f 337/2/6 318/2/6 338/2/6
f 338/3/6 319/3/6 339/3/6
f 339/3/6 319/3/6 340/3/6
f 319/2/6 320/2/6 341/2/6
f 340/3/6 319/3/6 341/3/6
f 320/3/6 321/3/6 342/3/6
f 341/2/6 320/2/6 342/2/6
f 342/3/6 321/3/6 343/3/6
f 343/3/6 321/3/6 344/3/6
f 321/2/6 322/2/6 345/2/6
f 344/3/6 321/3/6 345/3/6
f 345/2/6 322/2/6 346/2/6
f 322/3/6 323/3/6 347/3/6
f 346/2/6 322/2/6 347/2/6
f 347/3/6 323/3/6 348/3/6
f 348/3/6 323/3/6 349/3/6
f 323/2/6 324/2/6 350/2/6
f 349/3/6 323/3/6 350/3/6
f 324/1/6 325/1/6 351/1/6
f 350/2/6 324/2/6 351/2/6
f 351/1/6 325/1/6 352/1/6
f 328/1/6 329/1/6 353/1/6
f 327/1/6 328/1/6 353/1/6
f 329/2/6 330/2/6 354/2/6
f 353/1/6 329/1/6 354/1/6
f 330/1/6 331/1/6 355/1/6
f 354/2/6 330/2/6 355/2/6
f 331/2/6 332/2/6 356/2/6
f 355/1/6 331/1/6 356/1/6
f 332/1/6 333/1/6 357/1/6
f 356/2/6 332/2/6 357/2/6
f 333/2/6 334/2/6 358/2/6
f 357/1/6 333/1/6 358/1/6
f 334/1/6 335/1/6 359/1/6
f 358/2/6 334/2/6 359/2/6
f 335/2/6 336/2/6 360/2/6
f 359/1/6 335/1/6 360/1/6
f 336/1/6 337/1/6 361/1/6
f 360/2/6 336/2/6 361/2/6
f 337/2/6 338/2/6 362/2/6
f 361/1/6 337/1/6 362/1/6
f 338/2/6 339/2/6 362/2/6
f 339/1/6 340/1/6 363/1/6
f 362/2/6 339/2/6 363/2/6
f 340/2/6 341/2/6 364/2/6
f 363/1/6 340/1/6 364/1/6
f 341/1/6 342/1/6 365/1/6
f 364/2/6 341/2/6 365/2/6
f 342/2/6 343/2/6 366/2/6
f 365/1/6 342/1/6 366/1/6
f 343/1/6 344/1/6 367/1/6
f 366/2/6 343/2/6 367/2/6
f 345/2/6 346/2/6 368/2/6
f 367/1/6 344/1/6 368/1/6
f 344/2/6 345/2/6 368/2/6
f 347/1/6 348/1/6 369/1/6
f 368/2/6 346/2/6 369/2/6
f 346/1/6 347/1/6 369/1/6
f 348/2/6 349/2/6 370/2/6
f 369/1/6 348/1/6 370/1/6
f 350/1/6 351/1/6 371/1/6
f 370/2/6 349/2/6 371/2/6
f 349/1/6 350/1/6 371/1/6
f 371/1/6 351/1/6 372/1/6
