ply
format ascii 1.0
comment : MagicaVoxel @ Ephtracy
element vertex 574
property float x
property float y
property float z
property uchar red
property uchar green
property uchar blue
end_header
2 -8 0 248 233 68
3 -8 0 248 233 68
5 -8 0 248 233 68
6 -8 0 248 233 68
2 -7 0 248 233 68
3 -7 0 248 233 68
5 -7 0 248 233 68
6 -7 0 231 198 67
-6 -5 0 80 58 33
-2 -5 0 80 58 33
-6 -4 0 151 112 58
-2 -4 0 151 112 58
-1 -4 0 56 139 48
0 -4 0 56 139 48
-6 -3 0 151 112 58
-5 -3 0 54 54 54
-4 -3 0 54 54 54
-3 -3 0 54 54 54
-2 -3 0 151 112 58
-1 -3 0 92 206 44
0 -3 0 41 116 71
1 -3 0 92 206 44
-6 -2 0 151 112 58
-2 -2 0 151 112 58
-1 -2 0 41 116 71
0 -2 0 92 206 44
1 -2 0 56 139 48
2 -2 0 57 38 19
4 -2 0 57 38 19
-6 -1 0 57 38 19
-2 -1 0 57 38 19
-1 -1 0 151 112 58
0 -1 0 151 112 58
1 -1 0 57 38 19
2 -1 0 151 112 58
3 -1 0 80 58 33
4 -1 0 151 112 58
5 -1 0 57 38 19
-6 0 0 151 112 58
5 0 0 151 112 58
-6 1 0 151 112 58
5 1 0 151 112 58
-6 2 0 57 38 19
5 2 0 57 38 19
-6 3 0 151 112 58
5 3 0 151 112 58
-6 4 0 151 112 58
5 4 0 151 112 58
-6 5 0 57 38 19
-5 5 0 151 112 58
-4 5 0 151 112 58
-3 5 0 151 112 58
-2 5 0 57 38 19
-1 5 0 151 112 58
0 5 0 151 112 58
1 5 0 57 38 19
2 5 0 151 112 58
3 5 0 151 112 58
4 5 0 151 112 58
5 5 0 57 38 19
2 -8 1 248 233 68
3 -8 1 248 233 68
5 -8 1 248 233 68
6 -8 1 248 233 68
2 -7 1 248 233 68
3 -7 1 231 198 67
5 -7 1 231 198 67
6 -7 1 248 233 68
-6 -5 1 80 58 33
-2 -5 1 80 58 33
-6 -4 1 198 147 70
-2 -4 1 198 147 70
-6 -3 1 198 147 70
-5 -3 1 54 54 54
-4 -3 1 54 54 54
-3 -3 1 54 54 54
-2 -3 1 198 147 70
-6 -2 1 198 147 70
-2 -2 1 198 147 70
-1 -2 1 92 206 44
2 -2 1 57 38 19
4 -2 1 57 38 19
-6 -1 1 80 58 33
-2 -1 1 80 58 33
-1 -1 1 151 112 58
0 -1 1 151 112 58
1 -1 1 80 58 33
2 -1 1 198 147 70
3 -1 1 80 58 33
4 -1 1 198 147 70
5 -1 1 80 58 33
-6 0 1 198 147 70
5 0 1 198 147 70
-5 1 1 255 225 0
4 1 1 54 54 54
-6 2 1 80 58 33
5 2 1 80 58 33
-5 3 1 255 225 0
4 3 1 54 54 54
-6 4 1 198 147 70
-4 4 1 255 225 0
3 4 1 54 54 54
5 4 1 198 147 70
-6 5 1 80 58 33
-5 5 1 198 147 70
-3 5 1 198 147 70
-2 5 1 80 58 33
-1 5 1 198 147 70
0 5 1 198 147 70
1 5 1 80 58 33
2 5 1 198 147 70
4 5 1 198 147 70
5 5 1 80 58 33
-6 -5 2 80 58 33
-5 -5 2 80 58 33
-4 -5 2 80 58 33
-3 -5 2 80 58 33
-2 -5 2 80 58 33
-6 -4 2 80 58 33
-2 -4 2 80 58 33
-6 -3 2 80 58 33
-5 -3 2 54 54 54
-4 -3 2 54 54 54
-3 -3 2 54 54 54
-2 -3 2 80 58 33
1 -3 2 136 65 46
5 -3 2 136 65 46
-6 -2 2 80 58 33
-2 -2 2 80 58 33
1 -2 2 136 65 46
2 -2 2 57 38 19
3 -2 2 57 38 19
4 -2 2 57 38 19
5 -2 2 136 65 46
-6 -1 2 80 58 33
-2 -1 2 80 58 33
-1 -1 2 80 58 33
0 -1 2 80 58 33
1 -1 2 80 58 33
2 -1 2 80 58 33
3 -1 2 80 58 33
4 -1 2 80 58 33
5 -1 2 80 58 33
-6 0 2 80 58 33
5 0 2 80 58 33
-6 1 2 80 58 33
5 1 2 80 58 33
-6 2 2 80 58 33
5 2 2 80 58 33
-6 3 2 80 58 33
5 3 2 80 58 33
-6 4 2 80 58 33
5 4 2 80 58 33
-6 5 2 80 58 33
-5 5 2 80 58 33
-4 5 2 80 58 33
-3 5 2 80 58 33
-2 5 2 80 58 33
-1 5 2 80 58 33
0 5 2 80 58 33
1 5 2 80 58 33
2 5 2 80 58 33
3 5 2 80 58 33
4 5 2 80 58 33
5 5 2 80 58 33
-7 -6 3 136 65 46
-6 -6 3 181 88 63
-5 -6 3 181 88 63
-4 -6 3 181 88 63
-3 -6 3 181 88 63
-2 -6 3 181 88 63
-1 -6 3 136 65 46
-7 -5 3 181 88 63
-6 -5 3 136 65 46
-5 -5 3 136 65 46
-4 -5 3 136 65 46
-3 -5 3 181 88 63
-2 -5 3 181 88 63
-1 -5 3 181 88 63
-7 -4 3 136 65 46
-6 -4 3 136 65 46
-5 -4 3 181 88 63
-4 -4 3 181 88 63
-3 -4 3 136 65 46
-2 -4 3 136 65 46
-1 -4 3 136 65 46
-6 -3 3 198 147 70
-5 -3 3 54 54 54
-4 -3 3 54 54 54
-3 -3 3 54 54 54
-2 -3 3 198 147 70
2 -3 3 136 65 46
4 -3 3 136 65 46
-6 -2 3 198 147 70
-2 -2 3 198 147 70
2 -2 3 136 65 46
3 -2 3 57 38 19
4 -2 3 136 65 46
-6 -1 3 80 58 33
-2 -1 3 80 58 33
-1 -1 3 198 147 70
0 -1 3 198 147 70
1 -1 3 80 58 33
2 -1 3 198 147 70
3 -1 3 198 147 70
4 -1 3 198 147 70
5 -1 3 80 58 33
-6 0 3 198 147 70
5 0 3 198 147 70
-6 1 3 198 147 70
5 1 3 198 147 70
-6 2 3 80 58 33
5 2 3 80 58 33
-6 3 3 198 147 70
5 3 3 198 147 70
-6 4 3 198 147 70
5 4 3 198 147 70
-6 5 3 80 58 33
-5 5 3 198 147 70
-4 5 3 198 147 70
-3 5 3 198 147 70
-2 5 3 80 58 33
-1 5 3 198 147 70
0 5 3 198 147 70
1 5 3 80 58 33
2 5 3 198 147 70
3 5 3 198 147 70
4 5 3 198 147 70
5 5 3 80 58 33
-7 -3 4 136 65 46
-6 -3 4 181 88 63
-5 -3 4 181 88 63
-4 -3 4 136 65 46
-3 -3 4 136 65 46
-2 -3 4 136 65 46
-1 -3 4 181 88 63
3 -3 4 136 65 46
-7 -2 4 136 65 46
-6 -2 4 136 65 46
-5 -2 4 136 65 46
-4 -2 4 136 65 46
-3 -2 4 181 88 63
-2 -2 4 181 88 63
-1 -2 4 136 65 46
3 -2 4 136 65 46
-6 -1 4 80 58 33
-2 -1 4 80 58 33
-1 -1 4 198 147 70
0 -1 4 198 147 70
1 -1 4 80 58 33
2 -1 4 198 147 70
3 -1 4 198 147 70
4 -1 4 198 147 70
5 -1 4 80 58 33
-6 0 4 198 147 70
5 0 4 198 147 70
-5 1 4 54 54 54
4 1 4 255 225 0
-6 2 4 80 58 33
5 2 4 80 58 33
-5 3 4 54 54 54
4 3 4 255 225 0
-6 4 4 198 147 70
-4 4 4 54 54 54
3 4 4 54 54 54
5 4 4 198 147 70
-6 5 4 80 58 33
-5 5 4 198 147 70
-3 5 4 198 147 70
-2 5 4 80 58 33
-1 5 4 198 147 70
0 5 4 198 147 70
1 5 4 80 58 33
2 5 4 198 147 70
4 5 4 198 147 70
5 5 4 80 58 33
-6 -1 5 80 58 33
-5 -1 5 80 58 33
-4 -1 5 80 58 33
-3 -1 5 80 58 33
-2 -1 5 80 58 33
-1 -1 5 80 58 33
0 -1 5 80 58 33
1 -1 5 80 58 33
2 -1 5 80 58 33
3 -1 5 80 58 33
4 -1 5 80 58 33
5 -1 5 80 58 33
-6 0 5 80 58 33
5 0 5 80 58 33
-6 1 5 80 58 33
5 1 5 80 58 33
-6 2 5 80 58 33
5 2 5 80 58 33
-6 3 5 80 58 33
5 3 5 80 58 33
-6 4 5 80 58 33
5 4 5 80 58 33
-6 5 5 80 58 33
-5 5 5 80 58 33
-4 5 5 80 58 33
-3 5 5 80 58 33
-2 5 5 80 58 33
-1 5 5 80 58 33
0 5 5 80 58 33
1 5 5 80 58 33
2 5 5 80 58 33
3 5 5 80 58 33
4 5 5 80 58 33
5 5 5 80 58 33
-6 -1 6 80 58 33
-5 -1 6 198 147 70
-4 -1 6 198 147 70
-3 -1 6 198 147 70
-2 -1 6 80 58 33
-1 -1 6 198 147 70
0 -1 6 198 147 70
1 -1 6 80 58 33
2 -1 6 198 147 70
3 -1 6 198 147 70
4 -1 6 198 147 70
5 -1 6 80 58 33
-6 0 6 198 147 70
5 0 6 198 147 70
-6 1 6 198 147 70
5 1 6 198 147 70
-6 2 6 80 58 33
5 2 6 80 58 33
-6 3 6 198 147 70
5 3 6 198 147 70
-6 4 6 198 147 70
5 4 6 198 147 70
-6 5 6 80 58 33
-5 5 6 198 147 70
-4 5 6 198 147 70
-3 5 6 198 147 70
-2 5 6 80 58 33
-1 5 6 198 147 70
0 5 6 198 147 70
1 5 6 80 58 33
2 5 6 198 147 70
3 5 6 198 147 70
4 5 6 198 147 70
5 5 6 80 58 33
-6 -1 7 57 38 19
-5 -1 7 151 112 58
-3 -1 7 151 112 58
-2 -1 7 57 38 19
-1 -1 7 151 112 58
0 -1 7 151 112 58
1 -1 7 57 38 19
2 -1 7 151 112 58
4 -1 7 151 112 58
5 -1 7 57 38 19
-6 0 7 198 147 70
-4 0 7 255 225 0
3 0 7 255 225 0
5 0 7 198 147 70
-5 1 7 54 54 54
4 1 7 255 225 0
-6 2 7 80 58 33
5 2 7 80 58 33
-5 3 7 255 225 0
4 3 7 54 54 54
-6 4 7 198 147 70
-4 4 7 255 225 0
3 4 7 255 225 0
5 4 7 198 147 70
-6 5 7 57 38 19
-5 5 7 151 112 58
-3 5 7 151 112 58
-2 5 7 57 38 19
-1 5 7 151 112 58
0 5 7 151 112 58
1 5 7 57 38 19
2 5 7 151 112 58
4 5 7 151 112 58
5 5 7 57 38 19
-7 -2 8 136 65 46
-6 -2 8 136 65 46
-5 -2 8 136 65 46
-4 -2 8 181 88 63
-3 -2 8 136 65 46
-2 -2 8 136 65 46
-1 -2 8 136 65 46
0 -2 8 181 88 63
1 -2 8 136 65 46
2 -2 8 136 65 46
3 -2 8 181 88 63
4 -2 8 136 65 46
5 -2 8 136 65 46
6 -2 8 136 65 46
-6 -1 8 57 38 19
-5 -1 8 80 58 33
-4 -1 8 80 58 33
-3 -1 8 80 58 33
-2 -1 8 80 58 33
-1 -1 8 80 58 33
0 -1 8 80 58 33
1 -1 8 80 58 33
2 -1 8 80 58 33
3 -1 8 80 58 33
4 -1 8 80 58 33
5 -1 8 57 38 19
-6 0 8 80 58 33
5 0 8 80 58 33
-6 1 8 80 58 33
5 1 8 80 58 33
-6 2 8 80 58 33
5 2 8 80 58 33
-6 3 8 80 58 33
5 3 8 80 58 33
-6 4 8 80 58 33
5 4 8 80 58 33
-6 5 8 57 38 19
-5 5 8 80 58 33
-4 5 8 80 58 33
-3 5 8 80 58 33
-2 5 8 80 58 33
-1 5 8 80 58 33
0 5 8 80 58 33
1 5 8 80 58 33
2 5 8 80 58 33
3 5 8 80 58 33
4 5 8 80 58 33
5 5 8 57 38 19
-7 6 8 136 65 46
-6 6 8 181 88 63
-5 6 8 136 65 46
-4 6 8 136 65 46
-3 6 8 181 88 63
-2 6 8 136 65 46
-1 6 8 136 65 46
0 6 8 136 65 46
1 6 8 136 65 46
2 6 8 181 88 63
3 6 8 136 65 46
4 6 8 181 88 63
5 6 8 136 65 46
6 6 8 136 65 46
-7 -1 9 136 65 46
-6 -1 9 136 65 46
-5 -1 9 181 88 63
-4 -1 9 136 65 46
-3 -1 9 136 65 46
-2 -1 9 181 88 63
-1 -1 9 136 65 46
0 -1 9 136 65 46
1 -1 9 181 88 63
2 -1 9 181 88 63
3 -1 9 136 65 46
4 -1 9 136 65 46
5 -1 9 181 88 63
6 -1 9 136 65 46
-6 0 9 151 112 58
5 0 9 151 112 58
-6 1 9 198 147 70
5 1 9 198 147 70
-6 2 9 80 58 33
5 2 9 80 58 33
-6 3 9 198 147 70
5 3 9 198 147 70
-6 4 9 151 112 58
5 4 9 151 112 58
-7 5 9 136 65 46
-6 5 9 181 88 63
-5 5 9 136 65 46
-4 5 9 181 88 63
-3 5 9 136 65 46
-2 5 9 136 65 46
-1 5 9 136 65 46
0 5 9 181 88 63
1 5 9 136 65 46
2 5 9 181 88 63
3 5 9 136 65 46
4 5 9 136 65 46
5 5 9 136 65 46
6 5 9 136 65 46
-7 0 10 136 65 46
-6 0 10 181 88 63
-5 0 10 181 88 63
-4 0 10 181 88 63
-3 0 10 181 88 63
-2 0 10 136 65 46
-1 0 10 181 88 63
0 0 10 136 65 46
1 0 10 181 88 63
2 0 10 136 65 46
3 0 10 181 88 63
4 0 10 181 88 63
5 0 10 136 65 46
6 0 10 136 65 46
-5 1 10 255 225 0
4 1 10 255 225 0
-6 2 10 57 38 19
5 2 10 57 38 19
-5 3 10 255 225 0
4 3 10 255 225 0
-7 4 10 136 65 46
-6 4 10 136 65 46
-5 4 10 181 88 63
-4 4 10 181 88 63
-3 4 10 181 88 63
-2 4 10 136 65 46
-1 4 10 181 88 63
0 4 10 136 65 46
1 4 10 181 88 63
2 4 10 136 65 46
3 4 10 255 225 0
4 4 10 136 65 46
5 4 10 136 65 46
6 4 10 136 65 46
3 5 10 136 65 46
-7 1 11 181 88 63
-6 1 11 136 65 46
-5 1 11 181 88 63
-4 1 11 181 88 63
-3 1 11 181 88 63
-2 1 11 136 65 46
-1 1 11 136 65 46
0 1 11 136 65 46
1 1 11 181 88 63
2 1 11 181 88 63
3 1 11 181 88 63
4 1 11 181 88 63
5 1 11 136 65 46
6 1 11 136 65 46
-6 2 11 57 38 19
5 2 11 57 38 19
-7 3 11 136 65 46
-6 3 11 181 88 63
-5 3 11 136 65 46
-4 3 11 181 88 63
-3 3 11 181 88 63
-2 3 11 136 65 46
-1 3 11 136 65 46
0 3 11 181 88 63
1 3 11 181 88 63
2 3 11 181 88 63
3 3 11 181 88 63
4 3 11 181 88 63
5 3 11 136 65 46
6 3 11 136 65 46
2 4 11 136 65 46
4 4 11 136 65 46
3 5 11 136 65 46
-7 2 12 136 65 46
-6 2 12 181 88 63
-5 2 12 181 88 63
-4 2 12 181 88 63
-3 2 12 181 88 63
-2 2 12 181 88 63
-1 2 12 181 88 63
0 2 12 181 88 63
1 2 12 181 88 63
2 2 12 136 65 46
3 2 12 181 88 63
4 2 12 181 88 63
5 2 12 181 88 63
6 2 12 136 65 46
3 3 12 136 65 46
2 4 12 136 65 46
4 4 12 136 65 46
3 5 12 136 65 46
-7 2 13 181 88 63
-6 2 13 136 65 46
5 2 13 136 65 46
6 2 13 181 88 63
3 3 13 136 65 46
2 4 13 136 65 46
4 4 13 136 65 46
3 5 13 136 65 46
-7 2 14 181 88 63
6 2 14 181 88 63
