ply
format ascii 1.0
comment : MagicaVoxel @ Ephtracy
element vertex 1162
property float x
property float y
property float z
property uchar red
property uchar green
property uchar blue
end_header
2 -6 0 57 38 19
9 -6 0 57 38 19
16 -6 0 57 38 19
2 -4 0 80 58 33
3 -4 0 80 58 33
4 -4 0 80 58 33
5 -4 0 80 58 33
6 -4 0 80 58 33
7 -4 0 80 58 33
8 -4 0 80 58 33
9 -4 0 80 58 33
10 -4 0 80 58 33
11 -4 0 80 58 33
12 -4 0 80 58 33
13 -4 0 80 58 33
14 -4 0 80 58 33
15 -4 0 80 58 33
16 -4 0 80 58 33
17 -4 0 80 58 33
2 5 0 80 58 33
3 5 0 80 58 33
4 5 0 80 58 33
5 5 0 80 58 33
6 5 0 80 58 33
7 5 0 80 58 33
8 5 0 80 58 33
9 5 0 80 58 33
10 5 0 57 38 19
11 5 0 80 58 33
12 5 0 80 58 33
13 5 0 80 58 33
14 5 0 80 58 33
15 5 0 80 58 33
16 5 0 80 58 33
17 5 0 80 58 33
2 7 0 57 38 19
9 7 0 57 38 19
2 -6 1 57 38 19
9 -6 1 57 38 19
16 -6 1 57 38 19
2 -3 1 151 112 58
3 -3 1 198 147 70
4 -3 1 151 112 58
5 -3 1 151 112 58
6 -3 1 151 112 58
7 -3 1 198 147 70
8 -3 1 151 112 58
9 -3 1 198 147 70
10 -3 1 151 112 58
11 -3 1 198 147 70
12 -3 1 151 112 58
13 -3 1 198 147 70
14 -3 1 198 147 70
15 -3 1 151 112 58
16 -3 1 151 112 58
17 -3 1 151 112 58
2 4 1 151 112 58
3 4 1 198 147 70
4 4 1 198 147 70
5 4 1 198 147 70
6 4 1 198 147 70
7 4 1 198 147 70
8 4 1 198 147 70
9 4 1 198 147 70
10 4 1 151 112 58
11 4 1 151 112 58
12 4 1 198 147 70
13 4 1 198 147 70
14 4 1 151 112 58
15 4 1 198 147 70
16 4 1 198 147 70
17 4 1 151 112 58
2 7 1 57 38 19
9 7 1 57 38 19
2 -6 2 57 38 19
9 -6 2 57 38 19
16 -6 2 57 38 19
2 -3 2 151 112 58
3 -3 2 198 147 70
4 -3 2 198 147 70
5 -3 2 151 112 58
6 -3 2 151 112 58
7 -3 2 151 112 58
8 -3 2 198 147 70
9 -3 2 198 147 70
10 -3 2 198 147 70
11 -3 2 151 112 58
12 -3 2 151 112 58
13 -3 2 198 147 70
14 -3 2 198 147 70
15 -3 2 198 147 70
16 -3 2 151 112 58
17 -3 2 151 112 58
2 4 2 151 112 58
3 4 2 198 147 70
4 4 2 198 147 70
5 4 2 198 147 70
6 4 2 198 147 70
7 4 2 198 147 70
8 4 2 198 147 70
9 4 2 57 38 19
10 4 2 151 112 58
11 4 2 151 112 58
12 4 2 198 147 70
13 4 2 198 147 70
14 4 2 198 147 70
15 4 2 198 147 70
16 4 2 198 147 70
17 4 2 151 112 58
2 7 2 57 38 19
9 7 2 57 38 19
2 -6 3 57 38 19
9 -6 3 57 38 19
16 -6 3 57 38 19
4 -4 3 80 58 33
5 -4 3 80 58 33
12 -4 3 80 58 33
13 -4 3 80 58 33
14 -4 3 80 58 33
2 -3 3 198 147 70
3 -3 3 198 147 70
4 -3 3 198 147 70
5 -3 3 198 147 70
6 -3 3 198 147 70
7 -3 3 198 147 70
8 -3 3 198 147 70
9 -3 3 198 147 70
10 -3 3 198 147 70
11 -3 3 151 112 58
12 -3 3 198 147 70
13 -3 3 198 147 70
14 -3 3 198 147 70
15 -3 3 151 112 58
16 -3 3 198 147 70
17 -3 3 198 147 70
2 4 3 151 112 58
3 4 3 198 147 70
4 4 3 198 147 70
5 4 3 198 147 70
6 4 3 198 147 70
7 4 3 198 147 70
8 4 3 198 147 70
9 4 3 198 147 70
10 4 3 198 147 70
11 4 3 198 147 70
12 4 3 198 147 70
13 4 3 198 147 70
14 4 3 198 147 70
15 4 3 198 147 70
16 4 3 198 147 70
17 4 3 198 147 70
4 5 3 80 58 33
5 5 3 80 58 33
12 5 3 80 58 33
13 5 3 80 58 33
14 5 3 80 58 33
2 7 3 57 38 19
9 7 3 57 38 19
2 -6 4 80 58 33
9 -6 4 57 38 19
16 -6 4 80 58 33
4 -4 4 80 58 33
5 -4 4 80 58 33
12 -4 4 80 58 33
13 -4 4 80 58 33
14 -4 4 80 58 33
2 -3 4 151 112 58
3 -3 4 198 147 70
4 -3 4 198 147 70
5 -3 4 198 147 70
6 -3 4 198 147 70
7 -3 4 151 112 58
8 -3 4 198 147 70
9 -3 4 198 147 70
10 -3 4 198 147 70
11 -3 4 198 147 70
12 -3 4 198 147 70
13 -3 4 198 147 70
14 -3 4 198 147 70
15 -3 4 151 112 58
16 -3 4 198 147 70
17 -3 4 151 112 58
2 4 4 151 112 58
3 4 4 198 147 70
4 4 4 198 147 70
5 4 4 198 147 70
6 4 4 198 147 70
7 4 4 198 147 70
8 4 4 198 147 70
9 4 4 198 147 70
10 4 4 198 147 70
11 4 4 151 112 58
12 4 4 198 147 70
13 4 4 198 147 70
14 4 4 198 147 70
15 4 4 198 147 70
16 4 4 198 147 70
17 4 4 151 112 58
4 5 4 80 58 33
5 5 4 80 58 33
12 5 4 80 58 33
13 5 4 80 58 33
14 5 4 80 58 33
2 7 4 80 58 33
9 7 4 57 38 19
2 -6 5 80 58 33
9 -6 5 57 38 19
16 -6 5 80 58 33
4 -4 5 80 58 33
5 -4 5 80 58 33
12 -4 5 80 58 33
13 -4 5 80 58 33
14 -4 5 80 58 33
2 -3 5 198 147 70
3 -3 5 198 147 70
4 -3 5 198 147 70
5 -3 5 198 147 70
6 -3 5 198 147 70
7 -3 5 198 147 70
8 -3 5 198 147 70
9 -3 5 198 147 70
10 -3 5 151 112 58
11 -3 5 198 147 70
12 -3 5 198 147 70
13 -3 5 198 147 70
14 -3 5 198 147 70
15 -3 5 198 147 70
16 -3 5 198 147 70
17 -3 5 198 147 70
2 4 5 198 147 70
3 4 5 198 147 70
4 4 5 198 147 70
5 4 5 198 147 70
6 4 5 198 147 70
7 4 5 198 147 70
8 4 5 198 147 70
9 4 5 198 147 70
10 4 5 198 147 70
11 4 5 198 147 70
12 4 5 198 147 70
13 4 5 198 147 70
14 4 5 198 147 70
15 4 5 198 147 70
16 4 5 198 147 70
17 4 5 198 147 70
4 5 5 80 58 33
5 5 5 57 38 19
12 5 5 80 58 33
13 5 5 57 38 19
14 5 5 80 58 33
2 7 5 80 58 33
9 7 5 57 38 19
2 -6 6 80 58 33
9 -6 6 57 38 19
16 -6 6 57 38 19
2 -4 6 80 58 33
3 -4 6 80 58 33
4 -4 6 80 58 33
5 -4 6 80 58 33
6 -4 6 80 58 33
7 -4 6 80 58 33
8 -4 6 80 58 33
9 -4 6 80 58 33
10 -4 6 80 58 33
11 -4 6 80 58 33
12 -4 6 80 58 33
13 -4 6 80 58 33
14 -4 6 57 38 19
15 -4 6 80 58 33
16 -4 6 80 58 33
17 -4 6 80 58 33
2 -3 6 198 147 70
3 -3 6 198 147 70
4 -3 6 198 147 70
5 -3 6 198 147 70
6 -3 6 198 147 70
7 -3 6 198 147 70
8 -3 6 198 147 70
9 -3 6 198 147 70
10 -3 6 198 147 70
11 -3 6 198 147 70
12 -3 6 198 147 70
13 -3 6 198 147 70
14 -3 6 198 147 70
15 -3 6 198 147 70
16 -3 6 198 147 70
17 -3 6 198 147 70
2 4 6 198 147 70
3 4 6 198 147 70
4 4 6 198 147 70
5 4 6 198 147 70
6 4 6 198 147 70
7 4 6 198 147 70
8 4 6 198 147 70
9 4 6 198 147 70
10 4 6 198 147 70
11 4 6 198 147 70
12 4 6 198 147 70
13 4 6 198 147 70
14 4 6 198 147 70
15 4 6 198 147 70
16 4 6 198 147 70
17 4 6 198 147 70
2 5 6 80 58 33
3 5 6 80 58 33
4 5 6 57 38 19
5 5 6 80 58 33
6 5 6 57 38 19
7 5 6 80 58 33
8 5 6 80 58 33
9 5 6 80 58 33
10 5 6 80 58 33
11 5 6 80 58 33
12 5 6 57 38 19
13 5 6 80 58 33
14 5 6 57 38 19
15 5 6 80 58 33
16 5 6 80 58 33
17 5 6 80 58 33
2 7 6 80 58 33
9 7 6 57 38 19
2 -6 7 57 38 19
9 -6 7 57 38 19
16 -6 7 57 38 19
2 -4 7 80 58 33
3 -4 7 80 58 33
4 -4 7 80 58 33
5 -4 7 80 58 33
6 -4 7 80 58 33
7 -4 7 80 58 33
8 -4 7 80 58 33
9 -4 7 80 58 33
10 -4 7 80 58 33
11 -4 7 80 58 33
12 -4 7 57 38 19
13 -4 7 57 38 19
14 -4 7 57 38 19
15 -4 7 80 58 33
16 -4 7 80 58 33
17 -4 7 80 58 33
2 -3 7 198 147 70
3 -3 7 198 147 70
4 -3 7 198 147 70
5 -3 7 198 147 70
6 -3 7 198 147 70
7 -3 7 198 147 70
8 -3 7 198 147 70
9 -3 7 198 147 70
10 -3 7 198 147 70
11 -3 7 198 147 70
12 -3 7 198 147 70
13 -3 7 198 147 70
14 -3 7 198 147 70
15 -3 7 198 147 70
16 -3 7 198 147 70
17 -3 7 198 147 70
2 4 7 198 147 70
3 4 7 198 147 70
4 4 7 198 147 70
5 4 7 198 147 70
6 4 7 198 147 70
7 4 7 198 147 70
8 4 7 198 147 70
9 4 7 198 147 70
10 4 7 198 147 70
11 4 7 198 147 70
12 4 7 198 147 70
13 4 7 198 147 70
14 4 7 198 147 70
15 4 7 198 147 70
16 4 7 198 147 70
17 4 7 198 147 70
2 5 7 80 58 33
3 5 7 80 58 33
4 5 7 80 58 33
5 5 7 57 38 19
6 5 7 57 38 19
7 5 7 80 58 33
8 5 7 57 38 19
9 5 7 80 58 33
10 5 7 57 38 19
11 5 7 57 38 19
12 5 7 57 38 19
13 5 7 57 38 19
14 5 7 80 58 33
15 5 7 57 38 19
16 5 7 80 58 33
17 5 7 80 58 33
2 7 7 57 38 19
9 7 7 57 38 19
2 -6 8 57 38 19
8 -6 8 57 38 19
9 -6 8 57 38 19
10 -6 8 57 38 19
16 -6 8 57 38 19
17 -6 8 57 38 19
2 -5 8 80 58 33
7 -5 8 80 58 33
8 -5 8 80 58 33
9 -5 8 80 58 33
10 -5 8 80 58 33
11 -5 8 80 58 33
15 -5 8 80 58 33
16 -5 8 80 58 33
17 -5 8 80 58 33
2 -4 8 80 58 33
3 -4 8 80 58 33
4 -4 8 80 58 33
5 -4 8 80 58 33
6 -4 8 80 58 33
7 -4 8 80 58 33
8 -4 8 80 58 33
9 -4 8 80 58 33
10 -4 8 80 58 33
11 -4 8 80 58 33
12 -4 8 57 38 19
13 -4 8 57 38 19
14 -4 8 80 58 33
15 -4 8 80 58 33
16 -4 8 80 58 33
17 -4 8 80 58 33
2 -3 8 198 147 70
3 -3 8 198 147 70
4 -3 8 198 147 70
5 -3 8 198 147 70
6 -3 8 198 147 70
7 -3 8 198 147 70
8 -3 8 198 147 70
9 -3 8 198 147 70
10 -3 8 198 147 70
11 -3 8 198 147 70
12 -3 8 198 147 70
13 -3 8 198 147 70
14 -3 8 198 147 70
15 -3 8 198 147 70
16 -3 8 198 147 70
17 -3 8 198 147 70
2 4 8 198 147 70
3 4 8 198 147 70
4 4 8 198 147 70
5 4 8 198 147 70
6 4 8 198 147 70
7 4 8 198 147 70
8 4 8 198 147 70
9 4 8 198 147 70
10 4 8 198 147 70
11 4 8 198 147 70
12 4 8 198 147 70
13 4 8 198 147 70
14 4 8 198 147 70
15 4 8 198 147 70
16 4 8 198 147 70
17 4 8 198 147 70
2 5 8 80 58 33
3 5 8 80 58 33
4 5 8 57 38 19
5 5 8 57 38 19
6 5 8 57 38 19
7 5 8 80 58 33
8 5 8 80 58 33
9 5 8 80 58 33
10 5 8 80 58 33
11 5 8 80 58 33
12 5 8 80 58 33
13 5 8 57 38 19
14 5 8 57 38 19
15 5 8 80 58 33
16 5 8 80 58 33
17 5 8 80 58 33
2 6 8 80 58 33
7 6 8 80 58 33
8 6 8 80 58 33
9 6 8 80 58 33
10 6 8 80 58 33
11 6 8 57 38 19
15 6 8 57 38 19
16 6 8 80 58 33
17 6 8 80 58 33
2 7 8 57 38 19
8 7 8 57 38 19
9 7 8 57 38 19
10 7 8 57 38 19
16 7 8 57 38 19
17 7 8 57 38 19
2 -6 9 57 38 19
7 -6 9 80 58 33
8 -6 9 57 38 19
9 -6 9 57 38 19
10 -6 9 57 38 19
11 -6 9 57 38 19
15 -6 9 57 38 19
16 -6 9 57 38 19
17 -6 9 57 38 19
2 -5 9 198 147 70
3 -5 9 80 58 33
4 -5 9 80 58 33
5 -5 9 80 58 33
6 -5 9 80 58 33
7 -5 9 80 58 33
8 -5 9 198 147 70
9 -5 9 198 147 70
10 -5 9 80 58 33
11 -5 9 80 58 33
12 -5 9 80 58 33
13 -5 9 80 58 33
14 -5 9 80 58 33
15 -5 9 80 58 33
16 -5 9 80 58 33
17 -5 9 80 58 33
2 -4 9 198 147 70
3 -4 9 198 147 70
4 -4 9 198 147 70
5 -4 9 198 147 70
6 -4 9 198 147 70
7 -4 9 198 147 70
8 -4 9 198 147 70
9 -4 9 198 147 70
10 -4 9 80 58 33
11 -4 9 80 58 33
12 -4 9 80 58 33
13 -4 9 80 58 33
14 -4 9 80 58 33
15 -4 9 80 58 33
16 -4 9 80 58 33
17 -4 9 80 58 33
2 -3 9 198 147 70
3 -3 9 198 147 70
4 -3 9 198 147 70
5 -3 9 198 147 70
6 -3 9 198 147 70
7 -3 9 198 147 70
8 -3 9 198 147 70
9 -3 9 198 147 70
10 -3 9 198 147 70
11 -3 9 198 147 70
12 -3 9 198 147 70
13 -3 9 198 147 70
14 -3 9 198 147 70
15 -3 9 198 147 70
16 -3 9 198 147 70
17 -3 9 198 147 70
2 4 9 198 147 70
3 4 9 198 147 70
4 4 9 198 147 70
5 4 9 198 147 70
6 4 9 198 147 70
7 4 9 198 147 70
8 4 9 198 147 70
9 4 9 198 147 70
10 4 9 198 147 70
11 4 9 198 147 70
12 4 9 198 147 70
13 4 9 198 147 70
14 4 9 198 147 70
15 4 9 198 147 70
16 4 9 198 147 70
17 4 9 198 147 70
2 5 9 198 147 70
3 5 9 198 147 70
4 5 9 198 147 70
5 5 9 198 147 70
6 5 9 198 147 70
7 5 9 198 147 70
8 5 9 198 147 70
9 5 9 198 147 70
10 5 9 80 58 33
11 5 9 80 58 33
12 5 9 80 58 33
13 5 9 80 58 33
14 5 9 80 58 33
15 5 9 80 58 33
16 5 9 80 58 33
17 5 9 80 58 33
2 6 9 198 147 70
3 6 9 80 58 33
4 6 9 80 58 33
5 6 9 80 58 33
6 6 9 80 58 33
7 6 9 80 58 33
8 6 9 198 147 70
9 6 9 198 147 70
10 6 9 80 58 33
11 6 9 80 58 33
12 6 9 80 58 33
13 6 9 80 58 33
14 6 9 80 58 33
15 6 9 80 58 33
16 6 9 80 58 33
17 6 9 80 58 33
2 7 9 57 38 19
7 7 9 57 38 19
8 7 9 57 38 19
9 7 9 57 38 19
10 7 9 57 38 19
11 7 9 57 38 19
15 7 9 80 58 33
16 7 9 57 38 19
17 7 9 57 38 19
2 -6 10 57 38 19
3 -6 10 57 38 19
4 -6 10 57 38 19
5 -6 10 57 38 19
6 -6 10 57 38 19
7 -6 10 57 38 19
8 -6 10 57 38 19
9 -6 10 57 38 19
10 -6 10 57 38 19
11 -6 10 57 38 19
12 -6 10 57 38 19
13 -6 10 57 38 19
14 -6 10 57 38 19
15 -6 10 57 38 19
16 -6 10 57 38 19
17 -6 10 57 38 19
2 -5 10 57 38 19
3 -5 10 57 38 19
4 -5 10 80 58 33
5 -5 10 80 58 33
6 -5 10 80 58 33
7 -5 10 80 58 33
8 -5 10 80 58 33
9 -5 10 80 58 33
10 -5 10 80 58 33
11 -5 10 80 58 33
12 -5 10 80 58 33
13 -5 10 80 58 33
14 -5 10 80 58 33
15 -5 10 80 58 33
16 -5 10 57 38 19
17 -5 10 80 58 33
2 -4 10 57 38 19
3 -4 10 80 58 33
4 -4 10 80 58 33
5 -4 10 80 58 33
6 -4 10 80 58 33
7 -4 10 57 38 19
8 -4 10 80 58 33
9 -4 10 80 58 33
10 -4 10 80 58 33
11 -4 10 80 58 33
12 -4 10 80 58 33
13 -4 10 80 58 33
14 -4 10 80 58 33
15 -4 10 57 38 19
16 -4 10 57 38 19
17 -4 10 57 38 19
2 -3 10 198 147 70
3 -3 10 198 147 70
4 -3 10 198 147 70
5 -3 10 198 147 70
6 -3 10 198 147 70
7 -3 10 198 147 70
8 -3 10 198 147 70
9 -3 10 198 147 70
10 -3 10 198 147 70
11 -3 10 198 147 70
12 -3 10 198 147 70
13 -3 10 198 147 70
14 -3 10 198 147 70
15 -3 10 198 147 70
16 -3 10 198 147 70
17 -3 10 198 147 70
2 4 10 198 147 70
3 4 10 198 147 70
4 4 10 198 147 70
5 4 10 198 147 70
6 4 10 198 147 70
7 4 10 198 147 70
8 4 10 198 147 70
9 4 10 198 147 70
10 4 10 198 147 70
11 4 10 198 147 70
12 4 10 198 147 70
13 4 10 198 147 70
14 4 10 198 147 70
15 4 10 198 147 70
16 4 10 198 147 70
17 4 10 198 147 70
2 5 10 57 38 19
3 5 10 80 58 33
4 5 10 57 38 19
5 5 10 57 38 19
6 5 10 80 58 33
7 5 10 57 38 19
8 5 10 57 38 19
9 5 10 57 38 19
10 5 10 57 38 19
11 5 10 80 58 33
12 5 10 80 58 33
13 5 10 80 58 33
14 5 10 80 58 33
15 5 10 80 58 33
16 5 10 57 38 19
17 5 10 57 38 19
2 6 10 57 38 19
3 6 10 57 38 19
4 6 10 57 38 19
5 6 10 57 38 19
6 6 10 80 58 33
7 6 10 80 58 33
8 6 10 80 58 33
9 6 10 57 38 19
10 6 10 57 38 19
11 6 10 57 38 19
12 6 10 80 58 33
13 6 10 57 38 19
14 6 10 57 38 19
15 6 10 80 58 33
16 6 10 57 38 19
17 6 10 80 58 33
2 7 10 57 38 19
3 7 10 57 38 19
4 7 10 57 38 19
5 7 10 57 38 19
6 7 10 57 38 19
7 7 10 57 38 19
8 7 10 57 38 19
9 7 10 57 38 19
10 7 10 57 38 19
11 7 10 57 38 19
12 7 10 57 38 19
13 7 10 57 38 19
14 7 10 57 38 19
15 7 10 57 38 19
16 7 10 57 38 19
17 7 10 57 38 19
2 -3 11 57 38 19
3 -3 11 80 58 33
4 -3 11 57 38 19
5 -3 11 57 38 19
6 -3 11 57 38 19
7 -3 11 57 38 19
8 -3 11 57 38 19
9 -3 11 57 38 19
10 -3 11 57 38 19
11 -3 11 80 58 33
12 -3 11 80 58 33
13 -3 11 57 38 19
14 -3 11 57 38 19
15 -3 11 57 38 19
16 -3 11 80 58 33
17 -3 11 80 58 33
2 4 11 57 38 19
3 4 11 80 58 33
4 4 11 57 38 19
5 4 11 57 38 19
6 4 11 57 38 19
7 4 11 57 38 19
8 4 11 57 38 19
9 4 11 57 38 19
10 4 11 57 38 19
11 4 11 80 58 33
12 4 11 80 58 33
13 4 11 57 38 19
14 4 11 57 38 19
15 4 11 57 38 19
16 4 11 80 58 33
17 4 11 80 58 33
2 -3 12 57 38 19
3 -3 12 57 38 19
4 -3 12 80 58 33
5 -3 12 80 58 33
6 -3 12 57 38 19
7 -3 12 57 38 19
8 -3 12 80 58 33
9 -3 12 80 58 33
10 -3 12 57 38 19
11 -3 12 57 38 19
12 -3 12 57 38 19
13 -3 12 57 38 19
14 -3 12 57 38 19
15 -3 12 80 58 33
16 -3 12 80 58 33
17 -3 12 80 58 33
2 4 12 57 38 19
3 4 12 57 38 19
4 4 12 80 58 33
5 4 12 80 58 33
6 4 12 57 38 19
7 4 12 57 38 19
8 4 12 80 58 33
9 4 12 80 58 33
10 4 12 57 38 19
11 4 12 57 38 19
12 4 12 57 38 19
13 4 12 57 38 19
14 4 12 57 38 19
15 4 12 80 58 33
16 4 12 80 58 33
17 4 12 80 58 33
4 -3 13 80 58 33
6 -3 13 57 38 19
16 -3 13 57 38 19
17 -3 13 57 38 19
2 -2 13 57 38 19
3 -2 13 80 58 33
4 -2 13 198 147 70
5 -2 13 198 147 70
6 -2 13 198 147 70
7 -2 13 80 58 33
8 -2 13 80 58 33
9 -2 13 57 38 19
10 -2 13 57 38 19
11 -2 13 57 38 19
12 -2 13 57 38 19
13 -2 13 80 58 33
14 -2 13 80 58 33
15 -2 13 80 58 33
16 -2 13 80 58 33
2 -1 13 80 58 33
3 -1 13 80 58 33
4 -1 13 198 147 70
5 -1 13 198 147 70
6 -1 13 198 147 70
7 -1 13 80 58 33
8 -1 13 80 58 33
9 -1 13 80 58 33
10 -1 13 80 58 33
11 -1 13 80 58 33
12 -1 13 80 58 33
13 -1 13 80 58 33
14 -1 13 80 58 33
15 -1 13 80 58 33
16 -1 13 80 58 33
17 -1 13 80 58 33
2 2 13 80 58 33
3 2 13 80 58 33
4 2 13 198 147 70
5 2 13 198 147 70
6 2 13 198 147 70
7 2 13 80 58 33
8 2 13 80 58 33
9 2 13 80 58 33
10 2 13 80 58 33
11 2 13 80 58 33
12 2 13 80 58 33
13 2 13 80 58 33
14 2 13 80 58 33
15 2 13 80 58 33
16 2 13 80 58 33
17 2 13 80 58 33
2 3 13 57 38 19
3 3 13 80 58 33
4 3 13 198 147 70
5 3 13 198 147 70
6 3 13 198 147 70
7 3 13 80 58 33
8 3 13 80 58 33
9 3 13 57 38 19
10 3 13 57 38 19
11 3 13 57 38 19
12 3 13 57 38 19
13 3 13 80 58 33
14 3 13 80 58 33
15 3 13 80 58 33
16 3 13 80 58 33
4 4 13 80 58 33
6 4 13 80 58 33
16 4 13 80 58 33
17 4 13 57 38 19
4 -3 14 57 38 19
6 -3 14 57 38 19
16 -3 14 57 38 19
17 -3 14 57 38 19
2 -2 14 57 38 19
3 -2 14 80 58 33
4 -2 14 198 147 70
5 -2 14 198 147 70
6 -2 14 198 147 70
7 -2 14 57 38 19
8 -2 14 57 38 19
9 -2 14 80 58 33
10 -2 14 57 38 19
11 -2 14 57 38 19
12 -2 14 80 58 33
13 -2 14 57 38 19
14 -2 14 57 38 19
15 -2 14 80 58 33
16 -2 14 80 58 33
2 -1 14 80 58 33
3 -1 14 80 58 33
4 -1 14 198 147 70
5 -1 14 198 147 70
6 -1 14 198 147 70
7 -1 14 80 58 33
8 -1 14 80 58 33
9 -1 14 80 58 33
10 -1 14 80 58 33
11 -1 14 80 58 33
12 -1 14 80 58 33
13 -1 14 80 58 33
14 -1 14 80 58 33
15 -1 14 80 58 33
16 -1 14 80 58 33
17 -1 14 80 58 33
2 0 14 80 58 33
2 1 14 80 58 33
2 2 14 80 58 33
3 2 14 80 58 33
4 2 14 198 147 70
5 2 14 198 147 70
6 2 14 198 147 70
7 2 14 80 58 33
8 2 14 80 58 33
9 2 14 80 58 33
10 2 14 80 58 33
11 2 14 80 58 33
12 2 14 80 58 33
13 2 14 80 58 33
14 2 14 80 58 33
15 2 14 80 58 33
16 2 14 80 58 33
17 2 14 80 58 33
2 3 14 57 38 19
3 3 14 80 58 33
4 3 14 198 147 70
5 3 14 198 147 70
6 3 14 198 147 70
7 3 14 57 38 19
8 3 14 57 38 19
9 3 14 80 58 33
10 3 14 57 38 19
11 3 14 57 38 19
12 3 14 80 58 33
13 3 14 57 38 19
14 3 14 57 38 19
15 3 14 80 58 33
16 3 14 80 58 33
4 4 14 80 58 33
6 4 14 80 58 33
16 4 14 80 58 33
17 4 14 57 38 19
4 -3 15 57 38 19
6 -3 15 57 38 19
16 -3 15 57 38 19
17 -3 15 57 38 19
4 -2 15 80 58 33
5 -2 15 198 147 70
6 -2 15 198 147 70
16 -2 15 198 147 70
2 -1 15 57 38 19
3 -1 15 80 58 33
4 -1 15 198 147 70
5 -1 15 198 147 70
6 -1 15 198 147 70
7 -1 15 80 58 33
8 -1 15 57 38 19
9 -1 15 80 58 33
10 -1 15 57 38 19
11 -1 15 80 58 33
12 -1 15 80 58 33
13 -1 15 57 38 19
14 -1 15 57 38 19
15 -1 15 80 58 33
16 -1 15 80 58 33
17 -1 15 80 58 33
2 0 15 80 58 33
2 1 15 80 58 33
2 2 15 57 38 19
3 2 15 80 58 33
4 2 15 198 147 70
5 2 15 198 147 70
6 2 15 198 147 70
7 2 15 80 58 33
8 2 15 57 38 19
9 2 15 80 58 33
10 2 15 57 38 19
11 2 15 80 58 33
12 2 15 80 58 33
13 2 15 57 38 19
14 2 15 57 38 19
15 2 15 80 58 33
16 2 15 80 58 33
17 2 15 80 58 33
4 3 15 198 147 70
5 3 15 198 147 70
6 3 15 198 147 70
16 3 15 80 58 33
4 4 15 80 58 33
6 4 15 80 58 33
16 4 15 80 58 33
17 4 15 57 38 19
4 -3 16 57 38 19
6 -3 16 57 38 19
16 -3 16 57 38 19
17 -3 16 57 38 19
4 -2 16 198 147 70
6 -2 16 198 147 70
16 -2 16 198 147 70
4 -1 16 198 147 70
5 -1 16 198 147 70
6 -1 16 198 147 70
16 -1 16 198 147 70
17 -1 16 80 58 33
2 0 16 80 58 33
3 0 16 80 58 33
4 0 16 198 147 70
5 0 16 198 147 70
6 0 16 198 147 70
7 0 16 80 58 33
8 0 16 80 58 33
9 0 16 80 58 33
10 0 16 80 58 33
11 0 16 80 58 33
12 0 16 80 58 33
13 0 16 57 38 19
14 0 16 80 58 33
15 0 16 80 58 33
16 0 16 198 147 70
17 0 16 80 58 33
2 1 16 80 58 33
3 1 16 80 58 33
4 1 16 198 147 70
5 1 16 198 147 70
6 1 16 198 147 70
7 1 16 80 58 33
8 1 16 80 58 33
9 1 16 80 58 33
10 1 16 80 58 33
11 1 16 57 38 19
12 1 16 80 58 33
13 1 16 80 58 33
14 1 16 80 58 33
15 1 16 80 58 33
16 1 16 198 147 70
17 1 16 80 58 33
4 2 16 198 147 70
5 2 16 198 147 70
6 2 16 198 147 70
16 2 16 80 58 33
17 2 16 80 58 33
4 3 16 198 147 70
6 3 16 198 147 70
16 3 16 80 58 33
4 4 16 80 58 33
6 4 16 80 58 33
16 4 16 80 58 33
17 4 16 57 38 19
3 -3 17 136 65 46
4 -3 17 136 65 46
6 -3 17 136 65 46
7 -3 17 181 88 63
15 -3 17 181 88 63
16 -3 17 136 65 46
17 -3 17 136 65 46
3 -2 17 136 65 46
5 -2 17 136 65 46
6 -2 17 136 65 46
7 -2 17 136 65 46
15 -2 17 136 65 46
16 -2 17 136 65 46
17 -2 17 136 65 46
3 -1 17 136 65 46
4 -1 17 136 65 46
5 -1 17 136 65 46
6 -1 17 136 65 46
7 -1 17 136 65 46
15 -1 17 181 88 63
16 -1 17 136 65 46
17 -1 17 136 65 46
2 0 17 80 58 33
3 0 17 136 65 46
4 0 17 136 65 46
5 0 17 136 65 46
6 0 17 136 65 46
7 0 17 136 65 46
8 0 17 80 58 33
9 0 17 57 38 19
10 0 17 80 58 33
11 0 17 57 38 19
12 0 17 57 38 19
13 0 17 80 58 33
14 0 17 80 58 33
15 0 17 181 88 63
16 0 17 136 65 46
17 0 17 136 65 46
2 1 17 80 58 33
3 1 17 136 65 46
4 1 17 136 65 46
5 1 17 136 65 46
6 1 17 136 65 46
7 1 17 181 88 63
8 1 17 80 58 33
9 1 17 80 58 33
10 1 17 57 38 19
11 1 17 80 58 33
12 1 17 80 58 33
13 1 17 80 58 33
14 1 17 57 38 19
15 1 17 136 65 46
16 1 17 136 65 46
17 1 17 136 65 46
3 2 17 136 65 46
4 2 17 136 65 46
5 2 17 136 65 46
6 2 17 136 65 46
7 2 17 181 88 63
15 2 17 181 88 63
16 2 17 136 65 46
17 2 17 136 65 46
3 3 17 181 88 63
5 3 17 136 65 46
6 3 17 136 65 46
7 3 17 136 65 46
15 3 17 136 65 46
16 3 17 136 65 46
17 3 17 136 65 46
3 4 17 136 65 46
4 4 17 136 65 46
6 4 17 136 65 46
7 4 17 136 65 46
15 4 17 136 65 46
16 4 17 136 65 46
17 4 17 136 65 46
4 -3 18 181 88 63
6 -3 18 136 65 46
16 -3 18 136 65 46
17 -3 18 136 65 46
4 -2 18 136 65 46
5 -2 18 136 65 46
6 -2 18 136 65 46
16 -2 18 181 88 63
17 -2 18 181 88 63
4 -1 18 181 88 63
5 -1 18 136 65 46
6 -1 18 181 88 63
16 -1 18 136 65 46
17 -1 18 181 88 63
4 0 18 136 65 46
5 0 18 136 65 46
6 0 18 181 88 63
16 0 18 136 65 46
17 0 18 181 88 63
4 1 18 136 65 46
5 1 18 136 65 46
6 1 18 136 65 46
16 1 18 181 88 63
17 1 18 181 88 63
4 2 18 181 88 63
5 2 18 136 65 46
6 2 18 181 88 63
16 2 18 181 88 63
17 2 18 181 88 63
4 3 18 136 65 46
5 3 18 136 65 46
6 3 18 136 65 46
16 3 18 136 65 46
17 3 18 181 88 63
4 4 18 136 65 46
6 4 18 181 88 63
16 4 18 136 65 46
17 4 18 136 65 46
5 -3 19 136 65 46
5 -2 19 181 88 63
5 -1 19 181 88 63
5 0 19 181 88 63
5 1 19 136 65 46
5 2 19 136 65 46
5 3 19 181 88 63
5 4 19 136 65 46
5 0 20 136 65 46
5 1 20 181 88 63
