ply
format ascii 1.0
comment : MagicaVoxel @ Ephtracy
element vertex 1084
property float x
property float y
property float z
property uchar red
property uchar green
property uchar blue
end_header
2 -12 0 57 38 19
9 -12 0 57 38 19
2 -10 0 80 58 33
3 -10 0 80 58 33
4 -10 0 80 58 33
5 -10 0 80 58 33
6 -10 0 80 58 33
7 -10 0 80 58 33
8 -10 0 80 58 33
9 -10 0 80 58 33
10 -10 0 57 38 19
11 -10 0 80 58 33
12 -10 0 80 58 33
13 -10 0 80 58 33
14 -10 0 80 58 33
15 -10 0 80 58 33
16 -10 0 80 58 33
17 -10 0 80 58 33
2 -1 0 80 58 33
3 -1 0 80 58 33
4 -1 0 80 58 33
5 -1 0 80 58 33
6 -1 0 80 58 33
7 -1 0 80 58 33
8 -1 0 80 58 33
9 -1 0 80 58 33
10 -1 0 57 38 19
11 -1 0 80 58 33
12 -1 0 80 58 33
13 -1 0 80 58 33
14 -1 0 80 58 33
15 -1 0 80 58 33
16 -1 0 80 58 33
17 -1 0 80 58 33
2 1 0 57 38 19
9 1 0 57 38 19
2 -12 1 57 38 19
9 -12 1 57 38 19
2 -9 1 151 112 58
3 -9 1 198 147 70
4 -9 1 198 147 70
5 -9 1 198 147 70
6 -9 1 198 147 70
7 -9 1 198 147 70
8 -9 1 198 147 70
9 -9 1 198 147 70
10 -9 1 151 112 58
11 -9 1 151 112 58
12 -9 1 198 147 70
13 -9 1 198 147 70
14 -9 1 151 112 58
15 -9 1 198 147 70
16 -9 1 198 147 70
17 -9 1 151 112 58
2 -2 1 151 112 58
3 -2 1 198 147 70
4 -2 1 198 147 70
5 -2 1 198 147 70
6 -2 1 198 147 70
7 -2 1 198 147 70
8 -2 1 198 147 70
9 -2 1 198 147 70
10 -2 1 151 112 58
11 -2 1 151 112 58
12 -2 1 198 147 70
13 -2 1 198 147 70
14 -2 1 151 112 58
15 -2 1 198 147 70
16 -2 1 198 147 70
17 -2 1 151 112 58
2 1 1 57 38 19
9 1 1 57 38 19
2 -12 2 57 38 19
9 -12 2 57 38 19
2 -9 2 151 112 58
3 -9 2 198 147 70
4 -9 2 198 147 70
5 -9 2 198 147 70
6 -9 2 198 147 70
7 -9 2 198 147 70
8 -9 2 198 147 70
9 -9 2 198 147 70
10 -9 2 151 112 58
11 -9 2 151 112 58
12 -9 2 198 147 70
13 -9 2 198 147 70
14 -9 2 198 147 70
15 -9 2 198 147 70
16 -9 2 198 147 70
17 -9 2 151 112 58
2 -2 2 151 112 58
3 -2 2 198 147 70
4 -2 2 198 147 70
5 -2 2 198 147 70
6 -2 2 198 147 70
7 -2 2 198 147 70
8 -2 2 198 147 70
9 -2 2 198 147 70
10 -2 2 151 112 58
11 -2 2 151 112 58
12 -2 2 198 147 70
13 -2 2 198 147 70
14 -2 2 198 147 70
15 -2 2 198 147 70
16 -2 2 198 147 70
17 -2 2 151 112 58
2 1 2 57 38 19
9 1 2 57 38 19
2 -12 3 57 38 19
9 -12 3 57 38 19
4 -10 3 80 58 33
5 -10 3 80 58 33
12 -10 3 80 58 33
13 -10 3 80 58 33
14 -10 3 80 58 33
2 -9 3 151 112 58
3 -9 3 198 147 70
4 -9 3 198 147 70
5 -9 3 198 147 70
6 -9 3 198 147 70
7 -9 3 198 147 70
8 -9 3 198 147 70
9 -9 3 198 147 70
10 -9 3 198 147 70
11 -9 3 198 147 70
12 -9 3 198 147 70
13 -9 3 198 147 70
14 -9 3 198 147 70
15 -9 3 198 147 70
16 -9 3 198 147 70
17 -9 3 198 147 70
2 -2 3 151 112 58
3 -2 3 198 147 70
4 -2 3 198 147 70
5 -2 3 198 147 70
6 -2 3 198 147 70
7 -2 3 198 147 70
8 -2 3 198 147 70
9 -2 3 198 147 70
10 -2 3 198 147 70
11 -2 3 198 147 70
12 -2 3 198 147 70
13 -2 3 198 147 70
14 -2 3 198 147 70
15 -2 3 198 147 70
16 -2 3 198 147 70
17 -2 3 198 147 70
4 -1 3 80 58 33
5 -1 3 80 58 33
12 -1 3 80 58 33
13 -1 3 80 58 33
14 -1 3 80 58 33
2 1 3 57 38 19
9 1 3 57 38 19
2 -12 4 80 58 33
9 -12 4 57 38 19
4 -10 4 80 58 33
5 -10 4 80 58 33
12 -10 4 80 58 33
13 -10 4 80 58 33
14 -10 4 80 58 33
2 -9 4 151 112 58
3 -9 4 198 147 70
4 -9 4 198 147 70
5 -9 4 198 147 70
6 -9 4 198 147 70
7 -9 4 198 147 70
8 -9 4 198 147 70
9 -9 4 198 147 70
10 -9 4 198 147 70
11 -9 4 151 112 58
12 -9 4 198 147 70
13 -9 4 198 147 70
14 -9 4 198 147 70
15 -9 4 198 147 70
16 -9 4 198 147 70
17 -9 4 151 112 58
2 -2 4 151 112 58
3 -2 4 198 147 70
4 -2 4 198 147 70
5 -2 4 198 147 70
6 -2 4 198 147 70
7 -2 4 198 147 70
8 -2 4 198 147 70
9 -2 4 198 147 70
10 -2 4 198 147 70
11 -2 4 151 112 58
12 -2 4 198 147 70
13 -2 4 198 147 70
14 -2 4 198 147 70
15 -2 4 198 147 70
16 -2 4 198 147 70
17 -2 4 151 112 58
4 -1 4 80 58 33
5 -1 4 80 58 33
12 -1 4 80 58 33
13 -1 4 80 58 33
14 -1 4 80 58 33
2 1 4 80 58 33
9 1 4 57 38 19
2 -12 5 80 58 33
9 -12 5 57 38 19
4 -10 5 80 58 33
5 -10 5 57 38 19
12 -10 5 80 58 33
13 -10 5 57 38 19
14 -10 5 80 58 33
2 -9 5 198 147 70
3 -9 5 198 147 70
4 -9 5 198 147 70
5 -9 5 198 147 70
6 -9 5 198 147 70
7 -9 5 198 147 70
8 -9 5 198 147 70
9 -9 5 198 147 70
10 -9 5 198 147 70
11 -9 5 198 147 70
12 -9 5 198 147 70
13 -9 5 198 147 70
14 -9 5 198 147 70
15 -9 5 198 147 70
16 -9 5 198 147 70
17 -9 5 198 147 70
2 -2 5 198 147 70
3 -2 5 198 147 70
4 -2 5 198 147 70
5 -2 5 198 147 70
6 -2 5 198 147 70
7 -2 5 198 147 70
8 -2 5 198 147 70
9 -2 5 198 147 70
10 -2 5 198 147 70
11 -2 5 198 147 70
12 -2 5 198 147 70
13 -2 5 198 147 70
14 -2 5 198 147 70
15 -2 5 198 147 70
16 -2 5 198 147 70
17 -2 5 198 147 70
4 -1 5 80 58 33
5 -1 5 57 38 19
12 -1 5 80 58 33
13 -1 5 57 38 19
14 -1 5 80 58 33
2 1 5 80 58 33
9 1 5 57 38 19
2 -12 6 80 58 33
9 -12 6 57 38 19
3 -10 6 80 58 33
4 -10 6 57 38 19
5 -10 6 80 58 33
6 -10 6 57 38 19
7 -10 6 80 58 33
8 -10 6 80 58 33
9 -10 6 80 58 33
10 -10 6 80 58 33
11 -10 6 80 58 33
12 -10 6 57 38 19
13 -10 6 80 58 33
14 -10 6 57 38 19
15 -10 6 80 58 33
16 -10 6 80 58 33
17 -10 6 80 58 33
2 -9 6 198 147 70
3 -9 6 198 147 70
4 -9 6 198 147 70
5 -9 6 198 147 70
6 -9 6 198 147 70
7 -9 6 198 147 70
8 -9 6 198 147 70
9 -9 6 198 147 70
10 -9 6 198 147 70
11 -9 6 198 147 70
12 -9 6 198 147 70
13 -9 6 198 147 70
14 -9 6 198 147 70
15 -9 6 198 147 70
16 -9 6 198 147 70
17 -9 6 198 147 70
2 -2 6 198 147 70
3 -2 6 198 147 70
4 -2 6 198 147 70
5 -2 6 198 147 70
6 -2 6 198 147 70
7 -2 6 198 147 70
8 -2 6 198 147 70
9 -2 6 198 147 70
10 -2 6 198 147 70
11 -2 6 198 147 70
12 -2 6 198 147 70
13 -2 6 198 147 70
14 -2 6 198 147 70
15 -2 6 198 147 70
16 -2 6 198 147 70
17 -2 6 198 147 70
3 -1 6 80 58 33
4 -1 6 57 38 19
5 -1 6 80 58 33
6 -1 6 57 38 19
7 -1 6 80 58 33
8 -1 6 80 58 33
9 -1 6 80 58 33
10 -1 6 80 58 33
11 -1 6 80 58 33
12 -1 6 57 38 19
13 -1 6 80 58 33
14 -1 6 57 38 19
15 -1 6 80 58 33
16 -1 6 80 58 33
17 -1 6 80 58 33
2 1 6 80 58 33
9 1 6 57 38 19
2 -12 7 57 38 19
9 -12 7 57 38 19
3 -10 7 80 58 33
4 -10 7 80 58 33
5 -10 7 57 38 19
6 -10 7 57 38 19
7 -10 7 80 58 33
8 -10 7 57 38 19
9 -10 7 80 58 33
10 -10 7 57 38 19
11 -10 7 57 38 19
12 -10 7 57 38 19
13 -10 7 57 38 19
14 -10 7 80 58 33
15 -10 7 57 38 19
16 -10 7 80 58 33
17 -10 7 80 58 33
2 -9 7 198 147 70
3 -9 7 198 147 70
4 -9 7 198 147 70
5 -9 7 198 147 70
6 -9 7 198 147 70
7 -9 7 198 147 70
8 -9 7 198 147 70
9 -9 7 198 147 70
10 -9 7 198 147 70
11 -9 7 198 147 70
12 -9 7 198 147 70
13 -9 7 198 147 70
14 -9 7 198 147 70
15 -9 7 198 147 70
16 -9 7 198 147 70
17 -9 7 198 147 70
2 -2 7 198 147 70
3 -2 7 198 147 70
4 -2 7 198 147 70
5 -2 7 198 147 70
6 -2 7 198 147 70
7 -2 7 198 147 70
8 -2 7 198 147 70
9 -2 7 198 147 70
10 -2 7 198 147 70
11 -2 7 198 147 70
12 -2 7 198 147 70
13 -2 7 198 147 70
14 -2 7 198 147 70
15 -2 7 198 147 70
16 -2 7 198 147 70
17 -2 7 198 147 70
3 -1 7 80 58 33
4 -1 7 80 58 33
5 -1 7 57 38 19
6 -1 7 57 38 19
7 -1 7 80 58 33
8 -1 7 57 38 19
9 -1 7 80 58 33
10 -1 7 57 38 19
11 -1 7 57 38 19
12 -1 7 57 38 19
13 -1 7 57 38 19
14 -1 7 80 58 33
15 -1 7 57 38 19
16 -1 7 80 58 33
17 -1 7 80 58 33
2 1 7 57 38 19
9 1 7 57 38 19
2 -12 8 57 38 19
8 -12 8 57 38 19
9 -12 8 57 38 19
10 -12 8 57 38 19
16 -12 8 57 38 19
17 -12 8 57 38 19
7 -11 8 80 58 33
8 -11 8 80 58 33
9 -11 8 80 58 33
10 -11 8 80 58 33
11 -11 8 57 38 19
15 -11 8 57 38 19
16 -11 8 80 58 33
17 -11 8 80 58 33
3 -10 8 80 58 33
4 -10 8 57 38 19
5 -10 8 57 38 19
6 -10 8 57 38 19
7 -10 8 80 58 33
8 -10 8 80 58 33
9 -10 8 80 58 33
10 -10 8 80 58 33
11 -10 8 80 58 33
12 -10 8 80 58 33
13 -10 8 57 38 19
14 -10 8 57 38 19
15 -10 8 80 58 33
16 -10 8 80 58 33
17 -10 8 80 58 33
2 -9 8 198 147 70
3 -9 8 198 147 70
4 -9 8 198 147 70
5 -9 8 198 147 70
6 -9 8 198 147 70
7 -9 8 198 147 70
8 -9 8 198 147 70
9 -9 8 198 147 70
10 -9 8 198 147 70
11 -9 8 198 147 70
12 -9 8 198 147 70
13 -9 8 198 147 70
14 -9 8 198 147 70
15 -9 8 198 147 70
16 -9 8 198 147 70
17 -9 8 198 147 70
2 -2 8 198 147 70
3 -2 8 198 147 70
4 -2 8 198 147 70
5 -2 8 198 147 70
6 -2 8 198 147 70
7 -2 8 198 147 70
8 -2 8 198 147 70
9 -2 8 198 147 70
10 -2 8 198 147 70
11 -2 8 198 147 70
12 -2 8 198 147 70
13 -2 8 198 147 70
14 -2 8 198 147 70
15 -2 8 198 147 70
16 -2 8 198 147 70
17 -2 8 198 147 70
3 -1 8 80 58 33
4 -1 8 57 38 19
5 -1 8 57 38 19
6 -1 8 57 38 19
7 -1 8 80 58 33
8 -1 8 80 58 33
9 -1 8 80 58 33
10 -1 8 80 58 33
11 -1 8 80 58 33
12 -1 8 80 58 33
13 -1 8 57 38 19
14 -1 8 57 38 19
15 -1 8 80 58 33
16 -1 8 80 58 33
17 -1 8 80 58 33
7 0 8 80 58 33
8 0 8 80 58 33
9 0 8 80 58 33
10 0 8 80 58 33
11 0 8 57 38 19
15 0 8 57 38 19
16 0 8 80 58 33
17 0 8 80 58 33
2 1 8 57 38 19
8 1 8 57 38 19
9 1 8 57 38 19
10 1 8 57 38 19
16 1 8 57 38 19
17 1 8 57 38 19
2 -12 9 57 38 19
7 -12 9 57 38 19
8 -12 9 57 38 19
9 -12 9 57 38 19
10 -12 9 57 38 19
11 -12 9 57 38 19
15 -12 9 80 58 33
16 -12 9 57 38 19
17 -12 9 57 38 19
3 -11 9 80 58 33
4 -11 9 80 58 33
5 -11 9 80 58 33
6 -11 9 80 58 33
7 -11 9 80 58 33
8 -11 9 198 147 70
9 -11 9 198 147 70
10 -11 9 80 58 33
11 -11 9 80 58 33
12 -11 9 80 58 33
13 -11 9 80 58 33
14 -11 9 80 58 33
15 -11 9 80 58 33
16 -11 9 80 58 33
17 -11 9 80 58 33
3 -10 9 198 147 70
4 -10 9 198 147 70
5 -10 9 198 147 70
6 -10 9 198 147 70
7 -10 9 198 147 70
8 -10 9 198 147 70
9 -10 9 198 147 70
10 -10 9 80 58 33
11 -10 9 80 58 33
12 -10 9 80 58 33
13 -10 9 80 58 33
14 -10 9 80 58 33
15 -10 9 80 58 33
16 -10 9 80 58 33
17 -10 9 80 58 33
2 -9 9 198 147 70
3 -9 9 198 147 70
4 -9 9 198 147 70
5 -9 9 198 147 70
6 -9 9 198 147 70
7 -9 9 198 147 70
8 -9 9 198 147 70
9 -9 9 198 147 70
10 -9 9 198 147 70
11 -9 9 198 147 70
12 -9 9 198 147 70
13 -9 9 198 147 70
14 -9 9 198 147 70
15 -9 9 198 147 70
16 -9 9 198 147 70
17 -9 9 198 147 70
2 -2 9 198 147 70
3 -2 9 198 147 70
4 -2 9 198 147 70
5 -2 9 198 147 70
6 -2 9 198 147 70
7 -2 9 198 147 70
8 -2 9 198 147 70
9 -2 9 198 147 70
10 -2 9 198 147 70
11 -2 9 198 147 70
12 -2 9 198 147 70
13 -2 9 198 147 70
14 -2 9 198 147 70
15 -2 9 198 147 70
16 -2 9 198 147 70
17 -2 9 198 147 70
3 -1 9 198 147 70
4 -1 9 198 147 70
5 -1 9 198 147 70
6 -1 9 198 147 70
7 -1 9 198 147 70
8 -1 9 198 147 70
9 -1 9 198 147 70
10 -1 9 80 58 33
11 -1 9 80 58 33
12 -1 9 80 58 33
13 -1 9 80 58 33
14 -1 9 80 58 33
15 -1 9 80 58 33
16 -1 9 80 58 33
17 -1 9 80 58 33
3 0 9 80 58 33
4 0 9 80 58 33
5 0 9 80 58 33
6 0 9 80 58 33
7 0 9 80 58 33
8 0 9 198 147 70
9 0 9 198 147 70
10 0 9 80 58 33
11 0 9 80 58 33
12 0 9 80 58 33
13 0 9 80 58 33
14 0 9 80 58 33
15 0 9 80 58 33
16 0 9 80 58 33
17 0 9 80 58 33
2 1 9 57 38 19
7 1 9 57 38 19
8 1 9 57 38 19
9 1 9 57 38 19
10 1 9 57 38 19
11 1 9 57 38 19
15 1 9 80 58 33
16 1 9 57 38 19
17 1 9 57 38 19
2 -12 10 57 38 19
3 -12 10 57 38 19
4 -12 10 57 38 19
5 -12 10 57 38 19
6 -12 10 57 38 19
7 -12 10 57 38 19
8 -12 10 57 38 19
9 -12 10 57 38 19
10 -12 10 57 38 19
11 -12 10 57 38 19
12 -12 10 57 38 19
13 -12 10 57 38 19
14 -12 10 57 38 19
15 -12 10 57 38 19
16 -12 10 57 38 19
17 -12 10 57 38 19
2 -11 10 57 38 19
3 -11 10 57 38 19
4 -11 10 57 38 19
5 -11 10 57 38 19
6 -11 10 80 58 33
7 -11 10 80 58 33
8 -11 10 80 58 33
9 -11 10 57 38 19
10 -11 10 57 38 19
11 -11 10 57 38 19
12 -11 10 80 58 33
13 -11 10 57 38 19
14 -11 10 57 38 19
15 -11 10 80 58 33
16 -11 10 57 38 19
17 -11 10 80 58 33
2 -10 10 57 38 19
3 -10 10 80 58 33
4 -10 10 57 38 19
5 -10 10 57 38 19
6 -10 10 80 58 33
7 -10 10 57 38 19
8 -10 10 57 38 19
9 -10 10 57 38 19
10 -10 10 57 38 19
11 -10 10 80 58 33
12 -10 10 80 58 33
13 -10 10 80 58 33
14 -10 10 80 58 33
15 -10 10 80 58 33
16 -10 10 57 38 19
17 -10 10 80 58 33
2 -9 10 198 147 70
3 -9 10 198 147 70
4 -9 10 198 147 70
5 -9 10 198 147 70
6 -9 10 198 147 70
7 -9 10 198 147 70
8 -9 10 198 147 70
9 -9 10 198 147 70
10 -9 10 198 147 70
11 -9 10 198 147 70
12 -9 10 198 147 70
13 -9 10 198 147 70
14 -9 10 198 147 70
15 -9 10 198 147 70
16 -9 10 198 147 70
17 -9 10 198 147 70
2 -2 10 198 147 70
3 -2 10 198 147 70
4 -2 10 198 147 70
5 -2 10 198 147 70
6 -2 10 198 147 70
7 -2 10 198 147 70
8 -2 10 198 147 70
9 -2 10 198 147 70
10 -2 10 198 147 70
11 -2 10 198 147 70
12 -2 10 198 147 70
13 -2 10 198 147 70
14 -2 10 198 147 70
15 -2 10 198 147 70
16 -2 10 198 147 70
17 -2 10 198 147 70
2 -1 10 57 38 19
3 -1 10 80 58 33
4 -1 10 57 38 19
5 -1 10 57 38 19
6 -1 10 80 58 33
7 -1 10 57 38 19
8 -1 10 57 38 19
9 -1 10 57 38 19
10 -1 10 57 38 19
11 -1 10 80 58 33
12 -1 10 80 58 33
13 -1 10 80 58 33
14 -1 10 80 58 33
15 -1 10 80 58 33
16 -1 10 57 38 19
17 -1 10 80 58 33
2 0 10 57 38 19
3 0 10 57 38 19
4 0 10 57 38 19
5 0 10 57 38 19
6 0 10 80 58 33
7 0 10 80 58 33
8 0 10 80 58 33
9 0 10 57 38 19
10 0 10 57 38 19
11 0 10 57 38 19
12 0 10 80 58 33
13 0 10 57 38 19
14 0 10 57 38 19
15 0 10 80 58 33
16 0 10 57 38 19
17 0 10 80 58 33
2 1 10 57 38 19
3 1 10 57 38 19
4 1 10 57 38 19
5 1 10 57 38 19
6 1 10 57 38 19
7 1 10 57 38 19
8 1 10 57 38 19
9 1 10 57 38 19
10 1 10 57 38 19
11 1 10 57 38 19
12 1 10 57 38 19
13 1 10 57 38 19
14 1 10 57 38 19
15 1 10 57 38 19
16 1 10 57 38 19
17 1 10 57 38 19
2 -9 11 57 38 19
3 -9 11 80 58 33
4 -9 11 57 38 19
5 -9 11 57 38 19
6 -9 11 57 38 19
7 -9 11 57 38 19
8 -9 11 57 38 19
9 -9 11 57 38 19
10 -9 11 57 38 19
11 -9 11 80 58 33
12 -9 11 80 58 33
13 -9 11 57 38 19
14 -9 11 57 38 19
15 -9 11 57 38 19
16 -9 11 80 58 33
17 -9 11 80 58 33
2 -2 11 57 38 19
3 -2 11 80 58 33
4 -2 11 57 38 19
5 -2 11 57 38 19
6 -2 11 57 38 19
7 -2 11 57 38 19
8 -2 11 57 38 19
9 -2 11 57 38 19
10 -2 11 57 38 19
11 -2 11 80 58 33
12 -2 11 80 58 33
13 -2 11 57 38 19
14 -2 11 57 38 19
15 -2 11 57 38 19
16 -2 11 80 58 33
17 -2 11 80 58 33
2 -9 12 57 38 19
3 -9 12 57 38 19
4 -9 12 80 58 33
5 -9 12 80 58 33
6 -9 12 57 38 19
7 -9 12 57 38 19
8 -9 12 80 58 33
9 -9 12 80 58 33
10 -9 12 57 38 19
11 -9 12 57 38 19
12 -9 12 57 38 19
13 -9 12 57 38 19
14 -9 12 57 38 19
15 -9 12 80 58 33
16 -9 12 80 58 33
17 -8 12 198 147 70
17 -3 12 198 147 70
2 -2 12 57 38 19
3 -2 12 57 38 19
4 -2 12 80 58 33
5 -2 12 80 58 33
6 -2 12 57 38 19
7 -2 12 57 38 19
8 -2 12 80 58 33
9 -2 12 80 58 33
10 -2 12 57 38 19
11 -2 12 57 38 19
12 -2 12 57 38 19
13 -2 12 57 38 19
14 -2 12 57 38 19
15 -2 12 80 58 33
16 -2 12 80 58 33
4 -9 13 80 58 33
6 -9 13 80 58 33
16 -9 13 80 58 33
2 -8 13 57 38 19
3 -8 13 80 58 33
4 -8 13 198 147 70
5 -8 13 198 147 70
6 -8 13 198 147 70
7 -8 13 80 58 33
8 -8 13 80 58 33
9 -8 13 57 38 19
10 -8 13 57 38 19
11 -8 13 57 38 19
12 -8 13 57 38 19
13 -8 13 80 58 33
14 -8 13 80 58 33
15 -8 13 80 58 33
16 -8 13 80 58 33
17 -8 13 198 147 70
2 -3 13 57 38 19
3 -3 13 80 58 33
4 -3 13 198 147 70
5 -3 13 198 147 70
6 -3 13 198 147 70
7 -3 13 80 58 33
8 -3 13 80 58 33
9 -3 13 57 38 19
10 -3 13 57 38 19
11 -3 13 57 38 19
12 -3 13 57 38 19
13 -3 13 80 58 33
14 -3 13 80 58 33
15 -3 13 80 58 33
16 -3 13 80 58 33
17 -3 13 198 147 70
4 -2 13 80 58 33
6 -2 13 80 58 33
16 -2 13 80 58 33
4 -9 14 80 58 33
6 -9 14 80 58 33
16 -9 14 80 58 33
2 -8 14 57 38 19
3 -8 14 80 58 33
4 -8 14 198 147 70
5 -8 14 198 147 70
6 -8 14 198 147 70
7 -8 14 57 38 19
8 -8 14 57 38 19
9 -8 14 80 58 33
10 -8 14 57 38 19
11 -8 14 57 38 19
12 -8 14 80 58 33
13 -8 14 57 38 19
14 -8 14 57 38 19
15 -8 14 80 58 33
16 -8 14 80 58 33
17 -8 14 198 147 70
3 -7 14 80 58 33
4 -7 14 198 147 70
5 -7 14 198 147 70
6 -7 14 198 147 70
3 -4 14 80 58 33
4 -4 14 198 147 70
5 -4 14 198 147 70
6 -4 14 198 147 70
2 -3 14 57 38 19
3 -3 14 80 58 33
4 -3 14 198 147 70
5 -3 14 198 147 70
6 -3 14 198 147 70
7 -3 14 57 38 19
8 -3 14 57 38 19
9 -3 14 80 58 33
10 -3 14 57 38 19
11 -3 14 57 38 19
12 -3 14 80 58 33
13 -3 14 57 38 19
14 -3 14 57 38 19
15 -3 14 80 58 33
16 -3 14 80 58 33
17 -3 14 198 147 70
4 -2 14 80 58 33
6 -2 14 80 58 33
16 -2 14 80 58 33
4 -9 15 80 58 33
6 -9 15 80 58 33
16 -9 15 80 58 33
4 -8 15 198 147 70
5 -8 15 198 147 70
6 -8 15 198 147 70
16 -8 15 198 147 70
17 -8 15 198 147 70
2 -7 15 57 38 19
3 -7 15 80 58 33
4 -7 15 198 147 70
5 -7 15 198 147 70
6 -7 15 198 147 70
7 -7 15 80 58 33
8 -7 15 57 38 19
9 -7 15 80 58 33
10 -7 15 57 38 19
11 -7 15 80 58 33
12 -7 15 80 58 33
13 -7 15 57 38 19
14 -7 15 57 38 19
15 -7 15 80 58 33
16 -7 15 80 58 33
17 -7 15 198 147 70
2 -4 15 57 38 19
3 -4 15 80 58 33
4 -4 15 198 147 70
5 -4 15 198 147 70
6 -4 15 198 147 70
7 -4 15 80 58 33
8 -4 15 57 38 19
9 -4 15 80 58 33
10 -4 15 57 38 19
11 -4 15 80 58 33
12 -4 15 80 58 33
13 -4 15 57 38 19
14 -4 15 57 38 19
15 -4 15 80 58 33
16 -4 15 80 58 33
17 -4 15 198 147 70
4 -3 15 198 147 70
5 -3 15 198 147 70
6 -3 15 198 147 70
16 -3 15 198 147 70
17 -3 15 198 147 70
4 -2 15 80 58 33
6 -2 15 80 58 33
16 -2 15 80 58 33
4 -9 16 80 58 33
6 -9 16 80 58 33
16 -9 16 80 58 33
4 -8 16 198 147 70
6 -8 16 198 147 70
16 -8 16 198 147 70
4 -7 16 198 147 70
5 -7 16 248 233 68
6 -7 16 198 147 70
16 -7 16 198 147 70
17 -7 16 248 233 68
2 -6 16 80 58 33
3 -6 16 80 58 33
4 -6 16 198 147 70
5 -6 16 198 147 70
6 -6 16 198 147 70
7 -6 16 80 58 33
8 -6 16 80 58 33
9 -6 16 80 58 33
10 -6 16 80 58 33
11 -6 16 57 38 19
12 -6 16 80 58 33
13 -6 16 80 58 33
14 -6 16 80 58 33
15 -6 16 80 58 33
16 -6 16 198 147 70
17 -6 16 198 147 70
2 -5 16 80 58 33
3 -5 16 80 58 33
4 -5 16 198 147 70
5 -5 16 198 147 70
6 -5 16 198 147 70
7 -5 16 80 58 33
8 -5 16 80 58 33
9 -5 16 80 58 33
10 -5 16 80 58 33
11 -5 16 57 38 19
12 -5 16 80 58 33
13 -5 16 80 58 33
14 -5 16 80 58 33
15 -5 16 80 58 33
16 -5 16 198 147 70
17 -5 16 198 147 70
4 -4 16 198 147 70
5 -4 16 248 233 68
6 -4 16 198 147 70
16 -4 16 198 147 70
17 -4 16 248 233 68
4 -3 16 198 147 70
6 -3 16 198 147 70
16 -3 16 198 147 70
4 -2 16 80 58 33
6 -2 16 80 58 33
16 -2 16 80 58 33
3 -9 17 136 65 46
4 -9 17 136 65 46
6 -9 17 136 65 46
7 -9 17 136 65 46
15 -9 17 136 65 46
16 -9 17 136 65 46
17 -9 17 136 65 46
3 -8 17 181 88 63
5 -8 17 136 65 46
6 -8 17 136 65 46
7 -8 17 136 65 46
15 -8 17 136 65 46
16 -8 17 136 65 46
17 -8 17 136 65 46
3 -7 17 136 65 46
4 -7 17 136 65 46
5 -7 17 136 65 46
6 -7 17 136 65 46
7 -7 17 181 88 63
15 -7 17 181 88 63
16 -7 17 136 65 46
17 -7 17 136 65 46
2 -6 17 80 58 33
3 -6 17 136 65 46
4 -6 17 136 65 46
5 -6 17 136 65 46
6 -6 17 136 65 46
7 -6 17 181 88 63
8 -6 17 80 58 33
9 -6 17 80 58 33
10 -6 17 57 38 19
11 -6 17 80 58 33
12 -6 17 80 58 33
13 -6 17 80 58 33
14 -6 17 57 38 19
15 -6 17 136 65 46
16 -6 17 136 65 46
17 -6 17 136 65 46
2 -5 17 80 58 33
3 -5 17 136 65 46
4 -5 17 136 65 46
5 -5 17 136 65 46
6 -5 17 136 65 46
7 -5 17 181 88 63
8 -5 17 80 58 33
9 -5 17 80 58 33
10 -5 17 57 38 19
11 -5 17 80 58 33
12 -5 17 80 58 33
13 -5 17 80 58 33
14 -5 17 57 38 19
15 -5 17 136 65 46
16 -5 17 136 65 46
17 -5 17 136 65 46
3 -4 17 136 65 46
4 -4 17 136 65 46
5 -4 17 136 65 46
6 -4 17 136 65 46
7 -4 17 181 88 63
15 -4 17 181 88 63
16 -4 17 136 65 46
17 -4 17 136 65 46
3 -3 17 181 88 63
5 -3 17 136 65 46
6 -3 17 136 65 46
7 -3 17 136 65 46
15 -3 17 136 65 46
16 -3 17 136 65 46
17 -3 17 136 65 46
3 -2 17 136 65 46
4 -2 17 136 65 46
6 -2 17 136 65 46
7 -2 17 136 65 46
15 -2 17 136 65 46
16 -2 17 136 65 46
17 -2 17 136 65 46
4 -9 18 136 65 46
6 -9 18 181 88 63
16 -9 18 136 65 46
17 -9 18 136 65 46
4 -8 18 136 65 46
5 -8 18 136 65 46
6 -8 18 136 65 46
16 -8 18 136 65 46
17 -8 18 136 65 46
4 -7 18 181 88 63
5 -7 18 136 65 46
6 -7 18 181 88 63
16 -7 18 181 88 63
17 -7 18 136 65 46
4 -6 18 136 65 46
5 -6 18 136 65 46
6 -6 18 136 65 46
16 -6 18 181 88 63
17 -6 18 136 65 46
4 -5 18 136 65 46
5 -5 18 136 65 46
6 -5 18 136 65 46
16 -5 18 181 88 63
17 -5 18 136 65 46
4 -4 18 181 88 63
5 -4 18 136 65 46
6 -4 18 181 88 63
16 -4 18 181 88 63
17 -4 18 136 65 46
4 -3 18 136 65 46
5 -3 18 136 65 46
6 -3 18 136 65 46
16 -3 18 136 65 46
17 -3 18 136 65 46
4 -2 18 136 65 46
6 -2 18 181 88 63
16 -2 18 136 65 46
17 -2 18 136 65 46
5 -9 19 136 65 46
5 -8 19 181 88 63
17 -8 19 136 65 46
5 -7 19 136 65 46
17 -7 19 136 65 46
5 -6 19 136 65 46
17 -6 19 136 65 46
5 -5 19 136 65 46
17 -5 19 136 65 46
5 -4 19 136 65 46
17 -4 19 136 65 46
5 -3 19 181 88 63
17 -3 19 136 65 46
5 -2 19 136 65 46
