ply
format ascii 1.0
comment : MagicaVoxel @ Ephtracy
element vertex 758
property float x
property float y
property float z
property uchar red
property uchar green
property uchar blue
end_header
26 -6 0 57 38 19
18 -4 0 80 58 33
19 -4 0 80 58 33
20 -4 0 80 58 33
21 -4 0 80 58 33
22 -4 0 80 58 33
23 -4 0 80 58 33
24 -4 0 80 58 33
25 -4 0 80 58 33
26 -4 0 80 58 33
26 -3 0 80 58 33
26 -2 0 80 58 33
26 -1 0 198 147 70
27 -1 0 198 147 70
28 -1 0 57 38 19
26 0 0 80 58 33
26 1 0 80 58 33
26 2 0 198 147 70
27 2 0 198 147 70
28 2 0 57 38 19
26 3 0 80 58 33
26 4 0 80 58 33
18 5 0 80 58 33
19 5 0 80 58 33
20 5 0 80 58 33
21 5 0 80 58 33
22 5 0 80 58 33
23 5 0 80 58 33
24 5 0 80 58 33
25 5 0 80 58 33
26 5 0 80 58 33
26 7 0 57 38 19
26 -6 1 57 38 19
18 -3 1 151 112 58
19 -3 1 151 112 58
20 -3 1 198 147 70
21 -3 1 151 112 58
22 -3 1 151 112 58
23 -3 1 198 147 70
24 -3 1 151 112 58
25 -3 1 198 147 70
26 -3 1 80 58 33
25 -2 1 198 147 70
25 -1 1 198 147 70
26 -1 1 198 147 70
27 -1 1 198 147 70
28 -1 1 57 38 19
25 0 1 198 147 70
26 0 1 80 58 33
25 1 1 198 147 70
26 1 1 80 58 33
25 2 1 198 147 70
26 2 1 198 147 70
27 2 1 198 147 70
28 2 1 57 38 19
25 3 1 198 147 70
18 4 1 151 112 58
19 4 1 151 112 58
20 4 1 151 112 58
21 4 1 151 112 58
22 4 1 151 112 58
23 4 1 198 147 70
24 4 1 151 112 58
25 4 1 198 147 70
26 4 1 80 58 33
26 7 1 57 38 19
26 -6 2 80 58 33
18 -3 2 151 112 58
19 -3 2 151 112 58
20 -3 2 198 147 70
21 -3 2 198 147 70
22 -3 2 198 147 70
23 -3 2 198 147 70
24 -3 2 151 112 58
25 -3 2 198 147 70
26 -3 2 80 58 33
25 -2 2 198 147 70
25 -1 2 198 147 70
26 -1 2 198 147 70
27 -1 2 198 147 70
28 -1 2 57 38 19
25 0 2 198 147 70
26 0 2 80 58 33
25 1 2 198 147 70
26 1 2 80 58 33
25 2 2 198 147 70
26 2 2 198 147 70
27 2 2 198 147 70
28 2 2 57 38 19
25 3 2 198 147 70
18 4 2 151 112 58
19 4 2 198 147 70
20 4 2 198 147 70
21 4 2 151 112 58
22 4 2 151 112 58
23 4 2 198 147 70
24 4 2 198 147 70
25 4 2 151 112 58
26 4 2 80 58 33
26 7 2 57 38 19
26 -6 3 80 58 33
21 -4 3 80 58 33
22 -4 3 80 58 33
18 -3 3 198 147 70
19 -3 3 198 147 70
20 -3 3 198 147 70
21 -3 3 198 147 70
22 -3 3 198 147 70
23 -3 3 198 147 70
24 -3 3 198 147 70
25 -3 3 198 147 70
26 -3 3 80 58 33
25 -2 3 198 147 70
25 -1 3 198 147 70
26 -1 3 198 147 70
27 -1 3 198 147 70
28 -1 3 57 38 19
25 0 3 198 147 70
26 0 3 80 58 33
25 1 3 198 147 70
26 1 3 80 58 33
25 2 3 198 147 70
26 2 3 198 147 70
27 2 3 198 147 70
28 2 3 57 38 19
25 3 3 198 147 70
18 4 3 198 147 70
19 4 3 198 147 70
20 4 3 198 147 70
21 4 3 198 147 70
22 4 3 198 147 70
23 4 3 198 147 70
24 4 3 198 147 70
25 4 3 198 147 70
26 4 3 80 58 33
21 5 3 80 58 33
22 5 3 80 58 33
26 7 3 57 38 19
26 -6 4 80 58 33
21 -4 4 80 58 33
22 -4 4 80 58 33
18 -3 4 151 112 58
19 -3 4 198 147 70
20 -3 4 198 147 70
21 -3 4 198 147 70
22 -3 4 198 147 70
23 -3 4 151 112 58
24 -3 4 198 147 70
25 -3 4 198 147 70
26 -3 4 80 58 33
25 -2 4 198 147 70
25 -1 4 198 147 70
26 -1 4 198 147 70
27 -1 4 198 147 70
28 -1 4 57 38 19
25 0 4 198 147 70
26 0 4 80 58 33
25 1 4 198 147 70
26 1 4 80 58 33
25 2 4 198 147 70
26 2 4 198 147 70
27 2 4 198 147 70
28 2 4 57 38 19
25 3 4 198 147 70
18 4 4 151 112 58
19 4 4 151 112 58
20 4 4 198 147 70
21 4 4 198 147 70
22 4 4 198 147 70
23 4 4 198 147 70
24 4 4 198 147 70
25 4 4 198 147 70
26 4 4 80 58 33
21 5 4 80 58 33
22 5 4 80 58 33
26 7 4 57 38 19
26 -6 5 57 38 19
21 -4 5 80 58 33
22 -4 5 80 58 33
18 -3 5 198 147 70
19 -3 5 198 147 70
20 -3 5 198 147 70
21 -3 5 198 147 70
22 -3 5 198 147 70
23 -3 5 198 147 70
24 -3 5 151 112 58
25 -3 5 198 147 70
26 -3 5 80 58 33
25 -2 5 198 147 70
26 -2 5 80 58 33
27 -2 5 57 38 19
28 -2 5 57 38 19
25 -1 5 198 147 70
26 -1 5 80 58 33
27 -1 5 198 147 70
28 -1 5 57 38 19
25 0 5 198 147 70
26 0 5 198 147 70
27 0 5 198 147 70
25 1 5 198 147 70
26 1 5 198 147 70
27 1 5 198 147 70
25 2 5 198 147 70
26 2 5 80 58 33
27 2 5 198 147 70
28 2 5 57 38 19
25 3 5 198 147 70
26 3 5 80 58 33
27 3 5 57 38 19
28 3 5 57 38 19
18 4 5 198 147 70
19 4 5 198 147 70
20 4 5 198 147 70
21 4 5 198 147 70
22 4 5 198 147 70
23 4 5 198 147 70
24 4 5 198 147 70
25 4 5 198 147 70
26 4 5 80 58 33
21 5 5 80 58 33
22 5 5 57 38 19
26 7 5 57 38 19
26 -6 6 57 38 19
18 -4 6 80 58 33
19 -4 6 80 58 33
20 -4 6 80 58 33
21 -4 6 80 58 33
22 -4 6 80 58 33
23 -4 6 80 58 33
24 -4 6 80 58 33
25 -4 6 80 58 33
18 -3 6 198 147 70
19 -3 6 198 147 70
20 -3 6 198 147 70
21 -3 6 198 147 70
22 -3 6 198 147 70
23 -3 6 198 147 70
24 -3 6 198 147 70
25 -3 6 198 147 70
26 -3 6 80 58 33
25 -2 6 198 147 70
25 -1 6 198 147 70
27 -1 6 57 38 19
28 -1 6 57 38 19
25 0 6 198 147 70
26 0 6 80 58 33
27 0 6 198 147 70
28 0 6 80 58 33
25 1 6 198 147 70
26 1 6 80 58 33
27 1 6 198 147 70
28 1 6 80 58 33
25 2 6 198 147 70
27 2 6 57 38 19
28 2 6 57 38 19
25 3 6 151 112 58
18 4 6 198 147 70
19 4 6 198 147 70
20 4 6 198 147 70
21 4 6 198 147 70
22 4 6 198 147 70
23 4 6 198 147 70
24 4 6 198 147 70
25 4 6 198 147 70
26 4 6 80 58 33
18 5 6 80 58 33
19 5 6 57 38 19
20 5 6 57 38 19
21 5 6 57 38 19
22 5 6 80 58 33
23 5 6 80 58 33
24 5 6 57 38 19
25 5 6 80 58 33
26 7 6 57 38 19
26 -6 7 57 38 19
18 -4 7 80 58 33
19 -4 7 57 38 19
20 -4 7 80 58 33
21 -4 7 80 58 33
22 -4 7 57 38 19
23 -4 7 80 58 33
24 -4 7 80 58 33
25 -4 7 80 58 33
26 -4 7 198 147 70
18 -3 7 198 147 70
19 -3 7 198 147 70
20 -3 7 198 147 70
21 -3 7 198 147 70
22 -3 7 198 147 70
23 -3 7 198 147 70
24 -3 7 198 147 70
25 -3 7 198 147 70
26 -3 7 80 58 33
25 -2 7 80 58 33
25 -1 7 198 147 70
25 0 7 198 147 70
26 0 7 80 58 33
27 0 7 80 58 33
28 0 7 80 58 33
25 1 7 198 147 70
26 1 7 80 58 33
27 1 7 80 58 33
28 1 7 80 58 33
25 2 7 151 112 58
25 3 7 198 147 70
18 4 7 198 147 70
19 4 7 198 147 70
20 4 7 198 147 70
21 4 7 198 147 70
22 4 7 198 147 70
23 4 7 198 147 70
24 4 7 198 147 70
25 4 7 198 147 70
26 4 7 80 58 33
18 5 7 80 58 33
19 5 7 80 58 33
20 5 7 80 58 33
21 5 7 80 58 33
22 5 7 80 58 33
23 5 7 80 58 33
24 5 7 57 38 19
25 5 7 80 58 33
26 5 7 198 147 70
26 7 7 57 38 19
18 -6 8 57 38 19
25 -6 8 80 58 33
26 -6 8 57 38 19
18 -5 8 80 58 33
19 -5 8 80 58 33
24 -5 8 80 58 33
25 -5 8 80 58 33
26 -5 8 198 147 70
18 -4 8 80 58 33
19 -4 8 80 58 33
20 -4 8 80 58 33
21 -4 8 57 38 19
22 -4 8 80 58 33
23 -4 8 57 38 19
24 -4 8 80 58 33
25 -4 8 80 58 33
26 -4 8 198 147 70
18 -3 8 198 147 70
19 -3 8 198 147 70
20 -3 8 198 147 70
21 -3 8 198 147 70
22 -3 8 198 147 70
23 -3 8 198 147 70
24 -3 8 198 147 70
25 -3 8 198 147 70
26 -3 8 80 58 33
25 -2 8 151 112 58
25 -1 8 151 112 58
25 0 8 151 112 58
25 1 8 151 112 58
25 2 8 151 112 58
25 3 8 198 147 70
18 4 8 198 147 70
19 4 8 198 147 70
20 4 8 198 147 70
21 4 8 198 147 70
22 4 8 198 147 70
23 4 8 198 147 70
24 4 8 198 147 70
25 4 8 198 147 70
26 4 8 80 58 33
18 5 8 80 58 33
19 5 8 80 58 33
20 5 8 57 38 19
21 5 8 57 38 19
22 5 8 80 58 33
23 5 8 80 58 33
24 5 8 80 58 33
25 5 8 80 58 33
26 5 8 198 147 70
18 6 8 80 58 33
19 6 8 80 58 33
24 6 8 80 58 33
25 6 8 80 58 33
26 6 8 198 147 70
18 7 8 57 38 19
25 7 8 57 38 19
26 7 8 57 38 19
18 -6 9 57 38 19
19 -6 9 57 38 19
24 -6 9 57 38 19
25 -6 9 57 38 19
26 -6 9 57 38 19
27 -6 9 57 38 19
18 -5 9 80 58 33
19 -5 9 80 58 33
20 -5 9 80 58 33
21 -5 9 80 58 33
22 -5 9 80 58 33
23 -5 9 80 58 33
24 -5 9 198 147 70
25 -5 9 198 147 70
26 -5 9 198 147 70
18 -4 9 80 58 33
19 -4 9 80 58 33
20 -4 9 80 58 33
21 -4 9 80 58 33
22 -4 9 80 58 33
23 -4 9 80 58 33
24 -4 9 198 147 70
25 -4 9 198 147 70
26 -4 9 198 147 70
18 -3 9 198 147 70
19 -3 9 198 147 70
20 -3 9 198 147 70
21 -3 9 198 147 70
22 -3 9 198 147 70
23 -3 9 198 147 70
24 -3 9 198 147 70
25 -3 9 198 147 70
26 -3 9 80 58 33
25 -2 9 198 147 70
25 -1 9 151 112 58
25 0 9 198 147 70
25 1 9 151 112 58
25 2 9 151 112 58
25 3 9 198 147 70
18 4 9 198 147 70
19 4 9 198 147 70
20 4 9 198 147 70
21 4 9 198 147 70
22 4 9 198 147 70
23 4 9 198 147 70
24 4 9 198 147 70
25 4 9 198 147 70
26 4 9 80 58 33
18 5 9 80 58 33
19 5 9 80 58 33
20 5 9 80 58 33
21 5 9 80 58 33
22 5 9 80 58 33
23 5 9 80 58 33
24 5 9 198 147 70
25 5 9 198 147 70
26 5 9 198 147 70
18 6 9 80 58 33
19 6 9 80 58 33
20 6 9 80 58 33
21 6 9 57 38 19
22 6 9 57 38 19
23 6 9 80 58 33
24 6 9 198 147 70
25 6 9 198 147 70
26 6 9 198 147 70
18 7 9 57 38 19
19 7 9 57 38 19
24 7 9 57 38 19
25 7 9 57 38 19
26 7 9 57 38 19
27 7 9 57 38 19
18 -6 10 57 38 19
19 -6 10 57 38 19
20 -6 10 57 38 19
21 -6 10 57 38 19
22 -6 10 57 38 19
23 -6 10 57 38 19
24 -6 10 57 38 19
25 -6 10 57 38 19
26 -6 10 57 38 19
27 -6 10 57 38 19
18 -5 10 80 58 33
19 -5 10 80 58 33
20 -5 10 80 58 33
21 -5 10 80 58 33
22 -5 10 57 38 19
23 -5 10 57 38 19
24 -5 10 57 38 19
25 -5 10 57 38 19
26 -5 10 57 38 19
27 -5 10 57 38 19
18 -4 10 57 38 19
19 -4 10 57 38 19
20 -4 10 57 38 19
21 -4 10 80 58 33
22 -4 10 57 38 19
23 -4 10 57 38 19
24 -4 10 57 38 19
25 -4 10 57 38 19
26 -4 10 57 38 19
27 -4 10 57 38 19
18 -3 10 198 147 70
19 -3 10 198 147 70
20 -3 10 198 147 70
21 -3 10 198 147 70
22 -3 10 198 147 70
23 -3 10 198 147 70
24 -3 10 198 147 70
25 -3 10 198 147 70
26 -3 10 80 58 33
25 -2 10 198 147 70
25 -1 10 151 112 58
25 0 10 151 112 58
25 1 10 198 147 70
25 2 10 151 112 58
25 3 10 198 147 70
18 4 10 198 147 70
19 4 10 198 147 70
20 4 10 198 147 70
21 4 10 198 147 70
22 4 10 198 147 70
23 4 10 198 147 70
24 4 10 198 147 70
25 4 10 198 147 70
26 4 10 80 58 33
18 5 10 80 58 33
19 5 10 80 58 33
20 5 10 57 38 19
21 5 10 57 38 19
22 5 10 57 38 19
23 5 10 57 38 19
24 5 10 57 38 19
25 5 10 57 38 19
26 5 10 57 38 19
27 5 10 57 38 19
18 6 10 57 38 19
19 6 10 57 38 19
20 6 10 57 38 19
21 6 10 57 38 19
22 6 10 57 38 19
23 6 10 57 38 19
24 6 10 57 38 19
25 6 10 80 58 33
26 6 10 80 58 33
27 6 10 57 38 19
18 7 10 57 38 19
19 7 10 57 38 19
20 7 10 57 38 19
21 7 10 57 38 19
22 7 10 57 38 19
23 7 10 57 38 19
24 7 10 57 38 19
25 7 10 57 38 19
26 7 10 57 38 19
27 7 10 57 38 19
18 -3 11 80 58 33
19 -3 11 80 58 33
20 -3 11 80 58 33
21 -3 11 57 38 19
22 -3 11 57 38 19
23 -3 11 80 58 33
24 -3 11 80 58 33
25 -3 11 57 38 19
26 -3 11 57 38 19
25 -2 11 151 112 58
25 -1 11 198 147 70
24 0 11 80 58 33
24 1 11 80 58 33
25 2 11 198 147 70
25 3 11 198 147 70
18 4 11 80 58 33
19 4 11 80 58 33
20 4 11 80 58 33
21 4 11 57 38 19
22 4 11 57 38 19
23 4 11 57 38 19
24 4 11 80 58 33
25 4 11 57 38 19
26 4 11 57 38 19
18 -3 12 80 58 33
19 -3 12 57 38 19
20 -3 12 57 38 19
21 -3 12 57 38 19
22 -3 12 80 58 33
23 -3 12 57 38 19
24 -3 12 57 38 19
25 -3 12 57 38 19
26 -3 12 80 58 33
25 -2 12 198 147 70
25 -1 12 198 147 70
24 0 12 80 58 33
24 1 12 80 58 33
25 2 12 198 147 70
25 3 12 198 147 70
18 4 12 80 58 33
19 4 12 57 38 19
20 4 12 57 38 19
21 4 12 57 38 19
22 4 12 80 58 33
23 4 12 57 38 19
24 4 12 57 38 19
25 4 12 57 38 19
26 4 12 80 58 33
18 -3 13 57 38 19
18 -2 13 57 38 19
19 -2 13 57 38 19
20 -2 13 57 38 19
21 -2 13 80 58 33
22 -2 13 57 38 19
23 -2 13 57 38 19
24 -2 13 80 58 33
25 -2 13 80 58 33
26 -2 13 80 58 33
18 -1 13 80 58 33
19 -1 13 80 58 33
20 -1 13 80 58 33
21 -1 13 80 58 33
22 -1 13 80 58 33
23 -1 13 80 58 33
24 -1 13 80 58 33
25 -1 13 198 147 70
24 0 13 198 147 70
25 0 13 198 147 70
24 1 13 198 147 70
25 1 13 198 147 70
18 2 13 80 58 33
19 2 13 80 58 33
20 2 13 80 58 33
21 2 13 80 58 33
22 2 13 80 58 33
23 2 13 80 58 33
24 2 13 80 58 33
25 2 13 151 112 58
18 3 13 80 58 33
19 3 13 80 58 33
20 3 13 57 38 19
21 3 13 80 58 33
22 3 13 57 38 19
23 3 13 57 38 19
24 3 13 80 58 33
25 3 13 80 58 33
26 3 13 80 58 33
18 4 13 80 58 33
18 -3 14 57 38 19
18 -2 14 57 38 19
19 -2 14 57 38 19
20 -2 14 57 38 19
21 -2 14 57 38 19
22 -2 14 80 58 33
23 -2 14 57 38 19
24 -2 14 57 38 19
25 -2 14 57 38 19
26 -2 14 80 58 33
18 -1 14 80 58 33
19 -1 14 80 58 33
20 -1 14 80 58 33
21 -1 14 80 58 33
22 -1 14 80 58 33
23 -1 14 80 58 33
24 -1 14 80 58 33
25 -1 14 198 147 70
26 -1 14 80 58 33
24 0 14 198 147 70
25 0 14 151 112 58
24 1 14 198 147 70
25 1 14 198 147 70
18 2 14 80 58 33
19 2 14 80 58 33
20 2 14 80 58 33
21 2 14 80 58 33
22 2 14 80 58 33
23 2 14 80 58 33
24 2 14 80 58 33
25 2 14 198 147 70
26 2 14 80 58 33
18 3 14 80 58 33
19 3 14 80 58 33
20 3 14 57 38 19
21 3 14 57 38 19
22 3 14 80 58 33
23 3 14 57 38 19
24 3 14 57 38 19
25 3 14 57 38 19
26 3 14 80 58 33
18 4 14 80 58 33
18 -3 15 57 38 19
18 -2 15 57 38 19
18 -1 15 80 58 33
19 -1 15 80 58 33
20 -1 15 57 38 19
21 -1 15 57 38 19
22 -1 15 80 58 33
23 -1 15 80 58 33
24 -1 15 57 38 19
25 -1 15 80 58 33
26 -1 15 80 58 33
24 0 15 198 147 70
25 0 15 198 147 70
24 1 15 198 147 70
25 1 15 198 147 70
18 2 15 80 58 33
19 2 15 80 58 33
20 2 15 57 38 19
21 2 15 57 38 19
22 2 15 80 58 33
23 2 15 80 58 33
24 2 15 57 38 19
25 2 15 80 58 33
26 2 15 80 58 33
18 3 15 80 58 33
18 4 15 80 58 33
18 -3 16 57 38 19
18 -2 16 57 38 19
18 -1 16 80 58 33
18 0 16 80 58 33
19 0 16 80 58 33
20 0 16 57 38 19
21 0 16 57 38 19
22 0 16 80 58 33
23 0 16 57 38 19
24 0 16 80 58 33
25 0 16 57 38 19
26 0 16 80 58 33
18 1 16 80 58 33
19 1 16 80 58 33
20 1 16 57 38 19
21 1 16 57 38 19
22 1 16 80 58 33
23 1 16 57 38 19
24 1 16 80 58 33
25 1 16 57 38 19
26 1 16 80 58 33
18 2 16 80 58 33
18 3 16 80 58 33
18 4 16 80 58 33
18 -3 17 136 65 46
19 -3 17 181 88 63
18 -2 17 136 65 46
19 -2 17 136 65 46
18 -1 17 136 65 46
19 -1 17 136 65 46
18 0 17 136 65 46
19 0 17 136 65 46
20 0 17 57 38 19
21 0 17 80 58 33
22 0 17 80 58 33
23 0 17 80 58 33
24 0 17 80 58 33
25 0 17 80 58 33
26 0 17 80 58 33
18 1 17 136 65 46
19 1 17 136 65 46
20 1 17 80 58 33
21 1 17 80 58 33
22 1 17 57 38 19
23 1 17 80 58 33
24 1 17 57 38 19
25 1 17 57 38 19
26 1 17 80 58 33
18 2 17 136 65 46
19 2 17 181 88 63
18 3 17 136 65 46
19 3 17 136 65 46
18 4 17 136 65 46
19 4 17 136 65 46
18 -3 18 136 65 46
18 -2 18 181 88 63
18 -1 18 181 88 63
18 0 18 181 88 63
26 0 18 80 58 33
18 1 18 181 88 63
26 1 18 80 58 33
18 2 18 181 88 63
18 3 18 181 88 63
18 4 18 136 65 46
