ply
format ascii 1.0
comment : MagicaVoxel @ Ephtracy
element vertex 1324
property float x
property float y
property float z
property uchar red
property uchar green
property uchar blue
end_header
-19 -6 0 136 65 46
-18 -6 0 136 65 46
-20 -5 0 136 65 46
-19 -5 0 136 65 46
-18 -5 0 136 65 46
-17 -5 0 136 65 46
-16 -5 0 151 112 58
-15 -5 0 151 112 58
-25 -4 0 151 112 58
-24 -4 0 198 147 70
-23 -4 0 151 112 58
-22 -4 0 198 147 70
-21 -4 0 151 112 58
-20 -4 0 80 58 33
-19 -4 0 80 58 33
-18 -4 0 80 58 33
-17 -4 0 136 65 46
-16 -4 0 136 65 46
-25 -3 0 151 112 58
-27 -2 0 80 58 33
-26 -2 0 198 147 70
-25 -2 0 198 147 70
-29 -1 0 198 147 70
-28 -1 0 80 58 33
-29 0 0 198 147 70
-28 0 0 198 147 70
-29 1 0 198 147 70
-28 1 0 198 147 70
-29 2 0 198 147 70
-28 2 0 80 58 33
-27 3 0 80 58 33
-26 3 0 198 147 70
-25 3 0 198 147 70
-25 4 0 151 112 58
-25 5 0 198 147 70
-24 5 0 151 112 58
-23 5 0 151 112 58
-22 5 0 198 147 70
-21 5 0 151 112 58
-20 5 0 80 58 33
-19 5 0 80 58 33
-18 5 0 80 58 33
-17 5 0 136 65 46
-16 5 0 136 65 46
-20 6 0 136 65 46
-19 6 0 136 65 46
-18 6 0 136 65 46
-17 6 0 136 65 46
-16 6 0 151 112 58
-15 6 0 151 112 58
-19 7 0 136 65 46
-18 7 0 136 65 46
-19 -6 1 136 65 46
-18 -6 1 136 65 46
-20 -5 1 136 65 46
-19 -5 1 136 65 46
-18 -5 1 136 65 46
-17 -5 1 136 65 46
-16 -5 1 151 112 58
-15 -5 1 151 112 58
-25 -4 1 151 112 58
-24 -4 1 198 147 70
-23 -4 1 151 112 58
-22 -4 1 151 112 58
-21 -4 1 151 112 58
-20 -4 1 80 58 33
-19 -4 1 80 58 33
-18 -4 1 80 58 33
-17 -4 1 136 65 46
-16 -4 1 136 65 46
-25 -3 1 151 112 58
-27 -2 1 80 58 33
-26 -2 1 198 147 70
-25 -2 1 198 147 70
-29 -1 1 198 147 70
-28 -1 1 80 58 33
-27 -1 1 198 147 70
-26 -1 1 198 147 70
-25 -1 1 198 147 70
-29 0 1 80 58 33
-28 0 1 198 147 70
-27 0 1 198 147 70
-26 0 1 198 147 70
-25 0 1 198 147 70
-29 1 1 80 58 33
-28 1 1 198 147 70
-27 1 1 198 147 70
-26 1 1 198 147 70
-25 1 1 198 147 70
-29 2 1 198 147 70
-28 2 1 80 58 33
-27 2 1 198 147 70
-26 2 1 198 147 70
-25 2 1 198 147 70
-27 3 1 80 58 33
-26 3 1 198 147 70
-25 3 1 198 147 70
-25 4 1 151 112 58
-24 4 1 198 147 70
-23 4 1 198 147 70
-22 4 1 198 147 70
-21 4 1 198 147 70
-20 4 1 80 58 33
-19 4 1 80 58 33
-18 4 1 80 58 33
-17 4 1 136 65 46
-25 5 1 151 112 58
-24 5 1 151 112 58
-23 5 1 151 112 58
-22 5 1 151 112 58
-21 5 1 198 147 70
-20 5 1 80 58 33
-19 5 1 80 58 33
-18 5 1 80 58 33
-17 5 1 136 65 46
-16 5 1 136 65 46
-20 6 1 136 65 46
-19 6 1 136 65 46
-18 6 1 136 65 46
-17 6 1 136 65 46
-16 6 1 151 112 58
-15 6 1 151 112 58
-19 7 1 136 65 46
-18 7 1 136 65 46
-19 -6 2 136 65 46
-18 -6 2 136 65 46
-20 -5 2 136 65 46
-19 -5 2 136 65 46
-18 -5 2 136 65 46
-17 -5 2 136 65 46
-16 -5 2 151 112 58
-15 -5 2 151 112 58
-25 -4 2 198 147 70
-24 -4 2 198 147 70
-23 -4 2 151 112 58
-22 -4 2 198 147 70
-21 -4 2 198 147 70
-20 -4 2 80 58 33
-19 -4 2 80 58 33
-18 -4 2 80 58 33
-17 -4 2 136 65 46
-16 -4 2 136 65 46
-25 -3 2 198 147 70
-27 -2 2 80 58 33
-26 -2 2 198 147 70
-25 -2 2 198 147 70
-29 -1 2 198 147 70
-28 -1 2 80 58 33
-27 -1 2 198 147 70
-26 -1 2 198 147 70
-25 -1 2 198 147 70
-29 0 2 80 58 33
-28 0 2 198 147 70
-27 0 2 198 147 70
-26 0 2 198 147 70
-25 0 2 198 147 70
-29 1 2 80 58 33
-28 1 2 198 147 70
-27 1 2 198 147 70
-26 1 2 198 147 70
-25 1 2 198 147 70
-29 2 2 198 147 70
-28 2 2 80 58 33
-27 2 2 198 147 70
-26 2 2 198 147 70
-25 2 2 198 147 70
-27 3 2 80 58 33
-26 3 2 198 147 70
-25 3 2 198 147 70
-25 4 2 198 147 70
-25 5 2 198 147 70
-24 5 2 198 147 70
-23 5 2 198 147 70
-22 5 2 151 112 58
-21 5 2 198 147 70
-20 5 2 80 58 33
-19 5 2 80 58 33
-18 5 2 80 58 33
-17 5 2 136 65 46
-16 5 2 136 65 46
-20 6 2 136 65 46
-19 6 2 136 65 46
-18 6 2 136 65 46
-17 6 2 136 65 46
-16 6 2 151 112 58
-15 6 2 151 112 58
-19 7 2 136 65 46
-18 7 2 136 65 46
-19 -6 3 136 65 46
-18 -6 3 136 65 46
-20 -5 3 136 65 46
-19 -5 3 136 65 46
-18 -5 3 136 65 46
-17 -5 3 136 65 46
-16 -5 3 151 112 58
-15 -5 3 151 112 58
-25 -4 3 151 112 58
-24 -4 3 151 112 58
-23 -4 3 198 147 70
-22 -4 3 151 112 58
-21 -4 3 198 147 70
-20 -4 3 80 58 33
-19 -4 3 80 58 33
-18 -4 3 80 58 33
-17 -4 3 136 65 46
-16 -4 3 136 65 46
-25 -3 3 198 147 70
-27 -2 3 80 58 33
-26 -2 3 198 147 70
-25 -2 3 198 147 70
-29 -1 3 198 147 70
-28 -1 3 80 58 33
-27 -1 3 198 147 70
-26 -1 3 198 147 70
-25 -1 3 198 147 70
-29 0 3 80 58 33
-28 0 3 198 147 70
-27 0 3 198 147 70
-26 0 3 198 147 70
-25 0 3 198 147 70
-29 1 3 80 58 33
-28 1 3 198 147 70
-27 1 3 198 147 70
-26 1 3 198 147 70
-25 1 3 198 147 70
-29 2 3 198 147 70
-28 2 3 80 58 33
-27 2 3 198 147 70
-26 2 3 198 147 70
-25 2 3 198 147 70
-27 3 3 80 58 33
-26 3 3 198 147 70
-25 3 3 198 147 70
-25 4 3 198 147 70
-25 5 3 151 112 58
-24 5 3 151 112 58
-23 5 3 151 112 58
-22 5 3 198 147 70
-21 5 3 198 147 70
-20 5 3 80 58 33
-19 5 3 80 58 33
-18 5 3 80 58 33
-17 5 3 136 65 46
-16 5 3 136 65 46
-20 6 3 136 65 46
-19 6 3 136 65 46
-18 6 3 136 65 46
-17 6 3 136 65 46
-16 6 3 151 112 58
-15 6 3 151 112 58
-19 7 3 136 65 46
-18 7 3 136 65 46
-19 -6 4 136 65 46
-18 -6 4 136 65 46
-20 -5 4 136 65 46
-19 -5 4 136 65 46
-18 -5 4 136 65 46
-17 -5 4 136 65 46
-16 -5 4 198 147 70
-15 -5 4 198 147 70
-25 -4 4 198 147 70
-24 -4 4 198 147 70
-23 -4 4 198 147 70
-22 -4 4 198 147 70
-21 -4 4 198 147 70
-20 -4 4 80 58 33
-19 -4 4 80 58 33
-18 -4 4 80 58 33
-17 -4 4 136 65 46
-16 -4 4 136 65 46
-25 -3 4 198 147 70
-27 -2 4 80 58 33
-26 -2 4 198 147 70
-25 -2 4 198 147 70
-29 -1 4 198 147 70
-28 -1 4 80 58 33
-27 -1 4 198 147 70
-26 -1 4 198 147 70
-25 -1 4 198 147 70
-29 0 4 198 147 70
-28 0 4 198 147 70
-27 0 4 198 147 70
-26 0 4 198 147 70
-25 0 4 198 147 70
-29 1 4 198 147 70
-28 1 4 198 147 70
-27 1 4 198 147 70
-26 1 4 198 147 70
-25 1 4 198 147 70
-29 2 4 198 147 70
-28 2 4 80 58 33
-27 2 4 198 147 70
-26 2 4 198 147 70
-25 2 4 198 147 70
-27 3 4 80 58 33
-26 3 4 198 147 70
-25 3 4 198 147 70
-25 4 4 198 147 70
-25 5 4 198 147 70
-24 5 4 151 112 58
-23 5 4 198 147 70
-22 5 4 198 147 70
-21 5 4 151 112 58
-20 5 4 80 58 33
-19 5 4 80 58 33
-18 5 4 80 58 33
-17 5 4 136 65 46
-16 5 4 136 65 46
-20 6 4 136 65 46
-19 6 4 136 65 46
-18 6 4 136 65 46
-17 6 4 136 65 46
-16 6 4 198 147 70
-15 6 4 151 112 58
-19 7 4 136 65 46
-18 7 4 136 65 46
-19 -6 5 136 65 46
-18 -6 5 136 65 46
-20 -5 5 136 65 46
-19 -5 5 136 65 46
-18 -5 5 136 65 46
-17 -5 5 136 65 46
-16 -5 5 198 147 70
-15 -5 5 198 147 70
-25 -4 5 198 147 70
-24 -4 5 151 112 58
-23 -4 5 198 147 70
-22 -4 5 151 112 58
-21 -4 5 198 147 70
-20 -4 5 80 58 33
-19 -4 5 80 58 33
-18 -4 5 80 58 33
-17 -4 5 136 65 46
-16 -4 5 136 65 46
-29 -3 5 136 65 46
-28 -3 5 136 65 46
-25 -3 5 151 112 58
-29 -2 5 57 38 19
-28 -2 5 80 58 33
-27 -2 5 80 58 33
-26 -2 5 198 147 70
-25 -2 5 198 147 70
-29 -1 5 198 147 70
-28 -1 5 198 147 70
-27 -1 5 198 147 70
-26 -1 5 198 147 70
-25 -1 5 198 147 70
-29 0 5 198 147 70
-28 0 5 198 147 70
-27 0 5 198 147 70
-26 0 5 198 147 70
-25 0 5 198 147 70
-29 1 5 198 147 70
-28 1 5 198 147 70
-27 1 5 198 147 70
-26 1 5 198 147 70
-25 1 5 198 147 70
-29 2 5 198 147 70
-28 2 5 198 147 70
-27 2 5 198 147 70
-26 2 5 198 147 70
-25 2 5 198 147 70
-29 3 5 136 65 46
-28 3 5 80 58 33
-27 3 5 80 58 33
-26 3 5 198 147 70
-25 3 5 198 147 70
-29 4 5 136 65 46
-28 4 5 136 65 46
-25 4 5 151 112 58
-25 5 5 198 147 70
-24 5 5 198 147 70
-23 5 5 198 147 70
-22 5 5 151 112 58
-21 5 5 198 147 70
-20 5 5 80 58 33
-19 5 5 80 58 33
-18 5 5 80 58 33
-17 5 5 136 65 46
-16 5 5 136 65 46
-20 6 5 136 65 46
-19 6 5 136 65 46
-18 6 5 136 65 46
-17 6 5 136 65 46
-16 6 5 198 147 70
-15 6 5 151 112 58
-19 7 5 136 65 46
-18 7 5 136 65 46
-19 -6 6 136 65 46
-18 -6 6 136 65 46
-20 -5 6 136 65 46
-19 -5 6 136 65 46
-18 -5 6 136 65 46
-17 -5 6 136 65 46
-16 -5 6 151 112 58
-15 -5 6 151 112 58
-25 -4 6 198 147 70
-24 -4 6 151 112 58
-23 -4 6 198 147 70
-22 -4 6 198 147 70
-21 -4 6 198 147 70
-20 -4 6 80 58 33
-19 -4 6 80 58 33
-18 -4 6 80 58 33
-17 -4 6 136 65 46
-16 -4 6 136 65 46
-25 -3 6 198 147 70
-27 -2 6 80 58 33
-26 -2 6 198 147 70
-25 -2 6 198 147 70
-29 -1 6 136 65 46
-28 -1 6 136 65 46
-27 -1 6 198 147 70
-26 -1 6 198 147 70
-25 -1 6 198 147 70
-29 0 6 198 147 70
-28 0 6 198 147 70
-27 0 6 198 147 70
-26 0 6 198 147 70
-25 0 6 198 147 70
-29 1 6 198 147 70
-28 1 6 198 147 70
-27 1 6 198 147 70
-26 1 6 198 147 70
-25 1 6 198 147 70
-29 2 6 57 38 19
-28 2 6 136 65 46
-27 2 6 198 147 70
-26 2 6 198 147 70
-25 2 6 198 147 70
-27 3 6 80 58 33
-26 3 6 198 147 70
-25 3 6 198 147 70
-25 4 6 198 147 70
-25 5 6 151 112 58
-24 5 6 198 147 70
-23 5 6 198 147 70
-22 5 6 198 147 70
-21 5 6 198 147 70
-20 5 6 80 58 33
-19 5 6 80 58 33
-18 5 6 80 58 33
-17 5 6 136 65 46
-16 5 6 136 65 46
-20 6 6 136 65 46
-19 6 6 136 65 46
-18 6 6 136 65 46
-17 6 6 136 65 46
-16 6 6 151 112 58
-15 6 6 151 112 58
-19 7 6 136 65 46
-18 7 6 136 65 46
-19 -6 7 136 65 46
-18 -6 7 136 65 46
-20 -5 7 136 65 46
-19 -5 7 136 65 46
-18 -5 7 136 65 46
-17 -5 7 136 65 46
-16 -5 7 151 112 58
-15 -5 7 151 112 58
-25 -4 7 151 112 58
-24 -4 7 198 147 70
-23 -4 7 198 147 70
-22 -4 7 151 112 58
-21 -4 7 198 147 70
-20 -4 7 80 58 33
-19 -4 7 80 58 33
-18 -4 7 80 58 33
-17 -4 7 136 65 46
-16 -4 7 136 65 46
-25 -3 7 198 147 70
-27 -2 7 80 58 33
-26 -2 7 198 147 70
-25 -2 7 198 147 70
-29 -1 7 136 65 46
-28 -1 7 80 58 33
-27 -1 7 80 58 33
-26 -1 7 198 147 70
-25 -1 7 198 147 70
-29 0 7 198 147 70
-28 0 7 198 147 70
-27 0 7 198 147 70
-26 0 7 198 147 70
-25 0 7 198 147 70
-29 1 7 198 147 70
-28 1 7 198 147 70
-27 1 7 198 147 70
-26 1 7 198 147 70
-25 1 7 198 147 70
-29 2 7 136 65 46
-28 2 7 57 38 19
-27 2 7 136 65 46
-26 2 7 198 147 70
-25 2 7 198 147 70
-27 3 7 80 58 33
-26 3 7 198 147 70
-25 3 7 198 147 70
-25 4 7 198 147 70
-25 5 7 151 112 58
-24 5 7 198 147 70
-23 5 7 151 112 58
-22 5 7 151 112 58
-21 5 7 198 147 70
-20 5 7 80 58 33
-19 5 7 80 58 33
-18 5 7 80 58 33
-17 5 7 136 65 46
-16 5 7 136 65 46
-20 6 7 136 65 46
-19 6 7 136 65 46
-18 6 7 136 65 46
-17 6 7 136 65 46
-16 6 7 151 112 58
-15 6 7 151 112 58
-19 7 7 136 65 46
-18 7 7 136 65 46
-19 -6 8 136 65 46
-18 -6 8 136 65 46
-20 -5 8 136 65 46
-19 -5 8 136 65 46
-18 -5 8 136 65 46
-17 -5 8 136 65 46
-16 -5 8 151 112 58
-15 -5 8 151 112 58
-25 -4 8 198 147 70
-24 -4 8 198 147 70
-23 -4 8 151 112 58
-22 -4 8 198 147 70
-21 -4 8 198 147 70
-20 -4 8 80 58 33
-19 -4 8 80 58 33
-18 -4 8 80 58 33
-17 -4 8 136 65 46
-16 -4 8 136 65 46
-25 -3 8 198 147 70
-27 -2 8 80 58 33
-26 -2 8 198 147 70
-25 -2 8 198 147 70
-26 -1 8 198 147 70
-25 -1 8 198 147 70
-29 0 8 136 65 46
-28 0 8 80 58 33
-27 0 8 136 65 46
-26 0 8 198 147 70
-25 0 8 198 147 70
-29 1 8 136 65 46
-28 1 8 136 65 46
-27 1 8 80 58 33
-26 1 8 198 147 70
-25 1 8 198 147 70
-26 2 8 198 147 70
-25 2 8 198 147 70
-27 3 8 80 58 33
-26 3 8 198 147 70
-25 3 8 198 147 70
-25 4 8 198 147 70
-25 5 8 198 147 70
-24 5 8 198 147 70
-23 5 8 198 147 70
-22 5 8 198 147 70
-21 5 8 198 147 70
-20 5 8 80 58 33
-19 5 8 80 58 33
-18 5 8 80 58 33
-17 5 8 136 65 46
-16 5 8 136 65 46
-20 6 8 136 65 46
-19 6 8 136 65 46
-18 6 8 136 65 46
-17 6 8 136 65 46
-16 6 8 151 112 58
-15 6 8 151 112 58
-19 7 8 136 65 46
-18 7 8 136 65 46
-19 -6 9 136 65 46
-18 -6 9 136 65 46
-20 -5 9 136 65 46
-19 -5 9 136 65 46
-18 -5 9 136 65 46
-17 -5 9 136 65 46
-16 -5 9 198 147 70
-15 -5 9 151 112 58
-25 -4 9 198 147 70
-24 -4 9 198 147 70
-23 -4 9 198 147 70
-22 -4 9 198 147 70
-21 -4 9 198 147 70
-20 -4 9 80 58 33
-19 -4 9 80 58 33
-18 -4 9 80 58 33
-17 -4 9 136 65 46
-16 -4 9 136 65 46
-25 -3 9 198 147 70
-27 -2 9 80 58 33
-26 -2 9 198 147 70
-26 -1 9 198 147 70
-26 0 9 198 147 70
-26 1 9 198 147 70
-26 2 9 198 147 70
-27 3 9 80 58 33
-26 3 9 198 147 70
-25 4 9 198 147 70
-25 5 9 198 147 70
-24 5 9 151 112 58
-23 5 9 151 112 58
-22 5 9 151 112 58
-21 5 9 198 147 70
-20 5 9 80 58 33
-19 5 9 80 58 33
-18 5 9 80 58 33
-17 5 9 136 65 46
-16 5 9 136 65 46
-20 6 9 136 65 46
-19 6 9 136 65 46
-18 6 9 136 65 46
-17 6 9 136 65 46
-16 6 9 198 147 70
-15 6 9 198 147 70
-19 7 9 136 65 46
-18 7 9 136 65 46
-19 -6 10 136 65 46
-18 -6 10 136 65 46
-20 -5 10 136 65 46
-19 -5 10 136 65 46
-18 -5 10 136 65 46
-17 -5 10 136 65 46
-16 -5 10 198 147 70
-15 -5 10 198 147 70
-25 -4 10 198 147 70
-24 -4 10 198 147 70
-23 -4 10 198 147 70
-22 -4 10 198 147 70
-21 -4 10 198 147 70
-20 -4 10 80 58 33
-19 -4 10 80 58 33
-18 -4 10 80 58 33
-17 -4 10 136 65 46
-16 -4 10 136 65 46
-25 -3 10 198 147 70
-24 -3 10 198 147 70
-23 -3 10 198 147 70
-22 -3 10 198 147 70
-21 -3 10 198 147 70
-27 -2 10 80 58 33
-26 -2 10 198 147 70
-26 -1 10 198 147 70
-26 0 10 198 147 70
-26 1 10 198 147 70
-26 2 10 198 147 70
-27 3 10 80 58 33
-26 3 10 198 147 70
-25 4 10 198 147 70
-24 4 10 151 112 58
-23 4 10 198 147 70
-22 4 10 198 147 70
-21 4 10 198 147 70
-20 4 10 80 58 33
-19 4 10 80 58 33
-18 4 10 80 58 33
-17 4 10 57 38 19
-25 5 10 198 147 70
-24 5 10 198 147 70
-23 5 10 198 147 70
-22 5 10 198 147 70
-21 5 10 198 147 70
-20 5 10 80 58 33
-19 5 10 80 58 33
-18 5 10 80 58 33
-17 5 10 136 65 46
-16 5 10 136 65 46
-20 6 10 136 65 46
-19 6 10 136 65 46
-18 6 10 136 65 46
-17 6 10 136 65 46
-16 6 10 198 147 70
-15 6 10 198 147 70
-19 7 10 136 65 46
-18 7 10 136 65 46
-19 -6 11 136 65 46
-18 -6 11 136 65 46
-20 -5 11 136 65 46
-19 -5 11 136 65 46
-18 -5 11 136 65 46
-17 -5 11 136 65 46
-16 -5 11 198 147 70
-15 -5 11 198 147 70
-20 -4 11 136 65 46
-19 -4 11 80 58 33
-18 -4 11 80 58 33
-17 -4 11 136 65 46
-16 -4 11 198 147 70
-15 -4 11 198 147 70
-20 -3 11 80 58 33
-19 -3 11 80 58 33
-18 -3 11 80 58 33
-17 -3 11 136 65 46
-16 -3 11 198 147 70
-15 -3 11 198 147 70
-27 -2 11 80 58 33
-26 -2 11 80 58 33
-25 -2 11 151 112 58
-24 -2 11 198 147 70
-23 -2 11 198 147 70
-22 -2 11 198 147 70
-21 -2 11 198 147 70
-26 -1 11 80 58 33
-25 -1 11 198 147 70
-26 0 11 80 58 33
-25 0 11 198 147 70
-26 1 11 80 58 33
-25 1 11 198 147 70
-26 2 11 80 58 33
-25 2 11 198 147 70
-27 3 11 80 58 33
-26 3 11 80 58 33
-25 3 11 198 147 70
-24 3 11 198 147 70
-23 3 11 198 147 70
-22 3 11 198 147 70
-21 3 11 198 147 70
-20 4 11 80 58 33
-19 4 11 80 58 33
-18 4 11 80 58 33
-17 4 11 136 65 46
-16 4 11 198 147 70
-15 4 11 198 147 70
-20 5 11 136 65 46
-19 5 11 80 58 33
-18 5 11 80 58 33
-17 5 11 136 65 46
-16 5 11 198 147 70
-15 5 11 198 147 70
-20 6 11 136 65 46
-19 6 11 136 65 46
-18 6 11 136 65 46
-17 6 11 136 65 46
-16 6 11 198 147 70
-15 6 11 198 147 70
-19 7 11 136 65 46
-18 7 11 136 65 46
-19 -6 12 136 65 46
-18 -6 12 136 65 46
-20 -5 12 136 65 46
-19 -5 12 136 65 46
-18 -5 12 136 65 46
-17 -5 12 136 65 46
-20 -4 12 136 65 46
-19 -4 12 80 58 33
-18 -4 12 80 58 33
-17 -4 12 136 65 46
-20 -3 12 80 58 33
-19 -3 12 80 58 33
-18 -3 12 80 58 33
-17 -3 12 136 65 46
-27 -2 12 80 58 33
-26 -2 12 198 147 70
-25 -2 12 198 147 70
-24 -2 12 198 147 70
-23 -2 12 151 112 58
-22 -2 12 198 147 70
-21 -2 12 198 147 70
-20 -2 12 198 147 70
-19 -2 12 198 147 70
-18 -2 12 198 147 70
-17 -2 12 198 147 70
-16 -2 12 198 147 70
-15 -2 12 198 147 70
-26 -1 12 198 147 70
-25 -1 12 198 147 70
-26 0 12 198 147 70
-25 0 12 198 147 70
-26 1 12 198 147 70
-25 1 12 198 147 70
-26 2 12 198 147 70
-25 2 12 198 147 70
-27 3 12 80 58 33
-26 3 12 198 147 70
-25 3 12 198 147 70
-24 3 12 198 147 70
-23 3 12 198 147 70
-22 3 12 198 147 70
-21 3 12 198 147 70
-20 3 12 198 147 70
-19 3 12 198 147 70
-18 3 12 198 147 70
-17 3 12 198 147 70
-16 3 12 198 147 70
-15 3 12 198 147 70
-20 4 12 80 58 33
-19 4 12 80 58 33
-18 4 12 80 58 33
-17 4 12 136 65 46
-20 5 12 136 65 46
-19 5 12 80 58 33
-18 5 12 80 58 33
-17 5 12 136 65 46
-20 6 12 136 65 46
-19 6 12 136 65 46
-18 6 12 136 65 46
-17 6 12 136 65 46
-19 7 12 136 65 46
-18 7 12 136 65 46
-19 -6 13 136 65 46
-18 -6 13 136 65 46
-20 -5 13 136 65 46
-19 -5 13 136 65 46
-18 -5 13 136 65 46
-17 -5 13 136 65 46
-20 -4 13 136 65 46
-19 -4 13 80 58 33
-18 -4 13 80 58 33
-17 -4 13 136 65 46
-27 -3 13 80 58 33
-26 -3 13 57 38 19
-25 -3 13 57 38 19
-24 -3 13 80 58 33
-23 -3 13 57 38 19
-22 -3 13 57 38 19
-21 -3 13 57 38 19
-20 -3 13 80 58 33
-19 -3 13 80 58 33
-18 -3 13 80 58 33
-17 -3 13 136 65 46
-16 -3 13 57 38 19
-15 -3 13 57 38 19
-27 -2 13 80 58 33
-26 -2 13 80 58 33
-25 -2 13 80 58 33
-24 -2 13 57 38 19
-23 -2 13 57 38 19
-22 -2 13 80 58 33
-21 -2 13 80 58 33
-20 -2 13 80 58 33
-19 -2 13 198 147 70
-18 -2 13 198 147 70
-17 -2 13 198 147 70
-16 -2 13 198 147 70
-15 -2 13 198 147 70
-26 -1 13 198 147 70
-25 -1 13 198 147 70
-24 -1 13 198 147 70
-23 -1 13 198 147 70
-22 -1 13 198 147 70
-21 -1 13 198 147 70
-20 -1 13 198 147 70
-19 -1 13 198 147 70
-18 -1 13 198 147 70
-17 -1 13 198 147 70
-16 -1 13 198 147 70
-15 -1 13 198 147 70
-26 0 13 57 38 19
-25 0 13 198 147 70
-26 1 13 57 38 19
-25 1 13 198 147 70
-26 2 13 198 147 70
-25 2 13 198 147 70
-27 3 13 80 58 33
-26 3 13 80 58 33
-25 3 13 80 58 33
-24 3 13 80 58 33
-23 3 13 80 58 33
-22 3 13 80 58 33
-21 3 13 80 58 33
-20 3 13 80 58 33
-19 3 13 198 147 70
-18 3 13 198 147 70
-17 3 13 198 147 70
-16 3 13 198 147 70
-15 3 13 80 58 33
-27 4 13 80 58 33
-26 4 13 80 58 33
-25 4 13 80 58 33
-24 4 13 80 58 33
-23 4 13 80 58 33
-22 4 13 80 58 33
-21 4 13 80 58 33
-20 4 13 80 58 33
-19 4 13 80 58 33
-18 4 13 80 58 33
-17 4 13 136 65 46
-16 4 13 57 38 19
-15 4 13 57 38 19
-20 5 13 136 65 46
-19 5 13 80 58 33
-18 5 13 80 58 33
-17 5 13 136 65 46
-20 6 13 136 65 46
-19 6 13 136 65 46
-18 6 13 136 65 46
-17 6 13 136 65 46
-19 7 13 136 65 46
-18 7 13 136 65 46
-19 -6 14 136 65 46
-18 -6 14 136 65 46
-20 -5 14 136 65 46
-19 -5 14 136 65 46
-18 -5 14 136 65 46
-17 -5 14 136 65 46
-20 -4 14 136 65 46
-19 -4 14 80 58 33
-18 -4 14 80 58 33
-17 -4 14 136 65 46
-20 -3 14 80 58 33
-19 -3 14 80 58 33
-18 -3 14 80 58 33
-17 -3 14 136 65 46
-27 -2 14 80 58 33
-26 -2 14 80 58 33
-25 -2 14 57 38 19
-24 -2 14 57 38 19
-23 -2 14 80 58 33
-22 -2 14 80 58 33
-21 -2 14 57 38 19
-20 -2 14 80 58 33
-19 -2 14 198 147 70
-18 -2 14 198 147 70
-17 -2 14 80 58 33
-16 -2 14 80 58 33
-15 -2 14 80 58 33
-27 -1 14 80 58 33
-26 -1 14 80 58 33
-25 -1 14 198 147 70
-24 -1 14 198 147 70
-23 -1 14 198 147 70
-22 -1 14 198 147 70
-21 -1 14 198 147 70
-20 -1 14 198 147 70
-19 -1 14 198 147 70
-18 -1 14 198 147 70
-17 -1 14 80 58 33
-16 -1 14 80 58 33
-15 -1 14 80 58 33
-26 0 14 57 38 19
-25 0 14 198 147 70
-24 0 14 198 147 70
-23 0 14 198 147 70
-22 0 14 198 147 70
-21 0 14 198 147 70
-20 0 14 198 147 70
-19 0 14 198 147 70
-18 0 14 198 147 70
-17 0 14 198 147 70
-16 0 14 198 147 70
-15 0 14 198 147 70
-26 1 14 57 38 19
-25 1 14 198 147 70
-24 1 14 198 147 70
-23 1 14 198 147 70
-22 1 14 198 147 70
-21 1 14 198 147 70
-20 1 14 198 147 70
-19 1 14 198 147 70
-18 1 14 198 147 70
-17 1 14 198 147 70
-16 1 14 198 147 70
-15 1 14 198 147 70
-27 2 14 80 58 33
-26 2 14 80 58 33
-25 2 14 198 147 70
-24 2 14 198 147 70
-23 2 14 198 147 70
-22 2 14 198 147 70
-21 2 14 198 147 70
-20 2 14 198 147 70
-19 2 14 198 147 70
-18 2 14 198 147 70
-17 2 14 80 58 33
-16 2 14 80 58 33
-15 2 14 80 58 33
-27 3 14 57 38 19
-26 3 14 57 38 19
-25 3 14 80 58 33
-24 3 14 57 38 19
-23 3 14 57 38 19
-22 3 14 57 38 19
-21 3 14 57 38 19
-20 3 14 80 58 33
-19 3 14 198 147 70
-18 3 14 198 147 70
-17 3 14 80 58 33
-16 3 14 80 58 33
-15 3 14 57 38 19
-20 4 14 80 58 33
-19 4 14 80 58 33
-18 4 14 80 58 33
-17 4 14 136 65 46
-20 5 14 136 65 46
-19 5 14 80 58 33
-18 5 14 80 58 33
-17 5 14 136 65 46
-20 6 14 136 65 46
-19 6 14 136 65 46
-18 6 14 136 65 46
-17 6 14 136 65 46
-19 7 14 136 65 46
-18 7 14 136 65 46
-19 -6 15 57 38 19
-18 -6 15 57 38 19
-20 -5 15 57 38 19
-19 -5 15 57 38 19
-18 -5 15 57 38 19
-17 -5 15 57 38 19
-20 -4 15 57 38 19
-19 -4 15 57 38 19
-18 -4 15 80 58 33
-17 -4 15 57 38 19
-20 -3 15 57 38 19
-19 -3 15 57 38 19
-18 -3 15 80 58 33
-17 -3 15 57 38 19
-19 -2 15 57 38 19
-18 -2 15 198 147 70
-27 -1 15 80 58 33
-26 -1 15 57 38 19
-25 -1 15 80 58 33
-24 -1 15 57 38 19
-23 -1 15 80 58 33
-22 -1 15 57 38 19
-21 -1 15 57 38 19
-20 -1 15 57 38 19
-19 -1 15 198 147 70
-18 -1 15 198 147 70
-17 -1 15 80 58 33
-16 -1 15 80 58 33
-15 -1 15 57 38 19
-26 0 15 198 147 70
-25 0 15 198 147 70
-24 0 15 198 147 70
-23 0 15 198 147 70
-22 0 15 198 147 70
-21 0 15 198 147 70
-20 0 15 198 147 70
-19 0 15 198 147 70
-18 0 15 198 147 70
-17 0 15 198 147 70
-16 0 15 198 147 70
-15 0 15 198 147 70
-26 1 15 198 147 70
-25 1 15 198 147 70
-24 1 15 198 147 70
-23 1 15 198 147 70
-22 1 15 198 147 70
-21 1 15 198 147 70
-20 1 15 198 147 70
-19 1 15 198 147 70
-18 1 15 198 147 70
-17 1 15 198 147 70
-16 1 15 198 147 70
-15 1 15 198 147 70
-27 2 15 57 38 19
-26 2 15 57 38 19
-25 2 15 57 38 19
-24 2 15 57 38 19
-23 2 15 57 38 19
-22 2 15 57 38 19
-21 2 15 57 38 19
-20 2 15 80 58 33
-19 2 15 198 147 70
-18 2 15 198 147 70
-17 2 15 80 58 33
-16 2 15 80 58 33
-15 2 15 80 58 33
-19 3 15 57 38 19
-18 3 15 198 147 70
-20 4 15 57 38 19
-19 4 15 57 38 19
-18 4 15 80 58 33
-17 4 15 57 38 19
-20 5 15 57 38 19
-19 5 15 57 38 19
-18 5 15 80 58 33
-17 5 15 57 38 19
-20 6 15 57 38 19
-19 6 15 57 38 19
-18 6 15 57 38 19
-17 6 15 57 38 19
-19 7 15 57 38 19
-18 7 15 57 38 19
-19 -6 16 151 112 58
-18 -6 16 151 112 58
-20 -5 16 198 147 70
-19 -5 16 136 65 46
-18 -5 16 136 65 46
-17 -5 16 198 147 70
-20 -4 16 198 147 70
-19 -4 16 80 58 33
-18 -4 16 80 58 33
-17 -4 16 198 147 70
-20 -3 16 151 112 58
-19 -3 16 80 58 33
-18 -3 16 80 58 33
-17 -3 16 198 147 70
-19 -2 16 198 147 70
-18 -2 16 198 147 70
-27 -1 16 80 58 33
-26 -1 16 57 38 19
-25 -1 16 57 38 19
-24 -1 16 80 58 33
-23 -1 16 57 38 19
-22 -1 16 80 58 33
-21 -1 16 57 38 19
-20 -1 16 80 58 33
-19 -1 16 198 147 70
-18 -1 16 198 147 70
-17 -1 16 80 58 33
-16 -1 16 80 58 33
-15 -1 16 57 38 19
-26 0 16 198 147 70
-25 0 16 198 147 70
-24 0 16 198 147 70
-23 0 16 198 147 70
-22 0 16 198 147 70
-21 0 16 198 147 70
-20 0 16 198 147 70
-19 0 16 198 147 70
-18 0 16 198 147 70
-17 0 16 198 147 70
-16 0 16 198 147 70
-15 0 16 198 147 70
-26 1 16 198 147 70
-25 1 16 198 147 70
-24 1 16 198 147 70
-23 1 16 198 147 70
-22 1 16 198 147 70
-21 1 16 198 147 70
-20 1 16 198 147 70
-19 1 16 198 147 70
-18 1 16 198 147 70
-17 1 16 198 147 70
-16 1 16 198 147 70
-15 1 16 198 147 70
-27 2 16 80 58 33
-26 2 16 57 38 19
-25 2 16 57 38 19
-24 2 16 57 38 19
-23 2 16 57 38 19
-22 2 16 80 58 33
-21 2 16 57 38 19
-20 2 16 80 58 33
-19 2 16 198 147 70
-18 2 16 198 147 70
-17 2 16 80 58 33
-16 2 16 80 58 33
-15 2 16 80 58 33
-19 3 16 198 147 70
-18 3 16 198 147 70
-20 4 16 151 112 58
-19 4 16 80 58 33
-18 4 16 80 58 33
-17 4 16 198 147 70
-20 5 16 198 147 70
-19 5 16 80 58 33
-18 5 16 80 58 33
-17 5 16 198 147 70
-20 6 16 198 147 70
-19 6 16 136 65 46
-18 6 16 136 65 46
-17 6 16 198 147 70
-19 7 16 151 112 58
-18 7 16 151 112 58
-19 -6 17 151 112 58
-18 -6 17 198 147 70
-20 -5 17 198 147 70
-19 -5 17 136 65 46
-18 -5 17 136 65 46
-17 -5 17 198 147 70
-20 -4 17 151 112 58
-19 -4 17 80 58 33
-18 -4 17 80 58 33
-17 -4 17 198 147 70
-20 -3 17 198 147 70
-19 -3 17 80 58 33
-18 -3 17 80 58 33
-17 -3 17 198 147 70
-19 -2 17 198 147 70
-18 -2 17 198 147 70
-27 -1 17 80 58 33
-26 -1 17 80 58 33
-25 -1 17 57 38 19
-24 -1 17 80 58 33
-23 -1 17 80 58 33
-22 -1 17 57 38 19
-21 -1 17 57 38 19
-20 -1 17 80 58 33
-19 -1 17 80 58 33
-18 -1 17 80 58 33
-17 -1 17 80 58 33
-16 -1 17 80 58 33
-15 -1 17 57 38 19
-27 0 17 80 58 33
-26 0 17 198 147 70
-25 0 17 198 147 70
-24 0 17 198 147 70
-23 0 17 198 147 70
-22 0 17 198 147 70
-21 0 17 198 147 70
-20 0 17 198 147 70
-19 0 17 198 147 70
-18 0 17 198 147 70
-17 0 17 198 147 70
-16 0 17 198 147 70
-15 0 17 198 147 70
-27 1 17 80 58 33
-26 1 17 198 147 70
-25 1 17 198 147 70
-24 1 17 198 147 70
-23 1 17 198 147 70
-22 1 17 198 147 70
-21 1 17 198 147 70
-20 1 17 198 147 70
-19 1 17 198 147 70
-18 1 17 198 147 70
-17 1 17 198 147 70
-16 1 17 198 147 70
-15 1 17 198 147 70
-27 2 17 57 38 19
-26 2 17 57 38 19
-25 2 17 80 58 33
-24 2 17 80 58 33
-23 2 17 57 38 19
-22 2 17 57 38 19
-21 2 17 80 58 33
-20 2 17 57 38 19
-19 2 17 80 58 33
-18 2 17 80 58 33
-17 2 17 80 58 33
-16 2 17 80 58 33
-15 2 17 57 38 19
-19 3 17 198 147 70
-18 3 17 198 147 70
-20 4 17 198 147 70
-19 4 17 80 58 33
-18 4 17 80 58 33
-17 4 17 198 147 70
-20 5 17 151 112 58
-19 5 17 80 58 33
-18 5 17 80 58 33
-17 5 17 198 147 70
-20 6 17 198 147 70
-19 6 17 136 65 46
-18 6 17 136 65 46
-17 6 17 198 147 70
-19 7 17 151 112 58
-18 7 17 198 147 70
-19 -6 18 198 147 70
-18 -6 18 198 147 70
-20 -5 18 198 147 70
-19 -5 18 198 147 70
-18 -5 18 80 58 33
-17 -5 18 198 147 70
-20 -4 18 198 147 70
-19 -4 18 80 58 33
-18 -4 18 80 58 33
-17 -4 18 198 147 70
-20 -3 18 198 147 70
-19 -3 18 136 65 46
-18 -3 18 80 58 33
-17 -3 18 198 147 70
-19 -2 18 198 147 70
-18 -2 18 198 147 70
-27 0 18 80 58 33
-26 0 18 57 38 19
-25 0 18 80 58 33
-24 0 18 57 38 19
-23 0 18 80 58 33
-22 0 18 57 38 19
-21 0 18 57 38 19
-20 0 18 80 58 33
-19 0 18 80 58 33
-18 0 18 80 58 33
-17 0 18 80 58 33
-16 0 18 80 58 33
-15 0 18 80 58 33
-27 1 18 80 58 33
-26 1 18 80 58 33
-25 1 18 80 58 33
-24 1 18 80 58 33
-23 1 18 80 58 33
-22 1 18 80 58 33
-21 1 18 80 58 33
-20 1 18 80 58 33
-19 1 18 80 58 33
-18 1 18 80 58 33
-17 1 18 80 58 33
-16 1 18 80 58 33
-15 1 18 57 38 19
-19 3 18 198 147 70
-18 3 18 198 147 70
-20 4 18 198 147 70
-19 4 18 136 65 46
-18 4 18 80 58 33
-17 4 18 198 147 70
-20 5 18 198 147 70
-19 5 18 80 58 33
-18 5 18 80 58 33
-17 5 18 198 147 70
-20 6 18 198 147 70
-19 6 18 198 147 70
-18 6 18 80 58 33
-17 6 18 198 147 70
-19 7 18 198 147 70
-18 7 18 198 147 70
-18 -5 19 57 38 19
-19 -4 19 80 58 33
-18 -4 19 80 58 33
-17 -4 19 80 58 33
-18 -3 19 57 38 19
-18 4 19 57 38 19
-19 5 19 57 38 19
-18 5 19 80 58 33
-17 5 19 57 38 19
-18 6 19 80 58 33
-18 -4 20 54 54 54
-18 5 20 54 54 54
-18 -4 21 54 54 54
-18 5 21 54 54 54
-18 -5 22 54 54 54
-18 -4 22 54 54 54
-18 -3 22 54 54 54
-18 4 22 54 54 54
-18 5 22 54 54 54
-18 6 22 54 54 54
-18 -4 23 54 54 54
-18 5 23 54 54 54
