ply
format ascii 1.0
comment : MagicaVoxel @ Ephtracy
element vertex 268
property float x
property float y
property float z
property uchar red
property uchar green
property uchar blue
end_header
-8 -8 0 56 139 48
-7 -8 0 56 139 48
-6 -8 0 56 139 48
-5 -8 0 56 139 48
-4 -8 0 56 139 48
-3 -8 0 56 139 48
-2 -8 0 198 147 70
-1 -8 0 198 147 70
0 -8 0 198 147 70
1 -8 0 56 139 48
2 -8 0 56 139 48
3 -8 0 56 139 48
4 -8 0 56 139 48
5 -8 0 56 139 48
6 -8 0 56 139 48
7 -8 0 56 139 48
-8 -7 0 56 139 48
-7 -7 0 56 139 48
-6 -7 0 56 139 48
-5 -7 0 56 139 48
-4 -7 0 56 139 48
-3 -7 0 56 139 48
-2 -7 0 198 147 70
-1 -7 0 198 147 70
0 -7 0 198 147 70
1 -7 0 56 139 48
2 -7 0 56 139 48
3 -7 0 56 139 48
4 -7 0 56 139 48
5 -7 0 56 139 48
6 -7 0 56 139 48
7 -7 0 56 139 48
-8 -6 0 56 139 48
-7 -6 0 56 139 48
-6 -6 0 56 139 48
-5 -6 0 56 139 48
-4 -6 0 56 139 48
-3 -6 0 198 147 70
-2 -6 0 198 147 70
-1 -6 0 198 147 70
0 -6 0 198 147 70
1 -6 0 56 139 48
2 -6 0 56 139 48
3 -6 0 56 139 48
4 -6 0 56 139 48
5 -6 0 56 139 48
6 -6 0 56 139 48
7 -6 0 56 139 48
-8 -5 0 56 139 48
-7 -5 0 56 139 48
-6 -5 0 56 139 48
-5 -5 0 56 139 48
-4 -5 0 56 139 48
-3 -5 0 198 147 70
-2 -5 0 198 147 70
-1 -5 0 198 147 70
0 -5 0 198 147 70
1 -5 0 56 139 48
2 -5 0 56 139 48
3 -5 0 56 139 48
4 -5 0 56 139 48
5 -5 0 56 139 48
6 -5 0 56 139 48
7 -5 0 56 139 48
-8 -4 0 56 139 48
-7 -4 0 56 139 48
-6 -4 0 56 139 48
-5 -4 0 56 139 48
-4 -4 0 56 139 48
-3 -4 0 198 147 70
-2 -4 0 198 147 70
-1 -4 0 198 147 70
0 -4 0 198 147 70
1 -4 0 56 139 48
2 -4 0 56 139 48
3 -4 0 56 139 48
4 -4 0 56 139 48
5 -4 0 56 139 48
6 -4 0 56 139 48
7 -4 0 56 139 48
-8 -3 0 56 139 48
-7 -3 0 56 139 48
-6 -3 0 56 139 48
-5 -3 0 56 139 48
-4 -3 0 56 139 48
-3 -3 0 56 139 48
-2 -3 0 198 147 70
-1 -3 0 198 147 70
0 -3 0 198 147 70
1 -3 0 198 147 70
2 -3 0 198 147 70
3 -3 0 56 139 48
4 -3 0 56 139 48
5 -3 0 56 139 48
6 -3 0 56 139 48
7 -3 0 56 139 48
-8 -2 0 56 139 48
-7 -2 0 56 139 48
-6 -2 0 56 139 48
-5 -2 0 56 139 48
-4 -2 0 56 139 48
-3 -2 0 56 139 48
-2 -2 0 198 147 70
-1 -2 0 198 147 70
0 -2 0 198 147 70
1 -2 0 198 147 70
2 -2 0 198 147 70
3 -2 0 198 147 70
4 -2 0 198 147 70
5 -2 0 56 139 48
6 -2 0 56 139 48
7 -2 0 56 139 48
-8 -1 0 56 139 48
-7 -1 0 56 139 48
-6 -1 0 56 139 48
-5 -1 0 56 139 48
-4 -1 0 56 139 48
-3 -1 0 56 139 48
-2 -1 0 56 139 48
-1 -1 0 198 147 70
0 -1 0 198 147 70
1 -1 0 198 147 70
2 -1 0 198 147 70
3 -1 0 198 147 70
4 -1 0 198 147 70
5 -1 0 198 147 70
6 -1 0 198 147 70
7 -1 0 198 147 70
-8 0 0 56 139 48
-7 0 0 56 139 48
-6 0 0 56 139 48
-5 0 0 56 139 48
-4 0 0 56 139 48
-3 0 0 56 139 48
-2 0 0 56 139 48
-1 0 0 56 139 48
0 0 0 56 139 48
1 0 0 56 139 48
2 0 0 198 147 70
3 0 0 198 147 70
4 0 0 198 147 70
5 0 0 198 147 70
6 0 0 198 147 70
7 0 0 198 147 70
-8 1 0 56 139 48
-7 1 0 56 139 48
-6 1 0 56 139 48
-5 1 0 56 139 48
-4 1 0 56 139 48
-3 1 0 56 139 48
-2 1 0 56 139 48
-1 1 0 56 139 48
0 1 0 56 139 48
1 1 0 56 139 48
2 1 0 198 147 70
3 1 0 198 147 70
4 1 0 198 147 70
5 1 0 198 147 70
6 1 0 198 147 70
7 1 0 198 147 70
-8 2 0 56 139 48
-7 2 0 56 139 48
-6 2 0 56 139 48
-5 2 0 56 139 48
-4 2 0 56 139 48
-3 2 0 56 139 48
-2 2 0 56 139 48
-1 2 0 56 139 48
0 2 0 56 139 48
1 2 0 56 139 48
2 2 0 56 139 48
3 2 0 56 139 48
4 2 0 56 139 48
5 2 0 56 139 48
6 2 0 56 139 48
7 2 0 56 139 48
-8 3 0 56 139 48
-7 3 0 56 139 48
-6 3 0 56 139 48
-5 3 0 56 139 48
-4 3 0 56 139 48
-3 3 0 56 139 48
-2 3 0 56 139 48
-1 3 0 56 139 48
0 3 0 56 139 48
1 3 0 56 139 48
2 3 0 56 139 48
3 3 0 56 139 48
4 3 0 56 139 48
5 3 0 56 139 48
6 3 0 56 139 48
7 3 0 56 139 48
-8 4 0 56 139 48
-7 4 0 56 139 48
-6 4 0 56 139 48
-5 4 0 56 139 48
-4 4 0 56 139 48
-3 4 0 56 139 48
-2 4 0 56 139 48
-1 4 0 56 139 48
0 4 0 56 139 48
1 4 0 56 139 48
2 4 0 56 139 48
3 4 0 56 139 48
4 4 0 56 139 48
5 4 0 56 139 48
6 4 0 56 139 48
7 4 0 56 139 48
-8 5 0 56 139 48
-7 5 0 56 139 48
-6 5 0 56 139 48
-5 5 0 56 139 48
-4 5 0 56 139 48
-3 5 0 56 139 48
-2 5 0 56 139 48
-1 5 0 56 139 48
0 5 0 56 139 48
1 5 0 56 139 48
2 5 0 56 139 48
3 5 0 56 139 48
4 5 0 56 139 48
5 5 0 56 139 48
6 5 0 56 139 48
7 5 0 56 139 48
-8 6 0 56 139 48
-7 6 0 56 139 48
-6 6 0 56 139 48
-5 6 0 56 139 48
-4 6 0 56 139 48
-3 6 0 56 139 48
-2 6 0 56 139 48
-1 6 0 56 139 48
0 6 0 56 139 48
1 6 0 56 139 48
2 6 0 56 139 48
3 6 0 56 139 48
4 6 0 56 139 48
5 6 0 56 139 48
6 6 0 56 139 48
7 6 0 56 139 48
-8 7 0 56 139 48
-7 7 0 56 139 48
-6 7 0 56 139 48
-5 7 0 56 139 48
-4 7 0 56 139 48
-3 7 0 56 139 48
-2 7 0 56 139 48
-1 7 0 56 139 48
0 7 0 56 139 48
1 7 0 56 139 48
2 7 0 56 139 48
3 7 0 56 139 48
4 7 0 56 139 48
5 7 0 56 139 48
6 7 0 56 139 48
7 7 0 56 139 48
-4 -7 1 92 206 44
2 -6 1 92 206 44
-6 -5 1 92 206 44
6 -5 1 92 206 44
-5 -2 1 92 206 44
-7 1 1 92 206 44
-3 1 1 92 206 44
3 3 1 92 206 44
-5 4 1 92 206 44
0 4 1 92 206 44
6 5 1 92 206 44
-6 6 1 92 206 44
