ply
format ascii 1.0
comment : MagicaVoxel @ Ephtracy
element vertex 968
property float x
property float y
property float z
property uchar red
property uchar green
property uchar blue
end_header
-6 -6 0 241 244 230
-5 -6 0 41 116 71
-4 -6 0 41 116 71
-3 -6 0 41 116 71
-2 -6 0 241 244 230
-1 -6 0 241 244 230
0 -6 0 241 244 230
1 -6 0 241 244 230
2 -6 0 241 244 230
3 -6 0 241 244 230
4 -6 0 241 244 230
5 -6 0 241 244 230
-6 -5 0 241 244 230
5 -5 0 241 244 230
-6 -4 0 241 244 230
5 -4 0 241 244 230
-6 -3 0 241 244 230
5 -3 0 241 244 230
-6 -2 0 241 244 230
5 -2 0 241 244 230
-6 -1 0 241 244 230
5 -1 0 241 244 230
-6 0 0 241 244 230
5 0 0 241 244 230
-6 1 0 241 244 230
5 1 0 241 244 230
-6 2 0 241 244 230
5 2 0 241 244 230
-6 3 0 241 244 230
5 3 0 241 244 230
-6 4 0 241 244 230
5 4 0 241 244 230
-6 5 0 241 244 230
-5 5 0 241 244 230
-4 5 0 241 244 230
-3 5 0 241 244 230
-2 5 0 241 244 230
-1 5 0 241 244 230
0 5 0 241 244 230
1 5 0 41 116 71
2 5 0 41 116 71
3 5 0 41 116 71
4 5 0 241 244 230
5 5 0 241 244 230
-8 7 0 156 114 1
-5 -7 1 241 244 230
-4 -7 1 241 244 230
-3 -7 1 241 244 230
2 -7 1 241 244 230
3 -7 1 241 244 230
4 -7 1 241 244 230
5 -7 1 241 244 230
6 -7 1 241 244 230
-6 -6 1 241 244 230
-5 -6 1 241 244 230
-4 -6 1 241 244 230
-3 -6 1 241 244 230
-2 -6 1 241 244 230
-1 -6 1 241 244 230
0 -6 1 241 244 230
1 -6 1 241 244 230
2 -6 1 241 244 230
3 -6 1 241 244 230
4 -6 1 241 244 230
5 -6 1 241 244 230
6 -6 1 241 244 230
-6 -5 1 41 116 71
5 -5 1 241 244 230
6 -5 1 241 244 230
-6 -4 1 41 116 71
5 -4 1 241 244 230
6 -4 1 241 244 230
-6 -3 1 41 116 71
5 -3 1 241 244 230
6 -3 1 241 244 230
-6 -2 1 241 244 230
5 -2 1 241 244 230
6 -2 1 241 244 230
-6 -1 1 241 244 230
5 -1 1 241 244 230
-6 0 1 241 244 230
5 0 1 241 244 230
-6 1 1 241 244 230
5 1 1 241 244 230
-6 2 1 41 116 71
5 2 1 241 244 230
-6 3 1 41 116 71
5 3 1 241 244 230
-6 4 1 41 116 71
5 4 1 241 244 230
-6 5 1 241 244 230
-5 5 1 241 244 230
-4 5 1 241 244 230
-3 5 1 241 244 230
-2 5 1 241 244 230
-1 5 1 241 244 230
0 5 1 241 244 230
1 5 1 241 244 230
2 5 1 241 244 230
3 5 1 241 244 230
4 5 1 241 244 230
5 5 1 241 244 230
1 6 1 241 244 230
2 6 1 241 244 230
3 6 1 241 244 230
-5 -7 2 241 244 230
-4 -7 2 56 139 48
-3 -7 2 241 244 230
1 -7 2 41 116 71
-6 -6 2 241 244 230
-5 -6 2 241 244 230
-4 -6 2 241 244 230
-3 -6 2 241 244 230
-2 -6 2 241 244 230
-1 -6 2 241 244 230
0 -6 2 241 244 230
1 -6 2 241 244 230
2 -6 2 41 116 71
3 -6 2 41 116 71
4 -6 2 41 116 71
5 -6 2 41 116 71
-7 -5 2 241 244 230
-6 -5 2 241 244 230
5 -5 2 41 116 71
-7 -4 2 241 244 230
-6 -4 2 241 244 230
5 -4 2 41 116 71
-7 -3 2 241 244 230
-6 -3 2 241 244 230
5 -3 2 41 116 71
-6 -2 2 241 244 230
5 -2 2 241 244 230
6 -2 2 241 244 230
-6 -1 2 241 244 230
5 -1 2 241 244 230
6 -1 2 41 116 71
-6 0 2 241 244 230
5 0 2 241 244 230
-6 1 2 241 244 230
5 1 2 241 244 230
-7 2 2 241 244 230
-6 2 2 241 244 230
5 2 2 241 244 230
-7 3 2 241 244 230
-6 3 2 241 244 230
5 3 2 241 244 230
-7 4 2 241 244 230
-6 4 2 241 244 230
5 4 2 241 244 230
-6 5 2 241 244 230
-5 5 2 241 244 230
-4 5 2 41 116 71
-3 5 2 41 116 71
-2 5 2 41 116 71
-1 5 2 241 244 230
0 5 2 241 244 230
1 5 2 241 244 230
2 5 2 241 244 230
3 5 2 241 244 230
4 5 2 241 244 230
5 5 2 241 244 230
1 6 2 241 244 230
2 6 2 56 139 48
3 6 2 241 244 230
-5 -7 3 241 244 230
-4 -7 3 241 244 230
-3 -7 3 241 244 230
0 -7 3 41 116 71
1 -7 3 41 116 71
2 -7 3 241 244 230
3 -7 3 241 244 230
4 -7 3 241 244 230
5 -7 3 241 244 230
6 -7 3 241 244 230
-6 -6 3 241 244 230
-5 -6 3 241 244 230
-4 -6 3 241 244 230
-3 -6 3 241 244 230
-2 -6 3 241 244 230
-1 -6 3 241 244 230
0 -6 3 241 244 230
1 -6 3 241 244 230
2 -6 3 241 244 230
3 -6 3 241 244 230
4 -6 3 241 244 230
5 -6 3 241 244 230
6 -6 3 241 244 230
-7 -5 3 241 244 230
-6 -5 3 241 244 230
5 -5 3 241 244 230
6 -5 3 241 244 230
-7 -4 3 56 139 48
-6 -4 3 241 244 230
5 -4 3 241 244 230
6 -4 3 241 244 230
-7 -3 3 241 244 230
-6 -3 3 241 244 230
5 -3 3 241 244 230
6 -3 3 241 244 230
-6 -2 3 241 244 230
5 -2 3 241 244 230
6 -2 3 241 244 230
-6 -1 3 241 244 230
5 -1 3 92 206 44
6 -1 3 41 116 71
-6 0 3 241 244 230
5 0 3 241 244 230
6 0 3 41 116 71
-6 1 3 241 244 230
5 1 3 241 244 230
-7 2 3 241 244 230
-6 2 3 241 244 230
5 2 3 241 244 230
-7 3 3 56 139 48
-6 3 3 241 244 230
5 3 3 241 244 230
-7 4 3 241 244 230
-6 4 3 241 244 230
5 4 3 241 244 230
-6 5 3 241 244 230
-5 5 3 241 244 230
-4 5 3 241 244 230
-3 5 3 241 244 230
-2 5 3 241 244 230
-1 5 3 241 244 230
0 5 3 241 244 230
1 5 3 241 244 230
2 5 3 241 244 230
3 5 3 241 244 230
4 5 3 241 244 230
5 5 3 241 244 230
-4 6 3 241 244 230
-3 6 3 241 244 230
-2 6 3 241 244 230
1 6 3 241 244 230
2 6 3 241 244 230
3 6 3 241 244 230
-6 -6 4 241 244 230
-5 -6 4 41 116 71
-4 -6 4 41 116 71
-3 -6 4 41 116 71
-2 -6 4 241 244 230
-1 -6 4 241 244 230
0 -6 4 241 244 230
1 -6 4 241 244 230
2 -6 4 241 244 230
3 -6 4 241 244 230
4 -6 4 241 244 230
5 -6 4 241 244 230
-7 -5 4 241 244 230
-6 -5 4 241 244 230
5 -5 4 241 244 230
-7 -4 4 241 244 230
-6 -4 4 241 244 230
5 -4 4 241 244 230
-7 -3 4 241 244 230
-6 -3 4 241 244 230
5 -3 4 241 244 230
-6 -2 4 41 116 71
5 -2 4 241 244 230
-6 -1 4 41 116 71
5 -1 4 241 244 230
-6 0 4 41 116 71
5 0 4 241 244 230
-6 1 4 41 116 71
5 1 4 241 244 230
-7 2 4 241 244 230
-6 2 4 241 244 230
5 2 4 241 244 230
-7 3 4 241 244 230
-6 3 4 241 244 230
5 3 4 241 244 230
-7 4 4 241 244 230
-6 4 4 241 244 230
5 4 4 241 244 230
-6 5 4 241 244 230
-5 5 4 241 244 230
-4 5 4 241 244 230
-3 5 4 241 244 230
-2 5 4 241 244 230
-1 5 4 241 244 230
0 5 4 241 244 230
1 5 4 241 244 230
2 5 4 41 116 71
3 5 4 41 116 71
4 5 4 41 116 71
5 5 4 241 244 230
-4 6 4 241 244 230
-3 6 4 56 139 48
-2 6 4 241 244 230
-5 -7 5 241 244 230
-4 -7 5 241 244 230
-3 -7 5 241 244 230
2 -7 5 241 244 230
3 -7 5 241 244 230
4 -7 5 241 244 230
5 -7 5 241 244 230
6 -7 5 241 244 230
-6 -6 5 241 244 230
-5 -6 5 241 244 230
-4 -6 5 241 244 230
-3 -6 5 241 244 230
-2 -6 5 241 244 230
-1 -6 5 241 244 230
0 -6 5 241 244 230
1 -6 5 241 244 230
2 -6 5 241 244 230
3 -6 5 241 244 230
4 -6 5 241 244 230
5 -6 5 241 244 230
6 -6 5 241 244 230
-6 -5 5 241 244 230
5 -5 5 241 244 230
6 -5 5 241 244 230
-6 -4 5 241 244 230
5 -4 5 241 244 230
6 -4 5 241 244 230
-6 -3 5 241 244 230
5 -3 5 241 244 230
6 -3 5 241 244 230
-7 -2 5 241 244 230
-6 -2 5 241 244 230
5 -2 5 241 244 230
6 -2 5 241 244 230
-7 -1 5 241 244 230
-6 -1 5 241 244 230
5 -1 5 241 244 230
-7 0 5 241 244 230
-6 0 5 241 244 230
5 0 5 241 244 230
-7 1 5 241 244 230
-6 1 5 241 244 230
5 1 5 241 244 230
-6 2 5 241 244 230
5 2 5 241 244 230
-6 3 5 241 244 230
5 3 5 241 244 230
-6 4 5 241 244 230
5 4 5 241 244 230
-6 5 5 241 244 230
-5 5 5 241 244 230
-4 5 5 241 244 230
-3 5 5 241 244 230
-2 5 5 241 244 230
-1 5 5 41 116 71
0 5 5 41 116 71
1 5 5 41 116 71
2 5 5 241 244 230
3 5 5 241 244 230
4 5 5 241 244 230
5 5 5 241 244 230
-4 6 5 241 244 230
-3 6 5 241 244 230
-2 6 5 241 244 230
2 6 5 241 244 230
3 6 5 241 244 230
4 6 5 241 244 230
-5 -7 6 241 244 230
-4 -7 6 56 139 48
-3 -7 6 241 244 230
1 -7 6 41 116 71
2 -7 6 241 244 230
-6 -6 6 241 244 230
-5 -6 6 241 244 230
-4 -6 6 241 244 230
-3 -6 6 241 244 230
-2 -6 6 241 244 230
-1 -6 6 241 244 230
0 -6 6 241 244 230
1 -6 6 241 244 230
2 -6 6 241 244 230
3 -6 6 41 116 71
4 -6 6 41 116 71
5 -6 6 41 116 71
-6 -5 6 241 244 230
5 -5 6 41 116 71
-6 -4 6 241 244 230
5 -4 6 41 116 71
-6 -3 6 241 244 230
5 -3 6 41 116 71
-7 -2 6 241 244 230
-6 -2 6 241 244 230
5 -2 6 241 244 230
6 -2 6 241 244 230
-7 -1 6 56 139 48
-6 -1 6 241 244 230
5 -1 6 241 244 230
6 -1 6 41 116 71
-7 0 6 56 139 48
-6 0 6 241 244 230
5 0 6 241 244 230
-7 1 6 241 244 230
-6 1 6 241 244 230
5 1 6 241 244 230
-6 2 6 241 244 230
5 2 6 241 244 230
-6 3 6 241 244 230
5 3 6 241 244 230
-6 4 6 241 244 230
5 4 6 241 244 230
-6 5 6 241 244 230
-5 5 6 241 244 230
-4 5 6 241 244 230
-3 5 6 241 244 230
-2 5 6 241 244 230
-1 5 6 241 244 230
0 5 6 241 244 230
1 5 6 241 244 230
2 5 6 241 244 230
3 5 6 241 244 230
4 5 6 241 244 230
5 5 6 241 244 230
-1 6 6 241 244 230
0 6 6 241 244 230
1 6 6 241 244 230
2 6 6 241 244 230
3 6 6 56 139 48
4 6 6 241 244 230
-5 -7 7 241 244 230
-4 -7 7 241 244 230
-3 -7 7 241 244 230
0 -7 7 41 116 71
1 -7 7 41 116 71
2 -7 7 241 244 230
3 -7 7 241 244 230
4 -7 7 241 244 230
5 -7 7 241 244 230
6 -7 7 241 244 230
-6 -6 7 241 244 230
-5 -6 7 241 244 230
-4 -6 7 241 244 230
-3 -6 7 241 244 230
-2 -6 7 241 244 230
-1 -6 7 241 244 230
0 -6 7 241 244 230
1 -6 7 241 244 230
2 -6 7 241 244 230
3 -6 7 241 244 230
4 -6 7 241 244 230
5 -6 7 241 244 230
6 -6 7 241 244 230
-6 -5 7 241 244 230
5 -5 7 241 244 230
6 -5 7 241 244 230
-6 -4 7 241 244 230
5 -4 7 241 244 230
6 -4 7 241 244 230
-6 -3 7 241 244 230
5 -3 7 241 244 230
6 -3 7 241 244 230
-7 -2 7 241 244 230
-6 -2 7 241 244 230
5 -2 7 241 244 230
6 -2 7 241 244 230
-7 -1 7 56 139 48
-6 -1 7 241 244 230
5 -1 7 241 244 230
6 -1 7 41 116 71
-7 0 7 56 139 48
-6 0 7 241 244 230
5 0 7 241 244 230
6 0 7 41 116 71
-7 1 7 241 244 230
-6 1 7 241 244 230
5 1 7 241 244 230
-6 2 7 241 244 230
5 2 7 241 244 230
-6 3 7 241 244 230
5 3 7 241 244 230
-6 4 7 241 244 230
5 4 7 241 244 230
-6 5 7 241 244 230
-5 5 7 241 244 230
-4 5 7 241 244 230
-3 5 7 241 244 230
-2 5 7 241 244 230
-1 5 7 241 244 230
0 5 7 241 244 230
1 5 7 241 244 230
2 5 7 241 244 230
3 5 7 241 244 230
4 5 7 241 244 230
5 5 7 241 244 230
-1 6 7 241 244 230
0 6 7 241 244 230
1 6 7 241 244 230
2 6 7 241 244 230
3 6 7 241 244 230
4 6 7 241 244 230
-6 -6 8 241 244 230
-5 -6 8 41 116 71
-4 -6 8 41 116 71
-3 -6 8 41 116 71
-2 -6 8 241 244 230
-1 -6 8 241 244 230
0 -6 8 241 244 230
1 -6 8 241 244 230
2 -6 8 241 244 230
3 -6 8 241 244 230
4 -6 8 241 244 230
5 -6 8 241 244 230
-6 -5 8 41 116 71
5 -5 8 241 244 230
-6 -4 8 41 116 71
5 -4 8 241 244 230
-6 -3 8 41 116 71
5 -3 8 241 244 230
-7 -2 8 241 244 230
-6 -2 8 241 244 230
5 -2 8 241 244 230
-7 -1 8 241 244 230
-6 -1 8 241 244 230
5 -1 8 241 244 230
-7 0 8 241 244 230
-6 0 8 241 244 230
5 0 8 241 244 230
-7 1 8 241 244 230
-6 1 8 241 244 230
5 1 8 241 244 230
-6 2 8 41 116 71
5 2 8 241 244 230
-6 3 8 41 116 71
5 3 8 241 244 230
-6 4 8 41 116 71
5 4 8 241 244 230
-6 5 8 241 244 230
-5 5 8 241 244 230
-4 5 8 41 116 71
-3 5 8 41 116 71
-2 5 8 41 116 71
-1 5 8 241 244 230
0 5 8 241 244 230
1 5 8 241 244 230
2 5 8 41 116 71
3 5 8 41 116 71
4 5 8 41 116 71
5 5 8 241 244 230
-1 6 8 241 244 230
0 6 8 56 139 48
1 6 8 241 244 230
-5 -7 9 241 244 230
-4 -7 9 241 244 230
-3 -7 9 241 244 230
2 -7 9 241 244 230
3 -7 9 241 244 230
4 -7 9 241 244 230
5 -7 9 241 244 230
6 -7 9 241 244 230
-6 -6 9 241 244 230
-5 -6 9 241 244 230
-4 -6 9 241 244 230
-3 -6 9 241 244 230
-2 -6 9 241 244 230
-1 -6 9 241 244 230
0 -6 9 241 244 230
1 -6 9 241 244 230
2 -6 9 241 244 230
3 -6 9 241 244 230
4 -6 9 241 244 230
5 -6 9 241 244 230
6 -6 9 241 244 230
-7 -5 9 241 244 230
-6 -5 9 241 244 230
5 -5 9 241 244 230
6 -5 9 241 244 230
-7 -4 9 241 244 230
-6 -4 9 241 244 230
5 -4 9 241 244 230
6 -4 9 241 244 230
-7 -3 9 241 244 230
-6 -3 9 241 244 230
5 -3 9 241 244 230
6 -3 9 241 244 230
-6 -2 9 241 244 230
5 -2 9 241 244 230
6 -2 9 241 244 230
-6 -1 9 241 244 230
5 -1 9 241 244 230
-6 0 9 241 244 230
5 0 9 241 244 230
-6 1 9 241 244 230
5 1 9 241 244 230
-7 2 9 241 244 230
-6 2 9 241 244 230
5 2 9 241 244 230
-7 3 9 241 244 230
-6 3 9 241 244 230
5 3 9 241 244 230
-7 4 9 241 244 230
-6 4 9 241 244 230
5 4 9 241 244 230
-6 5 9 241 244 230
-5 5 9 241 244 230
-4 5 9 241 244 230
-3 5 9 241 244 230
-2 5 9 241 244 230
-1 5 9 241 244 230
0 5 9 241 244 230
1 5 9 241 244 230
2 5 9 241 244 230
3 5 9 241 244 230
4 5 9 241 244 230
5 5 9 241 244 230
-4 6 9 241 244 230
-3 6 9 241 244 230
-2 6 9 241 244 230
-1 6 9 241 244 230
0 6 9 241 244 230
1 6 9 241 244 230
2 6 9 241 244 230
3 6 9 241 244 230
4 6 9 241 244 230
-5 -7 10 241 244 230
-4 -7 10 56 139 48
-3 -7 10 241 244 230
1 -7 10 41 116 71
2 -7 10 241 244 230
-6 -6 10 241 244 230
-5 -6 10 241 244 230
-4 -6 10 241 244 230
-3 -6 10 241 244 230
-2 -6 10 241 244 230
-1 -6 10 241 244 230
0 -6 10 241 244 230
1 -6 10 241 244 230
2 -6 10 241 244 230
3 -6 10 41 116 71
4 -6 10 41 116 71
5 -6 10 41 116 71
-7 -5 10 241 244 230
-6 -5 10 241 244 230
-5 -5 10 41 116 71
-4 -5 10 41 116 71
-3 -5 10 41 116 71
-2 -5 10 41 116 71
-1 -5 10 41 116 71
0 -5 10 41 116 71
1 -5 10 41 116 71
2 -5 10 41 116 71
3 -5 10 41 116 71
4 -5 10 41 116 71
5 -5 10 41 116 71
-7 -4 10 56 139 48
-6 -4 10 241 244 230
-5 -4 10 41 116 71
-4 -4 10 41 116 71
-3 -4 10 41 116 71
-2 -4 10 41 116 71
-1 -4 10 41 116 71
0 -4 10 41 116 71
1 -4 10 41 116 71
2 -4 10 41 116 71
3 -4 10 41 116 71
4 -4 10 41 116 71
5 -4 10 41 116 71
-7 -3 10 241 244 230
-6 -3 10 241 244 230
-5 -3 10 41 116 71
-4 -3 10 41 116 71
-3 -3 10 41 116 71
-2 -3 10 41 116 71
-1 -3 10 41 116 71
0 -3 10 41 116 71
1 -3 10 41 116 71
2 -3 10 75 75 75
3 -3 10 41 116 71
4 -3 10 41 116 71
5 -3 10 41 116 71
-6 -2 10 241 244 230
-5 -2 10 41 116 71
-4 -2 10 41 116 71
-3 -2 10 41 116 71
-2 -2 10 41 116 71
-1 -2 10 41 116 71
0 -2 10 41 116 71
1 -2 10 41 116 71
2 -2 10 41 116 71
3 -2 10 41 116 71
4 -2 10 41 116 71
5 -2 10 241 244 230
6 -2 10 241 244 230
-6 -1 10 241 244 230
-5 -1 10 41 116 71
-4 -1 10 41 116 71
-3 -1 10 41 116 71
-2 -1 10 41 116 71
-1 -1 10 41 116 71
0 -1 10 41 116 71
1 -1 10 41 116 71
2 -1 10 41 116 71
3 -1 10 41 116 71
4 -1 10 41 116 71
5 -1 10 241 244 230
6 -1 10 41 116 71
-6 0 10 241 244 230
-5 0 10 41 116 71
-4 0 10 41 116 71
-3 0 10 41 116 71
-2 0 10 41 116 71
-1 0 10 41 116 71
0 0 10 41 116 71
1 0 10 41 116 71
2 0 10 41 116 71
3 0 10 41 116 71
4 0 10 41 116 71
5 0 10 241 244 230
-6 1 10 241 244 230
-5 1 10 41 116 71
-4 1 10 41 116 71
-3 1 10 75 75 75
-2 1 10 41 116 71
-1 1 10 41 116 71
0 1 10 41 116 71
1 1 10 41 116 71
2 1 10 41 116 71
3 1 10 41 116 71
4 1 10 41 116 71
5 1 10 241 244 230
-7 2 10 241 244 230
-6 2 10 241 244 230
-5 2 10 41 116 71
-4 2 10 41 116 71
-3 2 10 41 116 71
-2 2 10 41 116 71
-1 2 10 41 116 71
0 2 10 41 116 71
1 2 10 41 116 71
2 2 10 41 116 71
3 2 10 41 116 71
4 2 10 41 116 71
5 2 10 241 244 230
-7 3 10 56 139 48
-6 3 10 241 244 230
-5 3 10 41 116 71
-4 3 10 41 116 71
-3 3 10 41 116 71
-2 3 10 41 116 71
-1 3 10 41 116 71
0 3 10 41 116 71
1 3 10 41 116 71
2 3 10 75 75 75
3 3 10 41 116 71
4 3 10 41 116 71
5 3 10 241 244 230
-7 4 10 241 244 230
-6 4 10 241 244 230
-5 4 10 41 116 71
-4 4 10 41 116 71
-3 4 10 41 116 71
-2 4 10 41 116 71
-1 4 10 41 116 71
0 4 10 41 116 71
1 4 10 41 116 71
2 4 10 41 116 71
3 4 10 41 116 71
4 4 10 41 116 71
5 4 10 241 244 230
-6 5 10 241 244 230
-5 5 10 241 244 230
-4 5 10 241 244 230
-3 5 10 241 244 230
-2 5 10 241 244 230
-1 5 10 241 244 230
0 5 10 241 244 230
1 5 10 241 244 230
2 5 10 241 244 230
3 5 10 241 244 230
4 5 10 241 244 230
5 5 10 241 244 230
-4 6 10 241 244 230
-3 6 10 56 139 48
-2 6 10 241 244 230
2 6 10 241 244 230
3 6 10 56 139 48
4 6 10 241 244 230
-5 -7 11 241 244 230
-4 -7 11 241 244 230
-3 -7 11 241 244 230
0 -7 11 41 116 71
1 -7 11 41 116 71
2 -7 11 241 244 230
3 -7 11 241 244 230
4 -7 11 241 244 230
5 -7 11 241 244 230
6 -7 11 241 244 230
-6 -6 11 241 244 230
-5 -6 11 241 244 230
-4 -6 11 241 244 230
-3 -6 11 241 244 230
-2 -6 11 241 244 230
-1 -6 11 241 244 230
0 -6 11 241 244 230
1 -6 11 241 244 230
2 -6 11 241 244 230
3 -6 11 241 244 230
4 -6 11 241 244 230
5 -6 11 241 244 230
6 -6 11 241 244 230
-7 -5 11 241 244 230
-6 -5 11 241 244 230
5 -5 11 241 244 230
6 -5 11 241 244 230
-7 -4 11 241 244 230
-6 -4 11 241 244 230
-2 -4 11 56 139 48
-1 -4 11 56 139 48
5 -4 11 241 244 230
6 -4 11 241 244 230
-7 -3 11 241 244 230
-6 -3 11 241 244 230
2 -3 11 35 88 67
5 -3 11 241 244 230
6 -3 11 241 244 230
-6 -2 11 241 244 230
5 -2 11 241 244 230
6 -2 11 241 244 230
-6 -1 11 241 244 230
5 -1 11 241 244 230
6 -1 11 41 116 71
-6 0 11 241 244 230
5 0 11 241 244 230
6 0 11 41 116 71
-6 1 11 241 244 230
-3 1 11 35 88 67
5 1 11 241 244 230
-7 2 11 241 244 230
-6 2 11 241 244 230
5 2 11 241 244 230
-7 3 11 241 244 230
-6 3 11 241 244 230
2 3 11 35 88 67
5 3 11 241 244 230
-7 4 11 241 244 230
-6 4 11 241 244 230
5 4 11 241 244 230
-6 5 11 241 244 230
-5 5 11 241 244 230
-4 5 11 241 244 230
-3 5 11 241 244 230
-2 5 11 241 244 230
-1 5 11 241 244 230
0 5 11 241 244 230
1 5 11 241 244 230
2 5 11 241 244 230
3 5 11 241 244 230
4 5 11 241 244 230
5 5 11 241 244 230
-4 6 11 241 244 230
-3 6 11 241 244 230
-2 6 11 241 244 230
2 6 11 241 244 230
3 6 11 241 244 230
4 6 11 241 244 230
-6 -6 12 241 244 230
-5 -6 12 241 244 230
-4 -6 12 241 244 230
-3 -6 12 241 244 230
-2 -6 12 241 244 230
-1 -6 12 241 244 230
0 -6 12 241 244 230
1 -6 12 241 244 230
2 -6 12 241 244 230
3 -6 12 241 244 230
4 -6 12 241 244 230
5 -6 12 241 244 230
-6 -5 12 241 244 230
5 -5 12 241 244 230
-6 -4 12 241 244 230
5 -4 12 241 244 230
-6 -3 12 241 244 230
2 -3 12 35 88 67
5 -3 12 241 244 230
-6 -2 12 241 244 230
5 -2 12 241 244 230
-6 -1 12 241 244 230
5 -1 12 241 244 230
-6 0 12 241 244 230
5 0 12 241 244 230
-6 1 12 241 244 230
-3 1 12 35 88 67
5 1 12 241 244 230
-6 2 12 241 244 230
5 2 12 241 244 230
-6 3 12 241 244 230
2 3 12 35 88 67
5 3 12 241 244 230
-6 4 12 241 244 230
5 4 12 241 244 230
-6 5 12 241 244 230
-5 5 12 241 244 230
-4 5 12 241 244 230
-3 5 12 241 244 230
-2 5 12 241 244 230
-1 5 12 241 244 230
0 5 12 241 244 230
1 5 12 241 244 230
2 5 12 241 244 230
3 5 12 241 244 230
4 5 12 241 244 230
5 5 12 241 244 230
1 -4 13 56 139 48
2 -4 13 56 139 48
3 -4 13 56 139 48
1 -3 13 56 139 48
2 -3 13 41 116 71
3 -3 13 56 139 48
-4 -2 13 56 139 48
-3 -2 13 56 139 48
-2 -2 13 56 139 48
-1 -2 13 56 139 48
1 -2 13 56 139 48
2 -2 13 56 139 48
3 -2 13 56 139 48
4 -2 13 56 139 48
-4 -1 13 56 139 48
-3 -1 13 56 139 48
-2 -1 13 56 139 48
-1 -1 13 56 139 48
1 -1 13 56 139 48
2 -1 13 56 139 48
3 -1 13 56 139 48
4 -1 13 56 139 48
-4 0 13 56 139 48
-3 0 13 41 116 71
-2 0 13 56 139 48
-1 0 13 56 139 48
-4 1 13 56 139 48
-3 1 13 56 139 48
-2 1 13 56 139 48
-1 1 13 56 139 48
-4 2 13 56 139 48
-3 2 13 56 139 48
-2 2 13 56 139 48
-1 2 13 56 139 48
1 2 13 56 139 48
2 2 13 56 139 48
3 2 13 56 139 48
1 3 13 56 139 48
2 3 13 41 116 71
3 3 13 56 139 48
1 4 13 56 139 48
2 4 13 56 139 48
3 4 13 56 139 48
1 -4 14 56 139 48
2 -4 14 56 139 48
3 -4 14 56 139 48
1 -3 14 56 139 48
2 -3 14 56 139 48
3 -3 14 56 139 48
-3 -2 14 56 139 48
-2 -2 14 56 139 48
1 -2 14 56 139 48
2 -2 14 56 139 48
3 -2 14 56 139 48
-4 -1 14 56 139 48
-3 -1 14 56 139 48
-2 -1 14 56 139 48
-4 0 14 56 139 48
-3 0 14 56 139 48
-2 0 14 56 139 48
-3 1 14 56 139 48
-2 1 14 56 139 48
1 2 14 56 139 48
2 2 14 56 139 48
3 2 14 56 139 48
1 3 14 56 139 48
2 3 14 56 139 48
3 3 14 56 139 48
