ply
format ascii 1.0
comment : MagicaVoxel @ Ephtracy
element vertex 973
property float x
property float y
property float z
property uchar red
property uchar green
property uchar blue
end_header
-4 -7 0 241 244 230
-1 -7 0 241 244 230
1 -7 0 241 244 230
2 -7 0 241 244 230
3 -7 0 241 244 230
4 -7 0 241 244 230
5 -7 0 241 244 230
-6 -6 0 241 244 230
-5 -6 0 241 244 230
-4 -6 0 241 244 230
-3 -6 0 54 54 54
-2 -6 0 54 54 54
-1 -6 0 241 244 230
0 -6 0 241 244 230
1 -6 0 241 244 230
2 -6 0 241 244 230
3 -6 0 241 244 230
4 -6 0 241 244 230
5 -6 0 241 244 230
6 -6 0 241 244 230
7 -6 0 241 244 230
-6 -5 0 241 244 230
-7 -4 0 56 139 48
-6 -4 0 241 244 230
-7 -3 0 56 139 48
-6 -3 0 241 244 230
-7 -2 0 92 206 44
-6 -2 0 241 244 230
-7 -1 0 56 139 48
-6 -1 0 241 244 230
-7 0 0 56 139 48
-6 0 0 241 244 230
-7 1 0 92 206 44
-6 1 0 241 244 230
-7 2 0 92 206 44
-6 2 0 241 244 230
-7 3 0 56 139 48
-6 3 0 241 244 230
-6 4 0 241 244 230
-6 5 0 241 244 230
-5 5 0 241 244 230
-4 5 0 241 244 230
-3 5 0 241 244 230
-2 5 0 241 244 230
-1 5 0 241 244 230
0 5 0 241 244 230
1 5 0 241 244 230
2 5 0 241 244 230
3 5 0 241 244 230
4 5 0 241 244 230
5 5 0 241 244 230
6 5 0 241 244 230
7 5 0 241 244 230
-4 6 0 56 139 48
-3 6 0 92 206 44
-2 6 0 56 139 48
-1 6 0 56 139 48
0 6 0 56 139 48
1 6 0 92 206 44
2 6 0 56 139 48
3 6 0 41 116 71
4 6 0 41 116 71
5 6 0 56 139 48
-4 -7 1 241 244 230
-1 -7 1 241 244 230
1 -7 1 92 206 44
2 -7 1 242 60 84
3 -7 1 56 139 48
4 -7 1 56 139 48
5 -7 1 243 232 37
-6 -6 1 241 244 230
-5 -6 1 228 231 218
-4 -6 1 228 231 218
-3 -6 1 54 54 54
-2 -6 1 54 54 54
-1 -6 1 228 231 218
0 -6 1 228 231 218
1 -6 1 228 231 218
2 -6 1 228 231 218
3 -6 1 228 231 218
4 -6 1 228 231 218
5 -6 1 228 231 218
6 -6 1 228 231 218
7 -6 1 228 231 218
-6 -5 1 228 231 218
-6 -4 1 228 231 218
-6 -3 1 228 231 218
-6 -2 1 228 231 218
-6 -1 1 228 231 218
-6 0 1 228 231 218
-6 1 1 228 231 218
-6 2 1 228 231 218
-6 3 1 228 231 218
-6 4 1 228 231 218
-6 5 1 241 244 230
-5 5 1 228 231 218
-4 5 1 228 231 218
-3 5 1 228 231 218
-2 5 1 228 231 218
-1 5 1 228 231 218
0 5 1 228 231 218
1 5 1 228 231 218
2 5 1 228 231 218
3 5 1 228 231 218
4 5 1 228 231 218
5 5 1 228 231 218
6 5 1 228 231 218
7 5 1 241 244 230
3 6 1 41 116 71
-4 -7 2 241 244 230
-3 -7 2 241 244 230
-2 -7 2 241 244 230
-1 -7 2 241 244 230
1 -7 2 243 121 21
4 -7 2 243 232 37
-6 -6 2 241 244 230
-5 -6 2 228 231 218
-4 -6 2 228 231 218
-3 -6 2 228 231 218
-2 -6 2 228 231 218
-1 -6 2 228 231 218
0 -6 2 228 231 218
1 -6 2 228 231 218
2 -6 2 228 231 218
3 -6 2 228 231 218
4 -6 2 228 231 218
5 -6 2 163 240 245
6 -6 2 228 231 218
7 -6 2 228 231 218
-6 -5 2 228 231 218
-6 -4 2 163 240 245
-6 -3 2 163 240 245
-6 -2 2 228 231 218
-6 -1 2 163 240 245
-6 0 2 163 240 245
-6 1 2 228 231 218
-6 2 2 163 240 245
-6 3 2 163 240 245
-6 4 2 228 231 218
-6 5 2 241 244 230
-5 5 2 228 231 218
-4 5 2 163 240 245
-3 5 2 163 240 245
-2 5 2 228 231 218
-1 5 2 228 231 218
0 5 2 163 240 245
1 5 2 163 240 245
2 5 2 228 231 218
3 5 2 228 231 218
4 5 2 163 240 245
5 5 2 163 240 245
6 5 2 228 231 218
7 5 2 241 244 230
3 6 2 56 139 48
-6 -6 3 241 244 230
-5 -6 3 228 231 218
-4 -6 3 228 231 218
-3 -6 3 228 231 218
-2 -6 3 228 231 218
-1 -6 3 228 231 218
0 -6 3 228 231 218
1 -6 3 228 231 218
2 -6 3 228 231 218
3 -6 3 228 231 218
4 -6 3 163 240 245
5 -6 3 163 240 245
6 -6 3 228 231 218
7 -6 3 228 231 218
-6 -5 3 228 231 218
-6 -4 3 163 240 245
-6 -3 3 163 240 245
-6 -2 3 228 231 218
-6 -1 3 163 240 245
-6 0 3 163 240 245
-6 1 3 228 231 218
-6 2 3 163 240 245
-6 3 3 163 240 245
-6 4 3 228 231 218
-6 5 3 241 244 230
-5 5 3 228 231 218
-4 5 3 163 240 245
-3 5 3 163 240 245
-2 5 3 228 231 218
-1 5 3 228 231 218
0 5 3 163 240 245
1 5 3 163 240 245
2 5 3 228 231 218
3 5 3 228 231 218
4 5 3 163 240 245
5 5 3 163 240 245
6 5 3 228 231 218
7 5 3 241 244 230
2 6 3 41 116 71
-6 -6 4 241 244 230
-5 -6 4 228 231 218
-4 -6 4 228 231 218
-3 -6 4 228 231 218
-2 -6 4 228 231 218
-1 -6 4 228 231 218
0 -6 4 228 231 218
1 -6 4 228 231 218
2 -6 4 228 231 218
3 -6 4 228 231 218
4 -6 4 104 216 245
5 -6 4 104 216 245
6 -6 4 228 231 218
7 -6 4 228 231 218
-6 -5 4 228 231 218
-6 -4 4 104 216 245
-6 -3 4 104 216 245
-6 -2 4 228 231 218
-6 -1 4 104 216 245
-6 0 4 104 216 245
-6 1 4 228 231 218
-6 2 4 104 216 245
-6 3 4 104 216 245
-6 4 4 228 231 218
-6 5 4 241 244 230
-5 5 4 228 231 218
-4 5 4 104 216 245
-3 5 4 104 216 245
-2 5 4 228 231 218
-1 5 4 228 231 218
0 5 4 104 216 245
1 5 4 104 216 245
2 5 4 228 231 218
3 5 4 228 231 218
4 5 4 104 216 245
5 5 4 104 216 245
6 5 4 228 231 218
7 5 4 241 244 230
1 6 4 92 206 44
2 6 4 56 139 48
4 -7 5 241 244 230
5 -7 5 241 244 230
-6 -6 5 241 244 230
-5 -6 5 228 231 218
-4 -6 5 228 231 218
-3 -6 5 228 231 218
-2 -6 5 228 231 218
-1 -6 5 228 231 218
0 -6 5 228 231 218
1 -6 5 228 231 218
2 -6 5 228 231 218
3 -6 5 228 231 218
4 -6 5 228 231 218
5 -6 5 228 231 218
6 -6 5 228 231 218
7 -6 5 228 231 218
-6 -5 5 228 231 218
-7 -4 5 241 244 230
-6 -4 5 228 231 218
-7 -3 5 241 244 230
-6 -3 5 228 231 218
-6 -2 5 228 231 218
-7 -1 5 241 244 230
-6 -1 5 228 231 218
-7 0 5 241 244 230
-6 0 5 228 231 218
-6 1 5 228 231 218
-7 2 5 241 244 230
-6 2 5 228 231 218
-7 3 5 241 244 230
-6 3 5 228 231 218
-6 4 5 228 231 218
-6 5 5 241 244 230
-5 5 5 228 231 218
-4 5 5 228 231 218
-3 5 5 228 231 218
-2 5 5 228 231 218
-1 5 5 228 231 218
0 5 5 228 231 218
1 5 5 228 231 218
2 5 5 228 231 218
3 5 5 228 231 218
4 5 5 228 231 218
5 5 5 228 231 218
6 5 5 228 231 218
7 5 5 241 244 230
-4 6 5 241 244 230
-3 6 5 241 244 230
0 6 5 241 244 230
1 6 5 241 244 230
2 6 5 41 116 71
4 6 5 241 244 230
5 6 5 241 244 230
-6 -6 6 241 244 230
-5 -6 6 228 231 218
-4 -6 6 228 231 218
-3 -6 6 228 231 218
-2 -6 6 228 231 218
-1 -6 6 228 231 218
0 -6 6 228 231 218
1 -6 6 228 231 218
2 -6 6 228 231 218
3 -6 6 228 231 218
4 -6 6 228 231 218
5 -6 6 228 231 218
6 -6 6 228 231 218
7 -6 6 228 231 218
-6 -5 6 228 231 218
-6 -4 6 228 231 218
-6 -3 6 228 231 218
-6 -2 6 228 231 218
-6 -1 6 228 231 218
-6 0 6 228 231 218
-6 1 6 228 231 218
-6 2 6 228 231 218
-6 3 6 228 231 218
-6 4 6 228 231 218
-6 5 6 241 244 230
-5 5 6 228 231 218
-4 5 6 228 231 218
-3 5 6 228 231 218
-2 5 6 228 231 218
-1 5 6 228 231 218
0 5 6 228 231 218
1 5 6 228 231 218
2 5 6 228 231 218
3 5 6 228 231 218
4 5 6 228 231 218
5 5 6 228 231 218
6 5 6 228 231 218
7 5 6 241 244 230
1 6 6 56 139 48
3 6 6 41 116 71
-6 -6 7 241 244 230
-5 -6 7 241 244 230
-4 -6 7 241 244 230
-3 -6 7 241 244 230
-2 -6 7 241 244 230
-1 -6 7 241 244 230
0 -6 7 241 244 230
1 -6 7 241 244 230
2 -6 7 241 244 230
3 -6 7 241 244 230
4 -6 7 241 244 230
5 -6 7 241 244 230
6 -6 7 241 244 230
7 -6 7 241 244 230
-6 -5 7 241 244 230
-6 -4 7 241 244 230
-6 -3 7 241 244 230
-6 -2 7 241 244 230
-6 -1 7 241 244 230
-6 0 7 241 244 230
-6 1 7 241 244 230
-6 2 7 241 244 230
-6 3 7 241 244 230
-6 4 7 241 244 230
-6 5 7 241 244 230
-5 5 7 241 244 230
-4 5 7 241 244 230
-3 5 7 241 244 230
-2 5 7 241 244 230
-1 5 7 241 244 230
0 5 7 241 244 230
1 5 7 241 244 230
2 5 7 241 244 230
3 5 7 241 244 230
4 5 7 241 244 230
5 5 7 241 244 230
6 5 7 241 244 230
7 5 7 241 244 230
-1 6 7 56 139 48
0 6 7 56 139 48
4 6 7 41 116 71
5 6 7 56 139 48
-6 -6 8 241 244 230
-5 -6 8 228 231 218
-4 -6 8 228 231 218
-3 -6 8 228 231 218
-2 -6 8 228 231 218
-1 -6 8 228 231 218
0 -6 8 228 231 218
1 -6 8 228 231 218
2 -6 8 228 231 218
3 -6 8 228 231 218
4 -6 8 228 231 218
5 -6 8 228 231 218
6 -6 8 228 231 218
7 -6 8 228 231 218
-6 -5 8 228 231 218
-6 -4 8 228 231 218
-6 -3 8 228 231 218
-6 -2 8 228 231 218
-6 -1 8 228 231 218
-6 0 8 228 231 218
-6 1 8 228 231 218
-6 2 8 228 231 218
-6 3 8 228 231 218
-6 4 8 228 231 218
-6 5 8 241 244 230
-5 5 8 228 231 218
-4 5 8 228 231 218
-3 5 8 228 231 218
-2 5 8 228 231 218
-1 5 8 228 231 218
0 5 8 228 231 218
1 5 8 228 231 218
2 5 8 228 231 218
3 5 8 228 231 218
4 5 8 228 231 218
5 5 8 228 231 218
6 5 8 228 231 218
7 5 8 228 231 218
-2 6 8 92 206 44
4 6 8 56 139 48
6 6 8 92 206 44
-6 -6 9 241 244 230
-5 -6 9 228 231 218
-4 -6 9 163 240 245
-3 -6 9 163 240 245
-2 -6 9 228 231 218
-1 -6 9 228 231 218
0 -6 9 163 240 245
1 -6 9 163 240 245
2 -6 9 228 231 218
3 -6 9 228 231 218
4 -6 9 163 240 245
5 -6 9 163 240 245
6 -6 9 228 231 218
7 -6 9 228 231 218
-6 -5 9 228 231 218
-6 -4 9 163 240 245
-6 -3 9 163 240 245
-6 -2 9 228 231 218
-6 -1 9 163 240 245
-6 0 9 163 240 245
-6 1 9 228 231 218
-6 2 9 163 240 245
-6 3 9 163 240 245
-6 4 9 228 231 218
-6 5 9 241 244 230
-5 5 9 228 231 218
-4 5 9 163 240 245
-3 5 9 163 240 245
-2 5 9 228 231 218
-1 5 9 228 231 218
0 5 9 163 240 245
1 5 9 163 240 245
2 5 9 228 231 218
3 5 9 228 231 218
4 5 9 163 240 245
5 5 9 163 240 245
6 5 9 228 231 218
7 5 9 228 231 218
-3 6 9 56 139 48
3 6 9 92 206 44
-6 -6 10 241 244 230
-5 -6 10 228 231 218
-4 -6 10 163 240 245
-3 -6 10 163 240 245
-2 -6 10 228 231 218
-1 -6 10 228 231 218
0 -6 10 163 240 245
1 -6 10 163 240 245
2 -6 10 228 231 218
3 -6 10 228 231 218
4 -6 10 163 240 245
5 -6 10 163 240 245
6 -6 10 228 231 218
7 -6 10 228 231 218
-6 -5 10 228 231 218
-6 -4 10 163 240 245
-6 -3 10 163 240 245
-6 -2 10 228 231 218
-6 -1 10 163 240 245
-6 0 10 163 240 245
-6 1 10 228 231 218
-6 2 10 163 240 245
-6 3 10 163 240 245
-6 4 10 228 231 218
-6 5 10 241 244 230
-5 5 10 228 231 218
-4 5 10 163 240 245
-3 5 10 163 240 245
-2 5 10 228 231 218
-1 5 10 228 231 218
0 5 10 163 240 245
1 5 10 163 240 245
2 5 10 228 231 218
3 5 10 228 231 218
4 5 10 163 240 245
5 5 10 163 240 245
6 5 10 228 231 218
7 5 10 228 231 218
-2 6 10 92 206 44
2 6 10 92 206 44
-6 -6 11 241 244 230
-5 -6 11 228 231 218
-4 -6 11 104 216 245
-3 -6 11 104 216 245
-2 -6 11 228 231 218
-1 -6 11 228 231 218
0 -6 11 104 216 245
1 -6 11 104 216 245
2 -6 11 228 231 218
3 -6 11 228 231 218
4 -6 11 104 216 245
5 -6 11 104 216 245
6 -6 11 228 231 218
7 -6 11 228 231 218
-6 -5 11 228 231 218
-6 -4 11 104 216 245
-6 -3 11 104 216 245
-6 -2 11 228 231 218
-6 -1 11 104 216 245
-6 0 11 104 216 245
-6 1 11 228 231 218
-6 2 11 104 216 245
-6 3 11 104 216 245
-6 4 11 228 231 218
-6 5 11 241 244 230
-5 5 11 228 231 218
-4 5 11 104 216 245
-3 5 11 104 216 245
-2 5 11 228 231 218
-1 5 11 228 231 218
0 5 11 104 216 245
1 5 11 104 216 245
2 5 11 228 231 218
3 5 11 228 231 218
4 5 11 104 216 245
5 5 11 104 216 245
6 5 11 228 231 218
7 5 11 228 231 218
2 6 11 92 206 44
-4 -7 12 241 244 230
-3 -7 12 241 244 230
0 -7 12 241 244 230
1 -7 12 241 244 230
4 -7 12 241 244 230
5 -7 12 241 244 230
-6 -6 12 241 244 230
-5 -6 12 228 231 218
-4 -6 12 228 231 218
-3 -6 12 228 231 218
-2 -6 12 228 231 218
-1 -6 12 228 231 218
0 -6 12 228 231 218
1 -6 12 228 231 218
2 -6 12 228 231 218
3 -6 12 228 231 218
4 -6 12 228 231 218
5 -6 12 228 231 218
6 -6 12 228 231 218
7 -6 12 228 231 218
-6 -5 12 228 231 218
-7 -4 12 241 244 230
-6 -4 12 228 231 218
-7 -3 12 241 244 230
-6 -3 12 228 231 218
-6 -2 12 228 231 218
-7 -1 12 241 244 230
-6 -1 12 228 231 218
-7 0 12 241 244 230
-6 0 12 228 231 218
-6 1 12 228 231 218
-7 2 12 241 244 230
-6 2 12 228 231 218
-7 3 12 241 244 230
-6 3 12 228 231 218
-6 4 12 228 231 218
-6 5 12 241 244 230
-5 5 12 228 231 218
-4 5 12 228 231 218
-3 5 12 228 231 218
-2 5 12 228 231 218
-1 5 12 228 231 218
0 5 12 228 231 218
1 5 12 228 231 218
2 5 12 228 231 218
3 5 12 228 231 218
4 5 12 228 231 218
5 5 12 228 231 218
6 5 12 228 231 218
7 5 12 228 231 218
-4 6 12 241 244 230
-3 6 12 241 244 230
0 6 12 241 244 230
1 6 12 241 244 230
4 6 12 241 244 230
5 6 12 241 244 230
-6 -6 13 241 244 230
-5 -6 13 228 231 218
-4 -6 13 228 231 218
-3 -6 13 228 231 218
-2 -6 13 228 231 218
-1 -6 13 228 231 218
0 -6 13 228 231 218
1 -6 13 228 231 218
2 -6 13 228 231 218
3 -6 13 228 231 218
4 -6 13 228 231 218
5 -6 13 228 231 218
6 -6 13 228 231 218
7 -6 13 228 231 218
-6 -5 13 228 231 218
-6 -4 13 228 231 218
-6 -3 13 228 231 218
-6 -2 13 228 231 218
-6 -1 13 228 231 218
-6 0 13 228 231 218
-6 1 13 228 231 218
-6 2 13 228 231 218
-6 3 13 228 231 218
-6 4 13 228 231 218
-6 5 13 241 244 230
-5 5 13 228 231 218
-4 5 13 228 231 218
-3 5 13 228 231 218
-2 5 13 228 231 218
-1 5 13 228 231 218
0 5 13 228 231 218
1 5 13 228 231 218
2 5 13 228 231 218
3 5 13 228 231 218
4 5 13 228 231 218
5 5 13 228 231 218
6 5 13 228 231 218
7 5 13 228 231 218
-6 -6 14 241 244 230
-5 -6 14 241 244 230
-4 -6 14 241 244 230
-3 -6 14 241 244 230
-2 -6 14 241 244 230
-1 -6 14 241 244 230
0 -6 14 241 244 230
1 -6 14 241 244 230
2 -6 14 241 244 230
3 -6 14 241 244 230
4 -6 14 241 244 230
5 -6 14 241 244 230
6 -6 14 241 244 230
7 -6 14 241 244 230
-6 -5 14 241 244 230
-5 -5 14 241 244 230
-4 -5 14 241 244 230
-3 -5 14 241 244 230
-2 -5 14 241 244 230
-1 -5 14 241 244 230
0 -5 14 241 244 230
1 -5 14 241 244 230
2 -5 14 241 244 230
3 -5 14 241 244 230
4 -5 14 241 244 230
5 -5 14 241 244 230
6 -5 14 241 244 230
7 -5 14 241 244 230
-6 -4 14 241 244 230
-5 -4 14 241 244 230
-4 -4 14 241 244 230
-3 -4 14 241 244 230
-2 -4 14 241 244 230
-1 -4 14 241 244 230
0 -4 14 241 244 230
1 -4 14 241 244 230
2 -4 14 241 244 230
3 -4 14 241 244 230
4 -4 14 241 244 230
5 -4 14 241 244 230
6 -4 14 241 244 230
7 -4 14 241 244 230
-6 -3 14 241 244 230
-5 -3 14 241 244 230
-4 -3 14 241 244 230
-3 -3 14 241 244 230
-2 -3 14 241 244 230
-1 -3 14 241 244 230
0 -3 14 241 244 230
1 -3 14 241 244 230
2 -3 14 241 244 230
3 -3 14 241 244 230
4 -3 14 241 244 230
5 -3 14 241 244 230
6 -3 14 241 244 230
7 -3 14 241 244 230
-6 -2 14 241 244 230
-5 -2 14 241 244 230
-4 -2 14 241 244 230
-3 -2 14 241 244 230
-2 -2 14 241 244 230
-1 -2 14 241 244 230
0 -2 14 241 244 230
1 -2 14 241 244 230
2 -2 14 241 244 230
3 -2 14 241 244 230
4 -2 14 241 244 230
5 -2 14 241 244 230
6 -2 14 241 244 230
7 -2 14 241 244 230
-6 -1 14 241 244 230
-5 -1 14 241 244 230
-4 -1 14 241 244 230
-3 -1 14 241 244 230
-2 -1 14 241 244 230
-1 -1 14 241 244 230
0 -1 14 241 244 230
1 -1 14 241 244 230
2 -1 14 241 244 230
3 -1 14 241 244 230
4 -1 14 241 244 230
5 -1 14 241 244 230
6 -1 14 241 244 230
7 -1 14 241 244 230
-6 0 14 241 244 230
-5 0 14 241 244 230
-4 0 14 241 244 230
-3 0 14 241 244 230
-2 0 14 241 244 230
-1 0 14 241 244 230
0 0 14 241 244 230
1 0 14 241 244 230
2 0 14 241 244 230
3 0 14 241 244 230
4 0 14 241 244 230
5 0 14 241 244 230
6 0 14 241 244 230
7 0 14 241 244 230
-6 1 14 241 244 230
-5 1 14 241 244 230
-4 1 14 241 244 230
-3 1 14 241 244 230
-2 1 14 241 244 230
-1 1 14 241 244 230
0 1 14 241 244 230
1 1 14 241 244 230
2 1 14 241 244 230
3 1 14 241 244 230
4 1 14 241 244 230
5 1 14 241 244 230
6 1 14 241 244 230
7 1 14 241 244 230
-6 2 14 241 244 230
-5 2 14 241 244 230
-4 2 14 241 244 230
-3 2 14 241 244 230
-2 2 14 241 244 230
-1 2 14 241 244 230
0 2 14 241 244 230
1 2 14 241 244 230
2 2 14 241 244 230
3 2 14 241 244 230
4 2 14 241 244 230
5 2 14 241 244 230
6 2 14 241 244 230
7 2 14 241 244 230
-6 3 14 241 244 230
-5 3 14 241 244 230
-4 3 14 241 244 230
-3 3 14 241 244 230
-2 3 14 241 244 230
-1 3 14 241 244 230
0 3 14 241 244 230
1 3 14 241 244 230
2 3 14 241 244 230
3 3 14 241 244 230
4 3 14 241 244 230
5 3 14 241 244 230
6 3 14 241 244 230
7 3 14 241 244 230
-6 4 14 241 244 230
-5 4 14 241 244 230
-4 4 14 241 244 230
-3 4 14 241 244 230
-2 4 14 241 244 230
-1 4 14 241 244 230
0 4 14 241 244 230
1 4 14 241 244 230
2 4 14 241 244 230
3 4 14 241 244 230
4 4 14 241 244 230
5 4 14 241 244 230
6 4 14 241 244 230
7 4 14 241 244 230
-6 5 14 241 244 230
-5 5 14 241 244 230
-4 5 14 241 244 230
-3 5 14 241 244 230
-2 5 14 241 244 230
-1 5 14 241 244 230
0 5 14 241 244 230
1 5 14 241 244 230
2 5 14 241 244 230
3 5 14 241 244 230
4 5 14 241 244 230
5 5 14 241 244 230
6 5 14 241 244 230
7 5 14 241 244 230
-6 -6 15 241 244 230
-5 -6 15 241 244 230
-4 -6 15 241 244 230
-3 -6 15 241 244 230
-2 -6 15 241 244 230
-1 -6 15 241 244 230
0 -6 15 241 244 230
1 -6 15 241 244 230
2 -6 15 241 244 230
3 -6 15 241 244 230
4 -6 15 241 244 230
5 -6 15 241 244 230
6 -6 15 241 244 230
7 -6 15 241 244 230
-6 -5 15 241 244 230
-5 -5 15 56 139 48
-6 -4 15 241 244 230
-5 -4 15 92 206 44
-3 -4 15 92 206 44
-2 -4 15 151 112 58
-6 -3 15 241 244 230
-5 -3 15 56 139 48
-2 -3 15 56 139 48
-6 -2 15 241 244 230
3 -2 15 135 138 130
4 -2 15 197 200 189
5 -2 15 197 200 189
-6 -1 15 241 244 230
-5 -1 15 56 139 48
3 -1 15 197 200 189
4 -1 15 241 244 230
5 -1 15 135 138 130
-6 0 15 241 244 230
-5 0 15 92 206 44
3 0 15 197 200 189
4 0 15 241 244 230
5 0 15 135 138 130
-6 1 15 241 244 230
-3 1 15 56 139 48
3 1 15 135 138 130
4 1 15 197 200 189
5 1 15 197 200 189
-6 2 15 241 244 230
-5 2 15 92 206 44
-3 2 15 57 38 19
-2 2 15 92 206 44
-6 3 15 241 244 230
-5 3 15 92 206 44
-6 4 15 241 244 230
-5 4 15 56 139 48
-6 5 15 241 244 230
-5 5 15 241 244 230
-4 5 15 241 244 230
-3 5 15 241 244 230
-2 5 15 241 244 230
-1 5 15 241 244 230
0 5 15 241 244 230
1 5 15 241 244 230
2 5 15 241 244 230
3 5 15 241 244 230
4 5 15 241 244 230
5 5 15 241 244 230
6 5 15 241 244 230
7 5 15 241 244 230
-2 -4 16 151 112 58
4 -1 16 241 244 230
4 0 16 241 244 230
-3 2 16 151 112 58
-3 -5 17 56 139 48
-2 -5 17 56 139 48
-1 -5 17 56 139 48
-3 -4 17 56 139 48
-2 -4 17 151 112 58
-1 -4 17 56 139 48
-3 -3 17 56 139 48
-2 -3 17 56 139 48
-1 -3 17 56 139 48
4 -1 17 241 244 230
4 0 17 241 244 230
-3 2 17 151 112 58
1 -6 18 241 244 230
2 -6 18 241 244 230
-2 -5 18 56 139 48
1 -5 18 15 134 213
2 -5 18 11 65 145
-3 -4 18 92 206 44
-2 -4 18 92 206 44
-1 -4 18 92 206 44
1 -4 18 11 65 145
2 -4 18 76 181 223
-2 -3 18 92 206 44
1 -3 18 11 65 145
2 -3 18 15 134 213
1 -2 18 15 134 213
2 -2 18 15 134 213
1 -1 18 15 134 213
2 -1 18 76 181 223
4 -1 18 241 244 230
1 0 18 11 65 145
2 0 18 11 65 145
4 0 18 241 244 230
-4 1 18 56 139 48
-3 1 18 56 139 48
-2 1 18 56 139 48
1 1 18 11 65 145
2 1 18 11 65 145
-4 2 18 92 206 44
-3 2 18 92 206 44
-2 2 18 56 139 48
1 2 18 11 65 145
2 2 18 11 65 145
-4 3 18 56 139 48
-3 3 18 56 139 48
-2 3 18 56 139 48
1 3 18 15 134 213
2 3 18 76 181 223
1 4 18 76 181 223
2 4 18 15 134 213
1 5 18 241 244 230
2 5 18 241 244 230
3 -6 19 241 244 230
4 -6 19 241 244 230
3 -5 19 76 181 223
4 -5 19 15 134 213
-2 -4 19 172 255 104
3 -4 19 15 134 213
4 -4 19 76 181 223
3 -3 19 11 65 145
4 -3 19 15 134 213
3 -2 19 11 65 145
4 -2 19 11 65 145
3 -1 19 15 134 213
4 -1 19 76 181 223
3 0 19 15 134 213
4 0 19 15 134 213
-4 1 19 92 206 44
-3 1 19 56 139 48
-2 1 19 92 206 44
3 1 19 76 181 223
4 1 19 76 181 223
-4 2 19 56 139 48
-3 2 19 92 206 44
-2 2 19 56 139 48
3 2 19 11 65 145
4 2 19 15 134 213
-4 3 19 56 139 48
-3 3 19 56 139 48
-2 3 19 92 206 44
3 3 19 11 65 145
4 3 19 11 65 145
3 4 19 11 65 145
4 4 19 76 181 223
3 5 19 241 244 230
4 5 19 241 244 230
5 -6 20 241 244 230
6 -6 20 241 244 230
5 -5 20 15 134 213
6 -5 20 76 181 223
5 -4 20 11 65 145
6 -4 20 76 181 223
5 -3 20 11 65 145
6 -3 20 15 134 213
5 -2 20 15 134 213
6 -2 20 76 181 223
5 -1 20 15 134 213
6 -1 20 11 65 145
5 0 20 11 65 145
6 0 20 11 65 145
-3 1 20 92 206 44
5 1 20 11 65 145
6 1 20 15 134 213
-4 2 20 92 206 44
-3 2 20 92 206 44
-2 2 20 92 206 44
5 2 20 11 65 145
6 2 20 11 65 145
-3 3 20 92 206 44
5 3 20 15 134 213
6 3 20 76 181 223
5 4 20 76 181 223
6 4 20 15 134 213
5 5 20 241 244 230
6 5 20 241 244 230
