ply
format ascii 1.0
comment : MagicaVoxel @ Ephtracy
element vertex 424
property float x
property float y
property float z
property uchar red
property uchar green
property uchar blue
end_header
-7 -6 0 217 203 181
-3 -6 0 151 112 58
3 -6 0 206 96 200
5 -6 0 151 112 58
-5 -5 0 217 203 181
-1 -3 0 80 58 33
3 -3 0 80 58 33
-6 -2 0 217 203 181
0 -2 0 54 54 54
1 -2 0 54 54 54
2 -2 0 54 54 54
-4 -1 0 57 38 19
-3 -1 0 57 38 19
-2 -1 0 57 38 19
-1 -1 0 80 58 33
3 -1 0 57 38 19
4 -1 0 57 38 19
5 -1 0 57 38 19
-5 0 0 57 38 19
5 0 0 57 38 19
-6 1 0 57 38 19
5 1 0 57 38 19
-6 2 0 57 38 19
5 2 0 57 38 19
-5 3 0 57 38 19
5 3 0 57 38 19
-4 4 0 57 38 19
5 4 0 57 38 19
-4 5 0 57 38 19
-3 5 0 57 38 19
-2 5 0 80 58 33
-1 5 0 80 58 33
0 5 0 57 38 19
1 5 0 57 38 19
2 5 0 57 38 19
3 5 0 80 58 33
4 5 0 80 58 33
5 5 0 57 38 19
-2 6 0 80 58 33
-1 6 0 80 58 33
3 6 0 80 58 33
4 6 0 80 58 33
-7 -6 1 76 181 223
-3 -6 1 151 112 58
5 -6 1 151 112 58
-5 -5 1 55 101 195
-1 -3 1 80 58 33
3 -3 1 80 58 33
-6 -2 1 217 203 181
0 -2 1 54 54 54
1 -2 1 54 54 54
2 -2 1 54 54 54
-4 -1 1 57 38 19
-3 -1 1 57 38 19
-2 -1 1 57 38 19
-1 -1 1 80 58 33
3 -1 1 80 58 33
4 -1 1 57 38 19
5 -1 1 80 58 33
-5 0 1 57 38 19
5 0 1 57 38 19
-6 1 1 57 38 19
5 1 1 57 38 19
-6 2 1 57 38 19
5 2 1 80 58 33
-5 3 1 57 38 19
5 3 1 57 38 19
-4 4 1 57 38 19
-2 4 1 255 225 0
-1 4 1 255 225 0
3 4 1 54 54 54
4 4 1 54 54 54
5 4 1 80 58 33
-4 5 1 80 58 33
-3 5 1 80 58 33
0 5 1 80 58 33
1 5 1 57 38 19
2 5 1 80 58 33
5 5 1 57 38 19
-1 6 1 134 60 157
3 6 1 55 101 195
-3 -6 2 255 225 0
5 -6 2 255 225 0
-6 -3 2 134 60 157
-1 -3 2 46 127 142
3 -3 2 46 127 142
-7 -2 2 246 236 244
-6 -2 2 206 96 200
-5 -2 2 246 236 244
-1 -2 2 46 127 142
0 -2 2 54 54 54
1 -2 2 54 54 54
2 -2 2 54 54 54
3 -2 2 46 127 142
-6 -1 2 134 60 157
-4 -1 2 57 38 19
-3 -1 2 80 58 33
-2 -1 2 57 38 19
-1 -1 2 80 58 33
3 -1 2 80 58 33
4 -1 2 80 58 33
5 -1 2 57 38 19
-5 0 2 80 58 33
5 0 2 80 58 33
-6 1 2 80 58 33
5 1 2 80 58 33
-6 2 2 57 38 19
5 2 2 57 38 19
-5 3 2 80 58 33
5 3 2 80 58 33
-4 4 2 57 38 19
-2 4 2 255 225 0
-1 4 2 255 225 0
3 4 2 54 54 54
4 4 2 54 54 54
5 4 2 80 58 33
-4 5 2 57 38 19
-3 5 2 80 58 33
0 5 2 57 38 19
1 5 2 80 58 33
2 5 2 80 58 33
5 5 2 80 58 33
0 -3 3 46 127 142
2 -3 3 68 160 183
-6 -2 3 206 96 200
0 -2 3 57 38 19
1 -2 3 54 54 54
2 -2 3 46 127 142
-4 -1 3 80 58 33
-3 -1 3 80 58 33
-2 -1 3 80 58 33
-1 -1 3 80 58 33
3 -1 3 80 58 33
4 -1 3 80 58 33
5 -1 3 80 58 33
-5 0 3 57 38 19
4 0 3 255 225 0
-6 1 3 57 38 19
4 1 3 255 225 0
-6 2 3 80 58 33
5 2 3 80 58 33
-5 3 3 80 58 33
4 3 3 54 54 54
-4 4 3 80 58 33
4 4 3 54 54 54
-4 5 3 80 58 33
-3 5 3 80 58 33
-2 5 3 80 58 33
-1 5 3 80 58 33
0 5 3 80 58 33
1 5 3 80 58 33
2 5 3 80 58 33
3 5 3 80 58 33
4 5 3 80 58 33
5 5 3 80 58 33
1 -3 4 46 127 142
-4 -2 4 46 127 142
-3 -2 4 68 160 183
-2 -2 4 46 127 142
-1 -2 4 46 127 142
0 -2 4 46 127 142
1 -2 4 46 127 142
2 -2 4 46 127 142
3 -2 4 46 127 142
4 -2 4 68 160 183
5 -2 4 46 127 142
6 -2 4 46 127 142
-4 -1 4 80 58 33
-3 -1 4 80 58 33
-2 -1 4 134 60 157
-1 -1 4 134 60 157
0 -1 4 134 60 157
1 -1 4 134 60 157
2 -1 4 134 60 157
3 -1 4 134 60 157
4 -1 4 134 60 157
5 -1 4 134 60 157
6 -1 4 46 127 142
-5 0 4 80 58 33
4 0 4 255 225 0
-6 1 4 80 58 33
4 1 4 255 225 0
-6 2 4 80 58 33
5 2 4 57 38 19
-5 3 4 80 58 33
4 3 4 54 54 54
-4 4 4 57 38 19
4 4 4 54 54 54
-4 5 4 46 127 142
-3 5 4 134 60 157
-2 5 4 134 60 157
-1 5 4 134 60 157
0 5 4 134 60 157
1 5 4 134 60 157
2 5 4 134 60 157
3 5 4 134 60 157
4 5 4 134 60 157
5 5 4 68 160 183
-4 6 4 46 127 142
-3 6 4 68 160 183
-2 6 4 46 127 142
-1 6 4 46 127 142
0 6 4 46 127 142
1 6 4 46 127 142
2 6 4 46 127 142
3 6 4 46 127 142
4 6 4 46 127 142
5 6 4 68 160 183
6 6 4 46 127 142
-4 -1 5 57 38 19
-3 -1 5 80 58 33
-2 -1 5 46 127 142
-1 -1 5 68 160 183
0 -1 5 46 127 142
1 -1 5 46 127 142
2 -1 5 68 160 183
3 -1 5 46 127 142
4 -1 5 46 127 142
5 -1 5 68 160 183
6 -1 5 46 127 142
-5 0 5 80 58 33
5 0 5 80 58 33
6 0 5 80 58 33
-6 1 5 151 112 58
5 1 5 80 58 33
6 1 5 80 58 33
-6 2 5 57 38 19
5 2 5 80 58 33
-5 3 5 80 58 33
5 3 5 80 58 33
6 3 5 80 58 33
-4 4 5 80 58 33
5 4 5 80 58 33
6 4 5 80 58 33
-4 5 5 68 160 183
-3 5 5 46 127 142
-2 5 5 46 127 142
-1 5 5 46 127 142
0 5 5 68 160 183
1 5 5 46 127 142
2 5 5 46 127 142
3 5 5 68 160 183
4 5 5 46 127 142
5 5 5 68 160 183
6 5 5 46 127 142
-4 -1 6 80 58 33
-3 -1 6 151 112 58
-5 0 6 151 112 58
-2 0 6 46 127 142
-1 0 6 46 127 142
0 0 6 46 127 142
1 0 6 68 160 183
2 0 6 46 127 142
3 0 6 46 127 142
4 0 6 68 160 183
5 0 6 46 127 142
6 0 6 68 160 183
-7 1 6 255 225 0
-6 1 6 80 58 33
5 1 6 80 58 33
-6 2 6 80 58 33
5 2 6 80 58 33
-5 3 6 151 112 58
5 3 6 80 58 33
-4 4 6 151 112 58
-3 4 6 80 58 33
-2 4 6 68 160 183
-1 4 6 68 160 183
0 4 6 46 127 142
1 4 6 68 160 183
2 4 6 46 127 142
3 4 6 46 127 142
4 4 6 68 160 183
5 4 6 46 127 142
6 4 6 68 160 183
-5 0 7 80 58 33
-4 0 7 255 225 0
-3 0 7 255 225 0
-2 0 7 80 58 33
-7 1 7 80 58 33
-6 1 7 80 58 33
-1 1 7 68 160 183
0 1 7 46 127 142
1 1 7 46 127 142
2 1 7 68 160 183
3 1 7 46 127 142
4 1 7 46 127 142
5 1 7 68 160 183
6 1 7 68 160 183
-6 2 7 80 58 33
4 2 7 46 127 142
5 2 7 80 58 33
-5 3 7 80 58 33
-2 3 7 68 160 183
-1 3 7 68 160 183
0 3 7 46 127 142
1 3 7 68 160 183
2 3 7 46 127 142
3 3 7 68 160 183
4 3 7 46 127 142
5 3 7 46 127 142
6 3 7 68 160 183
-4 4 7 80 58 33
-3 4 7 151 112 58
4 4 7 46 127 142
5 4 7 46 127 142
-4 -1 8 80 58 33
-3 -1 8 151 112 58
-5 0 8 151 112 58
-4 0 8 80 58 33
-3 0 8 80 58 33
-2 0 8 151 112 58
-6 1 8 151 112 58
-2 1 8 151 112 58
-6 2 8 151 112 58
-2 2 8 86 86 86
-1 2 8 46 127 142
0 2 8 46 127 142
1 2 8 46 127 142
2 2 8 46 127 142
3 2 8 68 160 183
4 2 8 46 127 142
5 2 8 46 127 142
6 2 8 68 160 183
-5 3 8 151 112 58
-2 3 8 151 112 58
-4 4 8 151 112 58
-3 4 8 151 112 58
4 4 8 46 127 142
5 4 8 46 127 142
-4 0 9 54 54 54
-3 0 9 54 54 54
-5 1 9 54 54 54
-4 1 9 80 58 33
-3 1 9 80 58 33
-2 1 9 54 54 54
-5 2 9 54 54 54
-4 2 9 54 54 54
-3 2 9 54 54 54
-2 2 9 54 54 54
-4 3 9 54 54 54
-3 3 9 54 54 54
4 4 9 68 160 183
5 4 9 68 160 183
-4 -2 10 46 127 142
-3 -2 10 46 127 142
-5 -1 10 46 127 142
-4 -1 10 46 127 142
-3 -1 10 46 127 142
-2 -1 10 46 127 142
-6 0 10 46 127 142
-5 0 10 46 127 142
-4 0 10 134 60 157
-3 0 10 46 127 142
-2 0 10 46 127 142
-1 0 10 46 127 142
-7 1 10 68 160 183
-6 1 10 46 127 142
-5 1 10 46 127 142
-4 1 10 46 127 142
-3 1 10 46 127 142
-2 1 10 46 127 142
-1 1 10 46 127 142
0 1 10 46 127 142
-7 2 10 46 127 142
-6 2 10 46 127 142
-5 2 10 68 160 183
-4 2 10 68 160 183
-3 2 10 46 127 142
-2 2 10 46 127 142
-1 2 10 46 127 142
0 2 10 46 127 142
-6 3 10 46 127 142
-5 3 10 68 160 183
-4 3 10 68 160 183
-3 3 10 46 127 142
-2 3 10 46 127 142
-1 3 10 46 127 142
-5 4 10 68 160 183
-4 4 10 68 160 183
-3 4 10 46 127 142
-2 4 10 46 127 142
-4 5 10 46 127 142
-3 5 10 46 127 142
-4 -1 11 68 160 183
-3 -1 11 46 127 142
-5 0 11 68 160 183
-4 0 11 68 160 183
-3 0 11 68 160 183
-2 0 11 68 160 183
-6 1 11 68 160 183
-5 1 11 68 160 183
-4 1 11 68 160 183
-3 1 11 68 160 183
-2 1 11 68 160 183
-1 1 11 46 127 142
-6 2 11 46 127 142
-5 2 11 68 160 183
-4 2 11 68 160 183
-3 2 11 46 127 142
-2 2 11 46 127 142
-1 2 11 68 160 183
-5 3 11 68 160 183
-4 3 11 68 160 183
-3 3 11 46 127 142
-2 3 11 68 160 183
-4 4 11 68 160 183
-3 4 11 46 127 142
-4 0 12 46 127 142
-3 0 12 68 160 183
-5 1 12 46 127 142
-4 1 12 46 127 142
-3 1 12 68 160 183
-2 1 12 68 160 183
-5 2 12 68 160 183
-4 2 12 68 160 183
-3 2 12 46 127 142
-2 2 12 46 127 142
-4 3 12 68 160 183
-3 3 12 46 127 142
-4 1 13 46 127 142
-3 1 13 68 160 183
-4 2 13 68 160 183
-3 2 13 46 127 142
