ply
format ascii 1.0
comment : MagicaVoxel @ Ephtracy
element vertex 695
property float x
property float y
property float z
property uchar red
property uchar green
property uchar blue
end_header
-5 -7 0 241 244 230
-4 -7 0 241 244 230
-3 -7 0 241 244 230
-2 -7 0 241 244 230
-1 -7 0 241 244 230
0 -7 0 241 244 230
1 -7 0 241 244 230
2 -7 0 241 244 230
3 -7 0 241 244 230
4 -7 0 241 244 230
-6 -6 0 241 244 230
-5 -6 0 241 244 230
-4 -6 0 241 244 230
-3 -6 0 241 244 230
-2 -6 0 241 244 230
-1 -6 0 241 244 230
0 -6 0 241 244 230
1 -6 0 241 244 230
2 -6 0 241 244 230
3 -6 0 241 244 230
4 -6 0 241 244 230
5 -6 0 241 244 230
-7 -5 0 241 244 230
-6 -5 0 241 244 230
5 -5 0 241 244 230
6 -5 0 241 244 230
-7 -4 0 241 244 230
-6 -4 0 241 244 230
5 -4 0 241 244 230
6 -4 0 241 244 230
-7 -3 0 241 244 230
-6 -3 0 241 244 230
5 -3 0 241 244 230
6 -3 0 241 244 230
-7 -2 0 241 244 230
-6 -2 0 241 244 230
5 -2 0 241 244 230
6 -2 0 241 244 230
-7 -1 0 241 244 230
-6 -1 0 241 244 230
5 -1 0 241 244 230
6 -1 0 241 244 230
-7 0 0 241 244 230
-6 0 0 241 244 230
5 0 0 241 244 230
6 0 0 241 244 230
-7 1 0 241 244 230
-6 1 0 241 244 230
5 1 0 241 244 230
6 1 0 241 244 230
-7 2 0 241 244 230
-6 2 0 241 244 230
5 2 0 241 244 230
6 2 0 241 244 230
-7 3 0 241 244 230
-6 3 0 241 244 230
5 3 0 241 244 230
6 3 0 241 244 230
-7 4 0 241 244 230
-6 4 0 241 244 230
5 4 0 241 244 230
6 4 0 241 244 230
-7 5 0 241 244 230
-6 5 0 241 244 230
5 5 0 241 244 230
6 5 0 241 244 230
-6 6 0 241 244 230
5 6 0 241 244 230
-6 7 0 241 244 230
5 7 0 241 244 230
-5 -7 1 242 60 84
-4 -7 1 56 139 48
-3 -7 1 92 206 44
-2 -7 1 243 121 21
-1 -7 1 92 206 44
0 -7 1 56 139 48
1 -7 1 56 139 48
2 -7 1 243 232 37
3 -7 1 56 139 48
4 -7 1 243 232 37
-6 -6 1 241 244 230
-5 -6 1 228 231 218
-4 -6 1 228 231 218
-3 -6 1 228 231 218
-2 -6 1 228 231 218
-1 -6 1 228 231 218
0 -6 1 228 231 218
1 -6 1 228 231 218
2 -6 1 228 231 218
3 -6 1 228 231 218
4 -6 1 228 231 218
5 -6 1 241 244 230
-7 -5 1 242 60 84
-6 -5 1 228 231 218
5 -5 1 228 231 218
6 -5 1 92 206 44
-7 -4 1 56 139 48
-6 -4 1 228 231 218
5 -4 1 228 231 218
6 -4 1 56 139 48
-7 -3 1 92 206 44
-6 -3 1 228 231 218
5 -3 1 228 231 218
6 -3 1 56 139 48
-7 -2 1 56 139 48
-6 -2 1 228 231 218
5 -2 1 228 231 218
6 -2 1 243 121 21
-7 -1 1 56 139 48
-6 -1 1 228 231 218
5 -1 1 228 231 218
6 -1 1 92 206 44
-7 0 1 242 60 84
-6 0 1 228 231 218
5 0 1 228 231 218
6 0 1 56 139 48
-7 1 1 92 206 44
-6 1 1 228 231 218
5 1 1 228 231 218
6 1 1 242 60 84
-7 2 1 243 232 37
-6 2 1 228 231 218
5 2 1 228 231 218
6 2 1 56 139 48
-7 3 1 56 139 48
-6 3 1 228 231 218
5 3 1 228 231 218
6 3 1 92 206 44
-7 4 1 56 139 48
-6 4 1 228 231 218
5 4 1 228 231 218
6 4 1 56 139 48
-7 5 1 242 60 84
-6 5 1 228 231 218
5 5 1 228 231 218
6 5 1 243 232 37
-6 6 1 228 231 218
5 6 1 228 231 218
-6 7 1 228 231 218
5 7 1 228 231 218
-4 -7 2 242 60 84
-1 -7 2 243 232 37
1 -7 2 242 60 84
3 -7 2 243 121 21
-6 -6 2 241 244 230
-5 -6 2 228 231 218
-4 -6 2 163 240 245
-3 -6 2 163 240 245
-2 -6 2 228 231 218
-1 -6 2 163 240 245
0 -6 2 163 240 245
1 -6 2 228 231 218
2 -6 2 163 240 245
3 -6 2 163 240 245
4 -6 2 228 231 218
5 -6 2 241 244 230
-6 -5 2 228 231 218
5 -5 2 228 231 218
6 -5 2 242 60 84
-6 -4 2 163 240 245
5 -4 2 163 240 245
-7 -3 2 243 232 37
-6 -3 2 163 240 245
5 -3 2 163 240 245
6 -3 2 243 121 21
-6 -2 2 228 231 218
5 -2 2 228 231 218
-7 -1 2 243 121 21
-6 -1 2 163 240 245
5 -1 2 163 240 245
6 -1 2 242 60 84
-6 0 2 163 240 245
5 0 2 163 240 245
6 0 2 243 232 37
-6 1 2 228 231 218
5 1 2 228 231 218
-6 2 2 163 240 245
5 2 2 163 240 245
-7 3 2 243 121 21
-6 3 2 163 240 245
5 3 2 163 240 245
6 3 2 243 121 21
-6 4 2 228 231 218
5 4 2 228 231 218
-6 5 2 163 240 245
5 5 2 163 240 245
-6 6 2 163 240 245
5 6 2 163 240 245
-6 7 2 228 231 218
5 7 2 228 231 218
-6 -6 3 241 244 230
-5 -6 3 228 231 218
-4 -6 3 163 240 245
-3 -6 3 163 240 245
-2 -6 3 228 231 218
-1 -6 3 163 240 245
0 -6 3 163 240 245
1 -6 3 228 231 218
2 -6 3 163 240 245
3 -6 3 163 240 245
4 -6 3 228 231 218
5 -6 3 241 244 230
-6 -5 3 228 231 218
5 -5 3 228 231 218
-6 -4 3 163 240 245
5 -4 3 163 240 245
-6 -3 3 163 240 245
5 -3 3 163 240 245
-6 -2 3 228 231 218
5 -2 3 228 231 218
-6 -1 3 163 240 245
5 -1 3 163 240 245
-6 0 3 163 240 245
5 0 3 163 240 245
-6 1 3 228 231 218
5 1 3 228 231 218
-6 2 3 163 240 245
5 2 3 163 240 245
-6 3 3 163 240 245
5 3 3 163 240 245
-6 4 3 228 231 218
5 4 3 228 231 218
-6 5 3 163 240 245
5 5 3 163 240 245
-6 6 3 163 240 245
5 6 3 163 240 245
-6 7 3 228 231 218
5 7 3 228 231 218
-6 -6 4 241 244 230
-5 -6 4 228 231 218
-4 -6 4 104 216 245
-3 -6 4 104 216 245
-2 -6 4 228 231 218
-1 -6 4 104 216 245
0 -6 4 104 216 245
1 -6 4 228 231 218
2 -6 4 104 216 245
3 -6 4 104 216 245
4 -6 4 228 231 218
5 -6 4 241 244 230
-6 -5 4 228 231 218
5 -5 4 228 231 218
-6 -4 4 104 216 245
5 -4 4 104 216 245
-6 -3 4 104 216 245
5 -3 4 104 216 245
-6 -2 4 228 231 218
5 -2 4 228 231 218
-6 -1 4 104 216 245
5 -1 4 104 216 245
-6 0 4 104 216 245
5 0 4 104 216 245
-6 1 4 228 231 218
5 1 4 228 231 218
-6 2 4 104 216 245
5 2 4 104 216 245
-6 3 4 104 216 245
5 3 4 104 216 245
-6 4 4 228 231 218
5 4 4 228 231 218
-6 5 4 104 216 245
5 5 4 104 216 245
-6 6 4 104 216 245
5 6 4 104 216 245
-6 7 4 228 231 218
5 7 4 228 231 218
-4 -7 5 241 244 230
-3 -7 5 241 244 230
-1 -7 5 241 244 230
0 -7 5 241 244 230
2 -7 5 241 244 230
3 -7 5 241 244 230
-6 -6 5 241 244 230
-5 -6 5 228 231 218
-4 -6 5 228 231 218
-3 -6 5 228 231 218
-2 -6 5 228 231 218
-1 -6 5 228 231 218
0 -6 5 228 231 218
1 -6 5 228 231 218
2 -6 5 228 231 218
3 -6 5 228 231 218
4 -6 5 228 231 218
5 -6 5 241 244 230
-6 -5 5 228 231 218
5 -5 5 228 231 218
-7 -4 5 241 244 230
-6 -4 5 228 231 218
5 -4 5 228 231 218
6 -4 5 241 244 230
-7 -3 5 241 244 230
-6 -3 5 228 231 218
5 -3 5 228 231 218
6 -3 5 241 244 230
-6 -2 5 228 231 218
5 -2 5 228 231 218
-7 -1 5 241 244 230
-6 -1 5 228 231 218
5 -1 5 228 231 218
6 -1 5 241 244 230
-7 0 5 241 244 230
-6 0 5 228 231 218
5 0 5 228 231 218
6 0 5 241 244 230
-6 1 5 228 231 218
5 1 5 228 231 218
-7 2 5 241 244 230
-6 2 5 228 231 218
5 2 5 228 231 218
6 2 5 241 244 230
-7 3 5 241 244 230
-6 3 5 228 231 218
5 3 5 228 231 218
6 3 5 241 244 230
-6 4 5 228 231 218
5 4 5 228 231 218
-7 5 5 241 244 230
-6 5 5 228 231 218
5 5 5 228 231 218
6 5 5 241 244 230
-7 6 5 241 244 230
-6 6 5 228 231 218
5 6 5 228 231 218
6 6 5 241 244 230
-6 7 5 228 231 218
5 7 5 228 231 218
-6 -6 6 241 244 230
-5 -6 6 228 231 218
-4 -6 6 228 231 218
-3 -6 6 228 231 218
-2 -6 6 228 231 218
-1 -6 6 228 231 218
0 -6 6 228 231 218
1 -6 6 228 231 218
2 -6 6 228 231 218
3 -6 6 228 231 218
4 -6 6 228 231 218
5 -6 6 241 244 230
-6 -5 6 228 231 218
5 -5 6 228 231 218
-6 -4 6 228 231 218
5 -4 6 228 231 218
-6 -3 6 228 231 218
5 -3 6 228 231 218
-6 -2 6 228 231 218
5 -2 6 228 231 218
-6 -1 6 228 231 218
5 -1 6 228 231 218
-6 0 6 228 231 218
5 0 6 228 231 218
-6 1 6 228 231 218
5 1 6 228 231 218
-6 2 6 228 231 218
5 2 6 228 231 218
-6 3 6 228 231 218
5 3 6 228 231 218
-6 4 6 228 231 218
5 4 6 228 231 218
-6 5 6 228 231 218
5 5 6 228 231 218
-6 6 6 228 231 218
5 6 6 228 231 218
-6 7 6 228 231 218
5 7 6 228 231 218
-6 -6 7 241 244 230
-5 -6 7 241 244 230
-4 -6 7 241 244 230
-3 -6 7 241 244 230
-2 -6 7 241 244 230
-1 -6 7 241 244 230
0 -6 7 241 244 230
1 -6 7 241 244 230
2 -6 7 241 244 230
3 -6 7 241 244 230
4 -6 7 241 244 230
5 -6 7 241 244 230
-6 -5 7 241 244 230
-5 -5 7 241 244 230
-4 -5 7 241 244 230
-3 -5 7 241 244 230
-2 -5 7 241 244 230
-1 -5 7 241 244 230
0 -5 7 241 244 230
1 -5 7 241 244 230
2 -5 7 241 244 230
3 -5 7 241 244 230
4 -5 7 241 244 230
5 -5 7 241 244 230
-6 -4 7 241 244 230
-5 -4 7 241 244 230
-4 -4 7 241 244 230
-3 -4 7 241 244 230
-2 -4 7 241 244 230
-1 -4 7 241 244 230
0 -4 7 241 244 230
1 -4 7 241 244 230
2 -4 7 241 244 230
3 -4 7 241 244 230
4 -4 7 241 244 230
5 -4 7 241 244 230
-6 -3 7 241 244 230
-5 -3 7 241 244 230
-4 -3 7 241 244 230
-3 -3 7 241 244 230
-2 -3 7 241 244 230
-1 -3 7 241 244 230
0 -3 7 241 244 230
1 -3 7 241 244 230
2 -3 7 241 244 230
3 -3 7 241 244 230
4 -3 7 241 244 230
5 -3 7 241 244 230
-6 -2 7 241 244 230
-5 -2 7 241 244 230
-4 -2 7 241 244 230
-3 -2 7 241 244 230
-2 -2 7 241 244 230
-1 -2 7 241 244 230
0 -2 7 241 244 230
1 -2 7 241 244 230
2 -2 7 241 244 230
3 -2 7 241 244 230
4 -2 7 241 244 230
5 -2 7 241 244 230
-6 -1 7 241 244 230
-5 -1 7 241 244 230
-4 -1 7 241 244 230
-3 -1 7 241 244 230
-2 -1 7 241 244 230
-1 -1 7 241 244 230
0 -1 7 241 244 230
1 -1 7 241 244 230
2 -1 7 241 244 230
3 -1 7 241 244 230
4 -1 7 241 244 230
5 -1 7 241 244 230
-6 0 7 241 244 230
-5 0 7 241 244 230
-4 0 7 241 244 230
-3 0 7 241 244 230
-2 0 7 241 244 230
-1 0 7 241 244 230
0 0 7 241 244 230
1 0 7 241 244 230
2 0 7 241 244 230
3 0 7 241 244 230
4 0 7 241 244 230
5 0 7 241 244 230
-6 1 7 241 244 230
-5 1 7 241 244 230
-4 1 7 241 244 230
-3 1 7 241 244 230
-2 1 7 241 244 230
-1 1 7 241 244 230
0 1 7 241 244 230
1 1 7 241 244 230
2 1 7 241 244 230
3 1 7 241 244 230
4 1 7 241 244 230
5 1 7 241 244 230
-6 2 7 241 244 230
-5 2 7 241 244 230
-4 2 7 241 244 230
-3 2 7 241 244 230
-2 2 7 241 244 230
-1 2 7 241 244 230
0 2 7 241 244 230
1 2 7 241 244 230
2 2 7 241 244 230
3 2 7 241 244 230
4 2 7 241 244 230
5 2 7 241 244 230
-6 3 7 241 244 230
-5 3 7 241 244 230
-4 3 7 241 244 230
-3 3 7 241 244 230
-2 3 7 241 244 230
-1 3 7 241 244 230
0 3 7 241 244 230
1 3 7 241 244 230
2 3 7 241 244 230
3 3 7 241 244 230
4 3 7 241 244 230
5 3 7 241 244 230
-6 4 7 241 244 230
-5 4 7 241 244 230
-4 4 7 241 244 230
-3 4 7 241 244 230
-2 4 7 241 244 230
-1 4 7 241 244 230
0 4 7 241 244 230
1 4 7 241 244 230
2 4 7 241 244 230
3 4 7 241 244 230
4 4 7 241 244 230
5 4 7 241 244 230
-6 5 7 241 244 230
-5 5 7 241 244 230
-4 5 7 241 244 230
-3 5 7 241 244 230
-2 5 7 241 244 230
-1 5 7 241 244 230
0 5 7 241 244 230
1 5 7 241 244 230
2 5 7 241 244 230
3 5 7 241 244 230
4 5 7 241 244 230
5 5 7 241 244 230
-6 6 7 241 244 230
-5 6 7 241 244 230
-4 6 7 241 244 230
-3 6 7 241 244 230
-2 6 7 241 244 230
-1 6 7 241 244 230
0 6 7 241 244 230
1 6 7 241 244 230
2 6 7 241 244 230
3 6 7 241 244 230
4 6 7 241 244 230
5 6 7 241 244 230
-6 7 7 241 244 230
-5 7 7 241 244 230
-4 7 7 241 244 230
-3 7 7 241 244 230
-2 7 7 241 244 230
-1 7 7 241 244 230
0 7 7 241 244 230
1 7 7 241 244 230
2 7 7 241 244 230
3 7 7 241 244 230
4 7 7 241 244 230
5 7 7 241 244 230
-6 -6 8 241 244 230
-5 -6 8 241 244 230
-4 -6 8 241 244 230
-3 -6 8 241 244 230
-2 -6 8 241 244 230
-1 -6 8 241 244 230
0 -6 8 241 244 230
1 -6 8 241 244 230
2 -6 8 241 244 230
3 -6 8 241 244 230
4 -6 8 241 244 230
5 -6 8 241 244 230
-6 -5 8 241 244 230
5 -5 8 241 244 230
-6 -4 8 241 244 230
-4 -4 8 151 112 58
-3 -4 8 151 112 58
-1 -4 8 151 112 58
0 -4 8 151 112 58
2 -4 8 151 112 58
3 -4 8 151 112 58
5 -4 8 241 244 230
-6 -3 8 241 244 230
-4 -3 8 151 112 58
-3 -3 8 151 112 58
-1 -3 8 151 112 58
0 -3 8 151 112 58
2 -3 8 151 112 58
3 -3 8 151 112 58
5 -3 8 241 244 230
-6 -2 8 241 244 230
-4 -2 8 151 112 58
-3 -2 8 151 112 58
-1 -2 8 151 112 58
0 -2 8 151 112 58
2 -2 8 151 112 58
3 -2 8 151 112 58
5 -2 8 241 244 230
-6 -1 8 241 244 230
-4 -1 8 151 112 58
-3 -1 8 151 112 58
-1 -1 8 151 112 58
0 -1 8 151 112 58
2 -1 8 151 112 58
3 -1 8 151 112 58
5 -1 8 241 244 230
-6 0 8 241 244 230
5 0 8 241 244 230
-6 1 8 241 244 230
5 1 8 241 244 230
-6 2 8 241 244 230
5 2 8 241 244 230
-6 3 8 241 244 230
-2 3 8 135 138 130
-1 3 8 197 200 189
0 3 8 197 200 189
1 3 8 135 138 130
5 3 8 241 244 230
-6 4 8 241 244 230
-2 4 8 197 200 189
-1 4 8 241 244 230
0 4 8 241 244 230
1 4 8 197 200 189
5 4 8 241 244 230
-6 5 8 241 244 230
-2 5 8 197 200 189
1 5 8 197 200 189
5 5 8 241 244 230
-6 6 8 241 244 230
5 6 8 241 244 230
-6 7 8 241 244 230
5 7 8 241 244 230
-3 -4 9 92 206 44
-1 -4 9 172 255 104
3 -4 9 172 255 104
-4 -3 9 172 255 104
0 -3 9 172 255 104
2 -3 9 92 206 44
-3 -2 9 92 206 44
0 -2 9 92 206 44
3 -2 9 172 255 104
-3 -1 9 172 255 104
-1 -1 9 92 206 44
2 -1 9 172 255 104
3 -1 9 92 206 44
-1 4 9 241 244 230
0 4 9 241 244 230
-1 4 10 241 244 230
0 4 10 241 244 230
-6 1 11 241 244 230
-5 1 11 76 181 223
-4 1 11 15 134 213
-3 1 11 11 65 145
-2 1 11 11 65 145
-1 1 11 11 65 145
0 1 11 15 134 213
1 1 11 15 134 213
2 1 11 11 65 145
3 1 11 11 65 145
4 1 11 15 134 213
5 1 11 241 244 230
-6 2 11 241 244 230
-5 2 11 15 134 213
-4 2 11 76 181 223
-3 2 11 11 65 145
-2 2 11 11 65 145
-1 2 11 11 65 145
0 2 11 76 181 223
1 2 11 15 134 213
2 2 11 15 134 213
3 2 11 76 181 223
4 2 11 11 65 145
5 2 11 241 244 230
-1 4 11 241 244 230
0 4 11 241 244 230
-6 3 12 241 244 230
-5 3 12 11 65 145
-4 3 12 11 65 145
-3 3 12 11 65 145
-2 3 12 76 181 223
-1 3 12 15 134 213
0 3 12 15 134 213
1 3 12 11 65 145
2 3 12 11 65 145
3 3 12 15 134 213
4 3 12 76 181 223
5 3 12 241 244 230
-6 4 12 241 244 230
-5 4 12 76 181 223
-4 4 12 11 65 145
-3 4 12 15 134 213
-2 4 12 76 181 223
-1 4 12 15 134 213
0 4 12 76 181 223
1 4 12 11 65 145
2 4 12 15 134 213
3 4 12 76 181 223
4 4 12 15 134 213
5 4 12 241 244 230
-6 5 13 241 244 230
-5 5 13 76 181 223
-4 5 13 15 134 213
-3 5 13 11 65 145
-2 5 13 11 65 145
-1 5 13 11 65 145
0 5 13 15 134 213
1 5 13 15 134 213
2 5 13 11 65 145
3 5 13 11 65 145
4 5 13 15 134 213
5 5 13 241 244 230
-6 6 13 241 244 230
-5 6 13 15 134 213
-4 6 13 76 181 223
-3 6 13 11 65 145
-2 6 13 15 134 213
-1 6 13 11 65 145
0 6 13 11 65 145
1 6 13 76 181 223
2 6 13 15 134 213
3 6 13 76 181 223
4 6 13 76 181 223
5 6 13 241 244 230
