ply
format ascii 1.0
comment : MagicaVoxel @ Ephtracy
element vertex 355
property float x
property float y
property float z
property uchar red
property uchar green
property uchar blue
end_header
-4 -6 0 80 58 33
-3 -6 0 80 58 33
-2 -6 0 80 58 33
1 -6 0 206 96 200
-4 -5 0 57 38 19
-3 -5 0 197 200 189
-2 -5 0 57 38 19
3 -5 0 217 203 181
-6 -4 0 76 181 223
-4 -4 0 57 38 19
-3 -4 0 197 200 189
-2 -4 0 57 38 19
0 -4 0 83 136 90
1 -4 0 83 136 90
2 -4 0 83 136 90
-5 -3 0 83 136 90
-4 -3 0 57 38 19
-3 -3 0 197 200 189
-2 -3 0 57 38 19
-1 -3 0 83 136 90
0 -3 0 99 156 96
1 -3 0 99 156 96
2 -3 0 83 136 90
3 -3 0 83 136 90
6 -3 0 55 101 195
-7 -2 0 134 60 157
-6 -2 0 83 136 90
-5 -2 0 83 136 90
-4 -2 0 80 58 33
-3 -2 0 197 200 189
-2 -2 0 80 58 33
-1 -2 0 83 136 90
0 -2 0 99 156 96
1 -2 0 83 136 90
2 -2 0 99 156 96
3 -2 0 83 136 90
4 -2 0 83 136 90
6 -2 0 217 203 181
-6 -1 0 83 136 90
-5 -1 0 83 136 90
-4 -1 0 80 58 33
-3 -1 0 197 200 189
-2 -1 0 80 58 33
-1 -1 0 83 136 90
0 -1 0 83 136 90
1 -1 0 83 136 90
2 -1 0 99 156 96
3 -1 0 125 201 98
4 -1 0 99 156 96
5 -1 0 83 136 90
-7 0 0 83 136 90
-6 0 0 83 136 90
-5 0 0 83 136 90
-4 0 0 80 58 33
-3 0 0 197 200 189
-2 0 0 80 58 33
-1 0 0 83 136 90
0 0 0 83 136 90
1 0 0 83 136 90
2 0 0 83 136 90
3 0 0 83 136 90
4 0 0 99 156 96
5 0 0 83 136 90
6 0 0 83 136 90
-7 1 0 83 136 90
-6 1 0 83 136 90
-5 1 0 83 136 90
-4 1 0 83 136 90
-3 1 0 83 136 90
-2 1 0 83 136 90
2 1 0 83 136 90
3 1 0 83 136 90
4 1 0 83 136 90
5 1 0 83 136 90
6 1 0 83 136 90
-7 2 0 83 136 90
-6 2 0 83 136 90
-5 2 0 83 136 90
-4 2 0 83 136 90
-3 2 0 83 136 90
-2 2 0 83 136 90
2 2 0 83 136 90
3 2 0 83 136 90
4 2 0 83 136 90
5 2 0 83 136 90
-7 3 0 83 136 90
-6 3 0 83 136 90
-5 3 0 83 136 90
-4 3 0 83 136 90
-3 3 0 83 136 90
-2 3 0 83 136 90
2 3 0 83 136 90
3 3 0 99 156 96
4 3 0 125 201 98
5 3 0 83 136 90
-7 4 0 83 136 90
-6 4 0 83 136 90
-5 4 0 83 136 90
-4 4 0 83 136 90
-3 4 0 83 136 90
-2 4 0 83 136 90
-1 4 0 83 136 90
0 4 0 83 136 90
1 4 0 83 136 90
2 4 0 99 156 96
3 4 0 83 136 90
4 4 0 83 136 90
-7 5 0 83 136 90
-6 5 0 83 136 90
-5 5 0 83 136 90
-4 5 0 83 136 90
-3 5 0 83 136 90
-2 5 0 83 136 90
-1 5 0 83 136 90
0 5 0 83 136 90
1 5 0 99 156 96
2 5 0 83 136 90
4 5 0 217 203 181
-6 6 0 83 136 90
-5 6 0 83 136 90
-4 6 0 83 136 90
-3 6 0 83 136 90
-2 6 0 83 136 90
-1 6 0 83 136 90
0 6 0 83 136 90
2 6 0 134 60 157
3 -5 1 76 181 223
-3 -4 1 135 138 130
-5 -2 1 99 156 96
-4 -2 1 151 112 58
-2 -2 1 151 112 58
-1 -2 1 99 156 96
0 -2 1 125 201 98
1 -2 1 83 136 90
6 -2 1 76 181 223
-6 -1 1 99 156 96
-5 -1 1 125 201 98
-1 -1 1 125 201 98
0 -1 1 99 156 96
1 -1 1 99 156 96
2 -1 1 83 136 90
-6 0 1 99 156 96
-5 0 1 125 201 98
-4 0 1 151 112 58
-2 0 1 151 112 58
-1 0 1 125 201 98
0 0 1 83 136 90
1 0 1 83 136 90
2 0 1 99 156 96
3 0 1 83 136 90
-7 1 1 83 136 90
-6 1 1 125 201 98
-5 1 1 125 201 98
-4 1 1 125 201 98
-3 1 1 125 201 98
-2 1 1 125 201 98
2 1 1 125 201 98
3 1 1 99 156 96
4 1 1 83 136 90
-7 2 1 83 136 90
-6 2 1 125 201 98
-5 2 1 125 201 98
-4 2 1 125 201 98
-3 2 1 125 201 98
-2 2 1 125 201 98
1 2 1 86 86 86
2 2 1 125 201 98
3 2 1 99 156 96
4 2 1 83 136 90
-7 3 1 83 136 90
-6 3 1 125 201 98
-5 3 1 125 201 98
-4 3 1 125 201 98
-3 3 1 125 201 98
-2 3 1 125 201 98
2 3 1 99 156 96
3 3 1 99 156 96
-7 4 1 99 156 96
-6 4 1 125 201 98
-5 4 1 125 201 98
-4 4 1 125 201 98
-3 4 1 125 201 98
-2 4 1 125 201 98
-1 4 1 125 201 98
0 4 1 99 156 96
1 4 1 99 156 96
4 4 1 206 96 200
-6 5 1 125 201 98
-5 5 1 125 201 98
-4 5 1 125 201 98
-3 5 1 125 201 98
-2 5 1 125 201 98
-1 5 1 125 201 98
0 5 1 99 156 96
3 5 1 134 60 157
4 5 1 217 203 181
5 5 1 134 60 157
-4 6 1 99 156 96
-3 6 1 99 156 96
-2 6 1 99 156 96
0 6 1 217 203 181
4 6 1 206 96 200
-4 -2 2 151 112 58
-2 -2 2 151 112 58
0 -2 2 217 203 181
-5 -1 2 99 156 96
-1 -1 2 99 156 96
0 -1 2 83 136 90
-6 0 2 125 201 98
-5 0 2 125 201 98
-4 0 2 151 112 58
-2 0 2 151 112 58
-1 0 2 125 201 98
0 0 2 125 201 98
1 0 2 83 136 90
-7 1 2 206 96 200
-6 1 2 99 156 96
-5 1 2 125 201 98
-4 1 2 125 201 98
-3 1 2 125 201 98
-2 1 2 125 201 98
1 1 2 86 86 86
-6 2 2 99 156 96
-5 2 2 125 201 98
-4 2 2 125 201 98
-3 2 2 125 201 98
-2 2 2 125 201 98
0 2 2 80 58 33
-6 3 2 83 136 90
-5 3 2 125 201 98
-4 3 2 125 201 98
-3 3 2 125 201 98
-2 3 2 125 201 98
1 3 2 114 114 114
3 3 2 151 112 58
-6 4 2 83 136 90
-5 4 2 125 201 98
-4 4 2 125 201 98
-3 4 2 125 201 98
-2 4 2 125 201 98
-1 4 2 99 156 96
0 4 2 86 86 86
1 4 2 86 86 86
-5 5 2 83 136 90
-4 5 2 99 156 96
-3 5 2 83 136 90
-2 5 2 83 136 90
4 5 2 206 96 200
0 6 2 76 181 223
-4 -3 3 136 65 46
-2 -3 3 136 65 46
0 -3 3 206 96 200
-4 -2 3 136 65 46
-2 -2 3 181 88 63
-1 -2 3 134 60 157
0 -2 3 217 203 181
1 -2 3 206 96 200
-5 -1 3 99 156 96
-4 -1 3 136 65 46
-2 -1 3 136 65 46
0 -1 3 134 60 157
-5 0 3 99 156 96
-4 0 3 136 65 46
-2 0 3 136 65 46
-1 0 3 125 201 98
-6 1 3 99 156 96
-5 1 3 125 201 98
-4 1 3 125 201 98
-3 1 3 125 201 98
-2 1 3 125 201 98
0 1 3 86 86 86
1 1 3 114 114 114
-6 2 3 125 201 98
-5 2 3 99 156 96
-4 2 3 125 201 98
-3 2 3 125 201 98
-2 2 3 125 201 98
0 2 3 151 112 58
-6 3 3 76 181 223
-5 3 3 99 156 96
-4 3 3 125 201 98
-3 3 3 125 201 98
-2 3 3 125 201 98
1 3 3 114 114 114
3 3 3 255 225 0
-5 4 3 125 201 98
-4 4 3 99 156 96
-3 4 3 125 201 98
-2 4 3 125 201 98
-1 4 3 86 86 86
0 4 3 114 114 114
1 4 3 114 114 114
-4 5 3 206 96 200
-3 5 3 125 201 98
-3 -3 4 136 65 46
-3 -2 4 181 88 63
0 -2 4 206 96 200
-4 -1 4 125 201 98
-3 -1 4 136 65 46
-2 -1 4 125 201 98
-5 0 4 99 156 96
-4 0 4 99 156 96
-3 0 4 136 65 46
-2 0 4 99 156 96
-5 1 4 125 201 98
-4 1 4 125 201 98
-3 1 4 125 201 98
-2 1 4 125 201 98
-1 1 4 114 114 114
1 1 4 114 114 114
-5 2 4 76 181 223
-4 2 4 125 201 98
-3 2 4 125 201 98
-2 2 4 125 201 98
-1 2 4 114 114 114
0 2 4 114 114 114
1 2 4 114 114 114
-4 3 4 99 156 96
-3 3 4 99 156 96
-2 3 4 99 156 96
-1 3 4 114 114 114
0 3 4 114 114 114
1 3 4 114 114 114
-5 4 4 217 203 181
-3 4 4 99 156 96
-2 4 4 114 114 114
-1 4 4 135 138 130
1 4 4 135 138 130
-3 0 5 125 201 98
-4 1 5 125 201 98
-3 1 5 99 156 96
-2 1 5 114 114 114
-1 1 5 135 138 130
0 1 5 135 138 130
1 1 5 114 114 114
-4 2 5 99 156 96
-3 2 5 125 201 98
-2 2 5 135 138 130
1 2 5 135 138 130
-5 3 5 55 101 195
-2 3 5 114 114 114
1 3 5 135 138 130
-6 4 5 76 181 223
-5 4 5 217 203 181
-4 4 5 55 101 195
-2 4 5 135 138 130
-1 4 5 135 138 130
0 4 5 135 138 130
1 4 5 114 114 114
-5 5 5 55 101 195
-2 1 6 135 138 130
1 1 6 135 138 130
-5 4 6 76 181 223
-2 4 6 135 138 130
1 4 6 135 138 130
