ply
format ascii 1.0
comment : MagicaVoxel @ Ephtracy
element vertex 1939
property float x
property float y
property float z
property uchar red
property uchar green
property uchar blue
end_header
-8 -8 0 56 139 48
-7 -8 0 56 139 48
-6 -8 0 56 139 48
-5 -8 0 56 139 48
-4 -8 0 56 139 48
-3 -8 0 56 139 48
-2 -8 0 56 139 48
-1 -8 0 56 139 48
0 -8 0 56 139 48
1 -8 0 56 139 48
2 -8 0 56 139 48
3 -8 0 56 139 48
4 -8 0 56 139 48
5 -8 0 56 139 48
6 -8 0 56 139 48
7 -8 0 56 139 48
-8 -7 0 56 139 48
-7 -7 0 56 139 48
-6 -7 0 56 139 48
-5 -7 0 56 139 48
-4 -7 0 56 139 48
-3 -7 0 56 139 48
-2 -7 0 56 139 48
-1 -7 0 56 139 48
0 -7 0 56 139 48
1 -7 0 56 139 48
2 -7 0 56 139 48
3 -7 0 56 139 48
4 -7 0 56 139 48
5 -7 0 56 139 48
6 -7 0 56 139 48
7 -7 0 56 139 48
-8 -6 0 56 139 48
-7 -6 0 56 139 48
-6 -6 0 56 139 48
-5 -6 0 56 139 48
-4 -6 0 56 139 48
-3 -6 0 56 139 48
-2 -6 0 56 139 48
-1 -6 0 56 139 48
0 -6 0 56 139 48
1 -6 0 56 139 48
2 -6 0 56 139 48
3 -6 0 56 139 48
4 -6 0 56 139 48
5 -6 0 56 139 48
6 -6 0 56 139 48
7 -6 0 56 139 48
-8 -5 0 56 139 48
-7 -5 0 56 139 48
-6 -5 0 56 139 48
-5 -5 0 56 139 48
-4 -5 0 56 139 48
-3 -5 0 56 139 48
-2 -5 0 56 139 48
-1 -5 0 56 139 48
0 -5 0 56 139 48
1 -5 0 56 139 48
2 -5 0 56 139 48
3 -5 0 56 139 48
4 -5 0 56 139 48
5 -5 0 56 139 48
6 -5 0 56 139 48
7 -5 0 56 139 48
-8 -4 0 56 139 48
-7 -4 0 56 139 48
-6 -4 0 56 139 48
-5 -4 0 56 139 48
-4 -4 0 56 139 48
-3 -4 0 56 139 48
-2 -4 0 56 139 48
-1 -4 0 56 139 48
0 -4 0 56 139 48
1 -4 0 56 139 48
2 -4 0 56 139 48
3 -4 0 56 139 48
4 -4 0 56 139 48
5 -4 0 56 139 48
6 -4 0 56 139 48
7 -4 0 56 139 48
-8 -3 0 56 139 48
-7 -3 0 56 139 48
-6 -3 0 56 139 48
-5 -3 0 56 139 48
-4 -3 0 56 139 48
-3 -3 0 56 139 48
-2 -3 0 56 139 48
-1 -3 0 56 139 48
0 -3 0 56 139 48
1 -3 0 56 139 48
2 -3 0 56 139 48
3 -3 0 56 139 48
4 -3 0 56 139 48
5 -3 0 56 139 48
6 -3 0 56 139 48
7 -3 0 56 139 48
-8 -2 0 56 139 48
-7 -2 0 56 139 48
-6 -2 0 56 139 48
-5 -2 0 56 139 48
-4 -2 0 56 139 48
-3 -2 0 56 139 48
-2 -2 0 56 139 48
-1 -2 0 56 139 48
0 -2 0 56 139 48
1 -2 0 56 139 48
2 -2 0 56 139 48
3 -2 0 56 139 48
4 -2 0 56 139 48
5 -2 0 56 139 48
6 -2 0 56 139 48
7 -2 0 56 139 48
-8 -1 0 56 139 48
-7 -1 0 56 139 48
-6 -1 0 56 139 48
-5 -1 0 56 139 48
-4 -1 0 56 139 48
-3 -1 0 56 139 48
-2 -1 0 56 139 48
-1 -1 0 56 139 48
0 -1 0 56 139 48
1 -1 0 56 139 48
2 -1 0 56 139 48
3 -1 0 56 139 48
4 -1 0 56 139 48
5 -1 0 56 139 48
6 -1 0 56 139 48
7 -1 0 56 139 48
-8 0 0 56 139 48
-7 0 0 56 139 48
-6 0 0 56 139 48
-5 0 0 56 139 48
-4 0 0 56 139 48
-3 0 0 56 139 48
-2 0 0 56 139 48
-1 0 0 56 139 48
0 0 0 56 139 48
1 0 0 56 139 48
2 0 0 56 139 48
3 0 0 56 139 48
4 0 0 56 139 48
5 0 0 56 139 48
6 0 0 56 139 48
7 0 0 56 139 48
-8 1 0 56 139 48
-7 1 0 56 139 48
-6 1 0 56 139 48
-5 1 0 56 139 48
-4 1 0 56 139 48
-3 1 0 56 139 48
-2 1 0 56 139 48
-1 1 0 56 139 48
0 1 0 56 139 48
1 1 0 56 139 48
2 1 0 56 139 48
3 1 0 56 139 48
4 1 0 56 139 48
5 1 0 56 139 48
6 1 0 56 139 48
7 1 0 56 139 48
-8 2 0 56 139 48
-7 2 0 56 139 48
-6 2 0 56 139 48
-5 2 0 56 139 48
-4 2 0 56 139 48
-3 2 0 56 139 48
-2 2 0 56 139 48
-1 2 0 56 139 48
0 2 0 56 139 48
1 2 0 56 139 48
2 2 0 56 139 48
3 2 0 56 139 48
4 2 0 56 139 48
5 2 0 56 139 48
6 2 0 56 139 48
7 2 0 56 139 48
-8 3 0 56 139 48
-7 3 0 56 139 48
-6 3 0 56 139 48
-5 3 0 56 139 48
-4 3 0 56 139 48
-3 3 0 56 139 48
-2 3 0 56 139 48
-1 3 0 56 139 48
0 3 0 56 139 48
1 3 0 56 139 48
2 3 0 56 139 48
3 3 0 56 139 48
4 3 0 56 139 48
5 3 0 56 139 48
6 3 0 56 139 48
7 3 0 56 139 48
-8 4 0 56 139 48
-7 4 0 56 139 48
-6 4 0 56 139 48
-5 4 0 56 139 48
-4 4 0 56 139 48
-3 4 0 56 139 48
-2 4 0 56 139 48
-1 4 0 56 139 48
0 4 0 56 139 48
1 4 0 56 139 48
2 4 0 56 139 48
3 4 0 56 139 48
4 4 0 56 139 48
5 4 0 56 139 48
6 4 0 56 139 48
7 4 0 56 139 48
-8 5 0 56 139 48
-7 5 0 56 139 48
-6 5 0 56 139 48
-5 5 0 56 139 48
-4 5 0 56 139 48
-3 5 0 56 139 48
-2 5 0 56 139 48
-1 5 0 56 139 48
0 5 0 56 139 48
1 5 0 56 139 48
2 5 0 56 139 48
3 5 0 56 139 48
4 5 0 56 139 48
5 5 0 56 139 48
6 5 0 56 139 48
7 5 0 56 139 48
-8 6 0 56 139 48
-7 6 0 56 139 48
-6 6 0 56 139 48
-5 6 0 56 139 48
-4 6 0 56 139 48
-3 6 0 56 139 48
-2 6 0 56 139 48
-1 6 0 56 139 48
0 6 0 56 139 48
1 6 0 56 139 48
2 6 0 56 139 48
3 6 0 56 139 48
4 6 0 56 139 48
5 6 0 56 139 48
6 6 0 56 139 48
7 6 0 56 139 48
-8 7 0 56 139 48
-7 7 0 56 139 48
-6 7 0 56 139 48
-5 7 0 56 139 48
-4 7 0 56 139 48
-3 7 0 56 139 48
-2 7 0 56 139 48
-1 7 0 56 139 48
0 7 0 56 139 48
1 7 0 56 139 48
2 7 0 56 139 48
3 7 0 56 139 48
4 7 0 56 139 48
5 7 0 56 139 48
6 7 0 56 139 48
7 7 0 56 139 48
-8 -8 1 135 138 130
-7 -8 1 135 138 130
-6 -8 1 135 138 130
-5 -8 1 135 138 130
-4 -8 1 135 138 130
-3 -8 1 135 138 130
-2 -8 1 135 138 130
-1 -8 1 135 138 130
0 -8 1 135 138 130
1 -8 1 135 138 130
2 -8 1 135 138 130
3 -8 1 135 138 130
4 -8 1 135 138 130
5 -8 1 135 138 130
6 -8 1 135 138 130
7 -8 1 135 138 130
-8 -7 1 135 138 130
-7 -7 1 92 206 44
-6 -7 1 135 138 130
-5 -7 1 135 138 130
-4 -7 1 135 138 130
-3 -7 1 135 138 130
-2 -7 1 135 138 130
-1 -7 1 135 138 130
0 -7 1 92 206 44
1 -7 1 135 138 130
2 -7 1 135 138 130
3 -7 1 135 138 130
4 -7 1 135 138 130
5 -7 1 135 138 130
6 -7 1 135 138 130
7 -7 1 135 138 130
-8 -6 1 135 138 130
-7 -6 1 135 138 130
-6 -6 1 135 138 130
-5 -6 1 135 138 130
-4 -6 1 135 138 130
-3 -6 1 135 138 130
-2 -6 1 135 138 130
-1 -6 1 135 138 130
0 -6 1 135 138 130
1 -6 1 135 138 130
2 -6 1 135 138 130
3 -6 1 135 138 130
4 -6 1 135 138 130
5 -6 1 135 138 130
6 -6 1 135 138 130
7 -6 1 135 138 130
-8 -5 1 135 138 130
-7 -5 1 135 138 130
-6 -5 1 135 138 130
-5 -5 1 135 138 130
-4 -5 1 92 206 44
-3 -5 1 135 138 130
-2 -5 1 135 138 130
-1 -5 1 135 138 130
0 -5 1 135 138 130
1 -5 1 135 138 130
2 -5 1 135 138 130
3 -5 1 135 138 130
4 -5 1 135 138 130
5 -5 1 135 138 130
6 -5 1 135 138 130
7 -5 1 135 138 130
-8 -4 1 135 138 130
-7 -4 1 135 138 130
-6 -4 1 135 138 130
-5 -4 1 135 138 130
-4 -4 1 135 138 130
-3 -4 1 135 138 130
-2 -4 1 135 138 130
-1 -4 1 135 138 130
0 -4 1 135 138 130
1 -4 1 135 138 130
2 -4 1 135 138 130
3 -4 1 92 206 44
4 -4 1 135 138 130
5 -4 1 135 138 130
6 -4 1 135 138 130
7 -4 1 135 138 130
-8 -3 1 135 138 130
-7 -3 1 135 138 130
-6 -3 1 135 138 130
-5 -3 1 135 138 130
-4 -3 1 135 138 130
-3 -3 1 135 138 130
-2 -3 1 135 138 130
-1 -3 1 135 138 130
0 -3 1 135 138 130
1 -3 1 135 138 130
2 -3 1 135 138 130
3 -3 1 135 138 130
4 -3 1 135 138 130
5 -3 1 135 138 130
6 -3 1 135 138 130
7 -3 1 135 138 130
-8 -2 1 135 138 130
-7 -2 1 135 138 130
-6 -2 1 135 138 130
-5 -2 1 135 138 130
-4 -2 1 135 138 130
-3 -2 1 135 138 130
-2 -2 1 135 138 130
-1 -2 1 135 138 130
0 -2 1 92 206 44
1 -2 1 135 138 130
2 -2 1 135 138 130
3 -2 1 135 138 130
4 -2 1 135 138 130
5 -2 1 135 138 130
6 -2 1 135 138 130
7 -2 1 135 138 130
-8 -1 1 135 138 130
-7 -1 1 135 138 130
-6 -1 1 92 206 44
-5 -1 1 135 138 130
-4 -1 1 135 138 130
-3 -1 1 135 138 130
-2 -1 1 135 138 130
-1 -1 1 135 138 130
0 -1 1 135 138 130
1 -1 1 135 138 130
2 -1 1 135 138 130
3 -1 1 135 138 130
4 -1 1 135 138 130
5 -1 1 135 138 130
6 -1 1 92 206 44
7 -1 1 135 138 130
-8 0 1 135 138 130
-7 0 1 135 138 130
-6 0 1 135 138 130
-5 0 1 135 138 130
-4 0 1 135 138 130
-3 0 1 135 138 130
-2 0 1 135 138 130
-1 0 1 135 138 130
0 0 1 135 138 130
1 0 1 135 138 130
2 0 1 135 138 130
3 0 1 135 138 130
4 0 1 135 138 130
5 0 1 135 138 130
6 0 1 135 138 130
7 0 1 135 138 130
-8 1 1 135 138 130
-7 1 1 135 138 130
-6 1 1 135 138 130
-5 1 1 135 138 130
-4 1 1 135 138 130
-3 1 1 135 138 130
-2 1 1 135 138 130
-1 1 1 135 138 130
0 1 1 135 138 130
1 1 1 135 138 130
2 1 1 135 138 130
3 1 1 135 138 130
4 1 1 135 138 130
5 1 1 135 138 130
6 1 1 135 138 130
7 1 1 135 138 130
-8 2 1 135 138 130
-7 2 1 135 138 130
-6 2 1 135 138 130
-5 2 1 135 138 130
-4 2 1 135 138 130
-3 2 1 135 138 130
-2 2 1 135 138 130
-1 2 1 135 138 130
0 2 1 135 138 130
1 2 1 135 138 130
2 2 1 135 138 130
3 2 1 135 138 130
4 2 1 135 138 130
5 2 1 135 138 130
6 2 1 135 138 130
7 2 1 135 138 130
-8 3 1 135 138 130
-7 3 1 135 138 130
-6 3 1 135 138 130
-5 3 1 135 138 130
-4 3 1 135 138 130
-3 3 1 135 138 130
-2 3 1 135 138 130
-1 3 1 135 138 130
0 3 1 135 138 130
1 3 1 135 138 130
2 3 1 135 138 130
3 3 1 135 138 130
4 3 1 135 138 130
5 3 1 135 138 130
6 3 1 135 138 130
7 3 1 135 138 130
-8 4 1 135 138 130
-7 4 1 135 138 130
-6 4 1 135 138 130
-5 4 1 135 138 130
-4 4 1 135 138 130
-3 4 1 135 138 130
-2 4 1 135 138 130
-1 4 1 135 138 130
0 4 1 135 138 130
1 4 1 135 138 130
2 4 1 135 138 130
3 4 1 135 138 130
4 4 1 135 138 130
5 4 1 135 138 130
6 4 1 135 138 130
7 4 1 135 138 130
-8 5 1 135 138 130
-7 5 1 135 138 130
-6 5 1 135 138 130
-5 5 1 135 138 130
-4 5 1 135 138 130
-3 5 1 135 138 130
-2 5 1 135 138 130
-1 5 1 135 138 130
0 5 1 135 138 130
1 5 1 135 138 130
2 5 1 135 138 130
3 5 1 135 138 130
4 5 1 135 138 130
5 5 1 135 138 130
6 5 1 135 138 130
7 5 1 135 138 130
-8 6 1 135 138 130
-7 6 1 135 138 130
-6 6 1 135 138 130
-5 6 1 135 138 130
-4 6 1 135 138 130
-3 6 1 135 138 130
-2 6 1 135 138 130
-1 6 1 135 138 130
0 6 1 135 138 130
1 6 1 135 138 130
2 6 1 135 138 130
3 6 1 135 138 130
4 6 1 135 138 130
5 6 1 135 138 130
6 6 1 135 138 130
7 6 1 135 138 130
-8 7 1 135 138 130
-7 7 1 135 138 130
-6 7 1 135 138 130
-5 7 1 135 138 130
-4 7 1 135 138 130
-3 7 1 135 138 130
-2 7 1 135 138 130
-1 7 1 135 138 130
0 7 1 135 138 130
1 7 1 135 138 130
2 7 1 135 138 130
3 7 1 135 138 130
4 7 1 135 138 130
5 7 1 135 138 130
6 7 1 135 138 130
7 7 1 135 138 130
-8 -8 2 135 138 130
-7 -8 2 135 138 130
-6 -8 2 135 138 130
-5 -8 2 135 138 130
-4 -8 2 135 138 130
-3 -8 2 135 138 130
-2 -8 2 135 138 130
-1 -8 2 135 138 130
0 -8 2 135 138 130
1 -8 2 135 138 130
2 -8 2 135 138 130
3 -8 2 135 138 130
4 -8 2 135 138 130
5 -8 2 135 138 130
6 -8 2 135 138 130
7 -8 2 135 138 130
-8 -7 2 135 138 130
-7 -7 2 135 138 130
-6 -7 2 135 138 130
-5 -7 2 135 138 130
-4 -7 2 135 138 130
-3 -7 2 135 138 130
-2 -7 2 135 138 130
-1 -7 2 135 138 130
0 -7 2 135 138 130
1 -7 2 135 138 130
2 -7 2 135 138 130
3 -7 2 135 138 130
4 -7 2 135 138 130
5 -7 2 135 138 130
6 -7 2 135 138 130
7 -7 2 135 138 130
-8 -6 2 135 138 130
-7 -6 2 135 138 130
-6 -6 2 135 138 130
-5 -6 2 135 138 130
-4 -6 2 135 138 130
-3 -6 2 135 138 130
-2 -6 2 135 138 130
-1 -6 2 135 138 130
0 -6 2 135 138 130
1 -6 2 135 138 130
2 -6 2 135 138 130
3 -6 2 135 138 130
4 -6 2 135 138 130
5 -6 2 135 138 130
6 -6 2 135 138 130
7 -6 2 135 138 130
-8 -5 2 135 138 130
-7 -5 2 135 138 130
-6 -5 2 135 138 130
-5 -5 2 135 138 130
-4 -5 2 135 138 130
-3 -5 2 135 138 130
-2 -5 2 135 138 130
-1 -5 2 135 138 130
0 -5 2 135 138 130
1 -5 2 135 138 130
2 -5 2 135 138 130
3 -5 2 135 138 130
4 -5 2 135 138 130
5 -5 2 135 138 130
6 -5 2 135 138 130
7 -5 2 135 138 130
-8 -4 2 135 138 130
-7 -4 2 135 138 130
-6 -4 2 135 138 130
-5 -4 2 135 138 130
-4 -4 2 135 138 130
-3 -4 2 135 138 130
-2 -4 2 135 138 130
-1 -4 2 135 138 130
0 -4 2 135 138 130
1 -4 2 135 138 130
2 -4 2 135 138 130
3 -4 2 135 138 130
4 -4 2 135 138 130
5 -4 2 135 138 130
6 -4 2 135 138 130
7 -4 2 135 138 130
-8 -3 2 135 138 130
-7 -3 2 135 138 130
-6 -3 2 135 138 130
-5 -3 2 135 138 130
-4 -3 2 135 138 130
-3 -3 2 135 138 130
-2 -3 2 135 138 130
-1 -3 2 135 138 130
0 -3 2 135 138 130
1 -3 2 135 138 130
2 -3 2 135 138 130
3 -3 2 135 138 130
4 -3 2 135 138 130
5 -3 2 135 138 130
6 -3 2 135 138 130
7 -3 2 135 138 130
-8 -2 2 135 138 130
-7 -2 2 135 138 130
-6 -2 2 135 138 130
-5 -2 2 135 138 130
-4 -2 2 135 138 130
-3 -2 2 135 138 130
-2 -2 2 135 138 130
-1 -2 2 135 138 130
0 -2 2 135 138 130
1 -2 2 135 138 130
2 -2 2 135 138 130
3 -2 2 135 138 130
4 -2 2 135 138 130
5 -2 2 135 138 130
6 -2 2 135 138 130
7 -2 2 135 138 130
-8 -1 2 135 138 130
-7 -1 2 135 138 130
-6 -1 2 135 138 130
-5 -1 2 135 138 130
-4 -1 2 135 138 130
-3 -1 2 135 138 130
-2 -1 2 135 138 130
-1 -1 2 135 138 130
0 -1 2 135 138 130
1 -1 2 135 138 130
2 -1 2 135 138 130
3 -1 2 135 138 130
4 -1 2 135 138 130
5 -1 2 135 138 130
6 -1 2 135 138 130
7 -1 2 135 138 130
-8 0 2 135 138 130
-7 0 2 135 138 130
-6 0 2 135 138 130
-5 0 2 135 138 130
-4 0 2 135 138 130
-3 0 2 135 138 130
-2 0 2 135 138 130
-1 0 2 135 138 130
0 0 2 135 138 130
1 0 2 135 138 130
2 0 2 135 138 130
3 0 2 135 138 130
4 0 2 135 138 130
5 0 2 135 138 130
6 0 2 135 138 130
7 0 2 135 138 130
-8 1 2 135 138 130
-7 1 2 135 138 130
-6 1 2 135 138 130
-5 1 2 135 138 130
-4 1 2 135 138 130
-3 1 2 135 138 130
-2 1 2 135 138 130
-1 1 2 135 138 130
0 1 2 135 138 130
1 1 2 135 138 130
2 1 2 135 138 130
3 1 2 135 138 130
4 1 2 135 138 130
5 1 2 135 138 130
6 1 2 135 138 130
7 1 2 135 138 130
-8 2 2 135 138 130
-7 2 2 135 138 130
-6 2 2 135 138 130
-5 2 2 135 138 130
-4 2 2 135 138 130
-3 2 2 135 138 130
-2 2 2 135 138 130
-1 2 2 135 138 130
0 2 2 135 138 130
1 2 2 135 138 130
2 2 2 135 138 130
3 2 2 135 138 130
4 2 2 135 138 130
5 2 2 135 138 130
6 2 2 135 138 130
7 2 2 135 138 130
-8 3 2 135 138 130
-7 3 2 135 138 130
-6 3 2 135 138 130
-5 3 2 135 138 130
-4 3 2 135 138 130
-3 3 2 135 138 130
-2 3 2 135 138 130
-1 3 2 135 138 130
0 3 2 135 138 130
1 3 2 135 138 130
2 3 2 135 138 130
3 3 2 135 138 130
4 3 2 135 138 130
5 3 2 135 138 130
6 3 2 135 138 130
7 3 2 135 138 130
-8 4 2 135 138 130
-7 4 2 135 138 130
-6 4 2 135 138 130
-5 4 2 135 138 130
-4 4 2 135 138 130
-3 4 2 135 138 130
-2 4 2 135 138 130
-1 4 2 135 138 130
0 4 2 135 138 130
1 4 2 135 138 130
2 4 2 135 138 130
3 4 2 135 138 130
4 4 2 135 138 130
5 4 2 135 138 130
6 4 2 135 138 130
7 4 2 135 138 130
-8 5 2 135 138 130
-7 5 2 135 138 130
-6 5 2 135 138 130
-5 5 2 135 138 130
-4 5 2 135 138 130
-3 5 2 135 138 130
-2 5 2 135 138 130
-1 5 2 135 138 130
0 5 2 135 138 130
1 5 2 135 138 130
2 5 2 135 138 130
3 5 2 135 138 130
4 5 2 135 138 130
5 5 2 135 138 130
6 5 2 135 138 130
7 5 2 135 138 130
-8 6 2 135 138 130
-7 6 2 135 138 130
-6 6 2 135 138 130
-5 6 2 135 138 130
-4 6 2 135 138 130
-3 6 2 135 138 130
-2 6 2 135 138 130
-1 6 2 135 138 130
0 6 2 135 138 130
1 6 2 135 138 130
2 6 2 135 138 130
3 6 2 135 138 130
4 6 2 135 138 130
5 6 2 135 138 130
6 6 2 135 138 130
7 6 2 135 138 130
-8 7 2 135 138 130
-7 7 2 135 138 130
-6 7 2 135 138 130
-5 7 2 135 138 130
-4 7 2 135 138 130
-3 7 2 135 138 130
-2 7 2 135 138 130
-1 7 2 135 138 130
0 7 2 135 138 130
1 7 2 135 138 130
2 7 2 135 138 130
3 7 2 135 138 130
4 7 2 135 138 130
5 7 2 135 138 130
6 7 2 135 138 130
7 7 2 135 138 130
-8 -8 3 135 138 130
-7 -8 3 135 138 130
-6 -8 3 135 138 130
-5 -8 3 135 138 130
-4 -8 3 135 138 130
-3 -8 3 135 138 130
-2 -8 3 135 138 130
-1 -8 3 135 138 130
0 -8 3 135 138 130
1 -8 3 135 138 130
2 -8 3 135 138 130
3 -8 3 135 138 130
4 -8 3 135 138 130
5 -8 3 135 138 130
6 -8 3 135 138 130
7 -8 3 135 138 130
-8 -7 3 135 138 130
-7 -7 3 135 138 130
-6 -7 3 135 138 130
-5 -7 3 135 138 130
-4 -7 3 135 138 130
-3 -7 3 135 138 130
-2 -7 3 135 138 130
-1 -7 3 135 138 130
0 -7 3 135 138 130
1 -7 3 135 138 130
2 -7 3 135 138 130
3 -7 3 135 138 130
4 -7 3 135 138 130
5 -7 3 135 138 130
6 -7 3 135 138 130
7 -7 3 135 138 130
-8 -6 3 135 138 130
-7 -6 3 135 138 130
-6 -6 3 135 138 130
-5 -6 3 135 138 130
-4 -6 3 135 138 130
-3 -6 3 135 138 130
-2 -6 3 135 138 130
-1 -6 3 135 138 130
0 -6 3 135 138 130
1 -6 3 135 138 130
2 -6 3 135 138 130
3 -6 3 135 138 130
4 -6 3 135 138 130
5 -6 3 135 138 130
6 -6 3 135 138 130
7 -6 3 135 138 130
-8 -5 3 135 138 130
-7 -5 3 135 138 130
-6 -5 3 135 138 130
-5 -5 3 135 138 130
-4 -5 3 135 138 130
-3 -5 3 135 138 130
-2 -5 3 135 138 130
-1 -5 3 135 138 130
0 -5 3 135 138 130
1 -5 3 135 138 130
2 -5 3 135 138 130
3 -5 3 135 138 130
4 -5 3 135 138 130
5 -5 3 135 138 130
6 -5 3 135 138 130
7 -5 3 135 138 130
-8 -4 3 135 138 130
-7 -4 3 135 138 130
-6 -4 3 135 138 130
-5 -4 3 135 138 130
-4 -4 3 135 138 130
-3 -4 3 135 138 130
-2 -4 3 135 138 130
-1 -4 3 135 138 130
0 -4 3 135 138 130
1 -4 3 135 138 130
2 -4 3 135 138 130
3 -4 3 135 138 130
4 -4 3 135 138 130
5 -4 3 135 138 130
6 -4 3 135 138 130
7 -4 3 135 138 130
-8 -3 3 135 138 130
-7 -3 3 135 138 130
-6 -3 3 135 138 130
-5 -3 3 135 138 130
-4 -3 3 135 138 130
-3 -3 3 135 138 130
-2 -3 3 135 138 130
-1 -3 3 135 138 130
0 -3 3 135 138 130
1 -3 3 135 138 130
2 -3 3 135 138 130
3 -3 3 135 138 130
4 -3 3 135 138 130
5 -3 3 135 138 130
6 -3 3 135 138 130
7 -3 3 135 138 130
-8 -2 3 135 138 130
-7 -2 3 135 138 130
-6 -2 3 135 138 130
-5 -2 3 135 138 130
-4 -2 3 135 138 130
-3 -2 3 135 138 130
-2 -2 3 135 138 130
-1 -2 3 135 138 130
0 -2 3 135 138 130
1 -2 3 135 138 130
2 -2 3 135 138 130
3 -2 3 135 138 130
4 -2 3 135 138 130
5 -2 3 135 138 130
6 -2 3 135 138 130
7 -2 3 135 138 130
-8 -1 3 135 138 130
-7 -1 3 135 138 130
-6 -1 3 135 138 130
-5 -1 3 135 138 130
-4 -1 3 135 138 130
-3 -1 3 135 138 130
-2 -1 3 135 138 130
-1 -1 3 135 138 130
0 -1 3 135 138 130
1 -1 3 135 138 130
2 -1 3 135 138 130
3 -1 3 135 138 130
4 -1 3 135 138 130
5 -1 3 135 138 130
6 -1 3 135 138 130
7 -1 3 135 138 130
-8 0 3 135 138 130
-7 0 3 135 138 130
-6 0 3 135 138 130
-5 0 3 135 138 130
-4 0 3 135 138 130
-3 0 3 135 138 130
-2 0 3 135 138 130
-1 0 3 135 138 130
0 0 3 135 138 130
1 0 3 135 138 130
2 0 3 135 138 130
3 0 3 135 138 130
4 0 3 135 138 130
5 0 3 135 138 130
6 0 3 135 138 130
7 0 3 135 138 130
-8 1 3 135 138 130
-7 1 3 135 138 130
-6 1 3 135 138 130
-5 1 3 135 138 130
-4 1 3 135 138 130
-3 1 3 135 138 130
-2 1 3 135 138 130
-1 1 3 135 138 130
0 1 3 135 138 130
1 1 3 135 138 130
2 1 3 135 138 130
3 1 3 135 138 130
4 1 3 135 138 130
5 1 3 135 138 130
6 1 3 135 138 130
7 1 3 135 138 130
-8 2 3 135 138 130
-7 2 3 135 138 130
-6 2 3 135 138 130
-5 2 3 135 138 130
-4 2 3 135 138 130
-3 2 3 135 138 130
-2 2 3 135 138 130
-1 2 3 135 138 130
0 2 3 135 138 130
1 2 3 135 138 130
2 2 3 135 138 130
3 2 3 135 138 130
4 2 3 135 138 130
5 2 3 135 138 130
6 2 3 135 138 130
7 2 3 135 138 130
-8 3 3 135 138 130
-7 3 3 135 138 130
-6 3 3 135 138 130
-5 3 3 135 138 130
-4 3 3 135 138 130
-3 3 3 135 138 130
-2 3 3 135 138 130
-1 3 3 135 138 130
0 3 3 135 138 130
1 3 3 135 138 130
2 3 3 135 138 130
3 3 3 135 138 130
4 3 3 135 138 130
5 3 3 135 138 130
6 3 3 135 138 130
7 3 3 135 138 130
-8 4 3 135 138 130
-7 4 3 135 138 130
-6 4 3 135 138 130
-5 4 3 135 138 130
-4 4 3 135 138 130
-3 4 3 135 138 130
-2 4 3 135 138 130
-1 4 3 135 138 130
0 4 3 135 138 130
1 4 3 135 138 130
2 4 3 135 138 130
3 4 3 135 138 130
4 4 3 135 138 130
5 4 3 135 138 130
6 4 3 135 138 130
7 4 3 135 138 130
-8 5 3 135 138 130
-7 5 3 135 138 130
-6 5 3 135 138 130
-5 5 3 135 138 130
-4 5 3 135 138 130
-3 5 3 135 138 130
-2 5 3 135 138 130
-1 5 3 135 138 130
0 5 3 135 138 130
1 5 3 135 138 130
2 5 3 135 138 130
3 5 3 135 138 130
4 5 3 135 138 130
5 5 3 135 138 130
6 5 3 135 138 130
7 5 3 135 138 130
-8 6 3 135 138 130
-7 6 3 135 138 130
-6 6 3 135 138 130
-5 6 3 135 138 130
-4 6 3 135 138 130
-3 6 3 135 138 130
-2 6 3 135 138 130
-1 6 3 135 138 130
0 6 3 135 138 130
1 6 3 135 138 130
2 6 3 135 138 130
3 6 3 135 138 130
4 6 3 135 138 130
5 6 3 135 138 130
6 6 3 135 138 130
7 6 3 135 138 130
-8 7 3 135 138 130
-7 7 3 135 138 130
-6 7 3 135 138 130
-5 7 3 135 138 130
-4 7 3 135 138 130
-3 7 3 135 138 130
-2 7 3 135 138 130
-1 7 3 135 138 130
0 7 3 135 138 130
1 7 3 135 138 130
2 7 3 135 138 130
3 7 3 135 138 130
4 7 3 135 138 130
5 7 3 135 138 130
6 7 3 135 138 130
7 7 3 135 138 130
-8 -8 4 135 138 130
-7 -8 4 135 138 130
-6 -8 4 135 138 130
-5 -8 4 135 138 130
-4 -8 4 135 138 130
-3 -8 4 135 138 130
-2 -8 4 135 138 130
-1 -8 4 135 138 130
0 -8 4 135 138 130
1 -8 4 135 138 130
2 -8 4 135 138 130
3 -8 4 135 138 130
4 -8 4 135 138 130
5 -8 4 135 138 130
6 -8 4 135 138 130
7 -8 4 135 138 130
-8 -7 4 135 138 130
-7 -7 4 135 138 130
-6 -7 4 135 138 130
-5 -7 4 135 138 130
-4 -7 4 135 138 130
-3 -7 4 135 138 130
-2 -7 4 135 138 130
-1 -7 4 135 138 130
0 -7 4 135 138 130
1 -7 4 135 138 130
2 -7 4 135 138 130
3 -7 4 135 138 130
4 -7 4 135 138 130
5 -7 4 135 138 130
6 -7 4 135 138 130
7 -7 4 135 138 130
-8 -6 4 135 138 130
-7 -6 4 135 138 130
-6 -6 4 135 138 130
-5 -6 4 135 138 130
-4 -6 4 135 138 130
-3 -6 4 135 138 130
-2 -6 4 135 138 130
-1 -6 4 135 138 130
0 -6 4 135 138 130
1 -6 4 135 138 130
2 -6 4 135 138 130
3 -6 4 135 138 130
4 -6 4 135 138 130
5 -6 4 135 138 130
6 -6 4 135 138 130
7 -6 4 135 138 130
-8 -5 4 135 138 130
-7 -5 4 135 138 130
-6 -5 4 135 138 130
-5 -5 4 135 138 130
-4 -5 4 135 138 130
-3 -5 4 135 138 130
-2 -5 4 135 138 130
-1 -5 4 135 138 130
0 -5 4 135 138 130
1 -5 4 135 138 130
2 -5 4 135 138 130
3 -5 4 135 138 130
4 -5 4 135 138 130
5 -5 4 135 138 130
6 -5 4 135 138 130
7 -5 4 135 138 130
-8 -4 4 135 138 130
-7 -4 4 135 138 130
-6 -4 4 135 138 130
-5 -4 4 135 138 130
-4 -4 4 135 138 130
-3 -4 4 135 138 130
-2 -4 4 135 138 130
-1 -4 4 135 138 130
0 -4 4 135 138 130
1 -4 4 135 138 130
2 -4 4 135 138 130
3 -4 4 135 138 130
4 -4 4 135 138 130
5 -4 4 135 138 130
6 -4 4 135 138 130
7 -4 4 135 138 130
-8 -3 4 135 138 130
-7 -3 4 135 138 130
-6 -3 4 135 138 130
-5 -3 4 135 138 130
-4 -3 4 135 138 130
-3 -3 4 135 138 130
-2 -3 4 135 138 130
-1 -3 4 135 138 130
0 -3 4 135 138 130
1 -3 4 135 138 130
2 -3 4 135 138 130
3 -3 4 135 138 130
4 -3 4 135 138 130
5 -3 4 135 138 130
6 -3 4 135 138 130
7 -3 4 135 138 130
-8 -2 4 135 138 130
-7 -2 4 135 138 130
-6 -2 4 135 138 130
-5 -2 4 135 138 130
-4 -2 4 135 138 130
-3 -2 4 135 138 130
-2 -2 4 135 138 130
-1 -2 4 135 138 130
0 -2 4 135 138 130
1 -2 4 135 138 130
2 -2 4 135 138 130
3 -2 4 135 138 130
4 -2 4 135 138 130
5 -2 4 135 138 130
6 -2 4 135 138 130
7 -2 4 135 138 130
-8 -1 4 135 138 130
-7 -1 4 135 138 130
-6 -1 4 135 138 130
-5 -1 4 135 138 130
-4 -1 4 135 138 130
-3 -1 4 135 138 130
-2 -1 4 135 138 130
-1 -1 4 135 138 130
0 -1 4 135 138 130
1 -1 4 135 138 130
2 -1 4 135 138 130
3 -1 4 135 138 130
4 -1 4 135 138 130
5 -1 4 135 138 130
6 -1 4 135 138 130
7 -1 4 135 138 130
-8 0 4 135 138 130
-7 0 4 135 138 130
-6 0 4 135 138 130
-5 0 4 135 138 130
-4 0 4 135 138 130
-3 0 4 135 138 130
-2 0 4 135 138 130
-1 0 4 135 138 130
0 0 4 135 138 130
1 0 4 135 138 130
2 0 4 135 138 130
3 0 4 135 138 130
4 0 4 135 138 130
5 0 4 135 138 130
6 0 4 135 138 130
7 0 4 135 138 130
-8 1 4 135 138 130
-7 1 4 135 138 130
-6 1 4 135 138 130
-5 1 4 135 138 130
-4 1 4 135 138 130
-3 1 4 135 138 130
-2 1 4 135 138 130
-1 1 4 135 138 130
0 1 4 135 138 130
1 1 4 135 138 130
2 1 4 135 138 130
3 1 4 135 138 130
4 1 4 135 138 130
5 1 4 135 138 130
6 1 4 135 138 130
7 1 4 135 138 130
-8 2 4 135 138 130
-7 2 4 135 138 130
-6 2 4 135 138 130
-5 2 4 135 138 130
-4 2 4 135 138 130
-3 2 4 135 138 130
-2 2 4 135 138 130
-1 2 4 135 138 130
0 2 4 135 138 130
1 2 4 135 138 130
2 2 4 135 138 130
3 2 4 135 138 130
4 2 4 135 138 130
5 2 4 135 138 130
6 2 4 135 138 130
7 2 4 135 138 130
-8 3 4 135 138 130
-7 3 4 135 138 130
-6 3 4 135 138 130
-5 3 4 135 138 130
-4 3 4 135 138 130
-3 3 4 135 138 130
-2 3 4 135 138 130
-1 3 4 135 138 130
0 3 4 135 138 130
1 3 4 135 138 130
2 3 4 135 138 130
3 3 4 135 138 130
4 3 4 135 138 130
5 3 4 135 138 130
6 3 4 135 138 130
7 3 4 135 138 130
-8 4 4 135 138 130
-7 4 4 135 138 130
-6 4 4 135 138 130
-5 4 4 135 138 130
-4 4 4 135 138 130
-3 4 4 135 138 130
-2 4 4 135 138 130
-1 4 4 135 138 130
0 4 4 135 138 130
1 4 4 135 138 130
2 4 4 135 138 130
3 4 4 135 138 130
4 4 4 135 138 130
5 4 4 135 138 130
6 4 4 135 138 130
7 4 4 135 138 130
-8 5 4 135 138 130
-7 5 4 135 138 130
-6 5 4 135 138 130
-5 5 4 135 138 130
-4 5 4 135 138 130
-3 5 4 135 138 130
-2 5 4 135 138 130
-1 5 4 135 138 130
0 5 4 135 138 130
1 5 4 135 138 130
2 5 4 135 138 130
3 5 4 135 138 130
4 5 4 135 138 130
5 5 4 135 138 130
6 5 4 135 138 130
7 5 4 135 138 130
-8 6 4 135 138 130
-7 6 4 135 138 130
-6 6 4 135 138 130
-5 6 4 135 138 130
-4 6 4 135 138 130
-3 6 4 135 138 130
-2 6 4 135 138 130
-1 6 4 135 138 130
0 6 4 135 138 130
1 6 4 135 138 130
2 6 4 135 138 130
3 6 4 135 138 130
4 6 4 135 138 130
5 6 4 135 138 130
6 6 4 135 138 130
7 6 4 135 138 130
-8 7 4 135 138 130
-7 7 4 135 138 130
-6 7 4 135 138 130
-5 7 4 135 138 130
-4 7 4 135 138 130
-3 7 4 135 138 130
-2 7 4 135 138 130
-1 7 4 135 138 130
0 7 4 135 138 130
1 7 4 135 138 130
2 7 4 135 138 130
3 7 4 135 138 130
4 7 4 135 138 130
5 7 4 135 138 130
6 7 4 135 138 130
7 7 4 135 138 130
-8 -8 5 135 138 130
-7 -8 5 135 138 130
-6 -8 5 135 138 130
-5 -8 5 135 138 130
-4 -8 5 135 138 130
-3 -8 5 135 138 130
-2 -8 5 135 138 130
-1 -8 5 135 138 130
0 -8 5 135 138 130
1 -8 5 135 138 130
2 -8 5 135 138 130
3 -8 5 135 138 130
4 -8 5 135 138 130
5 -8 5 135 138 130
6 -8 5 135 138 130
7 -8 5 135 138 130
-8 -7 5 135 138 130
-3 -7 5 135 138 130
-2 -7 5 135 138 130
-1 -7 5 135 138 130
0 -7 5 135 138 130
1 -7 5 135 138 130
2 -7 5 135 138 130
3 -7 5 135 138 130
4 -7 5 135 138 130
5 -7 5 135 138 130
6 -7 5 135 138 130
7 -7 5 135 138 130
-8 -6 5 135 138 130
-4 -6 5 135 138 130
-3 -6 5 135 138 130
-2 -6 5 135 138 130
-1 -6 5 135 138 130
0 -6 5 135 138 130
1 -6 5 135 138 130
2 -6 5 135 138 130
3 -6 5 135 138 130
4 -6 5 135 138 130
5 -6 5 135 138 130
6 -6 5 135 138 130
7 -6 5 135 138 130
-8 -5 5 135 138 130
-7 -5 5 135 138 130
-4 -5 5 135 138 130
-3 -5 5 135 138 130
-2 -5 5 135 138 130
-1 -5 5 135 138 130
0 -5 5 135 138 130
1 -5 5 135 138 130
2 -5 5 135 138 130
3 -5 5 135 138 130
4 -5 5 135 138 130
5 -5 5 135 138 130
6 -5 5 135 138 130
7 -5 5 135 138 130
-8 -4 5 135 138 130
-7 -4 5 135 138 130
-5 -4 5 135 138 130
-4 -4 5 135 138 130
-3 -4 5 135 138 130
-2 -4 5 135 138 130
-1 -4 5 135 138 130
0 -4 5 135 138 130
1 -4 5 135 138 130
2 -4 5 135 138 130
3 -4 5 135 138 130
4 -4 5 135 138 130
5 -4 5 135 138 130
6 -4 5 135 138 130
7 -4 5 135 138 130
-8 -3 5 135 138 130
-7 -3 5 135 138 130
-6 -3 5 135 138 130
-5 -3 5 135 138 130
-4 -3 5 135 138 130
-3 -3 5 135 138 130
-2 -3 5 135 138 130
-1 -3 5 135 138 130
0 -3 5 135 138 130
1 -3 5 135 138 130
2 -3 5 135 138 130
3 -3 5 135 138 130
4 -3 5 135 138 130
5 -3 5 135 138 130
6 -3 5 135 138 130
7 -3 5 135 138 130
-8 -2 5 135 138 130
-7 -2 5 135 138 130
-6 -2 5 135 138 130
-5 -2 5 135 138 130
-4 -2 5 135 138 130
-3 -2 5 135 138 130
-2 -2 5 135 138 130
-1 -2 5 135 138 130
0 -2 5 135 138 130
1 -2 5 135 138 130
2 -2 5 135 138 130
3 -2 5 135 138 130
4 -2 5 135 138 130
5 -2 5 135 138 130
6 -2 5 135 138 130
7 -2 5 135 138 130
-8 -1 5 135 138 130
-7 -1 5 135 138 130
-6 -1 5 135 138 130
-5 -1 5 135 138 130
-4 -1 5 135 138 130
-3 -1 5 135 138 130
-2 -1 5 135 138 130
-1 -1 5 135 138 130
0 -1 5 135 138 130
1 -1 5 135 138 130
2 -1 5 135 138 130
3 -1 5 135 138 130
4 -1 5 135 138 130
5 -1 5 135 138 130
6 -1 5 135 138 130
7 -1 5 135 138 130
-8 0 5 135 138 130
-7 0 5 135 138 130
-6 0 5 135 138 130
-5 0 5 135 138 130
-4 0 5 135 138 130
-3 0 5 135 138 130
-2 0 5 135 138 130
-1 0 5 135 138 130
0 0 5 135 138 130
1 0 5 135 138 130
2 0 5 135 138 130
3 0 5 135 138 130
4 0 5 135 138 130
5 0 5 135 138 130
6 0 5 135 138 130
7 0 5 135 138 130
-8 1 5 135 138 130
-7 1 5 135 138 130
-6 1 5 135 138 130
-5 1 5 135 138 130
-4 1 5 135 138 130
-3 1 5 135 138 130
-2 1 5 135 138 130
-1 1 5 135 138 130
0 1 5 135 138 130
1 1 5 135 138 130
2 1 5 135 138 130
3 1 5 135 138 130
4 1 5 135 138 130
5 1 5 135 138 130
6 1 5 135 138 130
7 1 5 135 138 130
-8 2 5 135 138 130
-7 2 5 135 138 130
-6 2 5 135 138 130
-5 2 5 135 138 130
-4 2 5 135 138 130
-3 2 5 135 138 130
-2 2 5 135 138 130
-1 2 5 135 138 130
0 2 5 135 138 130
1 2 5 135 138 130
2 2 5 135 138 130
3 2 5 135 138 130
4 2 5 135 138 130
5 2 5 135 138 130
6 2 5 135 138 130
7 2 5 135 138 130
-8 3 5 135 138 130
-7 3 5 135 138 130
-6 3 5 135 138 130
-5 3 5 135 138 130
-4 3 5 135 138 130
-3 3 5 135 138 130
-2 3 5 135 138 130
-1 3 5 135 138 130
0 3 5 135 138 130
1 3 5 135 138 130
2 3 5 135 138 130
3 3 5 135 138 130
4 3 5 135 138 130
5 3 5 135 138 130
6 3 5 135 138 130
7 3 5 135 138 130
-8 4 5 135 138 130
-7 4 5 135 138 130
-6 4 5 135 138 130
-5 4 5 135 138 130
-4 4 5 135 138 130
-3 4 5 135 138 130
-2 4 5 135 138 130
-1 4 5 135 138 130
0 4 5 135 138 130
1 4 5 135 138 130
2 4 5 135 138 130
3 4 5 135 138 130
4 4 5 135 138 130
5 4 5 135 138 130
6 4 5 135 138 130
7 4 5 135 138 130
-8 5 5 135 138 130
-7 5 5 135 138 130
-6 5 5 135 138 130
-5 5 5 135 138 130
-4 5 5 135 138 130
-3 5 5 135 138 130
-2 5 5 135 138 130
-1 5 5 135 138 130
0 5 5 135 138 130
1 5 5 135 138 130
2 5 5 135 138 130
3 5 5 135 138 130
4 5 5 135 138 130
5 5 5 135 138 130
6 5 5 135 138 130
7 5 5 135 138 130
-8 6 5 135 138 130
-7 6 5 135 138 130
-6 6 5 135 138 130
-5 6 5 135 138 130
-4 6 5 135 138 130
-3 6 5 135 138 130
-2 6 5 135 138 130
-1 6 5 135 138 130
0 6 5 135 138 130
1 6 5 135 138 130
2 6 5 135 138 130
3 6 5 135 138 130
4 6 5 135 138 130
5 6 5 135 138 130
6 6 5 135 138 130
7 6 5 135 138 130
-8 7 5 135 138 130
-7 7 5 135 138 130
-6 7 5 135 138 130
-5 7 5 135 138 130
-4 7 5 135 138 130
-3 7 5 135 138 130
-2 7 5 135 138 130
-1 7 5 135 138 130
0 7 5 135 138 130
1 7 5 135 138 130
2 7 5 135 138 130
3 7 5 135 138 130
4 7 5 135 138 130
5 7 5 135 138 130
6 7 5 135 138 130
7 7 5 135 138 130
-1 -7 6 135 138 130
0 -7 6 135 138 130
1 -7 6 135 138 130
2 -7 6 135 138 130
3 -7 6 135 138 130
-1 -6 6 135 138 130
0 -6 6 135 138 130
1 -6 6 135 138 130
2 -6 6 135 138 130
3 -6 6 135 138 130
4 -6 6 135 138 130
5 -6 6 135 138 130
-3 -5 6 135 138 130
-2 -5 6 135 138 130
-1 -5 6 135 138 130
0 -5 6 135 138 130
1 -5 6 135 138 130
2 -5 6 135 138 130
3 -5 6 135 138 130
4 -5 6 135 138 130
5 -5 6 135 138 130
-3 -4 6 135 138 130
-2 -4 6 135 138 130
-1 -4 6 135 138 130
0 -4 6 135 138 130
1 -4 6 135 138 130
2 -4 6 135 138 130
3 -4 6 135 138 130
4 -4 6 135 138 130
5 -4 6 135 138 130
6 -4 6 135 138 130
-4 -3 6 135 138 130
-3 -3 6 135 138 130
-2 -3 6 135 138 130
-1 -3 6 135 138 130
0 -3 6 135 138 130
1 -3 6 135 138 130
2 -3 6 135 138 130
3 -3 6 135 138 130
4 -3 6 135 138 130
5 -3 6 135 138 130
6 -3 6 135 138 130
-6 -2 6 135 138 130
-5 -2 6 135 138 130
-4 -2 6 135 138 130
-3 -2 6 135 138 130
-2 -2 6 135 138 130
-1 -2 6 135 138 130
0 -2 6 135 138 130
1 -2 6 135 138 130
2 -2 6 135 138 130
3 -2 6 135 138 130
4 -2 6 135 138 130
5 -2 6 135 138 130
6 -2 6 135 138 130
-6 -1 6 135 138 130
-5 -1 6 135 138 130
-4 -1 6 135 138 130
-3 -1 6 135 138 130
-2 -1 6 135 138 130
-1 -1 6 135 138 130
0 -1 6 135 138 130
1 -1 6 135 138 130
2 -1 6 135 138 130
3 -1 6 135 138 130
4 -1 6 135 138 130
5 -1 6 135 138 130
6 -1 6 135 138 130
-6 0 6 135 138 130
-5 0 6 135 138 130
-4 0 6 135 138 130
-3 0 6 135 138 130
-2 0 6 135 138 130
-1 0 6 135 138 130
0 0 6 135 138 130
1 0 6 135 138 130
2 0 6 135 138 130
3 0 6 135 138 130
4 0 6 135 138 130
5 0 6 135 138 130
-7 1 6 135 138 130
-6 1 6 135 138 130
-5 1 6 135 138 130
-4 1 6 135 138 130
-3 1 6 135 138 130
-2 1 6 135 138 130
-1 1 6 135 138 130
0 1 6 135 138 130
1 1 6 135 138 130
2 1 6 135 138 130
3 1 6 135 138 130
4 1 6 135 138 130
5 1 6 135 138 130
-7 2 6 135 138 130
-6 2 6 135 138 130
-5 2 6 135 138 130
-4 2 6 135 138 130
-3 2 6 135 138 130
-2 2 6 135 138 130
-1 2 6 135 138 130
0 2 6 135 138 130
1 2 6 135 138 130
2 2 6 135 138 130
3 2 6 135 138 130
4 2 6 135 138 130
5 2 6 135 138 130
-7 3 6 135 138 130
-6 3 6 135 138 130
-5 3 6 135 138 130
-4 3 6 135 138 130
-3 3 6 135 138 130
-2 3 6 135 138 130
-1 3 6 135 138 130
0 3 6 135 138 130
1 3 6 135 138 130
2 3 6 135 138 130
3 3 6 135 138 130
4 3 6 135 138 130
5 3 6 135 138 130
-7 4 6 135 138 130
-6 4 6 135 138 130
-5 4 6 135 138 130
-4 4 6 135 138 130
-3 4 6 135 138 130
-2 4 6 135 138 130
-1 4 6 135 138 130
0 4 6 135 138 130
1 4 6 135 138 130
2 4 6 135 138 130
3 4 6 135 138 130
4 4 6 135 138 130
5 4 6 135 138 130
6 4 6 135 138 130
-6 5 6 135 138 130
-5 5 6 135 138 130
-4 5 6 135 138 130
-3 5 6 135 138 130
-2 5 6 135 138 130
-1 5 6 135 138 130
0 5 6 135 138 130
1 5 6 135 138 130
2 5 6 135 138 130
3 5 6 135 138 130
4 5 6 135 138 130
5 5 6 135 138 130
6 5 6 135 138 130
-3 6 6 135 138 130
-2 6 6 135 138 130
-1 6 6 135 138 130
0 6 6 135 138 130
1 6 6 135 138 130
2 6 6 135 138 130
1 -6 7 135 138 130
2 -6 7 135 138 130
3 -6 7 135 138 130
0 -5 7 135 138 130
1 -5 7 135 138 130
2 -5 7 135 138 130
3 -5 7 135 138 130
4 -5 7 135 138 130
-2 -4 7 135 138 130
-1 -4 7 135 138 130
0 -4 7 135 138 130
1 -4 7 135 138 130
2 -4 7 135 138 130
3 -4 7 135 138 130
4 -4 7 135 138 130
5 -4 7 135 138 130
-3 -3 7 135 138 130
-2 -3 7 135 138 130
-1 -3 7 135 138 130
0 -3 7 135 138 130
1 -3 7 135 138 130
2 -3 7 135 138 130
3 -3 7 135 138 130
4 -3 7 135 138 130
5 -3 7 135 138 130
-4 -2 7 135 138 130
-3 -2 7 135 138 130
-2 -2 7 135 138 130
-1 -2 7 135 138 130
0 -2 7 135 138 130
1 -2 7 135 138 130
2 -2 7 135 138 130
3 -2 7 135 138 130
4 -2 7 135 138 130
5 -2 7 135 138 130
-5 -1 7 135 138 130
-4 -1 7 135 138 130
-3 -1 7 135 138 130
-2 -1 7 135 138 130
-1 -1 7 135 138 130
0 -1 7 135 138 130
1 -1 7 135 138 130
2 -1 7 135 138 130
3 -1 7 135 138 130
4 -1 7 135 138 130
-5 0 7 135 138 130
-4 0 7 135 138 130
-3 0 7 135 138 130
-2 0 7 135 138 130
-1 0 7 135 138 130
0 0 7 135 138 130
1 0 7 135 138 130
2 0 7 135 138 130
3 0 7 135 138 130
4 0 7 135 138 130
-5 1 7 135 138 130
-4 1 7 135 138 130
-3 1 7 135 138 130
-2 1 7 135 138 130
-1 1 7 135 138 130
0 1 7 135 138 130
1 1 7 135 138 130
2 1 7 135 138 130
3 1 7 135 138 130
4 1 7 135 138 130
-6 2 7 135 138 130
-5 2 7 135 138 130
-4 2 7 135 138 130
-3 2 7 135 138 130
-2 2 7 135 138 130
-1 2 7 135 138 130
0 2 7 135 138 130
1 2 7 135 138 130
2 2 7 135 138 130
3 2 7 135 138 130
4 2 7 135 138 130
-6 3 7 135 138 130
-5 3 7 135 138 130
-4 3 7 135 138 130
-3 3 7 135 138 130
-2 3 7 135 138 130
-1 3 7 135 138 130
0 3 7 135 138 130
1 3 7 135 138 130
2 3 7 135 138 130
3 3 7 135 138 130
4 3 7 135 138 130
5 3 7 135 138 130
-6 4 7 135 138 130
-5 4 7 135 138 130
-4 4 7 135 138 130
-3 4 7 135 138 130
-2 4 7 135 138 130
-1 4 7 135 138 130
0 4 7 135 138 130
1 4 7 135 138 130
2 4 7 135 138 130
3 4 7 135 138 130
4 4 7 135 138 130
5 4 7 135 138 130
-3 5 7 135 138 130
-2 5 7 135 138 130
-1 5 7 135 138 130
3 5 7 135 138 130
4 5 7 135 138 130
5 5 7 135 138 130
1 -5 8 135 138 130
2 -5 8 135 138 130
3 -5 8 135 138 130
-1 -4 8 135 138 130
0 -4 8 135 138 130
1 -4 8 135 138 130
2 -4 8 135 138 130
3 -4 8 135 138 130
-3 -3 8 135 138 130
-2 -3 8 135 138 130
-1 -3 8 135 138 130
0 -3 8 135 138 130
1 -3 8 135 138 130
2 -3 8 135 138 130
3 -3 8 135 138 130
4 -3 8 135 138 130
-3 -2 8 135 138 130
-2 -2 8 135 138 130
-1 -2 8 135 138 130
0 -2 8 135 138 130
1 -2 8 135 138 130
2 -2 8 135 138 130
3 -2 8 135 138 130
4 -2 8 135 138 130
-3 -1 8 135 138 130
-2 -1 8 135 138 130
-1 -1 8 135 138 130
0 -1 8 135 138 130
1 -1 8 135 138 130
2 -1 8 135 138 130
3 -1 8 135 138 130
4 -1 8 135 138 130
-4 0 8 135 138 130
-3 0 8 135 138 130
-2 0 8 135 138 130
-1 0 8 135 138 130
0 0 8 135 138 130
1 0 8 135 138 130
2 0 8 135 138 130
3 0 8 135 138 130
4 0 8 135 138 130
-4 1 8 135 138 130
-3 1 8 135 138 130
-2 1 8 135 138 130
-1 1 8 135 138 130
0 1 8 135 138 130
1 1 8 135 138 130
2 1 8 135 138 130
3 1 8 135 138 130
-4 2 8 135 138 130
-3 2 8 135 138 130
-2 2 8 135 138 130
-1 2 8 135 138 130
0 2 8 135 138 130
1 2 8 135 138 130
2 2 8 135 138 130
3 2 8 135 138 130
-5 3 8 135 138 130
-4 3 8 135 138 130
-3 3 8 135 138 130
-2 3 8 135 138 130
-1 3 8 135 138 130
0 3 8 135 138 130
1 3 8 135 138 130
2 3 8 135 138 130
3 3 8 135 138 130
4 3 8 135 138 130
-5 4 8 135 138 130
-4 4 8 135 138 130
-3 4 8 135 138 130
4 4 8 135 138 130
2 -4 9 135 138 130
-2 -3 9 135 138 130
-1 -3 9 135 138 130
0 -3 9 135 138 130
1 -3 9 135 138 130
2 -3 9 135 138 130
-3 -2 9 135 138 130
-2 -2 9 135 138 130
-1 -2 9 135 138 130
0 -2 9 135 138 130
1 -2 9 135 138 130
2 -2 9 135 138 130
3 -2 9 135 138 130
-3 -1 9 135 138 130
-2 -1 9 135 138 130
-1 -1 9 135 138 130
0 -1 9 135 138 130
1 -1 9 135 138 130
2 -1 9 135 138 130
3 -1 9 135 138 130
-3 0 9 135 138 130
-2 0 9 135 138 130
-1 0 9 135 138 130
0 0 9 135 138 130
1 0 9 135 138 130
2 0 9 135 138 130
3 0 9 135 138 130
-4 1 9 135 138 130
-3 1 9 135 138 130
-2 1 9 135 138 130
-1 1 9 135 138 130
0 1 9 135 138 130
1 1 9 135 138 130
2 1 9 135 138 130
-4 2 9 135 138 130
-3 2 9 135 138 130
-2 2 9 135 138 130
-1 2 9 135 138 130
0 2 9 135 138 130
1 2 9 135 138 130
2 2 9 135 138 130
-4 3 9 135 138 130
-3 3 9 135 138 130
-2 3 9 135 138 130
0 -3 10 135 138 130
1 -3 10 135 138 130
2 -3 10 135 138 130
-2 -2 10 135 138 130
-1 -2 10 135 138 130
0 -2 10 135 138 130
1 -2 10 135 138 130
2 -2 10 135 138 130
-2 -1 10 135 138 130
-1 -1 10 135 138 130
0 -1 10 135 138 130
1 -1 10 135 138 130
2 -1 10 135 138 130
-2 0 10 135 138 130
-1 0 10 135 138 130
0 0 10 135 138 130
1 0 10 135 138 130
-3 1 10 135 138 130
-2 1 10 135 138 130
-1 1 10 135 138 130
0 1 10 135 138 130
1 1 10 135 138 130
-3 2 10 135 138 130
-2 2 10 135 138 130
-1 2 10 135 138 130
-1 -2 11 135 138 130
0 -2 11 135 138 130
1 -2 11 135 138 130
-2 -1 11 135 138 130
-1 -1 11 135 138 130
0 -1 11 135 138 130
1 -1 11 135 138 130
-2 0 11 135 138 130
-1 0 11 135 138 130
0 0 11 135 138 130
-2 1 11 135 138 130
-1 1 11 135 138 130
-1 -1 12 135 138 130
0 -1 12 135 138 130
-1 0 12 135 138 130
