ply
format ascii 1.0
comment : MagicaVoxel @ Ephtracy
element vertex 499
property float x
property float y
property float z
property uchar red
property uchar green
property uchar blue
end_header
-8 -8 0 56 139 48
-7 -8 0 56 139 48
-6 -8 0 56 139 48
-5 -8 0 56 139 48
-4 -8 0 56 139 48
-3 -8 0 56 139 48
-2 -8 0 56 139 48
-1 -8 0 56 139 48
0 -8 0 56 139 48
1 -8 0 56 139 48
2 -8 0 56 139 48
3 -8 0 56 139 48
4 -8 0 56 139 48
5 -8 0 56 139 48
6 -8 0 56 139 48
7 -8 0 56 139 48
-8 -7 0 56 139 48
-7 -7 0 56 139 48
-6 -7 0 56 139 48
-5 -7 0 56 139 48
-4 -7 0 56 139 48
-3 -7 0 56 139 48
-2 -7 0 56 139 48
-1 -7 0 56 139 48
0 -7 0 56 139 48
1 -7 0 56 139 48
2 -7 0 56 139 48
3 -7 0 56 139 48
4 -7 0 56 139 48
5 -7 0 56 139 48
6 -7 0 56 139 48
7 -7 0 56 139 48
-8 -6 0 56 139 48
-7 -6 0 56 139 48
-6 -6 0 56 139 48
-5 -6 0 56 139 48
-4 -6 0 56 139 48
-3 -6 0 56 139 48
-2 -6 0 56 139 48
-1 -6 0 56 139 48
0 -6 0 56 139 48
1 -6 0 56 139 48
2 -6 0 56 139 48
3 -6 0 56 139 48
4 -6 0 56 139 48
5 -6 0 56 139 48
6 -6 0 56 139 48
7 -6 0 56 139 48
-8 -5 0 56 139 48
-7 -5 0 56 139 48
-6 -5 0 56 139 48
-5 -5 0 56 139 48
-4 -5 0 56 139 48
-3 -5 0 56 139 48
-2 -5 0 56 139 48
-1 -5 0 56 139 48
0 -5 0 56 139 48
1 -5 0 56 139 48
2 -5 0 56 139 48
3 -5 0 56 139 48
4 -5 0 56 139 48
5 -5 0 56 139 48
6 -5 0 56 139 48
7 -5 0 56 139 48
-8 -4 0 56 139 48
-7 -4 0 56 139 48
-6 -4 0 56 139 48
-5 -4 0 56 139 48
-4 -4 0 56 139 48
-3 -4 0 56 139 48
-2 -4 0 56 139 48
-1 -4 0 56 139 48
0 -4 0 56 139 48
1 -4 0 56 139 48
2 -4 0 56 139 48
3 -4 0 56 139 48
4 -4 0 56 139 48
5 -4 0 56 139 48
6 -4 0 56 139 48
7 -4 0 56 139 48
-8 -3 0 56 139 48
-7 -3 0 56 139 48
-6 -3 0 56 139 48
-5 -3 0 56 139 48
-4 -3 0 56 139 48
-3 -3 0 56 139 48
-2 -3 0 56 139 48
-1 -3 0 56 139 48
0 -3 0 56 139 48
1 -3 0 56 139 48
2 -3 0 56 139 48
3 -3 0 56 139 48
4 -3 0 56 139 48
5 -3 0 56 139 48
6 -3 0 56 139 48
7 -3 0 56 139 48
-8 -2 0 56 139 48
-7 -2 0 56 139 48
-6 -2 0 56 139 48
-5 -2 0 56 139 48
-4 -2 0 56 139 48
-3 -2 0 56 139 48
-2 -2 0 56 139 48
-1 -2 0 56 139 48
0 -2 0 56 139 48
1 -2 0 56 139 48
2 -2 0 56 139 48
3 -2 0 56 139 48
4 -2 0 56 139 48
5 -2 0 56 139 48
6 -2 0 56 139 48
7 -2 0 56 139 48
-8 -1 0 56 139 48
-7 -1 0 56 139 48
-6 -1 0 56 139 48
-5 -1 0 56 139 48
-4 -1 0 56 139 48
-3 -1 0 56 139 48
-2 -1 0 56 139 48
-1 -1 0 56 139 48
0 -1 0 56 139 48
1 -1 0 56 139 48
2 -1 0 56 139 48
3 -1 0 56 139 48
4 -1 0 56 139 48
5 -1 0 56 139 48
6 -1 0 56 139 48
7 -1 0 56 139 48
-8 0 0 56 139 48
-7 0 0 56 139 48
-6 0 0 56 139 48
-5 0 0 56 139 48
-4 0 0 56 139 48
-3 0 0 56 139 48
-2 0 0 56 139 48
-1 0 0 56 139 48
0 0 0 56 139 48
1 0 0 56 139 48
2 0 0 56 139 48
3 0 0 56 139 48
4 0 0 56 139 48
5 0 0 56 139 48
6 0 0 56 139 48
7 0 0 56 139 48
-8 1 0 56 139 48
-7 1 0 56 139 48
-6 1 0 56 139 48
-5 1 0 56 139 48
-4 1 0 56 139 48
-3 1 0 56 139 48
-2 1 0 56 139 48
-1 1 0 56 139 48
0 1 0 56 139 48
1 1 0 56 139 48
2 1 0 56 139 48
3 1 0 56 139 48
4 1 0 56 139 48
5 1 0 56 139 48
6 1 0 56 139 48
7 1 0 56 139 48
-8 2 0 56 139 48
-7 2 0 56 139 48
-6 2 0 56 139 48
-5 2 0 56 139 48
-4 2 0 56 139 48
-3 2 0 56 139 48
-2 2 0 56 139 48
-1 2 0 56 139 48
0 2 0 56 139 48
1 2 0 56 139 48
2 2 0 56 139 48
3 2 0 56 139 48
4 2 0 56 139 48
5 2 0 56 139 48
6 2 0 56 139 48
7 2 0 56 139 48
-8 3 0 56 139 48
-7 3 0 56 139 48
-6 3 0 56 139 48
-5 3 0 56 139 48
-4 3 0 56 139 48
-3 3 0 56 139 48
-2 3 0 56 139 48
-1 3 0 56 139 48
0 3 0 56 139 48
1 3 0 56 139 48
2 3 0 56 139 48
3 3 0 56 139 48
4 3 0 56 139 48
5 3 0 56 139 48
6 3 0 56 139 48
7 3 0 56 139 48
-8 4 0 56 139 48
-7 4 0 56 139 48
-6 4 0 56 139 48
-5 4 0 56 139 48
-4 4 0 56 139 48
-3 4 0 56 139 48
-2 4 0 56 139 48
-1 4 0 56 139 48
0 4 0 56 139 48
1 4 0 56 139 48
2 4 0 56 139 48
3 4 0 56 139 48
4 4 0 56 139 48
5 4 0 56 139 48
6 4 0 56 139 48
7 4 0 56 139 48
-8 5 0 56 139 48
-7 5 0 56 139 48
-6 5 0 56 139 48
-5 5 0 56 139 48
-4 5 0 56 139 48
-3 5 0 56 139 48
-2 5 0 56 139 48
-1 5 0 56 139 48
0 5 0 56 139 48
1 5 0 56 139 48
2 5 0 56 139 48
3 5 0 56 139 48
4 5 0 56 139 48
5 5 0 56 139 48
6 5 0 56 139 48
7 5 0 56 139 48
-8 6 0 56 139 48
-7 6 0 56 139 48
-6 6 0 56 139 48
-5 6 0 56 139 48
-4 6 0 56 139 48
-3 6 0 56 139 48
-2 6 0 56 139 48
-1 6 0 56 139 48
0 6 0 56 139 48
1 6 0 56 139 48
2 6 0 56 139 48
3 6 0 56 139 48
4 6 0 56 139 48
5 6 0 56 139 48
6 6 0 56 139 48
7 6 0 56 139 48
-8 7 0 56 139 48
-7 7 0 56 139 48
-6 7 0 56 139 48
-5 7 0 56 139 48
-4 7 0 56 139 48
-3 7 0 56 139 48
-2 7 0 56 139 48
-1 7 0 56 139 48
0 7 0 56 139 48
1 7 0 56 139 48
2 7 0 56 139 48
3 7 0 56 139 48
4 7 0 56 139 48
5 7 0 56 139 48
6 7 0 56 139 48
7 7 0 56 139 48
-7 -7 1 92 206 44
0 -7 1 92 206 44
-4 -5 1 92 206 44
3 -4 1 92 206 44
0 -2 1 92 206 44
-6 -1 1 92 206 44
6 -1 1 92 206 44
-8 3 1 135 138 130
-7 3 1 135 138 130
-6 3 1 135 138 130
-5 3 1 135 138 130
-4 3 1 135 138 130
-3 3 1 135 138 130
-2 3 1 135 138 130
5 3 1 135 138 130
6 3 1 135 138 130
7 3 1 135 138 130
-8 4 1 135 138 130
-7 4 1 135 138 130
-6 4 1 135 138 130
-5 4 1 135 138 130
-4 4 1 135 138 130
-3 4 1 135 138 130
-2 4 1 135 138 130
-1 4 1 135 138 130
0 4 1 135 138 130
1 4 1 135 138 130
2 4 1 135 138 130
3 4 1 135 138 130
4 4 1 135 138 130
5 4 1 135 138 130
6 4 1 135 138 130
7 4 1 135 138 130
-8 5 1 135 138 130
-7 5 1 135 138 130
-6 5 1 135 138 130
-5 5 1 135 138 130
-4 5 1 135 138 130
-3 5 1 135 138 130
-2 5 1 135 138 130
-1 5 1 135 138 130
0 5 1 135 138 130
1 5 1 135 138 130
2 5 1 135 138 130
3 5 1 135 138 130
4 5 1 135 138 130
5 5 1 135 138 130
6 5 1 135 138 130
7 5 1 135 138 130
-8 6 1 135 138 130
-7 6 1 135 138 130
-6 6 1 135 138 130
-5 6 1 135 138 130
-4 6 1 135 138 130
-3 6 1 135 138 130
-2 6 1 135 138 130
-1 6 1 135 138 130
0 6 1 135 138 130
1 6 1 135 138 130
2 6 1 135 138 130
3 6 1 135 138 130
4 6 1 135 138 130
5 6 1 135 138 130
6 6 1 135 138 130
7 6 1 135 138 130
-8 7 1 135 138 130
-7 7 1 135 138 130
-6 7 1 135 138 130
-5 7 1 135 138 130
-4 7 1 135 138 130
-3 7 1 135 138 130
-2 7 1 135 138 130
-1 7 1 135 138 130
0 7 1 135 138 130
1 7 1 135 138 130
2 7 1 135 138 130
3 7 1 135 138 130
4 7 1 135 138 130
5 7 1 135 138 130
6 7 1 135 138 130
7 7 1 135 138 130
-8 4 2 135 138 130
-7 4 2 135 138 130
-6 4 2 135 138 130
-5 4 2 135 138 130
-4 4 2 135 138 130
6 4 2 135 138 130
7 4 2 135 138 130
-8 5 2 135 138 130
-7 5 2 135 138 130
-6 5 2 135 138 130
-5 5 2 135 138 130
-4 5 2 135 138 130
-3 5 2 135 138 130
-2 5 2 135 138 130
-1 5 2 135 138 130
0 5 2 135 138 130
1 5 2 135 138 130
2 5 2 135 138 130
3 5 2 135 138 130
4 5 2 135 138 130
5 5 2 135 138 130
6 5 2 135 138 130
7 5 2 135 138 130
-8 6 2 135 138 130
-7 6 2 135 138 130
-6 6 2 135 138 130
-5 6 2 135 138 130
-4 6 2 135 138 130
-3 6 2 135 138 130
-2 6 2 135 138 130
-1 6 2 135 138 130
0 6 2 135 138 130
1 6 2 135 138 130
2 6 2 135 138 130
3 6 2 135 138 130
4 6 2 135 138 130
5 6 2 135 138 130
6 6 2 135 138 130
7 6 2 135 138 130
-8 7 2 135 138 130
-7 7 2 135 138 130
-6 7 2 135 138 130
-5 7 2 135 138 130
-4 7 2 135 138 130
-3 7 2 135 138 130
-2 7 2 135 138 130
-1 7 2 135 138 130
0 7 2 135 138 130
1 7 2 135 138 130
2 7 2 135 138 130
3 7 2 135 138 130
4 7 2 135 138 130
5 7 2 135 138 130
6 7 2 135 138 130
7 7 2 135 138 130
-8 4 3 135 138 130
-7 4 3 135 138 130
6 4 3 135 138 130
7 4 3 135 138 130
-8 5 3 135 138 130
-7 5 3 135 138 130
-6 5 3 135 138 130
-5 5 3 135 138 130
-4 5 3 135 138 130
-3 5 3 135 138 130
4 5 3 135 138 130
5 5 3 135 138 130
6 5 3 135 138 130
7 5 3 135 138 130
-8 6 3 135 138 130
-7 6 3 135 138 130
-6 6 3 135 138 130
-5 6 3 135 138 130
-4 6 3 135 138 130
-3 6 3 135 138 130
-2 6 3 135 138 130
-1 6 3 135 138 130
0 6 3 135 138 130
1 6 3 135 138 130
2 6 3 135 138 130
3 6 3 135 138 130
4 6 3 135 138 130
5 6 3 135 138 130
6 6 3 135 138 130
7 6 3 135 138 130
-8 7 3 135 138 130
-7 7 3 135 138 130
-6 7 3 135 138 130
-5 7 3 135 138 130
-4 7 3 135 138 130
-3 7 3 135 138 130
-2 7 3 135 138 130
-1 7 3 135 138 130
0 7 3 135 138 130
1 7 3 135 138 130
2 7 3 135 138 130
3 7 3 135 138 130
4 7 3 135 138 130
5 7 3 135 138 130
6 7 3 135 138 130
7 7 3 135 138 130
-8 5 4 135 138 130
-7 5 4 135 138 130
-6 5 4 135 138 130
5 5 4 135 138 130
6 5 4 135 138 130
7 5 4 135 138 130
-8 6 4 135 138 130
-7 6 4 135 138 130
-6 6 4 135 138 130
-5 6 4 135 138 130
-4 6 4 135 138 130
-3 6 4 135 138 130
-2 6 4 135 138 130
-1 6 4 135 138 130
0 6 4 135 138 130
3 6 4 135 138 130
4 6 4 135 138 130
5 6 4 135 138 130
6 6 4 135 138 130
7 6 4 135 138 130
-8 7 4 135 138 130
-7 7 4 135 138 130
-6 7 4 135 138 130
-5 7 4 135 138 130
-4 7 4 135 138 130
-3 7 4 135 138 130
-2 7 4 135 138 130
-1 7 4 135 138 130
0 7 4 135 138 130
1 7 4 135 138 130
2 7 4 135 138 130
3 7 4 135 138 130
4 7 4 135 138 130
5 7 4 135 138 130
6 7 4 135 138 130
7 7 4 135 138 130
-8 6 5 135 138 130
-7 6 5 135 138 130
-6 6 5 135 138 130
-5 6 5 135 138 130
3 6 5 135 138 130
4 6 5 135 138 130
5 6 5 135 138 130
6 6 5 135 138 130
7 6 5 135 138 130
-8 7 5 135 138 130
-7 7 5 135 138 130
-6 7 5 135 138 130
-5 7 5 135 138 130
-4 7 5 135 138 130
-3 7 5 135 138 130
-2 7 5 135 138 130
-1 7 5 135 138 130
0 7 5 135 138 130
1 7 5 135 138 130
2 7 5 135 138 130
3 7 5 135 138 130
4 7 5 135 138 130
5 7 5 135 138 130
6 7 5 135 138 130
7 7 5 135 138 130
