ply
format ascii 1.0
comment : MagicaVoxel @ Ephtracy
element vertex 301
property float x
property float y
property float z
property uchar red
property uchar green
property uchar blue
end_header
-6 -6 0 241 244 230
-5 -6 0 241 244 230
-4 -6 0 241 244 230
-3 -6 0 241 244 230
-2 -6 0 241 244 230
-6 -5 0 241 244 230
-2 -5 0 241 244 230
-6 -4 0 241 244 230
-2 -4 0 241 244 230
-1 -4 0 228 231 218
-6 -3 0 241 244 230
-2 -3 0 135 138 130
-6 -2 0 241 244 230
-2 -2 0 241 244 230
-1 -2 0 228 231 218
-6 -1 0 241 244 230
-2 -1 0 241 244 230
-6 0 0 241 244 230
-2 0 0 241 244 230
0 0 0 228 231 218
2 0 0 228 231 218
4 0 0 228 231 218
-6 1 0 241 244 230
-2 1 0 241 244 230
-6 2 0 241 244 230
-2 2 0 241 244 230
-6 3 0 241 244 230
-2 3 0 241 244 230
0 3 0 228 231 218
2 3 0 228 231 218
4 3 0 228 231 218
-6 4 0 241 244 230
-2 4 0 241 244 230
-6 5 0 241 244 230
-5 5 0 241 244 230
-4 5 0 241 244 230
-3 5 0 241 244 230
-2 5 0 241 244 230
-6 -6 1 241 244 230
-5 -6 1 228 231 218
-4 -6 1 228 231 218
-3 -6 1 228 231 218
-2 -6 1 241 244 230
-6 -5 1 228 231 218
-2 -5 1 228 231 218
-6 -4 1 228 231 218
-2 -4 1 228 231 218
-1 -4 1 228 231 218
-6 -3 1 228 231 218
-2 -3 1 135 138 130
-6 -2 1 228 231 218
-2 -2 1 228 231 218
-1 -2 1 228 231 218
-6 -1 1 228 231 218
-2 -1 1 228 231 218
-6 0 1 228 231 218
-2 0 1 54 54 54
-1 0 1 86 86 86
0 0 1 54 54 54
1 0 1 86 86 86
2 0 1 54 54 54
3 0 1 86 86 86
4 0 1 54 54 54
5 0 1 86 86 86
-6 1 1 228 231 218
-2 1 1 54 54 54
-1 1 1 86 86 86
0 1 1 54 54 54
1 1 1 86 86 86
2 1 1 54 54 54
3 1 1 86 86 86
4 1 1 54 54 54
5 1 1 86 86 86
-6 2 1 228 231 218
-2 2 1 54 54 54
-1 2 1 86 86 86
0 2 1 54 54 54
1 2 1 86 86 86
2 2 1 54 54 54
3 2 1 86 86 86
4 2 1 54 54 54
5 2 1 86 86 86
-6 3 1 228 231 218
-2 3 1 54 54 54
-1 3 1 86 86 86
0 3 1 54 54 54
1 3 1 86 86 86
2 3 1 54 54 54
3 3 1 86 86 86
4 3 1 54 54 54
5 3 1 86 86 86
-6 4 1 228 231 218
-2 4 1 228 231 218
-6 5 1 241 244 230
-5 5 1 228 231 218
-4 5 1 228 231 218
-3 5 1 228 231 218
-2 5 1 241 244 230
-6 -6 2 241 244 230
-5 -6 2 228 231 218
-4 -6 2 228 231 218
-3 -6 2 228 231 218
-2 -6 2 241 244 230
-6 -5 2 228 231 218
-2 -5 2 228 231 218
-6 -4 2 228 231 218
-2 -4 2 228 231 218
-1 -4 2 228 231 218
-6 -3 2 228 231 218
-2 -3 2 228 231 218
-1 -3 2 228 231 218
-6 -2 2 228 231 218
-2 -2 2 228 231 218
-1 -2 2 228 231 218
-6 -1 2 228 231 218
-2 -1 2 228 231 218
-6 0 2 228 231 218
-3 0 2 54 54 54
-6 1 2 228 231 218
-3 1 2 54 54 54
-1 1 2 197 200 189
0 1 2 197 200 189
3 1 2 197 200 189
4 1 2 197 200 189
-6 2 2 228 231 218
-3 2 2 54 54 54
-1 2 2 197 200 189
0 2 2 197 200 189
3 2 2 197 200 189
4 2 2 197 200 189
-6 3 2 228 231 218
-3 3 2 54 54 54
-6 4 2 228 231 218
-2 4 2 228 231 218
-6 5 2 241 244 230
-5 5 2 228 231 218
-4 5 2 228 231 218
-3 5 2 228 231 218
-2 5 2 241 244 230
-6 -6 3 241 244 230
-5 -6 3 228 231 218
-4 -6 3 228 231 218
-3 -6 3 228 231 218
-2 -6 3 241 244 230
-6 -5 3 228 231 218
-2 -5 3 228 231 218
-6 -4 3 228 231 218
-2 -4 3 228 231 218
-6 -3 3 228 231 218
-2 -3 3 228 231 218
-6 -2 3 228 231 218
-2 -2 3 228 231 218
-6 -1 3 228 231 218
-2 -1 3 228 231 218
-6 0 3 228 231 218
-3 0 3 54 54 54
-6 1 3 228 231 218
-3 1 3 54 54 54
-6 2 3 228 231 218
-3 2 3 54 54 54
-6 3 3 228 231 218
-3 3 3 54 54 54
-6 4 3 228 231 218
-2 4 3 228 231 218
-6 5 3 241 244 230
-5 5 3 228 231 218
-4 5 3 228 231 218
-3 5 3 228 231 218
-2 5 3 241 244 230
-6 -6 4 241 244 230
-5 -6 4 228 231 218
-4 -6 4 228 231 218
-3 -6 4 228 231 218
-2 -6 4 241 244 230
-6 -5 4 228 231 218
-2 -5 4 228 231 218
-6 -4 4 228 231 218
-2 -4 4 228 231 218
-6 -3 4 228 231 218
-2 -3 4 228 231 218
-6 -2 4 228 231 218
-2 -2 4 228 231 218
-6 -1 4 163 240 245
-2 -1 4 228 231 218
-6 0 4 228 231 218
-3 0 4 54 54 54
-6 1 4 163 240 245
-3 1 4 54 54 54
-6 2 4 228 231 218
-3 2 4 54 54 54
-6 3 4 163 240 245
-3 3 4 54 54 54
-6 4 4 228 231 218
-2 4 4 228 231 218
-6 5 4 241 244 230
-5 5 4 228 231 218
-4 5 4 122 220 240
-3 5 4 228 231 218
-2 5 4 241 244 230
-6 -6 5 241 244 230
-5 -6 5 228 231 218
-4 -6 5 228 231 218
-3 -6 5 228 231 218
-2 -6 5 241 244 230
-6 -5 5 228 231 218
-5 -5 5 228 231 218
-4 -5 5 228 231 218
-3 -5 5 228 231 218
-2 -5 5 228 231 218
-6 -4 5 228 231 218
-5 -4 5 228 231 218
-4 -4 5 255 123 0
-3 -4 5 228 231 218
-2 -4 5 228 231 218
-6 -3 5 228 231 218
-5 -3 5 228 231 218
-4 -3 5 255 123 0
-3 -3 5 228 231 218
-2 -3 5 228 231 218
-6 -2 5 228 231 218
-5 -2 5 228 231 218
-4 -2 5 255 123 0
-3 -2 5 228 231 218
-2 -2 5 228 231 218
-7 -1 5 241 244 230
-6 -1 5 228 231 218
-5 -1 5 228 231 218
-4 -1 5 135 138 130
-3 -1 5 228 231 218
-2 -1 5 228 231 218
-6 0 5 228 231 218
-5 0 5 228 231 218
-4 0 5 86 86 86
-3 0 5 228 231 218
-2 0 5 228 231 218
-7 1 5 241 244 230
-6 1 5 228 231 218
-2 1 5 228 231 218
-6 2 5 228 231 218
-2 2 5 228 231 218
-7 3 5 241 244 230
-6 3 5 228 231 218
-2 3 5 228 231 218
-6 4 5 228 231 218
-2 4 5 228 231 218
-6 5 5 241 244 230
-5 5 5 228 231 218
-4 5 5 228 231 218
-3 5 5 228 231 218
-2 5 5 241 244 230
-4 6 5 241 244 230
-6 -6 6 241 244 230
-5 -6 6 241 244 230
-4 -6 6 241 244 230
-3 -6 6 241 244 230
-2 -6 6 241 244 230
-6 -5 6 241 244 230
-2 -5 6 241 244 230
-6 -4 6 241 244 230
-2 -4 6 241 244 230
-6 -3 6 241 244 230
-2 -3 6 241 244 230
-6 -2 6 241 244 230
-2 -2 6 241 244 230
-6 -1 6 241 244 230
-2 -1 6 241 244 230
-6 0 6 241 244 230
-2 0 6 241 244 230
-6 1 6 241 244 230
-5 1 6 228 231 218
-4 1 6 56 124 213
-3 1 6 228 231 218
-2 1 6 241 244 230
-6 2 6 241 244 230
-5 2 6 228 231 218
-4 2 6 228 231 218
-3 2 6 228 231 218
-2 2 6 241 244 230
-6 3 6 241 244 230
-5 3 6 228 231 218
-4 3 6 228 231 218
-3 3 6 228 231 218
-2 3 6 241 244 230
-6 4 6 241 244 230
-5 4 6 228 231 218
-4 4 6 228 231 218
-3 4 6 228 231 218
-2 4 6 241 244 230
-6 5 6 241 244 230
-5 5 6 241 244 230
-4 5 6 241 244 230
-3 5 6 241 244 230
-2 5 6 241 244 230
-4 1 7 18 159 242
-4 3 7 86 86 86
-4 1 8 122 220 240
-4 3 8 86 86 86
-4 1 9 241 244 230
-4 3 9 135 138 130
-4 2 10 197 200 189
-4 3 10 135 138 130
