ply
format ascii 1.0
comment : MagicaVoxel @ Ephtracy
element vertex 65
property float x
property float y
property float z
property uchar red
property uchar green
property uchar blue
end_header
0 2 0 0 0 238
0 2 1 102 153 0
0 2 2 0 0 238
0 2 3 153 0 51
0 2 4 0 0 238
0 2 5 0 0 238
-8 -8 6 153 204 255
-7 -8 6 153 204 255
-6 -8 6 153 204 255
-5 -8 6 153 204 255
-4 -8 6 153 204 255
-3 -8 6 153 204 255
-2 -8 6 153 204 255
-1 -8 6 153 204 255
0 -8 6 153 204 255
1 -8 6 153 204 255
2 -8 6 153 204 255
3 -8 6 153 204 255
4 -8 6 153 204 255
5 -8 6 153 204 255
6 -8 6 153 204 255
7 -8 6 153 204 255
0 -7 6 153 204 255
5 -7 6 221 0 0
7 -7 6 153 0 102
0 -6 6 153 204 255
5 -6 6 221 0 0
7 -6 6 153 0 102
0 -5 6 153 204 255
5 -5 6 221 0 0
7 -5 6 153 51 102
0 -4 6 153 204 255
5 -4 6 221 0 0
7 -4 6 51 204 51
0 -3 6 153 204 255
5 -3 6 221 0 0
7 -3 6 51 204 51
0 -2 6 153 204 255
5 -2 6 221 0 0
7 -2 6 51 204 51
0 -1 6 153 204 255
5 -1 6 221 0 0
7 -1 6 51 204 51
0 0 6 153 204 255
5 0 6 221 0 0
7 0 6 102 102 255
0 1 6 153 204 255
5 1 6 221 0 0
0 2 6 153 0 51
1 2 6 0 0 238
2 2 6 0 0 238
3 2 6 102 153 0
4 2 6 0 0 238
5 2 6 0 0 238
6 2 6 0 0 238
5 -7 7 221 0 0
5 -6 7 221 0 0
5 -5 7 221 0 0
5 -4 7 221 0 0
5 -3 7 221 0 0
5 -2 7 221 0 0
5 -1 7 221 0 0
5 0 7 221 0 0
5 1 7 221 0 0
5 2 7 221 0 0
