ply
format ascii 1.0
comment : MagicaVoxel @ Ephtracy
element vertex 816
property float x
property float y
property float z
property uchar red
property uchar green
property uchar blue
end_header
-5 -8 0 85 85 85
-4 -8 0 85 85 85
-3 -8 0 85 85 85
-2 -8 0 85 85 85
-1 -8 0 85 85 85
0 -8 0 85 85 85
1 -8 0 85 85 85
2 -8 0 85 85 85
3 -8 0 85 85 85
4 -8 0 85 85 85
-6 -7 0 85 85 85
-5 -7 0 238 238 238
-4 -7 0 238 238 238
-3 -7 0 238 238 238
-2 -7 0 238 238 238
-1 -7 0 85 85 85
0 -7 0 85 85 85
1 -7 0 238 238 238
2 -7 0 238 238 238
3 -7 0 238 238 238
4 -7 0 238 238 238
5 -7 0 85 85 85
-7 -6 0 85 85 85
-6 -6 0 238 238 238
-5 -6 0 238 238 238
-4 -6 0 238 238 238
-3 -6 0 238 238 238
-2 -6 0 238 238 238
-1 -6 0 85 85 85
0 -6 0 85 85 85
1 -6 0 238 238 238
2 -6 0 238 238 238
3 -6 0 238 238 238
4 -6 0 238 238 238
5 -6 0 238 238 238
6 -6 0 85 85 85
-8 -5 0 85 85 85
-7 -5 0 238 238 238
-6 -5 0 238 238 238
-5 -5 0 238 238 238
-4 -5 0 238 238 238
-3 -5 0 238 238 238
-2 -5 0 238 238 238
-1 -5 0 238 238 238
0 -5 0 238 238 238
1 -5 0 238 238 238
2 -5 0 238 238 238
3 -5 0 238 238 238
4 -5 0 238 238 238
5 -5 0 238 238 238
6 -5 0 238 238 238
7 -5 0 85 85 85
-8 -4 0 85 85 85
-7 -4 0 238 238 238
-6 -4 0 238 238 238
-5 -4 0 238 238 238
-4 -4 0 238 238 238
-3 -4 0 238 238 238
-2 -4 0 238 238 238
-1 -4 0 238 238 238
0 -4 0 238 238 238
1 -4 0 238 238 238
2 -4 0 238 238 238
3 -4 0 238 238 238
4 -4 0 238 238 238
5 -4 0 238 238 238
6 -4 0 238 238 238
7 -4 0 85 85 85
-8 -3 0 85 85 85
-7 -3 0 238 238 238
-6 -3 0 238 238 238
-5 -3 0 238 238 238
-4 -3 0 238 238 238
-3 -3 0 238 238 238
-2 -3 0 238 238 238
-1 -3 0 238 238 238
0 -3 0 238 238 238
1 -3 0 238 238 238
2 -3 0 238 238 238
3 -3 0 238 238 238
4 -3 0 238 238 238
5 -3 0 238 238 238
6 -3 0 238 238 238
7 -3 0 85 85 85
-8 -2 0 85 85 85
-7 -2 0 238 238 238
-6 -2 0 238 238 238
-5 -2 0 238 238 238
-4 -2 0 238 238 238
-3 -2 0 238 238 238
-2 -2 0 238 238 238
-1 -2 0 238 238 238
0 -2 0 238 238 238
1 -2 0 238 238 238
2 -2 0 238 238 238
3 -2 0 238 238 238
4 -2 0 238 238 238
5 -2 0 238 238 238
6 -2 0 238 238 238
7 -2 0 85 85 85
-8 -1 0 85 85 85
-7 -1 0 85 85 85
-6 -1 0 85 85 85
-5 -1 0 238 238 238
-4 -1 0 238 238 238
-3 -1 0 238 238 238
-2 -1 0 238 238 238
-1 -1 0 238 238 238
0 -1 0 238 238 238
1 -1 0 238 238 238
2 -1 0 238 238 238
3 -1 0 238 238 238
4 -1 0 238 238 238
5 -1 0 238 238 238
6 -1 0 85 85 85
7 -1 0 85 85 85
-8 0 0 85 85 85
-7 0 0 85 85 85
-6 0 0 85 85 85
-5 0 0 238 238 238
-4 0 0 238 238 238
-3 0 0 238 238 238
-2 0 0 238 238 238
-1 0 0 238 238 238
0 0 0 238 238 238
1 0 0 238 238 238
2 0 0 238 238 238
3 0 0 238 238 238
4 0 0 238 238 238
5 0 0 238 238 238
6 0 0 85 85 85
7 0 0 85 85 85
-8 1 0 85 85 85
-7 1 0 238 238 238
-6 1 0 238 238 238
-5 1 0 238 238 238
-4 1 0 238 238 238
-3 1 0 238 238 238
-2 1 0 238 238 238
-1 1 0 238 238 238
0 1 0 238 238 238
1 1 0 238 238 238
2 1 0 238 238 238
3 1 0 238 238 238
4 1 0 238 238 238
5 1 0 238 238 238
6 1 0 238 238 238
7 1 0 85 85 85
-8 2 0 85 85 85
-7 2 0 238 238 238
-6 2 0 238 238 238
-5 2 0 238 238 238
-4 2 0 238 238 238
-3 2 0 238 238 238
-2 2 0 238 238 238
-1 2 0 238 238 238
0 2 0 238 238 238
1 2 0 238 238 238
2 2 0 238 238 238
3 2 0 238 238 238
4 2 0 238 238 238
5 2 0 238 238 238
6 2 0 238 238 238
7 2 0 85 85 85
-8 3 0 85 85 85
-7 3 0 238 238 238
-6 3 0 238 238 238
-5 3 0 238 238 238
-4 3 0 238 238 238
-3 3 0 238 238 238
-2 3 0 238 238 238
-1 3 0 238 238 238
0 3 0 238 238 238
1 3 0 238 238 238
2 3 0 238 238 238
3 3 0 238 238 238
4 3 0 238 238 238
5 3 0 238 238 238
6 3 0 238 238 238
7 3 0 85 85 85
-8 4 0 85 85 85
-7 4 0 238 238 238
-6 4 0 238 238 238
-5 4 0 238 238 238
-4 4 0 238 238 238
-3 4 0 238 238 238
-2 4 0 238 238 238
-1 4 0 238 238 238
0 4 0 238 238 238
1 4 0 238 238 238
2 4 0 238 238 238
3 4 0 238 238 238
4 4 0 238 238 238
5 4 0 238 238 238
6 4 0 238 238 238
7 4 0 85 85 85
-7 5 0 85 85 85
-6 5 0 238 238 238
-5 5 0 238 238 238
-4 5 0 238 238 238
-3 5 0 238 238 238
-2 5 0 238 238 238
-1 5 0 238 238 238
0 5 0 238 238 238
1 5 0 238 238 238
2 5 0 238 238 238
3 5 0 238 238 238
4 5 0 238 238 238
5 5 0 238 238 238
6 5 0 85 85 85
-6 6 0 85 85 85
-5 6 0 238 238 238
-4 6 0 238 238 238
-3 6 0 238 238 238
-2 6 0 238 238 238
-1 6 0 85 85 85
0 6 0 85 85 85
1 6 0 238 238 238
2 6 0 238 238 238
3 6 0 238 238 238
4 6 0 238 238 238
5 6 0 85 85 85
-5 7 0 85 85 85
-4 7 0 85 85 85
-3 7 0 85 85 85
-2 7 0 85 85 85
-1 7 0 85 85 85
0 7 0 85 85 85
1 7 0 85 85 85
2 7 0 85 85 85
3 7 0 85 85 85
4 7 0 85 85 85
-4 -7 1 238 238 238
-3 -7 1 238 238 238
-2 -7 1 238 238 238
-1 -7 1 85 85 85
0 -7 1 85 85 85
1 -7 1 238 238 238
2 -7 1 238 238 238
3 -7 1 238 238 238
-5 -6 1 85 85 85
-4 -6 1 238 238 238
-3 -6 1 238 238 238
-2 -6 1 238 238 238
-1 -6 1 85 85 85
0 -6 1 85 85 85
1 -6 1 238 238 238
2 -6 1 238 238 238
3 -6 1 238 238 238
4 -6 1 85 85 85
-6 -5 1 85 85 85
-5 -5 1 238 238 238
-4 -5 1 238 238 238
-3 -5 1 238 238 238
-2 -5 1 238 238 238
-1 -5 1 238 238 238
0 -5 1 238 238 238
1 -5 1 238 238 238
2 -5 1 238 238 238
3 -5 1 238 238 238
4 -5 1 238 238 238
5 -5 1 85 85 85
-7 -4 1 238 238 238
-6 -4 1 238 238 238
-5 -4 1 238 238 238
-4 -4 1 238 238 238
-3 -4 1 238 238 238
-2 -4 1 238 238 238
-1 -4 1 238 238 238
0 -4 1 238 238 238
1 -4 1 238 238 238
2 -4 1 238 238 238
3 -4 1 238 238 238
4 -4 1 238 238 238
5 -4 1 238 238 238
6 -4 1 238 238 238
-7 -3 1 238 238 238
-6 -3 1 238 238 238
-5 -3 1 238 238 238
-4 -3 1 238 238 238
-3 -3 1 238 238 238
-2 -3 1 238 238 238
-1 -3 1 238 238 238
0 -3 1 238 238 238
1 -3 1 238 238 238
2 -3 1 238 238 238
3 -3 1 238 238 238
4 -3 1 238 238 238
5 -3 1 238 238 238
6 -3 1 238 238 238
-7 -2 1 238 238 238
-6 -2 1 238 238 238
-5 -2 1 238 238 238
-4 -2 1 238 238 238
-3 -2 1 238 238 238
-2 -2 1 238 238 238
-1 -2 1 238 238 238
0 -2 1 238 238 238
1 -2 1 238 238 238
2 -2 1 238 238 238
3 -2 1 238 238 238
4 -2 1 238 238 238
5 -2 1 238 238 238
6 -2 1 238 238 238
-7 -1 1 85 85 85
-6 -1 1 85 85 85
-5 -1 1 238 238 238
-4 -1 1 238 238 238
-3 -1 1 238 238 238
-2 -1 1 238 238 238
-1 -1 1 238 238 238
0 -1 1 238 238 238
1 -1 1 238 238 238
2 -1 1 238 238 238
3 -1 1 238 238 238
4 -1 1 238 238 238
5 -1 1 238 238 238
6 -1 1 85 85 85
-7 0 1 85 85 85
-6 0 1 85 85 85
-5 0 1 238 238 238
-4 0 1 238 238 238
-3 0 1 238 238 238
-2 0 1 238 238 238
-1 0 1 238 238 238
0 0 1 238 238 238
1 0 1 238 238 238
2 0 1 238 238 238
3 0 1 238 238 238
4 0 1 238 238 238
5 0 1 238 238 238
6 0 1 85 85 85
-7 1 1 238 238 238
-6 1 1 238 238 238
-5 1 1 238 238 238
-4 1 1 238 238 238
-3 1 1 238 238 238
-2 1 1 238 238 238
-1 1 1 238 238 238
0 1 1 238 238 238
1 1 1 238 238 238
2 1 1 238 238 238
3 1 1 238 238 238
4 1 1 238 238 238
5 1 1 238 238 238
6 1 1 238 238 238
-7 2 1 238 238 238
-6 2 1 238 238 238
-5 2 1 238 238 238
-4 2 1 238 238 238
-3 2 1 238 238 238
-2 2 1 238 238 238
-1 2 1 238 238 238
0 2 1 238 238 238
1 2 1 238 238 238
2 2 1 238 238 238
3 2 1 238 238 238
4 2 1 238 238 238
5 2 1 238 238 238
6 2 1 238 238 238
-7 3 1 238 238 238
-6 3 1 238 238 238
-5 3 1 238 238 238
-4 3 1 238 238 238
-3 3 1 238 238 238
-2 3 1 238 238 238
-1 3 1 238 238 238
0 3 1 238 238 238
1 3 1 238 238 238
2 3 1 238 238 238
3 3 1 238 238 238
4 3 1 238 238 238
5 3 1 238 238 238
6 3 1 238 238 238
-6 4 1 85 85 85
-5 4 1 238 238 238
-4 4 1 238 238 238
-3 4 1 238 238 238
-2 4 1 238 238 238
-1 4 1 238 238 238
0 4 1 238 238 238
1 4 1 238 238 238
2 4 1 238 238 238
3 4 1 238 238 238
4 4 1 238 238 238
5 4 1 85 85 85
-5 5 1 85 85 85
-4 5 1 238 238 238
-3 5 1 238 238 238
-2 5 1 238 238 238
-1 5 1 238 238 238
0 5 1 238 238 238
1 5 1 238 238 238
2 5 1 238 238 238
3 5 1 238 238 238
4 5 1 85 85 85
-4 6 1 238 238 238
-3 6 1 238 238 238
-2 6 1 238 238 238
-1 6 1 85 85 85
0 6 1 85 85 85
1 6 1 238 238 238
2 6 1 238 238 238
3 6 1 238 238 238
-2 -6 2 85 85 85
-1 -6 2 85 85 85
0 -6 2 85 85 85
1 -6 2 85 85 85
-4 -5 2 85 85 85
-3 -5 2 85 85 85
-2 -5 2 85 85 85
-1 -5 2 85 85 85
0 -5 2 85 85 85
1 -5 2 85 85 85
2 -5 2 85 85 85
3 -5 2 85 85 85
-5 -4 2 85 85 85
-4 -4 2 85 85 85
-3 -4 2 85 85 85
-2 -4 2 85 85 85
-1 -4 2 85 85 85
0 -4 2 85 85 85
1 -4 2 85 85 85
2 -4 2 85 85 85
3 -4 2 85 85 85
4 -4 2 85 85 85
-5 -3 2 85 85 85
-4 -3 2 85 85 85
-3 -3 2 85 85 85
-2 -3 2 85 85 85
-1 -3 2 85 85 85
0 -3 2 85 85 85
1 -3 2 85 85 85
2 -3 2 85 85 85
3 -3 2 85 85 85
4 -3 2 85 85 85
-6 -2 2 85 85 85
-5 -2 2 85 85 85
-4 -2 2 85 85 85
-3 -2 2 85 85 85
-2 -2 2 85 85 85
-1 -2 2 85 85 85
0 -2 2 85 85 85
1 -2 2 85 85 85
2 -2 2 85 85 85
3 -2 2 85 85 85
4 -2 2 85 85 85
5 -2 2 85 85 85
-6 -1 2 85 85 85
-5 -1 2 85 85 85
-4 -1 2 85 85 85
-3 -1 2 85 85 85
-2 -1 2 85 85 85
-1 -1 2 85 85 85
0 -1 2 85 85 85
1 -1 2 85 85 85
2 -1 2 85 85 85
3 -1 2 85 85 85
4 -1 2 85 85 85
5 -1 2 85 85 85
-6 0 2 85 85 85
-5 0 2 85 85 85
-4 0 2 85 85 85
-3 0 2 85 85 85
-2 0 2 85 85 85
-1 0 2 85 85 85
0 0 2 85 85 85
1 0 2 85 85 85
2 0 2 85 85 85
3 0 2 85 85 85
4 0 2 85 85 85
5 0 2 85 85 85
-6 1 2 85 85 85
-5 1 2 85 85 85
-4 1 2 85 85 85
-3 1 2 85 85 85
-2 1 2 85 85 85
-1 1 2 85 85 85
0 1 2 85 85 85
1 1 2 85 85 85
2 1 2 85 85 85
3 1 2 85 85 85
4 1 2 85 85 85
5 1 2 85 85 85
-5 2 2 85 85 85
-4 2 2 85 85 85
-3 2 2 85 85 85
-2 2 2 85 85 85
-1 2 2 85 85 85
0 2 2 85 85 85
1 2 2 85 85 85
2 2 2 85 85 85
3 2 2 85 85 85
4 2 2 85 85 85
-5 3 2 85 85 85
-4 3 2 85 85 85
-3 3 2 85 85 85
-2 3 2 85 85 85
-1 3 2 85 85 85
0 3 2 85 85 85
1 3 2 85 85 85
2 3 2 85 85 85
3 3 2 85 85 85
4 3 2 85 85 85
-4 4 2 85 85 85
-3 4 2 85 85 85
-2 4 2 85 85 85
-1 4 2 85 85 85
0 4 2 85 85 85
1 4 2 85 85 85
2 4 2 85 85 85
3 4 2 85 85 85
-2 5 2 85 85 85
-1 5 2 85 85 85
0 5 2 85 85 85
1 5 2 85 85 85
-1 -4 3 85 85 85
0 -4 3 85 85 85
-2 -3 3 85 85 85
-1 -3 3 85 85 85
0 -3 3 85 85 85
1 -3 3 85 85 85
-3 -2 3 85 85 85
-2 -2 3 85 85 85
-1 -2 3 85 85 85
0 -2 3 85 85 85
1 -2 3 85 85 85
2 -2 3 85 85 85
-4 -1 3 85 85 85
-3 -1 3 85 85 85
-2 -1 3 85 85 85
-1 -1 3 85 85 85
0 -1 3 85 85 85
1 -1 3 85 85 85
2 -1 3 85 85 85
3 -1 3 85 85 85
-4 0 3 85 85 85
-3 0 3 85 85 85
-2 0 3 85 85 85
-1 0 3 85 85 85
0 0 3 85 85 85
1 0 3 85 85 85
2 0 3 85 85 85
3 0 3 85 85 85
-3 1 3 85 85 85
-2 1 3 85 85 85
-1 1 3 85 85 85
0 1 3 85 85 85
1 1 3 85 85 85
2 1 3 85 85 85
-2 2 3 85 85 85
-1 2 3 85 85 85
0 2 3 85 85 85
1 2 3 85 85 85
-1 3 3 85 85 85
0 3 3 85 85 85
-1 -4 4 85 85 85
0 -4 4 85 85 85
-2 -3 4 221 0 0
-1 -3 4 238 238 238
0 -3 4 238 238 238
1 -3 4 221 0 0
-3 -2 4 221 0 0
-2 -2 4 238 238 238
-1 -2 4 238 238 238
0 -2 4 238 238 238
1 -2 4 238 238 238
2 -2 4 221 0 0
-4 -1 4 85 85 85
-3 -1 4 238 238 238
-2 -1 4 238 238 238
-1 -1 4 238 238 238
0 -1 4 238 238 238
1 -1 4 238 238 238
2 -1 4 238 238 238
3 -1 4 85 85 85
-4 0 4 85 85 85
-3 0 4 238 238 238
-2 0 4 238 238 238
-1 0 4 238 238 238
0 0 4 238 238 238
1 0 4 238 238 238
2 0 4 238 238 238
3 0 4 85 85 85
-3 1 4 221 0 0
-2 1 4 238 238 238
-1 1 4 238 238 238
0 1 4 238 238 238
1 1 4 238 238 238
2 1 4 221 0 0
-2 2 4 221 0 0
-1 2 4 238 238 238
0 2 4 238 238 238
1 2 4 221 0 0
-1 3 4 85 85 85
0 3 4 85 85 85
-1 -4 5 34 0 0
0 -4 5 34 0 0
-2 -3 5 34 0 0
-1 -3 5 119 119 119
0 -3 5 119 119 119
1 -3 5 34 0 0
-3 -2 5 34 0 0
-2 -2 5 34 0 0
-1 -2 5 119 119 119
0 -2 5 119 119 119
1 -2 5 119 119 119
2 -2 5 34 0 0
-4 -1 5 34 0 0
-3 -1 5 119 119 119
-2 -1 5 119 119 119
-1 -1 5 119 119 119
0 -1 5 119 119 119
1 -1 5 119 119 119
2 -1 5 119 119 119
3 -1 5 34 0 0
-4 0 5 34 0 0
-3 0 5 119 119 119
-2 0 5 119 119 119
-1 0 5 119 119 119
0 0 5 119 119 119
1 0 5 119 119 119
2 0 5 119 119 119
3 0 5 34 0 0
-3 1 5 34 0 0
-2 1 5 119 119 119
-1 1 5 119 119 119
0 1 5 119 119 119
1 1 5 34 0 0
2 1 5 34 0 0
-2 2 5 34 0 0
-1 2 5 119 119 119
0 2 5 119 119 119
1 2 5 34 0 0
-1 3 5 34 0 0
0 3 5 34 0 0
-1 -3 6 119 119 119
0 -3 6 119 119 119
-2 -2 6 119 119 119
-1 -2 6 119 119 119
0 -2 6 119 119 119
1 -2 6 119 119 119
-3 -1 6 119 119 119
-2 -1 6 119 119 119
-1 -1 6 119 119 119
0 -1 6 119 119 119
1 -1 6 119 119 119
2 -1 6 119 119 119
-3 0 6 119 119 119
-2 0 6 119 119 119
-1 0 6 119 119 119
0 0 6 119 119 119
1 0 6 119 119 119
2 0 6 119 119 119
-2 1 6 119 119 119
-1 1 6 119 119 119
0 1 6 119 119 119
1 1 6 119 119 119
-1 2 6 119 119 119
0 2 6 119 119 119
-2 -1 7 119 119 119
1 -1 7 119 119 119
-2 0 7 119 119 119
1 0 7 119 119 119
-3 -1 8 119 119 119
-2 -1 8 119 119 119
1 -1 8 119 119 119
2 -1 8 119 119 119
-3 0 8 119 119 119
-2 0 8 119 119 119
1 0 8 119 119 119
2 0 8 119 119 119
-4 -1 9 119 119 119
-3 -1 9 119 119 119
2 -1 9 119 119 119
3 -1 9 119 119 119
-4 0 9 119 119 119
-3 0 9 119 119 119
2 0 9 119 119 119
3 0 9 119 119 119
-4 -1 10 119 119 119
-1 -1 10 238 238 238
0 -1 10 238 238 238
3 -1 10 119 119 119
-4 0 10 119 119 119
-1 0 10 238 238 238
0 0 10 238 238 238
3 0 10 119 119 119
-1 -4 11 85 85 85
0 -4 11 85 85 85
-1 -3 11 85 85 85
0 -3 11 85 85 85
-1 -2 11 238 238 238
0 -2 11 238 238 238
-4 -1 11 119 119 119
-2 -1 11 238 238 238
-1 -1 11 238 238 238
0 -1 11 238 238 238
1 -1 11 238 238 238
3 -1 11 119 119 119
-4 0 11 119 119 119
-2 0 11 238 238 238
-1 0 11 238 238 238
0 0 11 238 238 238
1 0 11 238 238 238
3 0 11 119 119 119
-1 1 11 238 238 238
0 1 11 238 238 238
-1 -8 12 221 0 0
0 -8 12 221 0 0
-1 -7 12 34 0 0
0 -7 12 34 0 0
-1 -6 12 34 0 0
0 -6 12 34 0 0
-1 -5 12 34 0 0
0 -5 12 34 0 0
-2 -4 12 85 85 85
-1 -4 12 238 238 238
0 -4 12 238 238 238
1 -4 12 85 85 85
-2 -3 12 85 85 85
-1 -3 12 238 238 238
0 -3 12 238 238 238
1 -3 12 85 85 85
-2 -2 12 238 238 238
-1 -2 12 238 238 238
0 -2 12 238 238 238
1 -2 12 238 238 238
-4 -1 12 85 85 85
-3 -1 12 238 238 238
-2 -1 12 238 238 238
-1 -1 12 238 238 238
0 -1 12 238 238 238
1 -1 12 238 238 238
2 -1 12 238 238 238
3 -1 12 85 85 85
-4 0 12 85 85 85
-3 0 12 238 238 238
-2 0 12 238 238 238
-1 0 12 238 238 238
0 0 12 238 238 238
1 0 12 238 238 238
2 0 12 238 238 238
3 0 12 85 85 85
-2 1 12 238 238 238
-1 1 12 238 238 238
0 1 12 238 238 238
1 1 12 238 238 238
-1 2 12 238 238 238
0 2 12 238 238 238
-1 -8 13 221 0 0
0 -8 13 221 0 0
-1 -7 13 34 0 0
0 -7 13 34 0 0
-1 -6 13 34 0 0
0 -6 13 34 0 0
-1 -5 13 34 0 0
0 -5 13 34 0 0
-2 -4 13 85 85 85
-1 -4 13 238 238 238
0 -4 13 238 238 238
1 -4 13 85 85 85
-2 -3 13 85 85 85
-1 -3 13 238 238 238
0 -3 13 238 238 238
1 -3 13 85 85 85
-2 -2 13 238 238 238
-1 -2 13 238 238 238
0 -2 13 238 238 238
1 -2 13 238 238 238
-4 -1 13 85 85 85
-3 -1 13 238 238 238
-2 -1 13 238 238 238
-1 -1 13 238 238 238
0 -1 13 238 238 238
1 -1 13 238 238 238
2 -1 13 238 238 238
3 -1 13 85 85 85
-4 0 13 85 85 85
-3 0 13 238 238 238
-2 0 13 238 238 238
-1 0 13 238 238 238
0 0 13 238 238 238
1 0 13 238 238 238
2 0 13 238 238 238
3 0 13 85 85 85
-2 1 13 238 238 238
-1 1 13 238 238 238
0 1 13 238 238 238
1 1 13 238 238 238
-1 2 13 238 238 238
0 2 13 238 238 238
-1 -4 14 85 85 85
0 -4 14 85 85 85
-1 -3 14 85 85 85
0 -3 14 85 85 85
-1 -2 14 238 238 238
0 -2 14 238 238 238
-2 -1 14 238 238 238
-1 -1 14 238 238 238
0 -1 14 238 238 238
1 -1 14 238 238 238
-4 0 14 34 0 0
-2 0 14 238 238 238
-1 0 14 238 238 238
0 0 14 238 238 238
1 0 14 238 238 238
3 0 14 34 0 0
-1 1 14 238 238 238
0 1 14 238 238 238
-1 -1 15 238 238 238
0 -1 15 238 238 238
-4 0 15 221 0 0
-1 0 15 238 238 238
0 0 15 238 238 238
3 0 15 221 0 0
