<?xml version="1.0" encoding="UTF-8" standalone="no"?>
<!-- Created with Inkscape (http://www.inkscape.org/) -->

<svg
   sodipodi:docname="UIWindow.svg"
   inkscape:version="1.3.2 (091e20e, 2023-11-25, custom)"
   xml:space="preserve"
   id="svg5"
   version="1.1"
   viewBox="0 0 100 100"
   height="100mm"
   width="100mm"
   inkscape:export-filename="UIWindowBody.png"
   inkscape:export-xdpi="520.19202"
   inkscape:export-ydpi="520.19202"
   xmlns:inkscape="http://www.inkscape.org/namespaces/inkscape"
   xmlns:sodipodi="http://sodipodi.sourceforge.net/DTD/sodipodi-0.dtd"
   xmlns="http://www.w3.org/2000/svg"
   xmlns:svg="http://www.w3.org/2000/svg"><sodipodi:namedview
     id="namedview7"
     pagecolor="#888888"
     bordercolor="#666666"
     borderopacity="1"
     inkscape:showpageshadow="2"
     inkscape:pageopacity="0.0"
     inkscape:pagecheckerboard="0"
     inkscape:deskcolor="#cccccc"
     inkscape:document-units="mm"
     showgrid="true"
     inkscape:zoom="1.4142136"
     inkscape:cx="231.93102"
     inkscape:cy="225.2135"
     inkscape:window-width="1680"
     inkscape:window-height="987"
     inkscape:window-x="-8"
     inkscape:window-y="145"
     inkscape:window-maximized="1"
     inkscape:current-layer="layer2"><inkscape:grid
       type="xygrid"
       id="grid25213"
       empspacing="5"
       enabled="true"
       visible="true"
       snapvisiblegridlinesonly="true"
       dotted="false"
       units="mm"
       spacingx="0.99999999"
       spacingy="0.99999999"
       originx="0"
       originy="0"
       color="#000000"
       opacity="0.10196078"
       empcolor="#000000"
       empopacity="0.25098039" /></sodipodi:namedview><defs
     id="defs2"><inkscape:path-effect
       effect="fillet_chamfer"
       id="path-effect45"
       is_visible="true"
       lpeversion="1"
       nodesatellites_param="F,0,0,1,0,0,0,1 @ F,0,0,1,0,1.4142146,0,1 @ F,0,1,1,0,1.4142146,0,1 @ F,0,0,1,0,0,0,1"
       radius="0"
       unit="px"
       method="auto"
       mode="F"
       chamfer_steps="1"
       flexible="false"
       use_knot_distance="true"
       apply_no_radius="true"
       apply_with_radius="true"
       only_selected="false"
       hide_knots="false" /><mask
       maskUnits="userSpaceOnUse"
       id="mask1"><path
         id="path2"
         style="display:inline;fill:#ffffff;fill-opacity:1;fill-rule:evenodd;stroke:none;stroke-width:1.61816;stroke-linejoin:round"
         d="M 88.205998,76.123681 C 60.6361,103.69358 14.686268,103.69358 5.496301,94.503608 -3.6936651,85.313642 -3.693668,39.363814 23.876231,11.793913 46.851147,-11.181003 65.231081,7.1989299 79.016032,20.98388 92.80098,34.76883 111.18091,53.148764 88.205998,76.123681 Z"
         sodipodi:nodetypes="sssss"
         inkscape:label="Berry" /></mask><mask
       maskUnits="userSpaceOnUse"
       id="mask3"><path
         id="path4"
         style="fill:#ffffff;fill-opacity:1;stroke:none;stroke-width:1.07034px;stroke-linecap:butt;stroke-linejoin:miter;stroke-opacity:1"
         inkscape:label="Leaf"
         d="m 53.507328,0 c -1.589133,0.0048432 -2.593605,0.49447336 -2.80448,1.5094686 -0.963999,4.639978 9.588431,10.6288484 13.799674,11.9315714 -4.639979,0.963999 -11.8262,2.636864 -11.162625,5.649268 0.663575,3.012402 9.219954,5.483823 14.793928,3.585827 -5.588976,3.750987 -10.304325,13.979978 -7.547343,16.736963 2.756985,2.756985 12.985978,-1.958366 16.736965,-7.547343 -1.897994,5.573975 0.57394,14.130872 3.586343,14.794447 3.0124,0.663575 4.684752,-6.523167 5.648751,-11.163144 1.302723,4.211246 7.292109,14.764192 11.932089,13.800191 4.32441,-0.898438 -0.894207,-16.203795 -12.482444,-29.741337 5.61154,-5.131049 8.857747,-4.51333 12.103137,-4.474145 1.022229,0.01234 1.857328,-0.91139 1.865003,-1.934766 l 0.04702,-6.2941892 C 100.03102,5.8294363 99.207817,5.0094584 98.185221,5.0627402 89.946475,5.492015 86.68508,7.8821426 80.47519,14.017749 70.106892,5.1332495 58.693857,-0.01580699 53.507328,0 Z" /></mask><mask
       maskUnits="userSpaceOnUse"
       id="mask2"><rect
         style="display:inline;fill:#ffffff;fill-opacity:1;fill-rule:evenodd;stroke-width:2;stroke-dasharray:4, 2.1408"
         id="rect3"
         width="100"
         height="100"
         x="0"
         y="0"
         rx="25"
         ry="25"
         inkscape:export-filename="UIWindowBody.png"
         inkscape:export-xdpi="520.19202"
         inkscape:export-ydpi="520.19202"
         inkscape:label="Body" /></mask><mask
       maskUnits="userSpaceOnUse"
       id="mask4"><path
         id="path5"
         mask="none"
         style="display:inline;fill:#ffffff;fill-opacity:1;fill-rule:evenodd;stroke-width:6.00001"
         d="M 25,0 H 75.000001 C 88.849999,0 100,10.062875 100,22.5625 V 95 H 0 V 22.5625 C 0,10.062875 11.15,0 25,0 Z"
         sodipodi:nodetypes="sssccss"
         inkscape:label="Headder"
         inkscape:export-filename="UIWindowHeadder.png"
         inkscape:export-xdpi="520.19202"
         inkscape:export-ydpi="520.19202" /></mask></defs><g
     inkscape:groupmode="layer"
     id="layer2"
     inkscape:label="Body"
     style="display:inline"><rect
       style="display:inline;fill:#fddfea;fill-opacity:1;fill-rule:evenodd;stroke:#e06586;stroke-width:5;stroke-dasharray:none;stroke-opacity:1"
       id="rect5"
       width="100"
       height="100"
       x="0"
       y="0"
       rx="25"
       ry="25"
       inkscape:export-filename="UIWindowBody.png"
       inkscape:export-xdpi="520.19202"
       inkscape:export-ydpi="520.19202"
       inkscape:label="Body"
       mask="url(#mask2)" /></g><g
     inkscape:groupmode="layer"
     id="layer1"
     inkscape:label="Headder"
     style="display:none"><rect
       style="display:inline;fill:#e06586;fill-opacity:1;fill-rule:evenodd;stroke:none;stroke-width:6.00001"
       id="rect2"
       width="100"
       height="5"
       x="0"
       y="95"
       inkscape:label="Divider" /><path
       id="rect4"
       mask="url(#mask4)"
       style="display:inline;fill:#fbd0de;fill-opacity:1;fill-rule:evenodd;stroke:#e06586;stroke-width:6;stroke-opacity:1"
       d="m 25,0 h 50 c 13.85,0 25,10.062875 25,22.5625 V 95.000001 H 0 V 22.5625 C 0,10.062875 11.15,0 25,0 Z"
       sodipodi:nodetypes="sssccss"
       inkscape:label="Headder"
       inkscape:export-filename="UIWindowHeadder.png"
       inkscape:export-xdpi="520.19202"
       inkscape:export-ydpi="520.19202" /></g></svg>
