ply
format ascii 1.0
comment : MagicaVoxel @ Ephtracy
element vertex 397
property float x
property float y
property float z
property uchar red
property uchar green
property uchar blue
end_header
-4 -6 0 241 244 230
-3 -6 0 241 244 230
-2 -6 0 241 244 230
-1 -6 0 241 244 230
0 -6 0 241 244 230
1 -6 0 241 244 230
2 -6 0 241 244 230
3 -6 0 241 244 230
-4 -5 0 241 244 230
3 -5 0 241 244 230
-6 -4 0 228 231 218
-4 -4 0 241 244 230
3 -4 0 241 244 230
5 -4 0 228 231 218
-4 -3 0 241 244 230
3 -3 0 241 244 230
-6 -2 0 228 231 218
-4 -2 0 241 244 230
3 -2 0 241 244 230
5 -2 0 228 231 218
-4 -1 0 241 244 230
3 -1 0 241 244 230
-4 0 0 241 244 230
0 0 0 241 244 230
1 0 0 241 244 230
2 0 0 241 244 230
3 0 0 241 244 230
-4 1 0 241 244 230
0 1 0 241 244 230
1 1 0 198 147 70
2 1 0 198 147 70
3 1 0 198 147 70
4 1 0 151 112 58
5 1 0 198 147 70
-4 2 0 241 244 230
0 2 0 241 244 230
1 2 0 198 147 70
2 2 0 198 147 70
3 2 0 151 112 58
4 2 0 198 147 70
-4 3 0 241 244 230
0 3 0 241 244 230
1 3 0 135 138 130
3 3 0 135 138 130
-4 4 0 241 244 230
-3 4 0 241 244 230
-2 4 0 54 54 54
-1 4 0 241 244 230
0 4 0 241 244 230
-3 5 0 241 244 230
-1 5 0 241 244 230
-4 6 0 80 58 33
-5 7 0 57 38 19
-4 7 0 57 38 19
-4 -6 1 241 244 230
-3 -6 1 228 231 218
-2 -6 1 228 231 218
-1 -6 1 228 231 218
0 -6 1 228 231 218
1 -6 1 228 231 218
2 -6 1 228 231 218
3 -6 1 241 244 230
-4 -5 1 228 231 218
3 -5 1 228 231 218
-7 -4 1 86 86 86
-6 -4 1 54 54 54
-5 -4 1 86 86 86
-4 -4 1 54 54 54
3 -4 1 54 54 54
4 -4 1 86 86 86
5 -4 1 54 54 54
6 -4 1 86 86 86
-7 -3 1 86 86 86
-6 -3 1 54 54 54
-5 -3 1 86 86 86
-4 -3 1 54 54 54
3 -3 1 54 54 54
4 -3 1 86 86 86
5 -3 1 54 54 54
6 -3 1 86 86 86
-7 -2 1 86 86 86
-6 -2 1 54 54 54
-5 -2 1 86 86 86
-4 -2 1 54 54 54
3 -2 1 54 54 54
4 -2 1 86 86 86
5 -2 1 54 54 54
6 -2 1 86 86 86
-4 -1 1 228 231 218
3 -1 1 228 231 218
-4 0 1 241 244 230
0 0 1 228 231 218
1 0 1 228 231 218
2 0 1 228 231 218
3 0 1 241 244 230
-4 1 1 228 231 218
0 1 1 228 231 218
1 1 1 198 147 70
2 1 1 151 112 58
3 1 1 198 147 70
-5 2 1 56 139 48
-4 2 1 163 240 245
0 2 1 228 231 218
-4 3 1 228 231 218
0 3 1 228 231 218
1 3 1 197 200 189
3 3 1 197 200 189
-4 4 1 241 244 230
-3 4 1 228 231 218
-2 4 1 54 54 54
-1 4 1 228 231 218
0 4 1 241 244 230
-3 5 1 241 244 230
-1 5 1 241 244 230
-4 -6 2 241 244 230
-3 -6 2 228 231 218
-2 -6 2 228 231 218
-1 -6 2 228 231 218
0 -6 2 228 231 218
1 -6 2 228 231 218
2 -6 2 228 231 218
3 -6 2 241 244 230
-4 -5 2 228 231 218
3 -5 2 228 231 218
-3 -4 2 54 54 54
2 -4 2 54 54 54
-6 -3 2 198 147 70
-5 -3 2 151 112 58
-4 -3 2 151 112 58
-3 -3 2 54 54 54
2 -3 2 54 54 54
3 -3 2 80 58 33
4 -3 2 151 112 58
5 -3 2 80 58 33
-3 -2 2 54 54 54
2 -2 2 54 54 54
-4 -1 2 228 231 218
3 -1 2 228 231 218
-4 0 2 241 244 230
0 0 2 228 231 218
1 0 2 228 231 218
2 0 2 228 231 218
3 0 2 241 244 230
-4 1 2 228 231 218
0 1 2 228 231 218
-4 2 2 163 240 245
0 2 2 228 231 218
-4 3 2 228 231 218
0 3 2 228 231 218
-4 4 2 241 244 230
-3 4 2 228 231 218
-2 4 2 228 231 218
-1 4 2 228 231 218
0 4 2 241 244 230
-3 5 2 241 244 230
-2 5 2 241 244 230
-1 5 2 241 244 230
-4 -6 3 241 244 230
-3 -6 3 228 231 218
-2 -6 3 228 231 218
-1 -6 3 228 231 218
0 -6 3 228 231 218
1 -6 3 228 231 218
2 -6 3 228 231 218
3 -6 3 241 244 230
-4 -5 3 228 231 218
3 -5 3 228 231 218
-3 -4 3 54 54 54
2 -4 3 54 54 54
-3 -3 3 54 54 54
2 -3 3 54 54 54
-3 -2 3 54 54 54
2 -2 3 54 54 54
-4 -1 3 228 231 218
3 -1 3 228 231 218
-4 0 3 241 244 230
0 0 3 228 231 218
1 0 3 228 231 218
2 0 3 228 231 218
3 0 3 241 244 230
-4 1 3 228 231 218
0 1 3 228 231 218
-5 2 3 241 244 230
-4 2 3 228 231 218
0 2 3 228 231 218
-4 3 3 228 231 218
0 3 3 228 231 218
-4 4 3 241 244 230
-3 4 3 228 231 218
-2 4 3 228 231 218
-1 4 3 228 231 218
0 4 3 241 244 230
-4 -6 4 241 244 230
-3 -6 4 228 231 218
-2 -6 4 228 231 218
-1 -6 4 228 231 218
0 -6 4 228 231 218
1 -6 4 228 231 218
2 -6 4 228 231 218
3 -6 4 241 244 230
-4 -5 4 228 231 218
3 -5 4 228 231 218
-3 -4 4 54 54 54
2 -4 4 54 54 54
-3 -3 4 54 54 54
2 -3 4 54 54 54
-3 -2 4 54 54 54
2 -2 4 54 54 54
-4 -1 4 228 231 218
3 -1 4 228 231 218
-4 0 4 241 244 230
0 0 4 228 231 218
1 0 4 228 231 218
2 0 4 228 231 218
3 0 4 241 244 230
-4 1 4 241 244 230
0 1 4 241 244 230
-4 2 4 241 244 230
0 2 4 241 244 230
-4 3 4 241 244 230
0 3 4 241 244 230
-4 4 4 241 244 230
-3 4 4 241 244 230
-2 4 4 241 244 230
-1 4 4 241 244 230
0 4 4 241 244 230
-4 -6 5 241 244 230
-3 -6 5 228 231 218
-2 -6 5 163 240 245
-1 -6 5 228 231 218
0 -6 5 228 231 218
1 -6 5 163 240 245
2 -6 5 228 231 218
3 -6 5 241 244 230
-4 -5 5 228 231 218
3 -5 5 228 231 218
-4 -4 5 228 231 218
3 -4 5 228 231 218
-4 -3 5 228 231 218
3 -3 5 228 231 218
-4 -2 5 228 231 218
3 -2 5 228 231 218
-4 -1 5 228 231 218
3 -1 5 228 231 218
-4 0 5 241 244 230
0 0 5 228 231 218
1 0 5 228 231 218
2 0 5 228 231 218
3 0 5 241 244 230
-4 1 5 228 231 218
0 1 5 228 231 218
-5 2 5 92 206 44
-4 2 5 163 240 245
0 2 5 163 240 245
1 2 5 92 206 44
-4 3 5 228 231 218
0 3 5 228 231 218
-4 4 5 241 244 230
-3 4 5 228 231 218
-2 4 5 163 240 245
-1 4 5 228 231 218
0 4 5 241 244 230
-2 5 5 56 139 48
-2 -7 6 241 244 230
1 -7 6 241 244 230
-4 -6 6 241 244 230
-3 -6 6 228 231 218
-2 -6 6 228 231 218
-1 -6 6 228 231 218
0 -6 6 228 231 218
1 -6 6 228 231 218
2 -6 6 228 231 218
3 -6 6 241 244 230
-4 -5 6 228 231 218
3 -5 6 228 231 218
-4 -4 6 228 231 218
3 -4 6 228 231 218
-4 -3 6 228 231 218
3 -3 6 228 231 218
-4 -2 6 228 231 218
3 -2 6 228 231 218
-4 -1 6 228 231 218
3 -1 6 228 231 218
-4 0 6 241 244 230
0 0 6 228 231 218
1 0 6 228 231 218
2 0 6 228 231 218
3 0 6 241 244 230
-4 1 6 228 231 218
0 1 6 228 231 218
-4 2 6 163 240 245
0 2 6 163 240 245
-4 3 6 228 231 218
0 3 6 228 231 218
-4 4 6 241 244 230
-3 4 6 228 231 218
-2 4 6 163 240 245
-1 4 6 228 231 218
0 4 6 241 244 230
-4 -6 7 241 244 230
-3 -6 7 241 244 230
-2 -6 7 241 244 230
-1 -6 7 241 244 230
0 -6 7 241 244 230
1 -6 7 241 244 230
2 -6 7 241 244 230
3 -6 7 241 244 230
-4 -5 7 241 244 230
-3 -5 7 241 244 230
-2 -5 7 241 244 230
-1 -5 7 241 244 230
0 -5 7 241 244 230
1 -5 7 241 244 230
2 -5 7 241 244 230
3 -5 7 241 244 230
-4 -4 7 241 244 230
-3 -4 7 241 244 230
-2 -4 7 241 244 230
-1 -4 7 241 244 230
0 -4 7 241 244 230
1 -4 7 241 244 230
2 -4 7 241 244 230
3 -4 7 241 244 230
-4 -3 7 241 244 230
-3 -3 7 241 244 230
-2 -3 7 241 244 230
-1 -3 7 241 244 230
0 -3 7 241 244 230
1 -3 7 241 244 230
2 -3 7 241 244 230
3 -3 7 241 244 230
-4 -2 7 241 244 230
-3 -2 7 241 244 230
-2 -2 7 241 244 230
-1 -2 7 241 244 230
0 -2 7 241 244 230
1 -2 7 241 244 230
2 -2 7 241 244 230
3 -2 7 241 244 230
-4 -1 7 241 244 230
-3 -1 7 241 244 230
-2 -1 7 241 244 230
-1 -1 7 241 244 230
0 -1 7 241 244 230
1 -1 7 241 244 230
2 -1 7 241 244 230
3 -1 7 241 244 230
-4 0 7 241 244 230
0 0 7 241 244 230
1 0 7 241 244 230
2 0 7 241 244 230
3 0 7 241 244 230
-4 1 7 228 231 218
-3 1 7 241 244 230
-2 1 7 241 244 230
-1 1 7 241 244 230
0 1 7 228 231 218
-5 2 7 241 244 230
-4 2 7 228 231 218
-3 2 7 241 244 230
-2 2 7 241 244 230
-1 2 7 241 244 230
0 2 7 228 231 218
1 2 7 241 244 230
-4 3 7 228 231 218
-3 3 7 241 244 230
-2 3 7 241 244 230
-1 3 7 241 244 230
0 3 7 228 231 218
-4 4 7 241 244 230
-3 4 7 228 231 218
-2 4 7 228 231 218
-1 4 7 228 231 218
0 4 7 241 244 230
-2 5 7 241 244 230
-4 0 8 241 244 230
-3 0 8 241 244 230
-2 0 8 241 244 230
-1 0 8 241 244 230
0 0 8 241 244 230
-4 1 8 241 244 230
-3 1 8 56 139 48
0 1 8 241 244 230
-4 2 8 241 244 230
-3 2 8 92 206 44
0 2 8 241 244 230
-4 3 8 241 244 230
-1 3 8 56 139 48
0 3 8 241 244 230
-4 4 8 241 244 230
-3 4 8 241 244 230
-2 4 8 241 244 230
-1 4 8 241 244 230
0 4 8 241 244 230
-3 1 9 56 139 48
-1 3 9 92 206 44
-3 1 10 92 206 44
