ply
format ascii 1.0
comment : MagicaVoxel @ Ephtracy
element vertex 286
property float x
property float y
property float z
property uchar red
property uchar green
property uchar blue
end_header
-7 -7 0 136 65 46
-5 -7 0 136 65 46
-2 -7 0 136 65 46
1 -7 0 136 65 46
4 -7 0 136 65 46
6 -7 0 136 65 46
-7 -6 0 136 65 46
-1 -6 0 243 121 21
0 -6 0 243 121 21
4 -6 0 243 121 21
5 -6 0 243 121 21
6 -6 0 136 65 46
-6 -5 0 243 121 21
-2 -5 0 136 65 46
-1 -5 0 243 121 21
0 -5 0 243 121 21
5 -5 0 243 121 21
-6 -4 0 243 121 21
-4 -4 0 136 65 46
-3 -4 0 136 65 46
-2 -4 0 136 65 46
-1 -4 0 243 121 21
0 -4 0 243 121 21
1 -4 0 197 200 189
3 -4 0 197 200 189
5 -4 0 243 121 21
-6 -3 0 243 121 21
-4 -3 0 136 65 46
-3 -3 0 136 65 46
-2 -3 0 136 65 46
5 -3 0 243 121 21
-7 -2 0 136 65 46
-6 -2 0 243 121 21
-4 -2 0 136 65 46
-3 -2 0 136 65 46
-2 -2 0 136 65 46
4 -2 0 243 121 21
5 -2 0 243 121 21
6 -2 0 136 65 46
-4 -1 0 136 65 46
-2 -1 0 136 65 46
1 -1 0 197 200 189
3 -1 0 197 200 189
-7 1 0 136 65 46
4 1 0 136 65 46
5 1 0 136 65 46
6 1 0 136 65 46
-6 2 0 136 65 46
-5 2 0 136 65 46
4 2 0 136 65 46
5 2 0 76 181 223
-6 3 0 243 121 21
-5 3 0 136 65 46
4 3 0 136 65 46
5 3 0 76 181 223
-6 4 0 243 121 21
-5 4 0 136 65 46
4 4 0 136 65 46
5 4 0 76 181 223
-7 5 0 136 65 46
-6 5 0 136 65 46
-5 5 0 136 65 46
4 5 0 136 65 46
5 5 0 136 65 46
6 5 0 136 65 46
-5 6 0 136 65 46
-2 6 0 136 65 46
1 6 0 136 65 46
4 6 0 136 65 46
-7 -7 1 136 65 46
-6 -7 1 136 65 46
-5 -7 1 136 65 46
-4 -7 1 136 65 46
-3 -7 1 136 65 46
-2 -7 1 136 65 46
-1 -7 1 136 65 46
0 -7 1 136 65 46
1 -7 1 136 65 46
2 -7 1 136 65 46
3 -7 1 136 65 46
4 -7 1 136 65 46
5 -7 1 136 65 46
6 -7 1 136 65 46
-7 -6 1 136 65 46
4 -6 1 243 121 21
5 -6 1 243 121 21
6 -6 1 136 65 46
-7 -5 1 136 65 46
0 -5 1 243 121 21
5 -5 1 243 121 21
6 -5 1 136 65 46
-7 -4 1 136 65 46
-4 -4 1 136 65 46
-3 -4 1 136 65 46
-2 -4 1 136 65 46
-1 -4 1 243 121 21
1 -4 1 54 54 54
2 -4 1 197 200 189
3 -4 1 197 200 189
6 -4 1 136 65 46
-7 -3 1 136 65 46
-6 -3 1 243 121 21
-4 -3 1 136 65 46
-3 -3 1 136 65 46
-2 -3 1 136 65 46
1 -3 1 197 200 189
2 -3 1 197 200 189
3 -3 1 197 200 189
5 -3 1 243 121 21
6 -3 1 136 65 46
-7 -2 1 136 65 46
-6 -2 1 243 121 21
-4 -2 1 136 65 46
-3 -2 1 136 65 46
-2 -2 1 136 65 46
1 -2 1 197 200 189
2 -2 1 197 200 189
3 -2 1 54 54 54
6 -2 1 136 65 46
-7 -1 1 136 65 46
-3 -1 1 198 147 70
1 -1 1 54 54 54
2 -1 1 197 200 189
3 -1 1 197 200 189
6 -1 1 136 65 46
-7 0 1 136 65 46
6 0 1 136 65 46
-7 1 1 136 65 46
4 1 1 136 65 46
5 1 1 136 65 46
6 1 1 136 65 46
-7 2 1 136 65 46
-6 2 1 136 65 46
-5 2 1 136 65 46
4 2 1 136 65 46
5 2 1 76 181 223
6 2 1 136 65 46
-7 3 1 136 65 46
-6 3 1 136 65 46
-5 3 1 243 121 21
4 3 1 136 65 46
5 3 1 76 181 223
6 3 1 136 65 46
-7 4 1 136 65 46
-6 4 1 136 65 46
-5 4 1 243 121 21
4 4 1 136 65 46
5 4 1 76 181 223
6 4 1 136 65 46
-7 5 1 136 65 46
-6 5 1 136 65 46
-5 5 1 136 65 46
4 5 1 136 65 46
5 5 1 136 65 46
6 5 1 136 65 46
-7 6 1 136 65 46
-6 6 1 136 65 46
-5 6 1 136 65 46
-4 6 1 136 65 46
-3 6 1 136 65 46
-2 6 1 136 65 46
-1 6 1 136 65 46
0 6 1 136 65 46
1 6 1 136 65 46
2 6 1 136 65 46
3 6 1 136 65 46
4 6 1 136 65 46
5 6 1 136 65 46
6 6 1 136 65 46
-7 -7 2 136 65 46
-5 -7 2 136 65 46
-2 -7 2 136 65 46
1 -7 2 136 65 46
4 -7 2 136 65 46
6 -7 2 136 65 46
6 -6 2 136 65 46
1 -4 2 54 54 54
2 -4 2 197 200 189
3 -4 2 197 200 189
1 -3 2 197 200 189
2 -3 2 197 200 189
3 -3 2 54 54 54
-7 -2 2 136 65 46
1 -2 2 54 54 54
2 -2 2 197 200 189
3 -2 2 54 54 54
6 -2 2 136 65 46
1 -1 2 197 200 189
2 -1 2 197 200 189
3 -1 2 197 200 189
-7 1 2 136 65 46
6 1 2 136 65 46
-7 5 2 136 65 46
6 5 2 136 65 46
-2 6 2 136 65 46
1 6 2 136 65 46
-7 -7 3 136 65 46
-6 -7 3 136 65 46
-5 -7 3 136 65 46
-4 -7 3 136 65 46
-3 -7 3 136 65 46
-2 -7 3 136 65 46
-1 -7 3 136 65 46
0 -7 3 136 65 46
1 -7 3 136 65 46
2 -7 3 136 65 46
3 -7 3 136 65 46
4 -7 3 136 65 46
5 -7 3 136 65 46
6 -7 3 136 65 46
6 -6 3 136 65 46
-7 -2 3 136 65 46
6 -2 3 136 65 46
2 0 3 197 200 189
-7 -7 4 136 65 46
-6 -7 4 136 65 46
-5 -7 4 136 65 46
-4 -7 4 136 65 46
-3 -7 4 136 65 46
-2 -7 4 136 65 46
-1 -7 4 136 65 46
0 -7 4 136 65 46
1 -7 4 136 65 46
2 -7 4 136 65 46
3 -7 4 136 65 46
4 -7 4 136 65 46
5 -7 4 136 65 46
6 -7 4 136 65 46
-7 -6 4 136 65 46
-6 -6 4 136 65 46
-5 -6 4 136 65 46
-4 -6 4 136 65 46
-3 -6 4 136 65 46
-2 -6 4 136 65 46
-1 -6 4 136 65 46
0 -6 4 136 65 46
1 -6 4 136 65 46
2 -6 4 136 65 46
3 -6 4 136 65 46
4 -6 4 136 65 46
5 -6 4 136 65 46
6 -6 4 136 65 46
-7 -5 4 136 65 46
-6 -5 4 136 65 46
-5 -5 4 136 65 46
-4 -5 4 136 65 46
-3 -5 4 136 65 46
-2 -5 4 136 65 46
-1 -5 4 136 65 46
0 -5 4 136 65 46
1 -5 4 136 65 46
2 -5 4 136 65 46
3 -5 4 136 65 46
4 -5 4 136 65 46
5 -5 4 136 65 46
6 -5 4 136 65 46
-7 -4 4 136 65 46
-6 -4 4 136 65 46
-5 -4 4 136 65 46
-4 -4 4 136 65 46
-3 -4 4 136 65 46
-2 -4 4 136 65 46
-1 -4 4 136 65 46
0 -4 4 136 65 46
1 -4 4 136 65 46
2 -4 4 136 65 46
3 -4 4 136 65 46
4 -4 4 136 65 46
5 -4 4 136 65 46
6 -4 4 136 65 46
-7 -3 4 136 65 46
-6 -3 4 136 65 46
-5 -3 4 136 65 46
-4 -3 4 136 65 46
-3 -3 4 136 65 46
-2 -3 4 136 65 46
-1 -3 4 136 65 46
0 -3 4 136 65 46
1 -3 4 136 65 46
2 -3 4 136 65 46
3 -3 4 136 65 46
4 -3 4 136 65 46
5 -3 4 136 65 46
6 -3 4 136 65 46
-7 -2 4 136 65 46
6 -2 4 136 65 46
