ply
format ascii 1.0
comment : MagicaVoxel @ Ephtracy
element vertex 835
property float x
property float y
property float z
property uchar red
property uchar green
property uchar blue
end_header
-5 -6 0 57 38 19
-4 -6 0 135 138 130
-3 -6 0 135 138 130
-2 -6 0 57 38 19
-1 -6 0 135 138 130
0 -6 0 135 138 130
1 -6 0 57 38 19
2 -6 0 135 138 130
3 -6 0 135 138 130
4 -6 0 57 38 19
-5 -5 0 135 138 130
4 -5 0 135 138 130
-5 -4 0 135 138 130
4 -4 0 135 138 130
-5 -3 0 57 38 19
4 -3 0 57 38 19
-5 -2 0 135 138 130
4 -2 0 135 138 130
-5 -1 0 135 138 130
4 -1 0 135 138 130
-5 0 0 135 138 130
4 0 0 135 138 130
-5 1 0 57 38 19
4 1 0 135 138 130
-5 2 0 135 138 130
4 2 0 57 38 19
-5 3 0 135 138 130
4 3 0 135 138 130
-5 4 0 135 138 130
4 4 0 135 138 130
-5 5 0 57 38 19
-4 5 0 135 138 130
-3 5 0 135 138 130
-2 5 0 135 138 130
-1 5 0 80 58 33
0 5 0 80 58 33
1 5 0 135 138 130
2 5 0 135 138 130
3 5 0 135 138 130
4 5 0 57 38 19
-2 6 0 57 38 19
1 6 0 57 38 19
-5 -6 1 57 38 19
-4 -6 1 135 138 130
-3 -6 1 135 138 130
-2 -6 1 57 38 19
-1 -6 1 135 138 130
0 -6 1 135 138 130
1 -6 1 57 38 19
2 -6 1 135 138 130
3 -6 1 135 138 130
4 -6 1 57 38 19
-5 -5 1 135 138 130
4 -5 1 135 138 130
-5 -4 1 135 138 130
4 -4 1 135 138 130
-5 -3 1 57 38 19
4 -3 1 57 38 19
-5 -2 1 135 138 130
4 -2 1 135 138 130
-5 -1 1 135 138 130
4 -1 1 135 138 130
-5 0 1 135 138 130
4 0 1 135 138 130
-5 1 1 57 38 19
4 1 1 135 138 130
-5 2 1 135 138 130
4 2 1 57 38 19
-5 3 1 135 138 130
4 3 1 135 138 130
-5 4 1 135 138 130
4 4 1 135 138 130
-5 5 1 57 38 19
-4 5 1 135 138 130
-3 5 1 135 138 130
-2 5 1 135 138 130
-1 5 1 80 58 33
0 5 1 80 58 33
1 5 1 135 138 130
2 5 1 135 138 130
3 5 1 135 138 130
4 5 1 57 38 19
-2 6 1 57 38 19
1 6 1 57 38 19
-5 -6 2 57 38 19
-4 -6 2 57 38 19
-3 -6 2 57 38 19
-2 -6 2 57 38 19
-1 -6 2 57 38 19
0 -6 2 57 38 19
1 -6 2 57 38 19
2 -6 2 57 38 19
3 -6 2 57 38 19
4 -6 2 57 38 19
-5 -5 2 57 38 19
4 -5 2 57 38 19
-5 -4 2 57 38 19
4 -4 2 57 38 19
-5 -3 2 57 38 19
4 -3 2 57 38 19
-5 -2 2 57 38 19
4 -2 2 57 38 19
-5 -1 2 57 38 19
4 -1 2 57 38 19
-5 0 2 57 38 19
4 0 2 57 38 19
-5 1 2 57 38 19
4 1 2 57 38 19
-5 2 2 57 38 19
4 2 2 57 38 19
-5 3 2 57 38 19
4 3 2 57 38 19
-5 4 2 57 38 19
4 4 2 57 38 19
-5 5 2 57 38 19
-4 5 2 57 38 19
-3 5 2 57 38 19
-2 5 2 135 138 130
-1 5 2 80 58 33
0 5 2 80 58 33
1 5 2 135 138 130
2 5 2 57 38 19
3 5 2 57 38 19
4 5 2 57 38 19
-2 6 2 57 38 19
1 6 2 57 38 19
-5 -6 3 57 38 19
-4 -6 3 135 138 130
-3 -6 3 135 138 130
-2 -6 3 57 38 19
-1 -6 3 136 65 46
0 -6 3 136 65 46
1 -6 3 57 38 19
2 -6 3 135 138 130
3 -6 3 135 138 130
4 -6 3 57 38 19
-5 -5 3 135 138 130
4 -5 3 135 138 130
-5 -4 3 135 138 130
4 -4 3 135 138 130
-5 -3 3 57 38 19
4 -3 3 57 38 19
-5 -2 3 135 138 130
4 -2 3 135 138 130
-5 -1 3 135 138 130
4 -1 3 136 65 46
-5 0 3 135 138 130
4 0 3 136 65 46
-5 1 3 57 38 19
4 1 3 135 138 130
-5 2 3 135 138 130
4 2 3 57 38 19
-5 3 3 135 138 130
4 3 3 135 138 130
-5 4 3 135 138 130
4 4 3 135 138 130
-5 5 3 57 38 19
-4 5 3 135 138 130
-3 5 3 135 138 130
-2 5 3 135 138 130
-1 5 3 80 58 33
0 5 3 80 58 33
1 5 3 135 138 130
2 5 3 135 138 130
3 5 3 135 138 130
4 5 3 57 38 19
-3 6 3 136 65 46
-2 6 3 136 65 46
1 6 3 136 65 46
2 6 3 136 65 46
-5 -6 4 57 38 19
-4 -6 4 135 138 130
-3 -6 4 135 138 130
-2 -6 4 57 38 19
-1 -6 4 136 65 46
0 -6 4 136 65 46
1 -6 4 57 38 19
2 -6 4 135 138 130
3 -6 4 135 138 130
4 -6 4 57 38 19
-5 -5 4 135 138 130
4 -5 4 135 138 130
-5 -4 4 135 138 130
4 -4 4 135 138 130
-5 -3 4 57 38 19
4 -3 4 57 38 19
-5 -2 4 135 138 130
4 -2 4 135 138 130
-5 -1 4 135 138 130
4 -1 4 136 65 46
-5 0 4 135 138 130
4 0 4 136 65 46
-5 1 4 57 38 19
4 1 4 135 138 130
-5 2 4 135 138 130
4 2 4 57 38 19
-5 3 4 135 138 130
4 3 4 135 138 130
-5 4 4 135 138 130
4 4 4 135 138 130
-5 5 4 57 38 19
-4 5 4 135 138 130
-3 5 4 135 138 130
-2 5 4 135 138 130
-1 5 4 135 138 130
0 5 4 135 138 130
1 5 4 135 138 130
2 5 4 135 138 130
3 5 4 135 138 130
4 5 4 57 38 19
-2 6 4 136 65 46
-1 6 4 136 65 46
0 6 4 136 65 46
1 6 4 136 65 46
-5 -6 5 57 38 19
-4 -6 5 135 138 130
-3 -6 5 135 138 130
-2 -6 5 57 38 19
-1 -6 5 135 138 130
0 -6 5 135 138 130
1 -6 5 57 38 19
2 -6 5 135 138 130
3 -6 5 135 138 130
4 -6 5 57 38 19
-5 -5 5 135 138 130
4 -5 5 135 138 130
-5 -4 5 135 138 130
4 -4 5 135 138 130
-6 -3 5 57 38 19
-5 -3 5 135 138 130
4 -3 5 57 38 19
-6 -2 5 57 38 19
-5 -2 5 135 138 130
4 -2 5 135 138 130
-6 -1 5 57 38 19
4 -1 5 135 138 130
-6 0 5 57 38 19
4 0 5 135 138 130
-6 1 5 57 38 19
4 1 5 135 138 130
-5 2 5 135 138 130
4 2 5 57 38 19
-5 3 5 135 138 130
4 3 5 135 138 130
-5 4 5 135 138 130
4 4 5 135 138 130
-5 5 5 57 38 19
-4 5 5 135 138 130
-3 5 5 135 138 130
-2 5 5 57 38 19
-1 5 5 135 138 130
0 5 5 135 138 130
1 5 5 57 38 19
2 5 5 135 138 130
3 5 5 135 138 130
4 5 5 57 38 19
-1 6 5 136 65 46
0 6 5 136 65 46
-5 -6 6 57 38 19
-4 -6 6 57 38 19
-3 -6 6 57 38 19
-2 -6 6 57 38 19
-1 -6 6 57 38 19
0 -6 6 57 38 19
1 -6 6 57 38 19
2 -6 6 57 38 19
3 -6 6 57 38 19
4 -6 6 57 38 19
-5 -5 6 57 38 19
4 -5 6 57 38 19
-5 -4 6 57 38 19
4 -4 6 57 38 19
-7 -3 6 57 38 19
-6 -3 6 57 38 19
-5 -3 6 57 38 19
4 -3 6 57 38 19
-7 -2 6 135 138 130
-6 -2 6 135 138 130
-5 -2 6 135 138 130
4 -2 6 57 38 19
-7 -1 6 135 138 130
4 -1 6 57 38 19
-7 0 6 135 138 130
4 0 6 57 38 19
-7 1 6 57 38 19
-6 1 6 57 38 19
4 1 6 57 38 19
-5 2 6 57 38 19
4 2 6 57 38 19
-5 3 6 57 38 19
4 3 6 57 38 19
-5 4 6 57 38 19
4 4 6 57 38 19
-5 5 6 57 38 19
-4 5 6 57 38 19
-3 5 6 57 38 19
-2 5 6 57 38 19
-1 5 6 57 38 19
0 5 6 57 38 19
1 5 6 57 38 19
2 5 6 57 38 19
3 5 6 57 38 19
4 5 6 57 38 19
-5 -6 7 57 38 19
-4 -6 7 135 138 130
-3 -6 7 135 138 130
-2 -6 7 57 38 19
-1 -6 7 135 138 130
0 -6 7 135 138 130
1 -6 7 57 38 19
2 -6 7 135 138 130
3 -6 7 135 138 130
4 -6 7 57 38 19
-5 -5 7 135 138 130
4 -5 7 135 138 130
-5 -4 7 135 138 130
4 -4 7 135 138 130
-7 -3 7 57 38 19
-6 -3 7 135 138 130
-5 -3 7 135 138 130
4 -3 7 57 38 19
-7 -2 7 135 138 130
-6 -2 7 135 138 130
-5 -2 7 135 138 130
4 -2 7 135 138 130
-7 -1 7 135 138 130
4 -1 7 135 138 130
-7 0 7 135 138 130
4 0 7 135 138 130
-7 1 7 57 38 19
-6 1 7 135 138 130
4 1 7 135 138 130
-5 2 7 135 138 130
4 2 7 57 38 19
-5 3 7 135 138 130
4 3 7 135 138 130
-5 4 7 135 138 130
4 4 7 135 138 130
-5 5 7 57 38 19
-4 5 7 135 138 130
-3 5 7 135 138 130
-2 5 7 57 38 19
-1 5 7 135 138 130
0 5 7 135 138 130
1 5 7 57 38 19
2 5 7 135 138 130
3 5 7 135 138 130
4 5 7 57 38 19
-5 -6 8 57 38 19
-4 -6 8 135 138 130
-3 -6 8 135 138 130
-2 -6 8 57 38 19
-1 -6 8 135 138 130
0 -6 8 135 138 130
1 -6 8 57 38 19
2 -6 8 135 138 130
3 -6 8 135 138 130
4 -6 8 57 38 19
-5 -5 8 135 138 130
4 -5 8 135 138 130
-5 -4 8 135 138 130
4 -4 8 135 138 130
-7 -3 8 57 38 19
-6 -3 8 135 138 130
-5 -3 8 135 138 130
4 -3 8 57 38 19
-7 -2 8 135 138 130
-6 -2 8 135 138 130
-5 -2 8 135 138 130
4 -2 8 135 138 130
-7 -1 8 135 138 130
4 -1 8 135 138 130
-7 0 8 135 138 130
4 0 8 135 138 130
-7 1 8 57 38 19
-6 1 8 135 138 130
4 1 8 135 138 130
-5 2 8 135 138 130
4 2 8 57 38 19
-5 3 8 135 138 130
4 3 8 135 138 130
-5 4 8 135 138 130
4 4 8 135 138 130
-5 5 8 57 38 19
-4 5 8 135 138 130
-3 5 8 135 138 130
-2 5 8 57 38 19
-1 5 8 135 138 130
0 5 8 135 138 130
1 5 8 57 38 19
2 5 8 135 138 130
3 5 8 135 138 130
4 5 8 57 38 19
-6 -7 9 136 65 46
-5 -7 9 136 65 46
4 -7 9 136 65 46
5 -7 9 136 65 46
-6 -6 9 136 65 46
-5 -6 9 136 65 46
-4 -6 9 57 38 19
-3 -6 9 57 38 19
-2 -6 9 57 38 19
-1 -6 9 57 38 19
0 -6 9 57 38 19
1 -6 9 57 38 19
2 -6 9 57 38 19
3 -6 9 57 38 19
4 -6 9 136 65 46
5 -6 9 136 65 46
-6 -5 9 136 65 46
-5 -5 9 136 65 46
4 -5 9 136 65 46
5 -5 9 136 65 46
-6 -4 9 136 65 46
-5 -4 9 136 65 46
4 -4 9 136 65 46
5 -4 9 136 65 46
-7 -3 9 57 38 19
-6 -3 9 136 65 46
-5 -3 9 135 138 130
4 -3 9 136 65 46
5 -3 9 136 65 46
-7 -2 9 135 138 130
-6 -2 9 135 138 130
-5 -2 9 135 138 130
4 -2 9 136 65 46
5 -2 9 136 65 46
-7 -1 9 135 138 130
4 -1 9 136 65 46
5 -1 9 136 65 46
-7 0 9 135 138 130
4 0 9 136 65 46
5 0 9 136 65 46
-7 1 9 57 38 19
4 1 9 136 65 46
5 1 9 136 65 46
-6 2 9 136 65 46
-5 2 9 136 65 46
4 2 9 136 65 46
5 2 9 136 65 46
-6 3 9 136 65 46
-5 3 9 136 65 46
4 3 9 136 65 46
5 3 9 136 65 46
-6 4 9 136 65 46
-5 4 9 136 65 46
4 4 9 136 65 46
5 4 9 136 65 46
-6 5 9 136 65 46
-5 5 9 136 65 46
-4 5 9 57 38 19
-3 5 9 57 38 19
-2 5 9 57 38 19
-1 5 9 57 38 19
0 5 9 57 38 19
1 5 9 57 38 19
2 5 9 57 38 19
3 5 9 57 38 19
4 5 9 136 65 46
5 5 9 136 65 46
-6 6 9 136 65 46
-5 6 9 136 65 46
4 6 9 136 65 46
5 6 9 136 65 46
-5 -7 10 136 65 46
-4 -7 10 136 65 46
3 -7 10 136 65 46
4 -7 10 136 65 46
-5 -6 10 136 65 46
-4 -6 10 135 138 130
-3 -6 10 135 138 130
-2 -6 10 57 38 19
-1 -6 10 135 138 130
0 -6 10 135 138 130
1 -6 10 57 38 19
2 -6 10 135 138 130
3 -6 10 136 65 46
4 -6 10 136 65 46
-5 -5 10 136 65 46
4 -5 10 136 65 46
-5 -4 10 136 65 46
4 -4 10 136 65 46
-7 -3 10 57 38 19
-6 -3 10 135 138 130
-5 -3 10 135 138 130
4 -3 10 136 65 46
-7 -2 10 135 138 130
-6 -2 10 135 138 130
-5 -2 10 135 138 130
4 -2 10 136 65 46
-7 -1 10 135 138 130
-6 -1 10 135 138 130
-5 -1 10 135 138 130
4 -1 10 136 65 46
-7 0 10 135 138 130
-6 0 10 135 138 130
-5 0 10 135 138 130
4 0 10 136 65 46
-7 1 10 57 38 19
-6 1 10 135 138 130
-5 1 10 135 138 130
4 1 10 136 65 46
-5 2 10 136 65 46
4 2 10 136 65 46
-5 3 10 136 65 46
4 3 10 136 65 46
-5 4 10 136 65 46
4 4 10 136 65 46
-5 5 10 136 65 46
-4 5 10 136 65 46
-3 5 10 135 138 130
-2 5 10 57 38 19
-1 5 10 255 225 0
0 5 10 255 225 0
1 5 10 57 38 19
2 5 10 135 138 130
3 5 10 136 65 46
4 5 10 136 65 46
-5 6 10 136 65 46
-4 6 10 136 65 46
3 6 10 136 65 46
4 6 10 136 65 46
-4 -7 11 136 65 46
-3 -7 11 136 65 46
2 -7 11 136 65 46
3 -7 11 136 65 46
4 -7 11 136 65 46
5 -7 11 136 65 46
-4 -6 11 136 65 46
-3 -6 11 136 65 46
-2 -6 11 57 38 19
-1 -6 11 135 138 130
0 -6 11 135 138 130
1 -6 11 57 38 19
2 -6 11 136 65 46
3 -6 11 136 65 46
4 -6 11 135 138 130
-4 -5 11 136 65 46
3 -5 11 136 65 46
4 -5 11 135 138 130
-7 -4 11 136 65 46
-6 -4 11 136 65 46
-5 -4 11 136 65 46
-4 -4 11 136 65 46
3 -4 11 136 65 46
4 -4 11 135 138 130
-7 -3 11 136 65 46
-6 -3 11 135 138 130
-5 -3 11 135 138 130
3 -3 11 136 65 46
4 -3 11 135 138 130
-7 -2 11 57 38 19
-6 -2 11 135 138 130
-5 -2 11 135 138 130
3 -2 11 136 65 46
4 -2 11 136 65 46
5 -2 11 136 65 46
-7 -1 11 57 38 19
-6 -1 11 135 138 130
-5 -1 11 135 138 130
3 -1 11 136 65 46
-7 0 11 57 38 19
-6 0 11 135 138 130
-5 0 11 135 138 130
3 0 11 136 65 46
-7 1 11 136 65 46
-6 1 11 135 138 130
-5 1 11 135 138 130
3 1 11 54 54 54
-7 2 11 136 65 46
-6 2 11 136 65 46
-5 2 11 136 65 46
-4 2 11 136 65 46
4 2 11 54 54 54
-4 3 11 136 65 46
3 3 11 54 54 54
-4 4 11 136 65 46
3 4 11 136 65 46
-4 5 11 136 65 46
-3 5 11 136 65 46
-2 5 11 57 38 19
-1 5 11 255 225 0
0 5 11 255 225 0
1 5 11 57 38 19
2 5 11 136 65 46
3 5 11 136 65 46
-4 6 11 136 65 46
-3 6 11 136 65 46
2 6 11 136 65 46
3 6 11 136 65 46
-3 -7 12 136 65 46
-2 -7 12 136 65 46
1 -7 12 136 65 46
2 -7 12 136 65 46
3 -7 12 136 65 46
4 -7 12 136 65 46
5 -7 12 136 65 46
-3 -6 12 136 65 46
-2 -6 12 136 65 46
-1 -6 12 135 138 130
0 -6 12 135 138 130
1 -6 12 136 65 46
2 -6 12 136 65 46
4 -6 12 135 138 130
-3 -5 12 136 65 46
-2 -5 12 136 65 46
-1 -5 12 136 65 46
0 -5 12 136 65 46
1 -5 12 136 65 46
2 -5 12 136 65 46
3 -5 12 136 65 46
4 -5 12 135 138 130
-3 -4 12 136 65 46
-2 -4 12 136 65 46
-1 -4 12 136 65 46
0 -4 12 136 65 46
1 -4 12 136 65 46
2 -4 12 136 65 46
4 -4 12 135 138 130
-7 -3 12 136 65 46
-6 -3 12 136 65 46
-5 -3 12 136 65 46
-4 -3 12 136 65 46
-3 -3 12 136 65 46
-2 -3 12 136 65 46
-1 -3 12 136 65 46
0 -3 12 136 65 46
1 -3 12 136 65 46
2 -3 12 136 65 46
3 -3 12 136 65 46
4 -3 12 136 65 46
5 -3 12 136 65 46
-7 -2 12 135 138 130
-6 -2 12 135 138 130
-5 -2 12 135 138 130
-4 -2 12 135 138 130
-3 -2 12 135 138 130
-2 -2 12 135 138 130
-1 -2 12 135 138 130
0 -2 12 136 65 46
1 -2 12 136 65 46
2 -2 12 136 65 46
-7 -1 12 135 138 130
-6 -1 12 135 138 130
-5 -1 12 135 138 130
-4 -1 12 135 138 130
-3 -1 12 135 138 130
-2 -1 12 135 138 130
-1 -1 12 135 138 130
0 -1 12 136 65 46
1 -1 12 136 65 46
2 -1 12 136 65 46
-7 0 12 135 138 130
-6 0 12 136 65 46
-5 0 12 136 65 46
-4 0 12 136 65 46
-3 0 12 136 65 46
-2 0 12 136 65 46
-1 0 12 136 65 46
0 0 12 136 65 46
1 0 12 136 65 46
2 0 12 136 65 46
-7 1 12 136 65 46
-6 1 12 136 65 46
-5 1 12 136 65 46
-4 1 12 136 65 46
-3 1 12 136 65 46
-2 1 12 136 65 46
-1 1 12 136 65 46
0 1 12 136 65 46
1 1 12 136 65 46
2 1 12 54 54 54
3 1 12 54 54 54
-3 2 12 136 65 46
-2 2 12 136 65 46
-1 2 12 136 65 46
0 2 12 136 65 46
1 2 12 136 65 46
2 2 12 136 65 46
3 2 12 75 75 75
4 2 12 54 54 54
-3 3 12 136 65 46
-2 3 12 136 65 46
-1 3 12 136 65 46
0 3 12 136 65 46
1 3 12 136 65 46
2 3 12 136 65 46
3 3 12 54 54 54
-3 4 12 136 65 46
-2 4 12 136 65 46
-1 4 12 136 65 46
0 4 12 136 65 46
1 4 12 136 65 46
2 4 12 136 65 46
-3 5 12 136 65 46
-2 5 12 136 65 46
-1 5 12 135 138 130
0 5 12 135 138 130
1 5 12 136 65 46
2 5 12 136 65 46
-3 6 12 136 65 46
-2 6 12 136 65 46
1 6 12 136 65 46
2 6 12 136 65 46
-2 -7 13 136 65 46
-1 -7 13 136 65 46
0 -7 13 136 65 46
1 -7 13 136 65 46
-2 -6 13 136 65 46
-1 -6 13 136 65 46
0 -6 13 136 65 46
1 -6 13 136 65 46
2 -6 13 136 65 46
3 -6 13 136 65 46
4 -6 13 136 65 46
5 -6 13 136 65 46
-2 -5 13 136 65 46
-1 -5 13 136 65 46
0 -5 13 136 65 46
1 -5 13 136 65 46
2 -5 13 136 65 46
3 -5 13 136 65 46
4 -5 13 135 138 130
-2 -4 13 136 65 46
-1 -4 13 136 65 46
0 -4 13 136 65 46
1 -4 13 136 65 46
2 -4 13 136 65 46
3 -4 13 136 65 46
4 -4 13 136 65 46
5 -4 13 136 65 46
-2 -3 13 136 65 46
-1 -3 13 136 65 46
0 -3 13 136 65 46
1 -3 13 136 65 46
-7 -2 13 136 65 46
-6 -2 13 136 65 46
-5 -2 13 136 65 46
-4 -2 13 136 65 46
-3 -2 13 136 65 46
-2 -2 13 136 65 46
-1 -2 13 136 65 46
0 -2 13 136 65 46
1 -2 13 136 65 46
-7 -1 13 135 138 130
-6 -1 13 135 138 130
-5 -1 13 135 138 130
-4 -1 13 135 138 130
-3 -1 13 135 138 130
-2 -1 13 135 138 130
-1 -1 13 135 138 130
0 -1 13 136 65 46
1 -1 13 136 65 46
-7 0 13 136 65 46
-6 0 13 136 65 46
-5 0 13 136 65 46
-4 0 13 136 65 46
-3 0 13 136 65 46
-2 0 13 136 65 46
-1 0 13 136 65 46
0 0 13 136 65 46
1 0 13 136 65 46
-2 1 13 136 65 46
-1 1 13 136 65 46
0 1 13 136 65 46
1 1 13 136 65 46
3 1 13 54 54 54
-2 2 13 136 65 46
-1 2 13 136 65 46
0 2 13 136 65 46
1 2 13 136 65 46
2 2 13 54 54 54
3 2 13 54 54 54
4 2 13 54 54 54
-2 3 13 136 65 46
-1 3 13 136 65 46
0 3 13 136 65 46
1 3 13 136 65 46
3 3 13 54 54 54
-2 4 13 136 65 46
-1 4 13 136 65 46
0 4 13 136 65 46
1 4 13 136 65 46
-2 5 13 136 65 46
-1 5 13 136 65 46
0 5 13 136 65 46
1 5 13 136 65 46
-2 6 13 136 65 46
-1 6 13 136 65 46
0 6 13 136 65 46
1 6 13 136 65 46
-1 -7 14 136 65 46
0 -7 14 136 65 46
-1 -6 14 136 65 46
0 -6 14 136 65 46
-1 -5 14 136 65 46
0 -5 14 136 65 46
1 -5 14 136 65 46
2 -5 14 136 65 46
3 -5 14 136 65 46
4 -5 14 136 65 46
5 -5 14 136 65 46
-1 -4 14 136 65 46
0 -4 14 136 65 46
-1 -3 14 136 65 46
0 -3 14 136 65 46
-1 -2 14 136 65 46
0 -2 14 136 65 46
-7 -1 14 136 65 46
-6 -1 14 136 65 46
-5 -1 14 136 65 46
-4 -1 14 136 65 46
-3 -1 14 136 65 46
-2 -1 14 136 65 46
-1 -1 14 136 65 46
0 -1 14 136 65 46
-1 0 14 136 65 46
0 0 14 136 65 46
-1 1 14 136 65 46
0 1 14 136 65 46
3 1 14 54 54 54
-1 2 14 136 65 46
0 2 14 136 65 46
2 2 14 54 54 54
3 2 14 255 225 0
4 2 14 54 54 54
-1 3 14 136 65 46
0 3 14 136 65 46
3 3 14 54 54 54
-1 4 14 136 65 46
0 4 14 136 65 46
-1 5 14 136 65 46
0 5 14 136 65 46
-1 6 14 136 65 46
0 6 14 136 65 46
