ply
format ascii 1.0
comment : MagicaVoxel @ Ephtracy
element vertex 522
property float x
property float y
property float z
property uchar red
property uchar green
property uchar blue
end_header
-7 -6 0 241 244 230
-6 -6 0 241 244 230
-5 -6 0 241 244 230
-4 -6 0 241 244 230
-3 -6 0 241 244 230
-2 -6 0 241 244 230
-1 -6 0 241 244 230
0 -6 0 241 244 230
1 -6 0 241 244 230
2 -6 0 241 244 230
3 -6 0 241 244 230
4 -6 0 241 244 230
5 -6 0 241 244 230
-7 -5 0 241 244 230
5 -5 0 241 244 230
-7 -4 0 241 244 230
5 -4 0 241 244 230
-7 -3 0 241 244 230
5 -3 0 241 244 230
-7 -2 0 241 244 230
-6 -2 0 241 244 230
-5 -2 0 241 244 230
-4 -2 0 241 244 230
-3 -2 0 241 244 230
-2 -2 0 241 244 230
-1 -2 0 241 244 230
0 -2 0 241 244 230
1 -2 0 241 244 230
2 -2 0 241 244 230
3 -2 0 241 244 230
4 -2 0 241 244 230
5 -2 0 241 244 230
-6 -1 0 83 136 90
-5 -1 0 83 136 90
-4 -1 0 83 136 90
-3 -1 0 83 136 90
-2 -1 0 83 136 90
-1 -1 0 83 136 90
0 -1 0 83 136 90
-7 0 0 83 136 90
-6 0 0 83 136 90
-5 0 0 83 136 90
-4 0 0 83 136 90
-3 0 0 83 136 90
-2 0 0 83 136 90
-1 0 0 83 136 90
0 0 0 83 136 90
1 0 0 228 231 218
3 0 0 228 231 218
-7 1 0 83 136 90
-6 1 0 83 136 90
-5 1 0 83 136 90
-4 1 0 83 136 90
-3 1 0 83 136 90
-2 1 0 83 136 90
-1 1 0 83 136 90
0 1 0 83 136 90
-7 2 0 83 136 90
-6 2 0 83 136 90
-5 2 0 83 136 90
-4 2 0 83 136 90
-3 2 0 83 136 90
-2 2 0 83 136 90
-1 2 0 83 136 90
0 2 0 83 136 90
1 2 0 228 231 218
3 2 0 228 231 218
-7 3 0 83 136 90
-6 3 0 83 136 90
-5 3 0 83 136 90
-4 3 0 83 136 90
-3 3 0 83 136 90
-2 3 0 83 136 90
-1 3 0 83 136 90
0 3 0 83 136 90
-7 4 0 83 136 90
-6 4 0 83 136 90
-5 4 0 83 136 90
-4 4 0 83 136 90
-3 4 0 83 136 90
-2 4 0 83 136 90
-1 4 0 83 136 90
0 4 0 83 136 90
-7 5 0 83 136 90
-6 5 0 83 136 90
-5 5 0 83 136 90
-4 5 0 83 136 90
-3 5 0 83 136 90
-2 5 0 83 136 90
-1 5 0 83 136 90
0 5 0 83 136 90
-6 6 0 83 136 90
-5 6 0 83 136 90
-4 6 0 83 136 90
-3 6 0 83 136 90
-2 6 0 83 136 90
-1 6 0 83 136 90
0 6 0 83 136 90
-7 -6 1 241 244 230
-6 -6 1 228 231 218
-5 -6 1 228 231 218
-4 -6 1 228 231 218
-3 -6 1 228 231 218
-2 -6 1 228 231 218
-1 -6 1 228 231 218
0 -6 1 228 231 218
1 -6 1 228 231 218
2 -6 1 228 231 218
3 -6 1 228 231 218
4 -6 1 228 231 218
5 -6 1 241 244 230
-7 -5 1 228 231 218
5 -5 1 228 231 218
-7 -4 1 228 231 218
5 -4 1 228 231 218
-7 -3 1 228 231 218
5 -3 1 228 231 218
-7 -2 1 241 244 230
-6 -2 1 228 231 218
-5 -2 1 228 231 218
-4 -2 1 228 231 218
-3 -2 1 228 231 218
-2 -2 1 228 231 218
-1 -2 1 228 231 218
0 -2 1 228 231 218
1 -2 1 54 54 54
2 -2 1 54 54 54
3 -2 1 54 54 54
4 -2 1 228 231 218
5 -2 1 241 244 230
-6 -1 1 99 156 96
-4 -1 1 99 156 96
-3 -1 1 99 156 96
-2 -1 1 99 156 96
-1 -1 1 228 231 218
1 -1 1 86 86 86
2 -1 1 86 86 86
3 -1 1 86 86 86
-6 0 1 99 156 96
-5 0 1 125 201 98
-4 0 1 99 156 96
-3 0 1 99 156 96
-2 0 1 99 156 96
-1 0 1 125 201 98
0 0 1 83 136 90
1 0 1 54 54 54
2 0 1 54 54 54
3 0 1 54 54 54
-7 1 1 83 136 90
-6 1 1 125 201 98
-5 1 1 125 201 98
-4 1 1 125 201 98
-3 1 1 125 201 98
-2 1 1 125 201 98
-1 1 1 125 201 98
0 1 1 83 136 90
1 1 1 86 86 86
2 1 1 86 86 86
3 1 1 86 86 86
-7 2 1 83 136 90
-6 2 1 125 201 98
-5 2 1 125 201 98
-4 2 1 125 201 98
-3 2 1 125 201 98
-2 2 1 125 201 98
-1 2 1 125 201 98
0 2 1 99 156 96
1 2 1 54 54 54
2 2 1 54 54 54
3 2 1 54 54 54
-7 3 1 83 136 90
-6 3 1 125 201 98
-5 3 1 125 201 98
-4 3 1 125 201 98
-3 3 1 125 201 98
-2 3 1 125 201 98
-1 3 1 125 201 98
0 3 1 83 136 90
1 3 1 86 86 86
2 3 1 86 86 86
3 3 1 86 86 86
-7 4 1 99 156 96
-6 4 1 125 201 98
-5 4 1 125 201 98
-4 4 1 125 201 98
-3 4 1 125 201 98
-2 4 1 125 201 98
-1 4 1 125 201 98
0 4 1 83 136 90
-6 5 1 125 201 98
-5 5 1 125 201 98
-4 5 1 125 201 98
-3 5 1 125 201 98
-2 5 1 125 201 98
-1 5 1 99 156 96
0 5 1 83 136 90
-4 6 1 99 156 96
-3 6 1 99 156 96
-2 6 1 99 156 96
-7 -6 2 241 244 230
-6 -6 2 228 231 218
-5 -6 2 228 231 218
-4 -6 2 228 231 218
-3 -6 2 228 231 218
-2 -6 2 228 231 218
-1 -6 2 228 231 218
0 -6 2 228 231 218
1 -6 2 228 231 218
2 -6 2 228 231 218
3 -6 2 228 231 218
4 -6 2 228 231 218
5 -6 2 241 244 230
-7 -5 2 228 231 218
5 -5 2 228 231 218
-7 -4 2 228 231 218
5 -4 2 228 231 218
-7 -3 2 228 231 218
1 -3 2 54 54 54
2 -3 2 54 54 54
3 -3 2 54 54 54
5 -3 2 228 231 218
-7 -2 2 241 244 230
-6 -2 2 228 231 218
-5 -2 2 228 231 218
-4 -2 2 228 231 218
-3 -2 2 228 231 218
-2 -2 2 228 231 218
-1 -2 2 228 231 218
0 -2 2 228 231 218
4 -2 2 228 231 218
5 -2 2 241 244 230
-5 -1 2 228 231 218
-4 -1 2 99 156 96
-3 -1 2 99 156 96
-2 -1 2 99 156 96
-1 -1 2 228 231 218
2 -1 2 228 231 218
-6 0 2 125 201 98
-4 0 2 99 156 96
-3 0 2 99 156 96
-2 0 2 99 156 96
0 0 2 125 201 98
2 0 2 228 231 218
-6 1 2 99 156 96
-5 1 2 125 201 98
-4 1 2 125 201 98
-3 1 2 125 201 98
-2 1 2 125 201 98
-1 1 2 125 201 98
0 1 2 125 201 98
2 1 2 241 244 230
-6 2 2 99 156 96
-5 2 2 125 201 98
-4 2 2 125 201 98
-3 2 2 125 201 98
-2 2 2 125 201 98
-1 2 2 125 201 98
0 2 2 99 156 96
-6 3 2 83 136 90
-5 3 2 125 201 98
-4 3 2 125 201 98
-3 3 2 125 201 98
-2 3 2 125 201 98
-1 3 2 125 201 98
0 3 2 99 156 96
-6 4 2 83 136 90
-5 4 2 125 201 98
-4 4 2 125 201 98
-3 4 2 125 201 98
-2 4 2 125 201 98
-1 4 2 83 136 90
-5 5 2 83 136 90
-4 5 2 99 156 96
-3 5 2 83 136 90
-2 5 2 83 136 90
-7 -6 3 241 244 230
-6 -6 3 228 231 218
-5 -6 3 163 240 245
-4 -6 3 228 231 218
-3 -6 3 163 240 245
-2 -6 3 228 231 218
-1 -6 3 163 240 245
0 -6 3 228 231 218
1 -6 3 228 231 218
2 -6 3 228 231 218
3 -6 3 228 231 218
4 -6 3 228 231 218
5 -6 3 241 244 230
-7 -5 3 228 231 218
5 -5 3 228 231 218
-7 -4 3 228 231 218
5 -4 3 228 231 218
-7 -3 3 228 231 218
1 -3 3 54 54 54
2 -3 3 54 54 54
3 -3 3 54 54 54
5 -3 3 228 231 218
-7 -2 3 241 244 230
-6 -2 3 228 231 218
-5 -2 3 228 231 218
-4 -2 3 228 231 218
-3 -2 3 228 231 218
-2 -2 3 228 231 218
-1 -2 3 228 231 218
0 -2 3 228 231 218
4 -2 3 228 231 218
5 -2 3 241 244 230
-5 -1 3 228 231 218
-1 -1 3 228 231 218
-5 0 3 241 244 230
-4 0 3 99 156 96
-3 0 3 99 156 96
-2 0 3 99 156 96
-1 0 3 241 244 230
-6 1 3 99 156 96
-5 1 3 125 201 98
-4 1 3 125 201 98
-3 1 3 125 201 98
-2 1 3 125 201 98
-1 1 3 99 156 96
-6 2 3 125 201 98
-5 2 3 99 156 96
-4 2 3 125 201 98
-3 2 3 125 201 98
-2 2 3 125 201 98
-1 2 3 83 136 90
-5 3 3 99 156 96
-4 3 3 125 201 98
-3 3 3 125 201 98
-2 3 3 125 201 98
-1 3 3 83 136 90
-5 4 3 125 201 98
-4 4 3 99 156 96
-3 4 3 125 201 98
-2 4 3 125 201 98
-3 5 3 125 201 98
-5 -7 4 228 231 218
-3 -7 4 228 231 218
-1 -7 4 228 231 218
-7 -6 4 241 244 230
-6 -6 4 228 231 218
-5 -6 4 228 231 218
-4 -6 4 228 231 218
-3 -6 4 228 231 218
-2 -6 4 228 231 218
-1 -6 4 228 231 218
0 -6 4 228 231 218
1 -6 4 228 231 218
2 -6 4 228 231 218
3 -6 4 228 231 218
4 -6 4 228 231 218
5 -6 4 241 244 230
-7 -5 4 228 231 218
5 -5 4 228 231 218
-7 -4 4 228 231 218
5 -4 4 228 231 218
-7 -3 4 228 231 218
1 -3 4 54 54 54
2 -3 4 54 54 54
3 -3 4 54 54 54
5 -3 4 228 231 218
-7 -2 4 241 244 230
-6 -2 4 228 231 218
-5 -2 4 228 231 218
-4 -2 4 228 231 218
-3 -2 4 228 231 218
-2 -2 4 228 231 218
-1 -2 4 228 231 218
0 -2 4 228 231 218
4 -2 4 228 231 218
5 -2 4 241 244 230
-5 -1 4 241 244 230
-4 -1 4 228 231 218
-3 -1 4 228 231 218
-2 -1 4 228 231 218
-1 -1 4 241 244 230
-5 0 4 241 244 230
-4 0 4 99 156 96
-3 0 4 99 156 96
-2 0 4 99 156 96
-1 0 4 241 244 230
-5 1 4 125 201 98
-4 1 4 125 201 98
-3 1 4 125 201 98
-2 1 4 125 201 98
-1 1 4 125 201 98
-4 2 4 125 201 98
-3 2 4 125 201 98
-2 2 4 125 201 98
-1 2 4 125 201 98
-4 3 4 99 156 96
-3 3 4 99 156 96
-2 3 4 99 156 96
-3 4 4 99 156 96
-7 -6 5 241 244 230
-6 -6 5 228 231 218
-5 -6 5 228 231 218
-4 -6 5 228 231 218
-3 -6 5 228 231 218
-2 -6 5 228 231 218
-1 -6 5 228 231 218
0 -6 5 228 231 218
1 -6 5 228 231 218
2 -6 5 228 231 218
3 -6 5 228 231 218
4 -6 5 228 231 218
5 -6 5 241 244 230
-7 -5 5 228 231 218
5 -5 5 228 231 218
-7 -4 5 228 231 218
5 -4 5 228 231 218
-7 -3 5 228 231 218
5 -3 5 228 231 218
-7 -2 5 241 244 230
-6 -2 5 228 231 218
-5 -2 5 228 231 218
-4 -2 5 228 231 218
-3 -2 5 228 231 218
-2 -2 5 228 231 218
-1 -2 5 228 231 218
0 -2 5 228 231 218
1 -2 5 228 231 218
2 -2 5 228 231 218
3 -2 5 228 231 218
4 -2 5 228 231 218
5 -2 5 241 244 230
-3 0 5 125 201 98
-4 1 5 125 201 98
-3 1 5 99 156 96
-2 1 5 125 201 98
-4 2 5 99 156 96
-3 2 5 125 201 98
-2 2 5 99 156 96
-7 -6 6 241 244 230
-6 -6 6 241 244 230
-5 -6 6 241 244 230
-4 -6 6 241 244 230
-3 -6 6 241 244 230
-2 -6 6 241 244 230
-1 -6 6 241 244 230
0 -6 6 241 244 230
1 -6 6 241 244 230
2 -6 6 241 244 230
3 -6 6 241 244 230
4 -6 6 241 244 230
5 -6 6 241 244 230
-7 -5 6 241 244 230
-6 -5 6 228 231 218
-5 -5 6 228 231 218
-4 -5 6 228 231 218
-3 -5 6 228 231 218
-2 -5 6 228 231 218
-1 -5 6 228 231 218
0 -5 6 228 231 218
1 -5 6 228 231 218
2 -5 6 228 231 218
3 -5 6 228 231 218
4 -5 6 228 231 218
5 -5 6 241 244 230
-7 -4 6 241 244 230
-6 -4 6 228 231 218
-5 -4 6 228 231 218
-4 -4 6 228 231 218
-3 -4 6 228 231 218
-2 -4 6 228 231 218
-1 -4 6 228 231 218
0 -4 6 228 231 218
1 -4 6 228 231 218
2 -4 6 228 231 218
4 -4 6 228 231 218
5 -4 6 241 244 230
-7 -3 6 241 244 230
-6 -3 6 228 231 218
-5 -3 6 228 231 218
-4 -3 6 228 231 218
-3 -3 6 228 231 218
-2 -3 6 228 231 218
-1 -3 6 228 231 218
0 -3 6 228 231 218
1 -3 6 228 231 218
2 -3 6 228 231 218
3 -3 6 228 231 218
4 -3 6 228 231 218
5 -3 6 241 244 230
-7 -2 6 241 244 230
-6 -2 6 241 244 230
-5 -2 6 241 244 230
-4 -2 6 241 244 230
-3 -2 6 241 244 230
-2 -2 6 241 244 230
-1 -2 6 241 244 230
0 -2 6 241 244 230
1 -2 6 241 244 230
2 -2 6 241 244 230
3 -2 6 241 244 230
4 -2 6 241 244 230
5 -2 6 241 244 230
2 -5 7 241 244 230
3 -5 7 228 231 218
4 -5 7 241 244 230
2 -4 7 228 231 218
3 -4 7 255 123 0
4 -4 7 228 231 218
2 -3 7 241 244 230
3 -3 7 228 231 218
4 -3 7 241 244 230
2 -5 8 241 244 230
3 -5 8 228 231 218
4 -5 8 241 244 230
2 -4 8 228 231 218
4 -4 8 228 231 218
2 -3 8 241 244 230
3 -3 8 228 231 218
4 -3 8 241 244 230
2 -5 9 241 244 230
3 -5 9 241 244 230
4 -5 9 241 244 230
2 -4 9 241 244 230
4 -4 9 241 244 230
2 -3 9 241 244 230
3 -3 9 241 244 230
4 -3 9 241 244 230
