ply
format ascii 1.0
comment : MagicaVoxel @ Ephtracy
element vertex 519
property float x
property float y
property float z
property uchar red
property uchar green
property uchar blue
end_header
-5 -7 0 80 58 33
-6 -6 0 135 138 130
-5 -6 0 197 200 189
-4 -6 0 135 138 130
-3 -6 0 135 138 130
-2 -6 0 135 138 130
1 -6 0 80 58 33
2 -6 0 151 112 58
3 -6 0 151 112 58
4 -6 0 80 58 33
-7 -5 0 57 38 19
-6 -5 0 197 200 189
-5 -5 0 197 200 189
-4 -5 0 197 200 189
-3 -5 0 54 54 54
-6 -4 0 135 138 130
-5 -4 0 197 200 189
-4 -4 0 197 200 189
-3 -4 0 197 200 189
-2 -4 0 135 138 130
1 -4 0 80 58 33
2 -4 0 151 112 58
3 -4 0 151 112 58
4 -4 0 80 58 33
-6 -3 0 135 138 130
-5 -3 0 197 200 189
-4 -3 0 197 200 189
-3 -3 0 197 200 189
-2 -3 0 135 138 130
-6 -2 0 135 138 130
-5 -2 0 197 200 189
-4 -2 0 197 200 189
-3 -2 0 197 200 189
-2 -2 0 135 138 130
1 -2 0 80 58 33
2 -2 0 151 112 58
3 -2 0 151 112 58
4 -2 0 80 58 33
-6 -1 0 135 138 130
-5 -1 0 197 200 189
-4 -1 0 197 200 189
-3 -1 0 197 200 189
-2 -1 0 135 138 130
-5 0 0 54 54 54
-4 0 0 197 200 189
-3 0 0 54 54 54
-6 1 0 135 138 130
-5 1 0 197 200 189
-4 1 0 197 200 189
-3 1 0 197 200 189
-2 1 0 135 138 130
-1 1 0 135 138 130
0 1 0 135 138 130
1 1 0 135 138 130
2 1 0 135 138 130
3 1 0 135 138 130
4 1 0 135 138 130
5 1 0 135 138 130
-6 2 0 135 138 130
-5 2 0 197 200 189
-4 2 0 197 200 189
-3 2 0 197 200 189
-2 2 0 197 200 189
-1 2 0 197 200 189
0 2 0 197 200 189
1 2 0 197 200 189
2 2 0 197 200 189
3 2 0 197 200 189
4 2 0 197 200 189
5 2 0 135 138 130
-6 3 0 135 138 130
-5 3 0 197 200 189
-4 3 0 197 200 189
-3 3 0 197 200 189
-2 3 0 197 200 189
-1 3 0 197 200 189
0 3 0 197 200 189
1 3 0 197 200 189
2 3 0 197 200 189
3 3 0 197 200 189
4 3 0 54 54 54
-7 4 0 57 38 19
-6 4 0 197 200 189
-5 4 0 197 200 189
-4 4 0 197 200 189
-3 4 0 197 200 189
-2 4 0 197 200 189
-1 4 0 197 200 189
0 4 0 197 200 189
1 4 0 197 200 189
2 4 0 197 200 189
3 4 0 197 200 189
4 4 0 197 200 189
5 4 0 135 138 130
-6 5 0 135 138 130
-5 5 0 197 200 189
-4 5 0 135 138 130
-3 5 0 135 138 130
-2 5 0 54 54 54
-1 5 0 135 138 130
0 5 0 135 138 130
1 5 0 135 138 130
2 5 0 135 138 130
3 5 0 135 138 130
4 5 0 197 200 189
5 5 0 135 138 130
-5 6 0 57 38 19
4 6 0 57 38 19
-5 -7 1 151 112 58
-6 -6 1 228 231 218
-5 -6 1 197 200 189
-4 -6 1 197 200 189
-3 -6 1 197 200 189
-2 -6 1 86 86 86
-7 -5 1 80 58 33
-6 -5 1 197 200 189
-5 -5 1 197 200 189
-4 -5 1 197 200 189
-3 -5 1 197 200 189
-2 -5 1 86 86 86
2 -5 1 197 200 189
3 -5 1 228 231 218
-6 -4 1 197 200 189
-5 -4 1 197 200 189
-4 -4 1 197 200 189
-3 -4 1 197 200 189
-2 -4 1 86 86 86
2 -4 1 197 200 189
3 -4 1 197 200 189
-6 -3 1 197 200 189
-5 -3 1 197 200 189
-4 -3 1 197 200 189
-3 -3 1 197 200 189
-2 -3 1 197 200 189
2 -3 1 228 231 218
3 -3 1 197 200 189
-6 -2 1 197 200 189
-5 -2 1 197 200 189
-4 -2 1 197 200 189
-3 -2 1 197 200 189
-2 -2 1 197 200 189
2 -2 1 228 231 218
3 -2 1 197 200 189
-6 -1 1 86 86 86
-5 -1 1 197 200 189
-4 -1 1 197 200 189
-3 -1 1 197 200 189
-2 -1 1 197 200 189
-6 0 1 197 200 189
-5 0 1 197 200 189
-4 0 1 197 200 189
-3 0 1 197 200 189
-2 0 1 86 86 86
-6 1 1 197 200 189
-5 1 1 197 200 189
-4 1 1 197 200 189
-3 1 1 197 200 189
-2 1 1 197 200 189
-1 1 1 241 244 230
0 1 1 197 200 189
1 1 1 197 200 189
2 1 1 197 200 189
3 1 1 197 200 189
4 1 1 197 200 189
-6 2 1 197 200 189
-5 2 1 197 200 189
-4 2 1 197 200 189
-3 2 1 197 200 189
-2 2 1 197 200 189
-1 2 1 197 200 189
0 2 1 197 200 189
1 2 1 197 200 189
2 2 1 197 200 189
3 2 1 197 200 189
4 2 1 197 200 189
5 2 1 197 200 189
-6 3 1 197 200 189
-5 3 1 197 200 189
-4 3 1 197 200 189
-3 3 1 197 200 189
-2 3 1 197 200 189
-1 3 1 197 200 189
0 3 1 197 200 189
1 3 1 197 200 189
2 3 1 197 200 189
3 3 1 197 200 189
4 3 1 197 200 189
5 3 1 135 138 130
-7 4 1 80 58 33
-6 4 1 197 200 189
-5 4 1 197 200 189
-4 4 1 197 200 189
-3 4 1 197 200 189
-2 4 1 197 200 189
-1 4 1 197 200 189
0 4 1 197 200 189
1 4 1 197 200 189
2 4 1 197 200 189
3 4 1 197 200 189
4 4 1 197 200 189
5 4 1 86 86 86
-6 5 1 241 244 230
-5 5 1 197 200 189
-4 5 1 197 200 189
-3 5 1 197 200 189
-2 5 1 197 200 189
-1 5 1 197 200 189
0 5 1 197 200 189
1 5 1 197 200 189
2 5 1 197 200 189
3 5 1 197 200 189
4 5 1 197 200 189
5 5 1 197 200 189
-7 6 1 198 147 70
-6 6 1 151 112 58
-5 6 1 198 147 70
-4 6 1 198 147 70
-3 6 1 151 112 58
-2 6 1 151 112 58
-1 6 1 151 112 58
0 6 1 151 112 58
1 6 1 151 112 58
2 6 1 198 147 70
3 6 1 151 112 58
4 6 1 151 112 58
5 6 1 151 112 58
6 6 1 198 147 70
-5 -7 2 198 147 70
-6 -6 2 241 244 230
-5 -6 2 197 200 189
-4 -6 2 197 200 189
-3 -6 2 86 86 86
-2 -6 2 197 200 189
-7 -5 2 151 112 58
-6 -5 2 197 200 189
-5 -5 2 197 200 189
-4 -5 2 197 200 189
-3 -5 2 197 200 189
-2 -5 2 197 200 189
-6 -4 2 197 200 189
-5 -4 2 197 200 189
-4 -4 2 197 200 189
-3 -4 2 197 200 189
-2 -4 2 86 86 86
-6 -3 2 197 200 189
-5 -3 2 197 200 189
-4 -3 2 197 200 189
-3 -3 2 197 200 189
-2 -3 2 197 200 189
-6 -2 2 135 138 130
-5 -2 2 197 200 189
-4 -2 2 197 200 189
-3 -2 2 197 200 189
-2 -2 2 197 200 189
-6 -1 2 197 200 189
-5 -1 2 197 200 189
-4 -1 2 197 200 189
-3 -1 2 197 200 189
-2 -1 2 197 200 189
-6 0 2 197 200 189
-5 0 2 197 200 189
-4 0 2 197 200 189
-3 0 2 197 200 189
-2 0 2 197 200 189
-6 1 2 197 200 189
-5 1 2 197 200 189
-4 1 2 197 200 189
-3 1 2 197 200 189
-2 1 2 197 200 189
-1 1 2 135 138 130
0 1 2 228 231 218
1 1 2 228 231 218
2 1 2 197 200 189
3 1 2 197 200 189
4 1 2 228 231 218
-6 2 2 197 200 189
-5 2 2 197 200 189
-4 2 2 197 200 189
-3 2 2 197 200 189
-2 2 2 197 200 189
-1 2 2 197 200 189
0 2 2 197 200 189
1 2 2 197 200 189
2 2 2 197 200 189
3 2 2 197 200 189
4 2 2 197 200 189
5 2 2 228 231 218
-6 3 2 197 200 189
-5 3 2 197 200 189
-4 3 2 197 200 189
-3 3 2 197 200 189
-2 3 2 197 200 189
-1 3 2 197 200 189
0 3 2 197 200 189
1 3 2 197 200 189
2 3 2 197 200 189
3 3 2 135 138 130
4 3 2 197 200 189
5 3 2 228 231 218
-7 4 2 151 112 58
-6 4 2 197 200 189
-5 4 2 197 200 189
-4 4 2 197 200 189
-3 4 2 197 200 189
-2 4 2 197 200 189
-1 4 2 197 200 189
0 4 2 197 200 189
1 4 2 228 231 218
2 4 2 197 200 189
3 4 2 197 200 189
4 4 2 135 138 130
5 4 2 135 138 130
-6 5 2 241 244 230
-5 5 2 197 200 189
-4 5 2 197 200 189
-3 5 2 86 86 86
-2 5 2 197 200 189
-1 5 2 197 200 189
0 5 2 228 231 218
1 5 2 228 231 218
2 5 2 228 231 218
3 5 2 228 231 218
4 5 2 197 200 189
-5 6 2 151 112 58
4 6 2 80 58 33
-7 -7 3 198 147 70
-6 -7 3 151 112 58
-5 -7 3 198 147 70
-4 -7 3 151 112 58
-7 -6 3 151 112 58
-6 -6 3 197 200 189
-5 -6 3 197 200 189
-4 -6 3 197 200 189
-3 -6 3 135 138 130
-2 -6 3 228 231 218
-7 -5 3 198 147 70
-6 -5 3 197 200 189
-5 -5 3 197 200 189
-4 -5 3 197 200 189
-3 -5 3 197 200 189
-2 -5 3 197 200 189
-7 -4 3 151 112 58
-6 -4 3 197 200 189
-5 -4 3 197 200 189
-4 -4 3 197 200 189
-3 -4 3 197 200 189
-2 -4 3 135 138 130
-7 -3 3 198 147 70
-6 -3 3 197 200 189
-5 -3 3 197 200 189
-4 -3 3 197 200 189
-3 -3 3 197 200 189
-2 -3 3 197 200 189
-7 -2 3 151 112 58
-6 -2 3 197 200 189
-5 -2 3 197 200 189
-4 -2 3 197 200 189
-3 -2 3 197 200 189
-2 -2 3 197 200 189
-7 -1 3 151 112 58
-6 -1 3 197 200 189
-5 -1 3 197 200 189
-4 -1 3 197 200 189
-3 -1 3 197 200 189
-2 -1 3 197 200 189
-7 0 3 151 112 58
-6 0 3 197 200 189
-5 0 3 197 200 189
-4 0 3 197 200 189
-3 0 3 197 200 189
-2 0 3 197 200 189
-7 1 3 151 112 58
-6 1 3 197 200 189
-5 1 3 197 200 189
-4 1 3 197 200 189
-3 1 3 197 200 189
-2 1 3 135 138 130
-7 2 3 198 147 70
-6 2 3 197 200 189
-5 2 3 197 200 189
-4 2 3 197 200 189
-3 2 3 197 200 189
-2 2 3 197 200 189
-7 3 3 198 147 70
-6 3 3 197 200 189
-5 3 3 197 200 189
-4 3 3 197 200 189
-3 3 3 197 200 189
-2 3 3 197 200 189
-7 4 3 198 147 70
-6 4 3 197 200 189
-5 4 3 197 200 189
-4 4 3 197 200 189
-3 4 3 197 200 189
-2 4 3 197 200 189
-7 5 3 151 112 58
-6 5 3 197 200 189
-5 5 3 197 200 189
-4 5 3 86 86 86
-3 5 3 197 200 189
-2 5 3 197 200 189
-7 6 3 198 147 70
-5 -7 4 151 112 58
-6 -6 4 228 231 218
-5 -6 4 197 200 189
-4 -6 4 135 138 130
-3 -6 4 197 200 189
-7 -5 4 151 112 58
-6 -5 4 197 200 189
-5 -5 4 197 200 189
-4 -5 4 197 200 189
-3 -5 4 197 200 189
-2 -5 4 197 200 189
-6 -4 4 197 200 189
-5 -4 4 197 200 189
-4 -4 4 197 200 189
-3 -4 4 197 200 189
-2 -4 4 197 200 189
-6 -3 4 197 200 189
-5 -3 4 197 200 189
-4 -3 4 197 200 189
-3 -3 4 197 200 189
-2 -3 4 135 138 130
-6 -2 4 135 138 130
-5 -2 4 197 200 189
-4 -2 4 197 200 189
-3 -2 4 197 200 189
-2 -2 4 197 200 189
-6 -1 4 197 200 189
-5 -1 4 197 200 189
-4 -1 4 197 200 189
-3 -1 4 197 200 189
-2 -1 4 197 200 189
-6 0 4 197 200 189
-5 0 4 197 200 189
-4 0 4 197 200 189
-3 0 4 197 200 189
-2 0 4 197 200 189
-6 1 4 197 200 189
-5 1 4 197 200 189
-4 1 4 197 200 189
-3 1 4 197 200 189
-2 1 4 197 200 189
-6 2 4 197 200 189
-5 2 4 197 200 189
-4 2 4 197 200 189
-3 2 4 197 200 189
-2 2 4 135 138 130
-6 3 4 135 138 130
-5 3 4 197 200 189
-4 3 4 197 200 189
-3 3 4 197 200 189
-2 3 4 197 200 189
-7 4 4 151 112 58
-6 4 4 197 200 189
-5 4 4 197 200 189
-4 4 4 197 200 189
-3 4 4 197 200 189
-2 4 4 197 200 189
-6 5 4 197 200 189
-5 5 4 197 200 189
-4 5 4 135 138 130
-3 5 4 197 200 189
-2 5 4 228 231 218
-5 -6 5 228 231 218
-4 -6 5 197 200 189
-3 -6 5 228 231 218
-5 -5 5 197 200 189
-4 -5 5 135 138 130
-3 -5 5 197 200 189
-2 -5 5 228 231 218
-6 -4 5 228 231 218
-5 -4 5 197 200 189
-4 -4 5 197 200 189
-3 -4 5 135 138 130
-2 -4 5 197 200 189
-6 -3 5 197 200 189
-5 -3 5 197 200 189
-4 -3 5 197 200 189
-3 -3 5 197 200 189
-2 -3 5 135 138 130
-6 -2 5 197 200 189
-5 -2 5 197 200 189
-4 -2 5 197 200 189
-3 -2 5 135 138 130
-2 -2 5 197 200 189
-6 -1 5 228 231 218
-5 -1 5 135 138 130
-4 -1 5 135 138 130
-3 -1 5 197 200 189
-2 -1 5 197 200 189
-6 0 5 197 200 189
-5 0 5 197 200 189
-4 0 5 197 200 189
-3 0 5 197 200 189
-2 0 5 197 200 189
-6 1 5 197 200 189
-5 1 5 197 200 189
-4 1 5 197 200 189
-3 1 5 197 200 189
-2 1 5 197 200 189
-6 2 5 197 200 189
-5 2 5 197 200 189
-4 2 5 197 200 189
-3 2 5 197 200 189
-2 2 5 135 138 130
-6 3 5 197 200 189
-5 3 5 197 200 189
-4 3 5 135 138 130
-3 3 5 197 200 189
-2 3 5 197 200 189
-6 4 5 135 138 130
-5 4 5 197 200 189
-4 4 5 135 138 130
-3 4 5 197 200 189
-2 4 5 228 231 218
-5 5 5 135 138 130
-4 5 5 197 200 189
-3 5 5 228 231 218
