ply
format ascii 1.0
comment : MagicaVoxel @ Ephtracy
element vertex 524
property float x
property float y
property float z
property uchar red
property uchar green
property uchar blue
end_header
-6 -6 0 241 244 230
-5 -6 0 241 244 230
-4 -6 0 241 244 230
-3 -6 0 241 244 230
-2 -6 0 241 244 230
-1 -6 0 241 244 230
0 -6 0 241 244 230
1 -6 0 241 244 230
2 -6 0 241 244 230
3 -6 0 241 244 230
4 -6 0 241 244 230
5 -6 0 241 244 230
-6 -5 0 241 244 230
-5 -5 0 241 244 230
-4 -5 0 241 244 230
-3 -5 0 241 244 230
-2 -5 0 241 244 230
-1 -5 0 241 244 230
0 -5 0 241 244 230
1 -5 0 241 244 230
2 -5 0 241 244 230
3 -5 0 241 244 230
4 -5 0 241 244 230
5 -5 0 241 244 230
-6 -1 0 241 244 230
-5 -1 0 241 244 230
-4 -1 0 241 244 230
-3 -1 0 241 244 230
-2 -1 0 241 244 230
-1 -1 0 241 244 230
0 -1 0 241 244 230
1 -1 0 241 244 230
2 -1 0 241 244 230
3 -1 0 241 244 230
4 -1 0 241 244 230
5 -1 0 241 244 230
-6 0 0 241 244 230
-5 0 0 241 244 230
-4 0 0 241 244 230
-3 0 0 241 244 230
-2 0 0 241 244 230
-1 0 0 241 244 230
0 0 0 241 244 230
1 0 0 241 244 230
2 0 0 241 244 230
3 0 0 241 244 230
4 0 0 241 244 230
5 0 0 241 244 230
-6 4 0 241 244 230
-5 4 0 241 244 230
-4 4 0 241 244 230
-3 4 0 241 244 230
-2 4 0 241 244 230
-1 4 0 241 244 230
0 4 0 241 244 230
1 4 0 241 244 230
2 4 0 241 244 230
3 4 0 241 244 230
4 4 0 241 244 230
5 4 0 241 244 230
-6 5 0 241 244 230
-5 5 0 241 244 230
-4 5 0 241 244 230
-3 5 0 241 244 230
-2 5 0 241 244 230
-1 5 0 241 244 230
0 5 0 241 244 230
1 5 0 241 244 230
2 5 0 241 244 230
3 5 0 241 244 230
4 5 0 241 244 230
5 5 0 241 244 230
-6 -6 1 241 244 230
-5 -6 1 172 255 104
-4 -6 1 172 255 104
-3 -6 1 56 139 48
-2 -6 1 172 255 104
-1 -6 1 172 255 104
0 -6 1 172 255 104
1 -6 1 172 255 104
2 -6 1 172 255 104
3 -6 1 172 255 104
4 -6 1 92 206 44
5 -6 1 241 244 230
-6 -5 1 241 244 230
-5 -5 1 92 206 44
-4 -5 1 172 255 104
-3 -5 1 56 139 48
-2 -5 1 172 255 104
-1 -5 1 172 255 104
0 -5 1 172 255 104
1 -5 1 92 206 44
2 -5 1 172 255 104
3 -5 1 172 255 104
4 -5 1 56 139 48
5 -5 1 241 244 230
-6 -1 1 241 244 230
-5 -1 1 172 255 104
-4 -1 1 56 139 48
-3 -1 1 92 206 44
-2 -1 1 172 255 104
-1 -1 1 172 255 104
0 -1 1 92 206 44
1 -1 1 172 255 104
2 -1 1 172 255 104
3 -1 1 56 139 48
4 -1 1 92 206 44
5 -1 1 241 244 230
-6 0 1 241 244 230
-5 0 1 56 139 48
-4 0 1 172 255 104
-3 0 1 92 206 44
-2 0 1 172 255 104
-1 0 1 92 206 44
0 0 1 172 255 104
1 0 1 172 255 104
2 0 1 172 255 104
3 0 1 56 139 48
4 0 1 92 206 44
5 0 1 241 244 230
-6 4 1 241 244 230
-5 4 1 92 206 44
-4 4 1 172 255 104
-3 4 1 56 139 48
-2 4 1 172 255 104
-1 4 1 92 206 44
0 4 1 172 255 104
1 4 1 172 255 104
2 4 1 56 139 48
3 4 1 172 255 104
4 4 1 92 206 44
5 4 1 241 244 230
-6 5 1 241 244 230
-5 5 1 56 139 48
-4 5 1 172 255 104
-3 5 1 172 255 104
-2 5 1 172 255 104
-1 5 1 92 206 44
0 5 1 56 139 48
1 5 1 172 255 104
2 5 1 172 255 104
3 5 1 92 206 44
4 5 1 172 255 104
5 5 1 241 244 230
-6 -6 2 241 244 230
-5 -6 2 172 255 104
-4 -6 2 92 206 44
-3 -6 2 172 255 104
-2 -6 2 172 255 104
-1 -6 2 172 255 104
0 -6 2 92 206 44
1 -6 2 172 255 104
2 -6 2 172 255 104
3 -6 2 92 206 44
4 -6 2 172 255 104
5 -6 2 241 244 230
-6 -5 2 241 244 230
-5 -5 2 172 255 104
-4 -5 2 172 255 104
-3 -5 2 172 255 104
-2 -5 2 92 206 44
-1 -5 2 172 255 104
0 -5 2 172 255 104
1 -5 2 172 255 104
2 -5 2 172 255 104
3 -5 2 92 206 44
4 -5 2 172 255 104
5 -5 2 241 244 230
-6 -1 2 241 244 230
-5 -1 2 92 206 44
-4 -1 2 172 255 104
-3 -1 2 172 255 104
-2 -1 2 172 255 104
-1 -1 2 172 255 104
0 -1 2 172 255 104
1 -1 2 92 206 44
2 -1 2 172 255 104
3 -1 2 172 255 104
4 -1 2 172 255 104
5 -1 2 241 244 230
-6 0 2 241 244 230
-5 0 2 92 206 44
-4 0 2 172 255 104
-3 0 2 172 255 104
-2 0 2 172 255 104
-1 0 2 172 255 104
0 0 2 92 206 44
1 0 2 172 255 104
2 0 2 172 255 104
3 0 2 172 255 104
4 0 2 172 255 104
5 0 2 241 244 230
-6 4 2 241 244 230
-5 4 2 172 255 104
-4 4 2 172 255 104
-3 4 2 172 255 104
-2 4 2 172 255 104
-1 4 2 172 255 104
0 4 2 92 206 44
1 4 2 172 255 104
2 4 2 172 255 104
3 4 2 172 255 104
4 4 2 172 255 104
5 4 2 241 244 230
-6 5 2 241 244 230
-5 5 2 172 255 104
-4 5 2 92 206 44
-3 5 2 172 255 104
-2 5 2 172 255 104
-1 5 2 172 255 104
0 5 2 172 255 104
1 5 2 172 255 104
2 5 2 172 255 104
3 5 2 172 255 104
4 5 2 56 139 48
5 5 2 241 244 230
-6 -6 3 241 244 230
-5 -6 3 228 231 218
-4 -6 3 228 231 218
-3 -6 3 228 231 218
-2 -6 3 228 231 218
-1 -6 3 228 231 218
0 -6 3 228 231 218
1 -6 3 228 231 218
2 -6 3 228 231 218
3 -6 3 228 231 218
4 -6 3 228 231 218
5 -6 3 241 244 230
-6 -5 3 241 244 230
-5 -5 3 228 231 218
-4 -5 3 228 231 218
-3 -5 3 228 231 218
-2 -5 3 228 231 218
-1 -5 3 228 231 218
0 -5 3 228 231 218
1 -5 3 228 231 218
2 -5 3 228 231 218
3 -5 3 228 231 218
4 -5 3 228 231 218
5 -5 3 241 244 230
-6 -1 3 241 244 230
-5 -1 3 228 231 218
-4 -1 3 228 231 218
-3 -1 3 228 231 218
-2 -1 3 228 231 218
-1 -1 3 228 231 218
0 -1 3 228 231 218
1 -1 3 228 231 218
2 -1 3 228 231 218
3 -1 3 228 231 218
4 -1 3 228 231 218
5 -1 3 241 244 230
-6 0 3 241 244 230
-5 0 3 228 231 218
-4 0 3 228 231 218
-3 0 3 228 231 218
-2 0 3 228 231 218
-1 0 3 228 231 218
0 0 3 228 231 218
1 0 3 228 231 218
2 0 3 228 231 218
3 0 3 228 231 218
4 0 3 228 231 218
5 0 3 241 244 230
-6 4 3 241 244 230
-5 4 3 228 231 218
-4 4 3 228 231 218
-3 4 3 228 231 218
-2 4 3 228 231 218
-1 4 3 228 231 218
0 4 3 228 231 218
1 4 3 228 231 218
2 4 3 228 231 218
3 4 3 228 231 218
4 4 3 228 231 218
5 4 3 241 244 230
-6 5 3 241 244 230
-5 5 3 228 231 218
-4 5 3 228 231 218
-3 5 3 228 231 218
-2 5 3 228 231 218
-1 5 3 228 231 218
0 5 3 228 231 218
1 5 3 228 231 218
2 5 3 228 231 218
3 5 3 228 231 218
4 5 3 228 231 218
5 5 3 241 244 230
-6 -6 4 241 244 230
-5 -6 4 172 255 104
-4 -6 4 172 255 104
-3 -6 4 172 255 104
-2 -6 4 172 255 104
-1 -6 4 172 255 104
0 -6 4 172 255 104
1 -6 4 92 206 44
2 -6 4 172 255 104
3 -6 4 172 255 104
4 -6 4 172 255 104
5 -6 4 241 244 230
-7 -5 4 135 138 130
-6 -5 4 241 244 230
-5 -5 4 172 255 104
-4 -5 4 172 255 104
-3 -5 4 172 255 104
-2 -5 4 172 255 104
-1 -5 4 172 255 104
0 -5 4 56 139 48
1 -5 4 172 255 104
2 -5 4 172 255 104
3 -5 4 172 255 104
4 -5 4 172 255 104
5 -5 4 241 244 230
6 -5 4 135 138 130
-7 -4 4 135 138 130
6 -4 4 135 138 130
-7 -3 4 135 138 130
6 -3 4 135 138 130
-7 -2 4 135 138 130
6 -2 4 135 138 130
-7 -1 4 135 138 130
-6 -1 4 241 244 230
-5 -1 4 92 206 44
-4 -1 4 172 255 104
-3 -1 4 172 255 104
-2 -1 4 92 206 44
-1 -1 4 172 255 104
0 -1 4 56 139 48
1 -1 4 172 255 104
2 -1 4 172 255 104
3 -1 4 172 255 104
4 -1 4 92 206 44
5 -1 4 241 244 230
6 -1 4 135 138 130
-7 0 4 135 138 130
-6 0 4 241 244 230
-5 0 4 172 255 104
-4 0 4 172 255 104
-3 0 4 172 255 104
-2 0 4 172 255 104
-1 0 4 172 255 104
0 0 4 172 255 104
1 0 4 92 206 44
2 0 4 172 255 104
3 0 4 172 255 104
4 0 4 172 255 104
5 0 4 241 244 230
6 0 4 135 138 130
-7 1 4 135 138 130
6 1 4 135 138 130
-7 2 4 135 138 130
6 2 4 135 138 130
-7 3 4 135 138 130
6 3 4 135 138 130
-7 4 4 135 138 130
-6 4 4 241 244 230
-5 4 4 172 255 104
-4 4 4 172 255 104
-3 4 4 172 255 104
-2 4 4 56 139 48
-1 4 4 172 255 104
0 4 4 172 255 104
1 4 4 172 255 104
2 4 4 92 206 44
3 4 4 172 255 104
4 4 4 56 139 48
5 4 4 241 244 230
6 4 4 135 138 130
-6 5 4 241 244 230
-5 5 4 172 255 104
-4 5 4 172 255 104
-3 5 4 172 255 104
-2 5 4 172 255 104
-1 5 4 92 206 44
0 5 4 172 255 104
1 5 4 172 255 104
2 5 4 56 139 48
3 5 4 172 255 104
4 5 4 172 255 104
5 5 4 241 244 230
-6 -6 5 241 244 230
-5 -6 5 172 255 104
-4 -6 5 172 255 104
-3 -6 5 92 206 44
-2 -6 5 172 255 104
-1 -6 5 172 255 104
0 -6 5 172 255 104
1 -6 5 172 255 104
2 -6 5 172 255 104
3 -6 5 56 139 48
4 -6 5 172 255 104
5 -6 5 241 244 230
-6 -5 5 241 244 230
-5 -5 5 172 255 104
-4 -5 5 92 206 44
-3 -5 5 172 255 104
-2 -5 5 172 255 104
-1 -5 5 172 255 104
0 -5 5 172 255 104
1 -5 5 92 206 44
2 -5 5 172 255 104
3 -5 5 92 206 44
4 -5 5 172 255 104
5 -5 5 241 244 230
-6 -1 5 241 244 230
-5 -1 5 172 255 104
-4 -1 5 172 255 104
-3 -1 5 92 206 44
-2 -1 5 172 255 104
-1 -1 5 172 255 104
0 -1 5 172 255 104
1 -1 5 92 206 44
2 -1 5 172 255 104
3 -1 5 172 255 104
4 -1 5 172 255 104
5 -1 5 241 244 230
-6 0 5 241 244 230
-5 0 5 172 255 104
-4 0 5 92 206 44
-3 0 5 172 255 104
-2 0 5 172 255 104
-1 0 5 92 206 44
0 0 5 172 255 104
1 0 5 172 255 104
2 0 5 172 255 104
3 0 5 92 206 44
4 0 5 172 255 104
5 0 5 241 244 230
-6 4 5 241 244 230
-5 4 5 172 255 104
-4 4 5 92 206 44
-3 4 5 172 255 104
-2 4 5 172 255 104
-1 4 5 172 255 104
0 4 5 172 255 104
1 4 5 172 255 104
2 4 5 172 255 104
3 4 5 92 206 44
4 4 5 172 255 104
5 4 5 241 244 230
-6 5 5 241 244 230
-5 5 5 172 255 104
-4 5 5 92 206 44
-3 5 5 172 255 104
-2 5 5 172 255 104
-1 5 5 172 255 104
0 5 5 172 255 104
1 5 5 172 255 104
2 5 5 172 255 104
3 5 5 172 255 104
4 5 5 92 206 44
5 5 5 241 244 230
-6 -6 6 241 244 230
-5 -6 6 241 244 230
-4 -6 6 241 244 230
-3 -6 6 241 244 230
-2 -6 6 241 244 230
-1 -6 6 241 244 230
0 -6 6 241 244 230
1 -6 6 241 244 230
2 -6 6 241 244 230
3 -6 6 241 244 230
4 -6 6 241 244 230
5 -6 6 241 244 230
-6 -5 6 241 244 230
-5 -5 6 241 244 230
-4 -5 6 241 244 230
-3 -5 6 241 244 230
-2 -5 6 241 244 230
-1 -5 6 241 244 230
0 -5 6 241 244 230
1 -5 6 241 244 230
2 -5 6 241 244 230
3 -5 6 241 244 230
4 -5 6 241 244 230
5 -5 6 241 244 230
-6 -1 6 241 244 230
-5 -1 6 241 244 230
-4 -1 6 241 244 230
-3 -1 6 241 244 230
-2 -1 6 241 244 230
-1 -1 6 241 244 230
0 -1 6 241 244 230
1 -1 6 241 244 230
2 -1 6 241 244 230
3 -1 6 241 244 230
4 -1 6 241 244 230
5 -1 6 241 244 230
-6 0 6 241 244 230
-5 0 6 241 244 230
-4 0 6 241 244 230
-3 0 6 241 244 230
-2 0 6 241 244 230
-1 0 6 241 244 230
0 0 6 241 244 230
1 0 6 241 244 230
2 0 6 241 244 230
3 0 6 241 244 230
4 0 6 241 244 230
5 0 6 241 244 230
-6 4 6 241 244 230
-5 4 6 241 244 230
-4 4 6 241 244 230
-3 4 6 241 244 230
-2 4 6 241 244 230
-1 4 6 241 244 230
0 4 6 241 244 230
1 4 6 241 244 230
2 4 6 241 244 230
3 4 6 241 244 230
4 4 6 241 244 230
5 4 6 241 244 230
-6 5 6 241 244 230
-5 5 6 241 244 230
-4 5 6 241 244 230
-3 5 6 241 244 230
-2 5 6 241 244 230
-1 5 6 241 244 230
0 5 6 241 244 230
1 5 6 241 244 230
2 5 6 241 244 230
3 5 6 241 244 230
4 5 6 241 244 230
5 5 6 241 244 230
